<svg xmlns="http://www.w3.org/2000/svg" xmlns:xlink="http://www.w3.org/1999/xlink" viewBox="0 0 1672.84 647.89">
    <defs>
        <style>.cls-1,.cls-107,.cls-116,.cls-44,.cls-50,.cls-87,.cls-96{fill:none;}.cls-2{fill:#ccc;}.cls-3{clip-path:url(#clip-path);}.cls-4{fill:#87482f;}.cls-5{fill:#e3e3dc;}.cls-6{fill:#01040d;}.cls-7{fill:#4e647c;}.cls-8{fill:#2e5b99;}.cls-9{fill:#3f0006;}.cls-10{fill:#1f5e1d;}.cls-11{fill:#696eb2;}.cls-12{fill:#170070;}.cls-13{fill:#080506;}.cls-14{fill:#0d0a0d;}.cls-15{fill:#270e0c;}.cls-16{fill:#d79b73;}.cls-17{fill:#1b2133;}.cls-18{fill:#0f4e1d;}.cls-19{fill:#0d0a0c;}.cls-20{fill:#bd864f;}.cls-21{fill:#e09c78;}.cls-22{fill:#914908;}.cls-23{fill:#c9865c;}.cls-24{fill:#19355b;}.cls-25{fill:#eed09b;}.cls-26{fill:#6a6c69;}.cls-27{fill:#e5e4dd;}.cls-28{fill:#111829;}.cls-29{fill:#251209;}.cls-30{fill:#a0785d;}.cls-31{fill:#efca9a;}.cls-32{fill:#dd4907;}.cls-33{fill:#f1d2b2;}.cls-34{fill:#f0d3b3;}.cls-35{fill:#62ba54;}.cls-36{fill:#dd6002;}.cls-37{fill:#f5b184;}.cls-38{fill:#f7487d;}.cls-39{fill:#980000;}.cls-40{fill:#edceaf;}.cls-41{fill:#ecf44d;}.cls-42{fill:#eda982;}.cls-43{fill:#22003b;}.cls-44{stroke:#ccc;stroke-width:1.5px;}.cls-107,.cls-116,.cls-44,.cls-50,.cls-87,.cls-96{stroke-miterlimit:10;}.cls-45{fill:#50065a;}.cls-46{fill:#ea7a11;}.cls-47{fill:#c91184;}.cls-48{fill:#763c94;}.cls-49{clip-path:url(#clip-path-2);}.cls-50,.cls-87,.cls-96{stroke:#333;}.cls-50{stroke-width:1.19px;}.cls-51,.cls-52{font-size:22px;}.cls-102,.cls-51,.cls-52,.cls-97{fill:#333;}.cls-51{font-family:Wingdings-Regular, Wingdings;}.cls-52{font-family:Quicksand-Light, Quicksand;}.cls-53{letter-spacing:-0.15em;}.cls-54{letter-spacing:-0.02em;}.cls-55{letter-spacing:0em;}.cls-56{letter-spacing:0.05em;}.cls-57{letter-spacing:0em;}.cls-58{letter-spacing:-0.01em;}.cls-59{letter-spacing:-0.02em;}.cls-60{letter-spacing:0em;}.cls-61{letter-spacing:0em;}.cls-62{letter-spacing:-0.02em;}.cls-63{letter-spacing:-0.1em;}.cls-64{letter-spacing:-0.01em;}.cls-65{letter-spacing:-0.02em;}.cls-66{letter-spacing:-0.02em;}.cls-67{letter-spacing:0em;}.cls-68{letter-spacing:-0.01em;}.cls-69{letter-spacing:0.02em;}.cls-70{letter-spacing:0em;}.cls-71{clip-path:url(#clip-path-3);}.cls-72{letter-spacing:-0.12em;}.cls-73{letter-spacing:-0.01em;}.cls-74{letter-spacing:0em;}.cls-75{letter-spacing:-0.02em;}.cls-76{letter-spacing:-0.02em;}.cls-77{letter-spacing:-0.02em;}.cls-78{letter-spacing:-0.01em;}.cls-79{letter-spacing:-0.01em;}.cls-80{letter-spacing:-0.02em;}.cls-81{letter-spacing:-0.01em;}.cls-82{letter-spacing:0em;}.cls-83{letter-spacing:0em;}.cls-84{letter-spacing:-0.02em;}.cls-85{letter-spacing:0.04em;}.cls-86{clip-path:url(#clip-path-4);}.cls-87{stroke-width:0.86px;}.cls-88{letter-spacing:-0.01em;}.cls-89{letter-spacing:0.02em;}.cls-90{letter-spacing:0.01em;}.cls-91{letter-spacing:0em;}.cls-92{letter-spacing:0em;}.cls-93{letter-spacing:0em;}.cls-94{letter-spacing:0.02em;}.cls-95{clip-path:url(#clip-path-5);}.cls-96{stroke-width:0.77px;}.cls-97{font-size:30px;font-family:Quicksand-Bold, Quicksand;font-weight:700;}.cls-98{letter-spacing:0em;}.cls-99{letter-spacing:0em;}.cls-100{clip-path:url(#clip-path-6);}.cls-101{fill:#0a7d7b;}.cls-102{font-size:20px;font-family:Quicksand-Regular, Quicksand;}.cls-103{letter-spacing:0em;}.cls-104{letter-spacing:0em;}.cls-105{letter-spacing:0em;}.cls-106{clip-path:url(#clip-path-7);}.cls-107,.cls-116{stroke:#0a7d7b;}.cls-107{stroke-width:1.99px;}.cls-108{letter-spacing:0em;}.cls-109{letter-spacing:0em;}.cls-110{letter-spacing:-0.01em;}.cls-111{clip-path:url(#clip-path-8);}.cls-112{letter-spacing:-0.02em;}.cls-113{letter-spacing:-0.02em;}.cls-114{letter-spacing:0em;}.cls-115{clip-path:url(#clip-path-9);}.cls-116{stroke-width:2.03px;}.cls-117{clip-path:url(#clip-path-10);}.cls-118{letter-spacing:0em;}.cls-119{letter-spacing:-0.12em;}.cls-120{letter-spacing:0em;}</style>
        <clipPath id="clip-path" transform="translate(-4.22 -6.51)">
            <rect class="cls-1" x="576.92" y="267.91" width="474.66" height="263.08"/>
        </clipPath>
        <clipPath id="clip-path-2" transform="translate(-4.22 -6.51)">
            <rect class="cls-1" x="298.25" y="0.67" width="533.85" height="328.03"/>
        </clipPath>
        <clipPath id="clip-path-3" transform="translate(-4.22 -6.51)">
            <rect class="cls-1" x="768.25" width="533.85" height="328.03"/>
        </clipPath>
        <clipPath id="clip-path-4" transform="translate(-4.22 -6.51)">
            <rect class="cls-1" x="1241.02" y="21.15" width="388.9" height="238.96"/>
        </clipPath>
        <clipPath id="clip-path-5" transform="translate(-4.22 -6.51)">
            <rect class="cls-1" y="21.15" width="346.04" height="212.63"/>
        </clipPath>
        <clipPath id="clip-path-6" transform="translate(-4.22 -6.51)">
            <rect class="cls-1" x="360.56" y="595.92" width="39.52" height="39.5"/>
        </clipPath>
        <clipPath id="clip-path-7" transform="translate(-4.22 -6.51)">
            <rect class="cls-1" x="1051.12" y="595.92" width="43.14" height="39.53"/>
        </clipPath>
        <clipPath id="clip-path-8" transform="translate(-4.22 -6.51)">
            <rect class="cls-1" x="694.91" y="595.92" width="46.13" height="39.5"/>
        </clipPath>
        <clipPath id="clip-path-9" transform="translate(-4.22 -6.51)">
            <rect class="cls-1" x="36.48" y="595.99" width="40.61" height="39.47"/>
        </clipPath>
        <clipPath id="clip-path-10" transform="translate(-4.22 -6.51)">
            <rect class="cls-1" x="1436.12" y="595.92" width="26.17" height="39.5"/>
        </clipPath>
    </defs>
    <title>Element 3</title>
    <g id="Ebene_2" data-name="Ebene 2">
        <g id="Ebene_1-2" data-name="Ebene 1">
            <rect class="cls-2" x="0.84" y="533.89" width="1672" height="114"/>
            <g class="cls-3">
                <path class="cls-4"
                      d="M590.71,405l-1.22,8.43,10.07,2.32s.69-1.58.26-2a14.75,14.75,0,0,1-2.26-2.85,8.79,8.79,0,0,1-.27-3.05Z"
                      transform="translate(-4.22 -6.51)"/>
                <polygon class="cls-5"
                         points="1027.07 501.19 1029.18 501.19 1030.63 466.02 1025.57 466.02 1027.07 501.19"/>
                <rect class="cls-5" x="1027.07" y="468.99" width="2.11" height="40.27"/>
                <polygon class="cls-5"
                         points="1008.9 507.68 1027.09 504.71 1029.17 504.71 1047.33 507.68 1029.18 501.19 1027.07 501.18 1008.9 507.68"/>
                <path class="cls-6" d="M1030.51,515.8a1.84,1.84,0,1,0,1.84-1.84,1.84,1.84,0,0,0-1.84,1.84"
                      transform="translate(-4.22 -6.51)"/>
                <path class="cls-6" d="M1013.09,513.75a1.84,1.84,0,1,0,1.84-1.84,1.85,1.85,0,0,0-1.84,1.84"
                      transform="translate(-4.22 -6.51)"/>
                <path class="cls-6" d="M1047.91,513.75a1.84,1.84,0,1,0,1.84-1.84,1.84,1.84,0,0,0-1.84,1.84"
                      transform="translate(-4.22 -6.51)"/>
                <path class="cls-6"
                      d="M1005.74,474.38a2.47,2.47,0,0,0,2.57,2.37h38.39a2.38,2.38,0,1,0,0-4.75h-38.39a2.48,2.48,0,0,0-2.57,2.38"
                      transform="translate(-4.22 -6.51)"/>
                <path class="cls-6"
                      d="M1046.9,489c1.31,0,2.37-2.2,2.37-4.91V410.76c0-2.72-1.06-4.92-2.37-4.92s-2.38,2.2-2.38,4.92V484c0,2.71,1.07,4.91,2.38,4.91"
                      transform="translate(-4.22 -6.51)"/>
                <rect class="cls-7" x="1022.33" y="470.22" width="11.57" height="3.3"/>
                <polygon class="cls-5" points="592.99 501.76 590.88 501.77 589.42 466.6 594.49 466.6 592.99 501.76"/>
                <rect class="cls-5" x="590.88" y="469.57" width="2.11" height="40.27"/>
                <polygon class="cls-5"
                         points="611.15 508.26 592.97 505.29 590.88 505.29 572.73 508.26 590.88 501.77 592.99 501.76 611.15 508.26"/>
                <path class="cls-6" d="M598,516.38a1.84,1.84,0,1,1-1.84-1.84,1.84,1.84,0,0,1,1.84,1.84"
                      transform="translate(-4.22 -6.51)"/>
                <path class="cls-6" d="M615.41,514.33a1.84,1.84,0,1,1-1.84-1.84,1.83,1.83,0,0,1,1.84,1.84"
                      transform="translate(-4.22 -6.51)"/>
                <path class="cls-6" d="M580.6,514.33a1.84,1.84,0,1,1-1.84-1.84,1.84,1.84,0,0,1,1.84,1.84"
                      transform="translate(-4.22 -6.51)"/>
                <path class="cls-6"
                      d="M682.41,471.4c0,4.69-3.37,8.49-7.53,8.49H652.1c-4.16,0-7.53-3.8-7.53-8.49V426.07c0-4.69,3.37-8.5,7.53-8.5h22.78c4.16,0,7.53,3.81,7.53,8.5Z"
                      transform="translate(-4.22 -6.51)"/>
                <path class="cls-6"
                      d="M801.61,470.94c0,4.69-3.37,8.49-7.52,8.49H771.3c-4.15,0-7.52-3.8-7.52-8.49V425.61c0-4.69,3.37-8.5,7.52-8.5h22.79c4.15,0,7.52,3.81,7.52,8.5Z"
                      transform="translate(-4.22 -6.51)"/>
                <path class="cls-6"
                      d="M921.23,470.94c0,4.69-3.37,8.49-7.53,8.49H890.92c-4.16,0-7.53-3.8-7.53-8.49V425.61c0-4.69,3.37-8.5,7.53-8.5H913.7c4.16,0,7.53,3.81,7.53,8.5Z"
                      transform="translate(-4.22 -6.51)"/>
                <path class="cls-8"
                      d="M806.44,431.22a7.26,7.26,0,0,0-1.66-4.76,9.68,9.68,0,0,0-5.13-3.64c-1.85-.65-8-2.45-9.32-2.88a.78.78,0,0,0-.16,0c-.18,0-.28.13-.4.22a10.75,10.75,0,0,1-5.42,2.34,16.91,16.91,0,0,1-1.72.11,11.78,11.78,0,0,1-1.44-.11,9.81,9.81,0,0,1-5.42-2.34c-.37-.34-.51-.22-.56-.2-1.35.43-7.47,2.23-9.32,2.88a9.68,9.68,0,0,0-5.13,3.64,7.26,7.26,0,0,0-1.66,4.76c-.11,4.55,6.72,35.56,6.7,35.7h33.84c0-.14,6.91-31.15,6.8-35.7"
                      transform="translate(-4.22 -6.51)"/>
                <path class="cls-9"
                      d="M866.29,428.69a7.28,7.28,0,0,0-1.66-4.76,9.68,9.68,0,0,0-5.13-3.64c-1.85-.65-8-2.46-9.32-2.88a.78.78,0,0,0-.16,0c-.18,0-.28.13-.4.22A10.75,10.75,0,0,1,844.2,420a16.92,16.92,0,0,1-1.73.11A11.62,11.62,0,0,1,841,420a10.75,10.75,0,0,1-5.42-2.34c-.12-.09-.23-.23-.41-.22a.77.77,0,0,0-.15,0c-1.35.42-7.47,2.23-9.32,2.88a9.68,9.68,0,0,0-5.13,3.64,7.34,7.34,0,0,0-1.67,4.76c-.1,4.55,6.72,35.56,6.71,35.7h33.84c0-.14,6.91-31.15,6.8-35.7"
                      transform="translate(-4.22 -6.51)"/>
                <path class="cls-10"
                      d="M746.76,428.69a7.28,7.28,0,0,0-1.66-4.76,9.68,9.68,0,0,0-5.13-3.64c-1.85-.65-8-2.46-9.32-2.88a.78.78,0,0,0-.16,0c-.18,0-.28.13-.4.22a10.75,10.75,0,0,1-5.42,2.34,16.91,16.91,0,0,1-1.72.11,11.78,11.78,0,0,1-1.44-.11,10.75,10.75,0,0,1-5.42-2.34c-.12-.09-.22-.23-.41-.22a.77.77,0,0,0-.15,0c-1.35.42-7.47,2.23-9.32,2.88a9.68,9.68,0,0,0-5.13,3.64,7.28,7.28,0,0,0-1.66,4.76c-.11,4.55,6.72,35.56,6.7,35.7H740c0-.14,6.91-31.15,6.8-35.7"
                      transform="translate(-4.22 -6.51)"/>
                <path class="cls-6"
                      d="M625.28,475a2.56,2.56,0,0,1-2.72,2.37H582a2.4,2.4,0,1,1,0-4.75h40.61a2.57,2.57,0,0,1,2.72,2.38"
                      transform="translate(-4.22 -6.51)"/>
                <path class="cls-6"
                      d="M581.61,489.53c-1.32,0-2.38-2.2-2.38-4.91V411.33c0-2.71,1.06-4.91,2.38-4.91s2.37,2.2,2.37,4.91v73.29c0,2.71-1.06,4.91-2.37,4.91"
                      transform="translate(-4.22 -6.51)"/>
                <polygon class="cls-5" points="660.53 501.76 658.41 501.77 656.96 466.6 662.02 466.6 660.53 501.76"/>
                <rect class="cls-5" x="658.41" y="469.57" width="2.11" height="40.27"/>
                <polygon class="cls-5"
                         points="678.69 508.26 660.51 505.29 658.42 505.29 640.27 508.26 658.41 501.77 660.53 501.76 678.69 508.26"/>
                <path class="cls-6" d="M665.53,516.38a1.84,1.84,0,1,1-1.84-1.84,1.84,1.84,0,0,1,1.84,1.84"
                      transform="translate(-4.22 -6.51)"/>
                <path class="cls-6" d="M683,514.33a1.84,1.84,0,1,1-1.84-1.84,1.84,1.84,0,0,1,1.84,1.84"
                      transform="translate(-4.22 -6.51)"/>
                <path class="cls-6" d="M648.13,514.33a1.84,1.84,0,1,1-1.83-1.84,1.83,1.83,0,0,1,1.83,1.84"
                      transform="translate(-4.22 -6.51)"/>
                <polygon class="cls-5" points="779.31 501.82 777.2 501.83 775.75 466.66 780.81 466.66 779.31 501.82"/>
                <rect class="cls-5" x="777.2" y="469.62" width="2.11" height="40.27"/>
                <polygon class="cls-5"
                         points="797.48 508.31 779.29 505.35 777.21 505.35 759.05 508.31 777.2 501.83 779.31 501.82 797.48 508.31"/>
                <path class="cls-6" d="M784.31,516.44a1.84,1.84,0,1,1-1.84-1.84,1.83,1.83,0,0,1,1.84,1.84"
                      transform="translate(-4.22 -6.51)"/>
                <path class="cls-6" d="M801.73,514.38a1.84,1.84,0,1,1-1.83-1.84,1.83,1.83,0,0,1,1.83,1.84"
                      transform="translate(-4.22 -6.51)"/>
                <path class="cls-6" d="M766.92,514.38a1.84,1.84,0,1,1-1.84-1.84,1.84,1.84,0,0,1,1.84,1.84"
                      transform="translate(-4.22 -6.51)"/>
                <polygon class="cls-5" points="898.9 501.94 896.79 501.94 895.34 466.77 900.4 466.77 898.9 501.94"/>
                <rect class="cls-5" x="896.79" y="469.74" width="2.11" height="40.27"/>
                <polygon class="cls-5"
                         points="917.07 508.43 898.88 505.46 896.8 505.46 878.64 508.43 896.79 501.94 898.9 501.94 917.07 508.43"/>
                <path class="cls-6" d="M903.9,516.55a1.84,1.84,0,1,1-1.83-1.84,1.83,1.83,0,0,1,1.83,1.84"
                      transform="translate(-4.22 -6.51)"/>
                <path class="cls-6" d="M921.32,514.5a1.84,1.84,0,1,1-1.83-1.84,1.84,1.84,0,0,1,1.83,1.84"
                      transform="translate(-4.22 -6.51)"/>
                <path class="cls-6" d="M886.51,514.5a1.84,1.84,0,1,1-1.84-1.84,1.84,1.84,0,0,1,1.84,1.84"
                      transform="translate(-4.22 -6.51)"/>
                <rect class="cls-7" x="586.16" y="470.8" width="11.57" height="3.3"/>
                <path class="cls-6" d="M624,517.54a2.16,2.16,0,1,1-2.12-1.73,2,2,0,0,1,2.12,1.73"
                      transform="translate(-4.22 -6.51)"/>
                <polyline class="cls-4" points="625.2 506.19 627.85 476 618.99 475.8 620.16 506.19"/>
                <path class="cls-11"
                      d="M621.34,485.11h11.73s2-17.5,1.56-22.46c-.19-1.87-1.31-6.51-11.7-5.37-3,.32-15.82,1.53-19.14,1.5s-3.4-5.38-3.4-5.38h-16a55.77,55.77,0,0,1-.32,5.93c-.31,2.36-.73,4.93-.73,5.17,0,4.44.26,8.2,12.27,8.11h.18c1.82,0,18.69.1,24.81-.11,0,0,1.27-.1,1.11,1.37Z"
                      transform="translate(-4.22 -6.51)"/>
                <path class="cls-12"
                      d="M588.92,409.88s5.66,2.88,7.32,3.36a18.2,18.2,0,0,0,3,.54s1.5,2.38,2.29,3.73c.93,1.58,2.84,4.82,3.64,6.4s1.42,4.59.31,6.64a48,48,0,0,0-3.48,8.23,50.93,50.93,0,0,0-1.15,10.51c0,2.26,2.17,9.36,2.17,9.36l-19,.44s-.81-31.43-.08-40a13.27,13.27,0,0,1,2-6.21,25.56,25.56,0,0,1,3-3"
                      transform="translate(-4.22 -6.51)"/>
                <path class="cls-4"
                      d="M588.74,431.5l9.31-.06,6.31,11.33,11.77,13.35-2,3L599,447.44h0a2.6,2.6,0,0,1-.9-.56,4.47,4.47,0,0,1-.29-.35h0Z"
                      transform="translate(-4.22 -6.51)"/>
                <path class="cls-13"
                      d="M589.89,407.24c-.36-.14-.72-.28-1.07-.45s-.52-.26-.54-.61c0-.15-.15-.11-.23-.14a2.37,2.37,0,0,1-1.8-1.55c-.06-.19-.15-.23-.35-.19a2.42,2.42,0,0,1-2.71-1.53c-.08-.23-.14-.31-.4-.2a1,1,0,0,1-1-.14,3.45,3.45,0,0,1-1-1,1.62,1.62,0,0,1-.3-1.34.27.27,0,0,0-.16-.36,3.56,3.56,0,0,1-1.9-3.46,1.21,1.21,0,0,0-.47-1.4,2.84,2.84,0,0,1-.57-2.69,2.57,2.57,0,0,1,.34-.95.86.86,0,0,0,.12-.73,3.84,3.84,0,0,1,.69-3.38.24.24,0,0,0,0-.29,1.93,1.93,0,0,1,1.63-2.56l.1,0a1.83,1.83,0,0,1,.95-2.48l.2-.11a1.61,1.61,0,0,0,1.06-1.09,1.89,1.89,0,0,1,1.58-1.34,1.83,1.83,0,0,0,1.11-.64,2,2,0,0,1,.88-.62s2-1,3.13-.67a1.48,1.48,0,0,0,.85-.11,5.64,5.64,0,0,1,3.54,0,1.24,1.24,0,0,0,.91-.08,3,3,0,0,1,3.49.79.57.57,0,0,0,.62.29.69.69,0,0,1,.54.14,1,1,0,0,0,.9.19,2.61,2.61,0,0,1,2.49,1.8,1.65,1.65,0,0,0,1.08.86c1.21,0,.94,4,1.19,5,0,.13,2.92,2.55,3.17,2.76.8.66,1.69,2.11-.21,3.8a.35.35,0,0,0-.09.45,1.86,1.86,0,0,1-.43,2.17.65.65,0,0,0-.2.63,3.86,3.86,0,0,1-1.22,3.48,1.15,1.15,0,0,0-.33.56,4.09,4.09,0,0,1-1.06,1.79,2.15,2.15,0,0,1-1.46.69c-.24,0-.3.11-.34.33a1.88,1.88,0,0,1-1.81,1.61.27.27,0,0,0-.3.24,2.15,2.15,0,0,1-2.83,1.45c-.24-.08-.35-.09-.44.19a1.76,1.76,0,0,1-1.57,1.22c-.3-.16-.14-.45-.18-.69a7.71,7.71,0,0,1,0-1.27,25.22,25.22,0,0,0-5.49.06,8.3,8.3,0,0,1,0,1c0,.22.13.53-.25.62"
                      transform="translate(-4.22 -6.51)"/>
                <path class="cls-4"
                      d="M594.85,412.72l.75-3.75.36-.64s3.39,1,4.57,1.26c2.36.56,3.22.27,4.65-2.59a28.52,28.52,0,0,0,2.77-7.17c.78-2.94,1.08-3.67.9-6.89s-3.4-5.53-3.4-5.53a6.86,6.86,0,0,0-6.81-.47c-3.49,1.88-1.41,9.14-1.41,9.14s-.49-2-1.63-1.62-1.7,2.6-1.7,2.6-.81,2.86.44,4.65.75,1.3-1.79,1c-.71-.1-2.61-.06-2.68,1-.09,1.24-.71,6.37-.71,6.37Z"
                      transform="translate(-4.22 -6.51)"/>
                <path class="cls-13"
                      d="M597.29,396.36a9.79,9.79,0,0,1,1.44-5.08,5.7,5.7,0,0,1,5.19-1.71c2.41.54,1.12,1.53,4.22,1.17s-4.78-5.44-4.78-5.44l-3.48-.33-3.08,1-1.47,3.31Z"
                      transform="translate(-4.22 -6.51)"/>
                <path class="cls-14"
                      d="M637.24,514.18h0l0,0-.25-.11a10.87,10.87,0,0,0-3.05-.95,10.72,10.72,0,0,1-2.56-.46,3.8,3.8,0,0,1-1.1-.86h-6.72s-.67,5.89.19,6,2,0,2,0l13,0h.29a2,2,0,0,0,.32-1c0-1-.82-1.87-2.15-2.52"
                      transform="translate(-4.22 -6.51)"/>
                <path class="cls-12"
                      d="M591.58,395.45c.51-1,2.72-5.1,4.86-6.21a17,17,0,0,1,6.13-1.6,11,11,0,0,0,3.34-.95s-.56-1.29-.91-1.42c-.82-.3-2.12.65-3.42.73a15.16,15.16,0,0,0-4.35.63,8.65,8.65,0,0,0-4.94,3.59c-2.16,2.87-3,4.68-2.77,5.55s1.54.71,2.06-.32"
                      transform="translate(-4.22 -6.51)"/>
                <path class="cls-15"
                      d="M1017.4,393.54s2.4,0,3.26-.6,2.67-1.65,4-.86,3.21.78,3.29,2.11a28.19,28.19,0,0,0,.63,3.64s.35-1.49.44-1.93.16-2.2.16-2.2a7.85,7.85,0,0,0,0-1.77,7.29,7.29,0,0,0-.41-2.11c-.28-.4-.49-1.08-.77-1.21s-1-.83-1.27-.86-1.12-.69-1.8-.56a8.27,8.27,0,0,0-1.31.24,10,10,0,0,0-2.29.81,13.78,13.78,0,0,1-1.46,1.12,9.74,9.74,0,0,0-1.24,1.3c-.22.28-1.24,2.88-1.24,2.88"
                      transform="translate(-4.22 -6.51)"/>
                <path class="cls-14"
                      d="M992.31,514.28h0l.24-.11a10.75,10.75,0,0,1,3-1,10.33,10.33,0,0,0,2.57-.46,4.05,4.05,0,0,0,1.1-.85H1006s.68,5.89-.19,5.94-2,0-2,0l-13,0h-.3a2,2,0,0,1-.31-1c0-1,.82-1.86,2.15-2.52"
                      transform="translate(-4.22 -6.51)"/>
                <path class="cls-16"
                      d="M1030.38,413.34l.95-3.25s-.28,1.43-2.7,1.71a7.39,7.39,0,0,1-5.7-2.42,20.7,20.7,0,0,1-3.85-7.42c-.86-3.7-1.29-6.26-.57-9.12s4.7-4.27,4.7-4.27a4.31,4.31,0,0,1,4.7,0c2.57,1.56,1.43,9.26,1.43,9.26s.31-2.85,2.51-3.21c1.82-.29,2.49,1.78,2.58,2.66a14.58,14.58,0,0,1-1.14,6.49c-.44,1.14,4.64,2.49,4.64,2.49l.45,5Z"
                      transform="translate(-4.22 -6.51)"/>
                <path class="cls-17"
                      d="M1009.2,512.26l-8.44-.22s-6-38-6.45-43.53c-.16-1.82-.48-9.89,10.75-9.89,2.53,0,15.87-.11,19.19-.26,1-.05,1.92-5.19,1.92-5.19l17.45-.19s.59,3,.77,5.4.17,5.49.17,5.73c0,4.44-.15,8.16-12.16,8.08h0s-18.76-.11-25-.11c0,0-1.27-.1-1.11,1.37Z"
                      transform="translate(-4.22 -6.51)"/>
                <path class="cls-18"
                      d="M1038.5,409.58s-6.38,3.11-8.12,3.76c-1.56.58-4,1.53-4,1.53a10.64,10.64,0,0,0-2,2.22c-3.72,6.46-.87,19.68-.53,21.26a93.06,93.06,0,0,1,1.09,10.31c.24,3.4-.41,3.33-1,9.65h20.57V420.45s-.09-1.32-.14-1.86a11.65,11.65,0,0,0-5.88-9"
                      transform="translate(-4.22 -6.51)"/>
                <path class="cls-16"
                      d="M1039.9,431.5l-9.31-.06-6.31,11.33-11.76,13.35,2,3,15.15-11.65h0a2.48,2.48,0,0,0,.89-.56,3,3,0,0,0,.29-.35h0Z"
                      transform="translate(-4.22 -6.51)"/>
                <path class="cls-15"
                      d="M1033.26,406.34a8.76,8.76,0,0,0,2.83,1.08c.94,0,2.19-.42,3.87-1.88s2.75-5.62,3-7.65c.53-3.5.76-9.66-4.51-13.42-3.83-2.73-7-2.36-10-1.93a10.91,10.91,0,0,0-7.71,4.63,17.09,17.09,0,0,0-2.07,4.05c-.42,1.34-.87,3.15-.17,3.56a10.61,10.61,0,0,0,4,.41c.85-.11,4.51.52,5,1.67s2.92,6.59,3.34,6.69,2.3,2.79,2.3,2.79"
                      transform="translate(-4.22 -6.51)"/>
                <path class="cls-15"
                      d="M1020.69,406a1.28,1.28,0,0,1,.59-.92c.26-.14.93-.48,2.93,1.28s-1.29,3-1.29,3a7.31,7.31,0,0,0-.14-2.31c-.23-.43-1.9-1.93-2.09-1"
                      transform="translate(-4.22 -6.51)"/>
                <path class="cls-15"
                      d="M1028.86,395.26s.67.5,1.13,4a19,19,0,0,0,1,3.33,30.93,30.93,0,0,1,1,4.3,27.65,27.65,0,0,1-.08,3.85,4.6,4.6,0,0,1-1.09,2.17,12.16,12.16,0,0,1-2.14,2.11,4.76,4.76,0,0,1-2.33,1c-.9.17-3.25-.33-3.89-2a7,7,0,0,1,.52-4.61c.63-1.16.75-3.95,2.74-5.88a16.66,16.66,0,0,0,3.17-4.86c0-.49,0-3.38,0-3.38"
                      transform="translate(-4.22 -6.51)"/>
                <path class="cls-6" d="M1002.51,516.06a2.16,2.16,0,1,0,2.12-1.73,2,2,0,0,0-2.12,1.73"
                      transform="translate(-4.22 -6.51)"/>
                <path class="cls-19"
                      d="M958.87,524.19a6.88,6.88,0,0,0,.28-1.91c0-2.9-1.82-5.26-4.06-5.26s-4.05,2.36-4.05,5.26a6.53,6.53,0,0,0,.28,1.91Z"
                      transform="translate(-4.22 -6.51)"/>
                <path class="cls-19"
                      d="M973.26,524.19a6.53,6.53,0,0,0,.28-1.91c0-2.9-1.82-5.26-4-5.26s-4,2.36-4,5.26a6.89,6.89,0,0,0,.27,1.91Z"
                      transform="translate(-4.22 -6.51)"/>
                <rect class="cls-7" x="652.15" y="470.24" width="13.79" height="2.86"/>
                <rect class="cls-7" x="890.36" y="470.15" width="13.78" height="2.86"/>
                <rect class="cls-7" x="773.03" y="466.65" width="13.78" height="2.86"/>
                <polygon class="cls-20"
                         points="608.29 517.71 621.22 517.71 621.22 440.18 998.45 440.18 998.45 517.71 1011.38 517.71 1011.38 434.16 608.29 434.16 608.29 517.71"/>
                <path class="cls-21"
                      d="M770.06,401.58a2.82,2.82,0,0,1,.31-1.21,1.65,1.65,0,0,1,1.66-1,.64.64,0,0,1,.13.46,26.68,26.68,0,0,0,.65,4.55c.08.34.2.67.31,1l.06.15c.08.13.15.29.31.3s.25-.17.3-.31a3.73,3.73,0,0,0,.28-2.06,10.62,10.62,0,0,0-.34-1.26,11,11,0,0,1-.46-5.51,6.53,6.53,0,0,0,0-2.16,2.14,2.14,0,0,1,0-.44.86.86,0,0,1,.56-.8,10.09,10.09,0,0,1,2.11-.48,11.84,11.84,0,0,1,4.26.5c1.13.23,2.25.52,3.38.79a9.65,9.65,0,0,0,5.88-.53,16.23,16.23,0,0,0,2-1c.28-.16.36-.14.48.16a18.33,18.33,0,0,1,1.34,5,14.86,14.86,0,0,1-.51,5.63,5.35,5.35,0,0,0-.2,1.13,1.52,1.52,0,0,0,.75,1.39c.17.12.26.07.3-.15.19-1.07.35-2.14.46-3.22s.15-1.86.18-2.8a.27.27,0,0,1,.09-.25c.76.06,1.13.6,1.4,1.26a4.23,4.23,0,0,1,.2.87,6.07,6.07,0,0,1-2.06,5,1.41,1.41,0,0,1-.71.42.36.36,0,0,0-.3.35,19.21,19.21,0,0,1-.91,3.06,5.73,5.73,0,0,1-1.67,2.35c-.82.73-1.68,1.42-2.54,2.11a.47.47,0,0,1-.2.22,17.09,17.09,0,0,1-2.69,1.61,3.67,3.67,0,0,1-1.38.29,9.21,9.21,0,0,1-1.74-.06,3.36,3.36,0,0,1-.95-.33,15.64,15.64,0,0,1-2.38-1.43.73.73,0,0,1-.22-.24c-.7-.55-1.42-1.07-2.1-1.65a6.64,6.64,0,0,1-2.07-2.44,21.53,21.53,0,0,1-1.09-3.53c0-.13-.06-.24-.18-.29a2.87,2.87,0,0,1-1.45-1.26,7.53,7.53,0,0,1-1.24-2.8c0-.17,0-.33-.05-.49a4.71,4.71,0,0,1,0-.92"
                      transform="translate(-4.22 -6.51)"/>
                <path class="cls-22"
                      d="M794.39,399.45a39.23,39.23,0,0,1-.73,6.66,1.71,1.71,0,0,1-1.09-2.09c.17-.88.44-1.74.57-2.63a13.88,13.88,0,0,0-.38-6.08c-.25-.85-.52-1.7-.85-2.52-.08-.21-.14-.25-.35-.13a12.66,12.66,0,0,1-4,1.61,10,10,0,0,1-4.51-.19c-1.68-.42-3.35-.83-5-1.13a8.07,8.07,0,0,0-4.15.47.58.58,0,0,0-.39.44,1.1,1.1,0,0,0,0,.4,10.8,10.8,0,0,1-.12,3.21,10.62,10.62,0,0,0,.63,5,4.05,4.05,0,0,1,.08,2.85,2,2,0,0,1-.25.56.25.25,0,0,1-.43,0,2.1,2.1,0,0,1-.33-.69,20,20,0,0,1-.76-3.91c-.07-.63-.11-1.26-.17-1.89,0-.37,0-.74,0-1.12a.92.92,0,0,1,0-.37c0-.35.06-1.56.06-1.56,0-.16.06-.75.06-.76s0-.44.06-.54c.15-1.15.43-2.4.68-3.59a5.58,5.58,0,0,1,1.78-2.93,10.47,10.47,0,0,1,5.1-2.63c.54-.12,1.08-.19,1.62-.27.13-.05.28,0,.42,0h3.06c.14.07.28,0,.42,0a12.46,12.46,0,0,1,4.6,1.39,9.3,9.3,0,0,1,3.49,3.25,3.56,3.56,0,0,1,.36,1.31c.16.93.29,1.85.43,2.78a10.37,10.37,0,0,1,.12,1.25c.05.14.09,1.3.1,1.56,0,.76,0,1.53,0,2.29"
                      transform="translate(-4.22 -6.51)"/>
                <path class="cls-21"
                      d="M790.28,419.93a9.71,9.71,0,0,1-2.23,1.53,10.18,10.18,0,0,1-3.78,1.1,10.29,10.29,0,0,1-7.84-1.88c-.19-.14-.81-.59-1-.75l1.27-.31a1.78,1.78,0,0,0,1.34-1.66c.06-.48.09-1,.13-1.45a.17.17,0,0,1,.14.05,8.32,8.32,0,0,0,4,1.59,6.42,6.42,0,0,0,3.33-.57,11.6,11.6,0,0,0,1.75-.82.62.62,0,0,0,.35-.65.48.48,0,0,1,0-.33s0-.11,0-.09a11.72,11.72,0,0,0,.22,2.51,1.64,1.64,0,0,0,1.2,1.38l1,.35"
                      transform="translate(-4.22 -6.51)"/>
                <path class="cls-23"
                      d="M787.82,415.75a1.7,1.7,0,0,0,0,.22c0,.73-.13.75-.53.95a11.24,11.24,0,0,1-3.69,1.31,5.76,5.76,0,0,1-2.5-.24,11.22,11.22,0,0,1-2.21-.92,2.22,2.22,0,0,1-.7-.56l.06-1.55c.79.52,1.58,1.05,2.41,1.5a5.48,5.48,0,0,0,3.19.44,6.55,6.55,0,0,0,2.77-1.21c.41-.24.8-.53,1.19-.79l0,.25a2,2,0,0,1,0,.6"
                      transform="translate(-4.22 -6.51)"/>
                <path class="cls-24"
                      d="M794.06,397.73c-.71-.12-2.48-.3-2.66-.32a18,18,0,0,0-2.32-.08,8.62,8.62,0,0,0-3.29.62,1.74,1.74,0,0,0-1,.84c-.18.75-.63.75-1.18.71a6.41,6.41,0,0,0-1,0c-.23,0-.36-.06-.4-.3a1.71,1.71,0,0,0-1.15-1.22,6.43,6.43,0,0,0-2.2-.56,23.7,23.7,0,0,0-6.12.31l-.61.11c-.45.08-.49.23-.39.63.18.67.3,1.2.49,1.32a.69.69,0,0,1,.32.51c.07.39.14.78.19,1.18a4,4,0,0,0,2.55,3.46,6.41,6.41,0,0,0,3.15.42,4.13,4.13,0,0,0,4-4.23c.05-.8.11-.86.86-.87.18,0,.35,0,.52,0,.41,0,.54.2.57.68.15,2.67,1.24,3.84,3.26,4.28a6.74,6.74,0,0,0,3,0,4.18,4.18,0,0,0,3.43-4.06c0-.43,0-.92.38-1.26a1.54,1.54,0,0,0,.44-.88c.25-1.14.25-1.1-.85-1.28m-12.52,3.67a3.27,3.27,0,0,1-3.07,3.23,6.27,6.27,0,0,1-1.73,0c-1.86-.32-2.94-1.66-3.1-3.82-.12-1.61.53-2.22,2.06-2.43a14.88,14.88,0,0,1,4,.2,2.32,2.32,0,0,1,1.84,2.83m11.38.9a3.24,3.24,0,0,1-2.57,2.27,5.18,5.18,0,0,1-3.29-.35,3.63,3.63,0,0,1-1.33-4.81,1.72,1.72,0,0,1,1.06-.73,14.59,14.59,0,0,1,4.67-.29,1.84,1.84,0,0,1,1.81,2,6.26,6.26,0,0,1-.35,1.88"
                      transform="translate(-4.22 -6.51)"/>
                <path class="cls-9"
                      d="M838.92,431.27a.36.36,0,0,0,0-.11l.12-.25c2.28.13,4.57,0,6.85.06a1.27,1.27,0,0,1,.89.19v.11Z"
                      transform="translate(-4.22 -6.51)"/>
                <path class="cls-25"
                      d="M856.48,396.07a1.14,1.14,0,0,1,.84.08,1,1,0,0,1,.31.56,11.13,11.13,0,0,1,.11,1.26,8.8,8.8,0,0,1,0,1.45,3.31,3.31,0,0,1-.25,1c-.07.19-.09.29-.19.54a8.89,8.89,0,0,1-1.77,2.5,4.32,4.32,0,0,1-1,.73,2.08,2.08,0,0,0-.6,1.15,14.76,14.76,0,0,1-1,2.74,1.11,1.11,0,0,1-.39.52,20,20,0,0,1-3.93,3.47,1,1,0,0,0-.14.17c-.12.14-.1.23-.11.47a.82.82,0,0,0-.62.17c-.31.22-.66.4-1,.63a7.23,7.23,0,0,1-5.13,1.2,3.92,3.92,0,0,1-1.26-.38,20.78,20.78,0,0,1-2.67-1.54c-.1.24.15.63-.27.78a1.65,1.65,0,0,0-1-1.86,20,20,0,0,1-2.26-1.84,8.58,8.58,0,0,1-2.41-4.22s0-.07,0-.11a2.85,2.85,0,0,0-1.09-1.71,6.46,6.46,0,0,1-2.59-4.74c0-.49,0-.61,0-1.14a2.77,2.77,0,0,1,.94-1.91,1.35,1.35,0,0,1,1-.31c.25.07.31.3.39.5.56,1.32,2,3.79,2,3.76-.14-.25-.06-.54-.09-.81s0-.87,0-1.38a11.92,11.92,0,0,1,.07-1.21,20.61,20.61,0,0,1,1.35-5.14,18.19,18.19,0,0,1,2.33-3.15.9.9,0,0,1,.42-.35.16.16,0,0,1,.19.11,1.44,1.44,0,0,1-.21.79,12.81,12.81,0,0,0-.94,4.34c1.24-1,2.62-1.75,3.87-2.65a18.13,18.13,0,0,0,2.18-1.93,2,2,0,0,1,.67-.56.16.16,0,0,1,.17.14.61.61,0,0,1-.11.42,19.14,19.14,0,0,0-1.49,4.14,11.12,11.12,0,0,1-.45,1.24,39.17,39.17,0,0,0,8.7-5.26c.44-.37.51-.36.86.11s.81,1,1.25,1.53a11.45,11.45,0,0,1,2,3.49,34.22,34.22,0,0,1,1.61,5.61.31.31,0,0,0,.13.22,24.25,24.25,0,0,0,1.29-3.13c.07-.2.06-.45.33-.53"
                      transform="translate(-4.22 -6.51)"/>
                <path class="cls-26"
                      d="M832.38,399.47v1.07c-.72-1.07-1.45,2.72-1.76,1.39-.12-.51-1.61-8.5-1.78-9.4a6.8,6.8,0,0,1,.13-3c.13-.57.3-1.13.46-1.7a23,23,0,0,1,1.54-2.94,16.37,16.37,0,0,1,1.43-2,20.16,20.16,0,0,1,2.48-2.2,13,13,0,0,1,1.35-.8c.26-.11,1.52-.7,1.76-.78.47-.14.82-.28,1.38-.43.72-.16,1.44-.28,2.16-.38l.61-.09.47,0h2.48a8.08,8.08,0,0,1,1.95.34,8.7,8.7,0,0,1,3.28,1.69,6.7,6.7,0,0,1,1.38,2,.71.71,0,0,0,.4.43,4.84,4.84,0,0,1,2.16,1.71,12.26,12.26,0,0,1,1.65,2.73c.05.12.07.24.14.45a21.27,21.27,0,0,1,.73,2.17,6.54,6.54,0,0,1,.18.88c0,.31,0,.51,0,.6a22.76,22.76,0,0,1,0,2.31c0,.13-.06.7-.12,1l-.42,1.86a39.16,39.16,0,0,0-1.12,5.08c-.33-1.32-1.2-3.5-1.54-4.7a16.74,16.74,0,0,0-2.53-5.65,20.29,20.29,0,0,1-1.64-2.06c-.16-.26-.28,0-.39.06a39.28,39.28,0,0,1-9,5.45h-.13c.85-2,1.09-4.16,2.24-6,0-.07.06-.16,0-.2s-.09.07-.14.08a18.7,18.7,0,0,1-4.45,3.67,13.83,13.83,0,0,0-2.41,1.74,12.58,12.58,0,0,1,1.23-5.41c0-.13,0-.19-.12-.12-4,3.34-4.14,10.35-4.08,11.26"
                      transform="translate(-4.22 -6.51)"/>
                <path class="cls-25"
                      d="M842.24,419.23a35.13,35.13,0,0,1-3.73-1.32,4.63,4.63,0,0,1-1.56-1,8.32,8.32,0,0,0,.43-2.21c.18-.07.31,0,.44.14a11.15,11.15,0,0,0,4.71,1.54A6.49,6.49,0,0,0,845,416a15.15,15.15,0,0,0,2.73-1.14.81.81,0,0,1,.6-.14c.06,0,.16,1,.23,1.31a6.28,6.28,0,0,1,.28.9.55.55,0,0,1-.35.4,16.73,16.73,0,0,1-3.81,1.39,2.29,2.29,0,0,0-1.2.57,1.45,1.45,0,0,1-1.2-.07"
                      transform="translate(-4.22 -6.51)"/>
                <path class="cls-27"
                      d="M845.19,418.44a13.7,13.7,0,0,0,3.41-1.35c.06,0,.29-.24.57-.47a14.81,14.81,0,0,1,1.82,1.22c.06.05.24.27.07.41-1.16,1.74-2.32,3.47-3.47,5.21-.21.33-.32.41-.59.05-.41-.55-.87-1.08-1.3-1.62-.34,0-.46-.35-.63-.57a12.79,12.79,0,0,1-1.61-2.11,1.48,1.48,0,0,1,.7-.38c.36-.12.58-.25,1-.39"
                      transform="translate(-4.22 -6.51)"/>
                <path class="cls-25"
                      d="M848.31,414.83a5.23,5.23,0,0,0-1.55.68,12.53,12.53,0,0,1-3.73,1.06,6.28,6.28,0,0,1-2.22-.31,10.31,10.31,0,0,1-3.43-1.54v-1.11c.24-.3,0-.68.16-1a12,12,0,0,0,3.41,1.83,6.15,6.15,0,0,0,4.28-.26,18.85,18.85,0,0,0,2.6-1.53c.21-.15.36-.19.46.1,0,.71,0,1.32,0,2.1"
                      transform="translate(-4.22 -6.51)"/>
                <path class="cls-9"
                      d="M843.46,419.21c.82.83,1.49,1.79,2.23,2.68a7.69,7.69,0,0,1-1.1,2.13c-.11.13-.12.21,0,.32a4,4,0,0,1,.72,1.45c.57,1.91.9,3.46,1.46,5.37h-7.17c-.21,0-.5.13-.57-.24.6-2,.67-4,1.81-6.05.73-1.32.62-.34-.11-1.91-.1-.2-.17-.41-.26-.61.72-.89,1.18-1.77,1.89-2.66.06-.07,0-.55.33-.45l.78,0"
                      transform="translate(-4.22 -6.51)"/>
                <path class="cls-27"
                      d="M839.11,424c-.12.15-.22.28-.37,0-1.25-1.93-2.48-3.82-3.83-5.68-.26-.35-.22-.56.13-.76a5.69,5.69,0,0,0,1-.69c.34-.32.5-.23.87,0a8.63,8.63,0,0,0,1.59.84c1.21.52,2.47.91,3.72,1.31a4.11,4.11,0,0,1,.46.15,1,1,0,0,1-.22.39,24.39,24.39,0,0,1-1.93,2.69s-1,1.13-1.46,1.68"
                      transform="translate(-4.22 -6.51)"/>
                <path class="cls-25"
                      d="M831.38,403.33c0,6.34,5.44,10.46,11.77,10.46s11.16-4.12,11.16-10.46a11.47,11.47,0,0,0-22.93,0"
                      transform="translate(-4.22 -6.51)"/>
                <path class="cls-26"
                      d="M830.42,398.69c0,9.26,5,14.23,13.13,14.23,6.92,0,11.94-5,11.94-14.23s-5.61-16.76-12.53-16.76-12.54,7.5-12.54,16.76"
                      transform="translate(-4.22 -6.51)"/>
                <path class="cls-19"
                      d="M855.66,525.77A5.3,5.3,0,0,0,856,524a4.57,4.57,0,1,0-9.12,0,5.3,5.3,0,0,0,.31,1.79Z"
                      transform="translate(-4.22 -6.51)"/>
                <polygon class="cls-28"
                         points="851.65 513.45 855.17 478.05 845.46 478.05 845.46 481.35 841.2 481.35 842.86 513.45 851.65 513.45"/>
                <path class="cls-19"
                      d="M830.6,525.77a5.3,5.3,0,0,1-.31-1.79,4.57,4.57,0,1,1,9.12,0,5.3,5.3,0,0,1-.31,1.79Z"
                      transform="translate(-4.22 -6.51)"/>
                <polygon class="cls-28"
                         points="826.16 513.45 822.64 478.05 832.35 478.05 832.35 481.35 836.62 481.35 834.95 513.45 826.16 513.45"/>
                <path class="cls-16"
                      d="M917.13,424.2a2.44,2.44,0,0,0-1.75.81,18.11,18.11,0,0,1-4.15,2.66,20.59,20.59,0,0,1-5.9,1.36c-4.06.5-7.94-.35-11.79-1.48-1.18-.35-2.36-.73-3.54-1.09,0-.33.33-.35.54-.45a16.43,16.43,0,0,1,2.9-.88,9.59,9.59,0,0,0,3.07-1.35,8.54,8.54,0,0,0,3.12-3.86,6.66,6.66,0,0,0,.34-2.66c0-.26-.07-.54.15-.76s.32-.95,0-1.14a.34.34,0,0,1-.14,0,17.35,17.35,0,0,1-5.42-2.54,1.74,1.74,0,0,1-.32-.28s0-.1-.07-.12a7.43,7.43,0,0,1-2.59-4.51c-.09-.44-.22-.77-.74-.88a2,2,0,0,1-1-.75,5.67,5.67,0,0,1-1.56-3.18,2.5,2.5,0,0,1,.53-2,.85.85,0,0,1,.21.52c0,.12,0,.27.18.31s.27-.08.34-.2a6.77,6.77,0,0,0,1-2,1,1,0,0,0,0-.7c-.14-.65,0-.8.63-.63a43.09,43.09,0,0,0,6.55,1.11c.37,0,.74,0,1.1.06a1.42,1.42,0,0,0,.58,0h4.6a1.27,1.27,0,0,0,.58,0,42.05,42.05,0,0,0,7.31-1.19c.53-.13.64,0,.67.47a2.07,2.07,0,0,0,0,1,4.52,4.52,0,0,0,.62,1.77c.12.17.22.38.46.36s.26-.27.33-.46c.17-.47.24-.49.59-.19a4.1,4.1,0,0,1,.12,2.52,6.18,6.18,0,0,1-1.94,2.93,1,1,0,0,1-.44.26c-.59.08-.74.49-.82,1-.57,3.2-2.77,5-5.54,6.21a.77.77,0,0,0-.55.88c.07,1.31,0,2.63.22,3.93a1.69,1.69,0,0,0,1.28,1.53c2.64.81,5.28,1.64,7.92,2.47a6.06,6.06,0,0,1,2.42,1.17"
                      transform="translate(-4.22 -6.51)"/>
                <path class="cls-29"
                      d="M914.46,401.32c-.31-.2-.44-.14-.48.25,0,.21-.06.54-.4.56s-.42-.2-.57-.42a4.78,4.78,0,0,1-.65-1.83,3.29,3.29,0,0,1,0-.94c0-.53,0-.54-.48-.41a49.88,49.88,0,0,1-5.53,1.05c-.62.1-7.42.2-7.58.15a35.64,35.64,0,0,1-4.24-.44c-1.2-.18-2.38-.48-3.57-.74-.53-.12-.54-.11-.41.4a1.16,1.16,0,0,1,0,.18,1.83,1.83,0,0,1,0,.66,7.85,7.85,0,0,1-1,2.09c-.09.15-.22.31-.42.24s-.23-.23-.26-.41-.07-.39-.11-.59c-.11-.73-.37-1.43-.49-2.16a13.61,13.61,0,0,1,7.65-14.65l.47-.22a3.29,3.29,0,0,1,1.41-.64,13.65,13.65,0,0,1,7.68,0,2.28,2.28,0,0,1,.93.44,13.64,13.64,0,0,1,8,17.44"
                      transform="translate(-4.22 -6.51)"/>
                <path class="cls-29"
                      d="M906.42,383.88A14.6,14.6,0,0,0,902,383a14,14,0,0,0-5.63,1,6.14,6.14,0,0,1,10-.21"
                      transform="translate(-4.22 -6.51)"/>
                <path class="cls-30"
                      d="M900.09,416.56c0-.41-.13-.87-.17-1.28l.34,0a6.08,6.08,0,0,1,1,.18,3.2,3.2,0,0,0,2.18-.18,9.91,9.91,0,0,1,1.53-.66c.06,0,.13,0,.41-.09a1.73,1.73,0,0,0-.09.57c0,.4,0,.79,0,.79a6.7,6.7,0,0,1-.93.33,10.46,10.46,0,0,1-2.87.36,12.74,12.74,0,0,0-1.43-.06"
                      transform="translate(-4.22 -6.51)"/>
                <path class="cls-31"
                      d="M710.18,397.44a25.1,25.1,0,0,0,1.44,5.67c.07.17,0,.37.19.55,0,0,.08-.08,0,0s0,0-.05,0a2.44,2.44,0,0,1-.18-1.25,18,18,0,0,0,0-3.36,7.09,7.09,0,0,1,.22-2.05,33.61,33.61,0,0,1,1.18-4.59c.26-.77.27-.78,1.11-.76a1.65,1.65,0,0,1,1,.14.15.15,0,0,1,0,.17.36.36,0,0,1-.27,0c2.78-.08,5.56-.11,8.35,0a.71.71,0,0,1-.38,0,.13.13,0,0,1-.06-.16.63.63,0,0,1,.47-.16c.6,0,1.19-.1,1.79-.1,1.76,0,3.5-.18,5.26-.27a1.36,1.36,0,0,1,1.1.42,5.55,5.55,0,0,1,1.67,3.92c0,1.12,0,2.24-.07,3.36a19.41,19.41,0,0,0,.22,3.57,4.43,4.43,0,0,1,.08.88,34.92,34.92,0,0,0,.61-3.66,6.38,6.38,0,0,1,.21-1.5,2.07,2.07,0,0,1,.2-.52,2,2,0,0,1,2.24,2,4,4,0,0,1-.07,1.6,8.11,8.11,0,0,1-1.57,3.53.63.63,0,0,1-.45.3A4.11,4.11,0,0,1,733,406c-.4,1.08-.64,2.21-1.11,3.27a3.65,3.65,0,0,1-.93,1.42,22.59,22.59,0,0,1-3,2.69c-.15.11-.38.27-.7.47-2,1.56-4.11,2.75-6.8,2.17a7.67,7.67,0,0,1-2.24-1,5.39,5.39,0,0,1-1.51-1.05,37,37,0,0,1-3.59-2.9,4.71,4.71,0,0,1-1.13-1.77,16.42,16.42,0,0,1-.9-2.81c0-.19,0-.39-.29-.5a5.62,5.62,0,0,1-2.61-3.21A4.85,4.85,0,0,1,708,399c.52-1.22,2.14-1.73,2.16-1.56"
                      transform="translate(-4.22 -6.51)"/>
                <path class="cls-32"
                      d="M734.17,398.19a49.55,49.55,0,0,1-.4,6.27c-.1-.6-.76-1.44-.82-1.9s-.1-1-.14-1.45a40.17,40.17,0,0,1,0-4.25,8.59,8.59,0,0,0-.21-2.67,5.76,5.76,0,0,0-1.62-2.57.61.61,0,0,0-.5-.21c-2.58.23-5.17.3-7.77.4a4.31,4.31,0,0,1-1.56.09,42.41,42.41,0,0,0-4.51,0,4.38,4.38,0,0,1-1.57-.09c-.44,0-.89,0-1.33-.05-.21,0-.36,0-.44.24a30.35,30.35,0,0,0-1.57,7c0,1.15,0,2.31,0,3.46l.12,1.38c-.59-1-1.59-.56-1.79-2.26-.12-1.31-.12-3.4-.12-4.52,0-.49-.09-2.67,0-3.46a19.92,19.92,0,0,1,.89-5.37,6.21,6.21,0,0,1,2-2.61,8,8,0,0,1,2.74-1.67,9.89,9.89,0,0,1,2.91-1c.13,0,1.33-.16,1.8-.27a2.87,2.87,0,0,1,1.43-.34c.27-.25,0-.44-.1-.62s-1-.69-1.11-.93a2.88,2.88,0,0,0-1.54-.6s-1.85-.19-2.49-.3c-.27-.41,1.24-.93,1.71-1.14.23-.06.47-.09.71-.14a7.23,7.23,0,0,1,2.82,0,15.56,15.56,0,0,0,4.14.95,12.72,12.72,0,0,0,1.34.11,8.06,8.06,0,0,1,2.14.53l.4.25a7.51,7.51,0,0,1,.93.87,3,3,0,0,1,.63,1.14,4.23,4.23,0,0,1,.09,1.28,3.55,3.55,0,0,1-.17.64c-.09.3-.47.57-.12.93.14.16,1.39,1.42,1.57,1.55s.29.42.36.51l.27.41a2.21,2.21,0,0,1,.18.42,5.44,5.44,0,0,1,.22,1,1.31,1.31,0,0,1,0,.59c.08.38.15.75.23,1.13a10.3,10.3,0,0,1,.42,2.5c0,.29.06,1.27.06,1.47,0,.76-.12,3-.15,3.31"
                      transform="translate(-4.22 -6.51)"/>
                <path class="cls-31"
                      d="M729.67,418.5c-1.65,1-3,2.06-4.81,2.35a16.2,16.2,0,0,1-10.31-1.56L714,419a2.19,2.19,0,0,1,1-.58c.91-.32,1.31-1.26,1.45-2.46.1-.86.12-1.73.16-2.63.06-.06.08-.05.13,0a2.37,2.37,0,0,0,.47.79c1.9,1.6,3.92,2.5,6.15,1.78a10.28,10.28,0,0,0,3.32-1.86c.18-.14.34-.35.57-.28,0,.51.11.8.17,1.23s.17,1,.28,1.55a2.23,2.23,0,0,0,1.2,1.67c.37.19.24.08.7.29"
                      transform="translate(-4.22 -6.51)"/>
                <path class="cls-33"
                      d="M724.21,391.87h.88V392h-9.26a.28.28,0,0,1,0-.09h.76a14.07,14.07,0,0,1,2-.09c1.79,0,3.58,0,5.36,0a.42.42,0,0,1,.22.05"
                      transform="translate(-4.22 -6.51)"/>
                <path class="cls-34" d="M727.45,391.85h-1.2a2.33,2.33,0,0,1,1.2,0" transform="translate(-4.22 -6.51)"/>
                <path class="cls-35"
                      d="M729.29,421.72a13.8,13.8,0,0,1-3.55,1.1,22,22,0,0,1-4.92.48c-.16,0-1.9-.12-2.21-.18,0,0,1.69,0,1.7,0a.05.05,0,0,1,0,0,22.67,22.67,0,0,0,8.81-1.48c.08,0-.15.13-.06.12Z"
                      transform="translate(-4.22 -6.51)"/>
                <path class="cls-35" d="M720.35,423.09s0,.1,0,.13a18.63,18.63,0,0,1-9-2.57,21.48,21.48,0,0,0,9,2.44"
                      transform="translate(-4.22 -6.51)"/>
                <path class="cls-35" d="M729.06,421.66c.9-.45,1.85-.82,2.75-1.27a12.76,12.76,0,0,1-3.44,1.63Z"
                      transform="translate(-4.22 -6.51)"/>
                <path class="cls-36" d="M722.63,391.75h-4.48c.16-.15.36-.09.54-.1h3.41c.18,0,.37,0,.53.1"
                      transform="translate(-4.22 -6.51)"/>
                <path class="cls-25" d="M711.29,405.49a10.84,10.84,0,1,0,10.84-10.84,10.84,10.84,0,0,0-10.84,10.84"
                      transform="translate(-4.22 -6.51)"/>
                <path class="cls-32"
                      d="M710,401.16c0,8.45,5.4,15.3,12.06,15.3s12.06-6.85,12.06-15.3-5.4-15.29-12.06-15.29S710,392.71,710,401.16"
                      transform="translate(-4.22 -6.51)"/>
                <polygon class="cls-16" points="887.66 513.12 893.19 513.12 895.3 481.79 887.66 481.79 887.66 513.12"/>
                <polyline class="cls-16" points="907.43 513.12 908.44 481.79 900.39 481.79 902.39 513.12"/>
                <polygon class="cls-37" points="948.19 513.12 953.72 513.12 955.82 481.79 948.19 481.79 948.19 513.12"/>
                <polyline class="cls-37" points="967.96 513.12 968.96 481.79 960.92 481.79 962.92 513.12"/>
                <path class="cls-37"
                      d="M951.27,405.21c.21,0,.21-.16.19-.31-.09-.58-.19-1.17-.28-1.75a3.57,3.57,0,0,1,0-1.42,6.53,6.53,0,0,0,.07-1.59,1.28,1.28,0,0,1,0-.75,26.2,26.2,0,0,1,.56-2.91,6.11,6.11,0,0,1,3.2-4.07,7.57,7.57,0,0,0,2.23-1.87,11.25,11.25,0,0,0,3.7,5,9,9,0,0,0,5.88,1.9,15.67,15.67,0,0,1-1.31-3.06.14.14,0,0,1,.21,0c1.16,1.2,2.63,2.06,3.75,3.31a6.43,6.43,0,0,1,1.82,4,8.71,8.71,0,0,0,.69-2.95.58.58,0,0,1,.19-.37l-.07.27c0,.94,0,1.54,0,2.31a3.47,3.47,0,0,0,0,.72c0,1.4-.47,4.28-.48,4.47a6.67,6.67,0,0,1-1.63,3.56,12.39,12.39,0,0,1-3,2.29c-.47.25-1.3.64-1.46.7l-.1.11a14.41,14.41,0,0,1-3.77,1.2,2,2,0,0,1-1-.14,23.4,23.4,0,0,1-2.49-.82.84.84,0,0,0-.56-.06c0-.23-.13-.32-.33-.4a17.27,17.27,0,0,1-3-1.73,14,14,0,0,1-1.46-1.27,4.78,4.78,0,0,1-.91-1.3,6.25,6.25,0,0,1-.51-1.45c0-.11-.37-1.3-.38-1.43a.28.28,0,0,1,0-.13.11.11,0,0,1,.12,0"
                      transform="translate(-4.22 -6.51)"/>
                <path class="cls-38"
                      d="M941.93,430.16c0-.1,0-.19,0-.28s-.06-.32-.07-.47a28.58,28.58,0,0,1,1.43-4.46,8,8,0,0,1,1.13-1.56c.1-.11,1-.87,1.15-1a8.1,8.1,0,0,1,2.12-1.06c.73-.24,1.47-.42,2.19-.69a.5.5,0,0,1,.34,0c.7.8,1.39,1.62,2.16,2.37a18.8,18.8,0,0,0,9.23,5,1.38,1.38,0,0,0,.67,0,19.82,19.82,0,0,0,8.55-4.46,23.92,23.92,0,0,0,2.14-2.25,1.12,1.12,0,0,1,.57-.44,11.72,11.72,0,0,1,3.73,1.33.39.39,0,0,1,.22.25,9.5,9.5,0,0,1,2.42,2.59,10.45,10.45,0,0,1,1.41,4.41c0,.25.23.52,0,.78H941.93"
                      transform="translate(-4.22 -6.51)"/>
                <path class="cls-37"
                      d="M973.48,420.47a7,7,0,0,0-1,1.14,19.78,19.78,0,0,1-9.89,6.39,3.1,3.1,0,0,1-1.71,0,19.13,19.13,0,0,1-9.72-6.28,6.83,6.83,0,0,1-1-1.37c.09-.27.33-.3.54-.37,1.6-.54,3.21-1,4.8-1.54l.74-.25a1.47,1.47,0,0,0,1-1.16,16.33,16.33,0,0,0,.32-2.08,13.83,13.83,0,0,0,.12-1.69c.24-.13.49.12.72.19a11.3,11.3,0,0,0,6.21.06c.7-.18.71-.2.72-1a1.3,1.3,0,0,1,.14-.75h.1a32.64,32.64,0,0,0,.2,5,1.68,1.68,0,0,0,.68,1.24,11,11,0,0,1,1.85.56l4.67,1.54c.19.06.43.07.49.34"
                      transform="translate(-4.22 -6.51)"/>
                <path class="cls-37"
                      d="M951.27,405.21h-.11a3.22,3.22,0,0,1-2.08-1.49,7.94,7.94,0,0,1-1-2.46,3,3,0,0,1,.38-2.43,1.18,1.18,0,0,1,.57-.41.55.55,0,0,1,.42,0c.36,1.4.71,2.79,1.08,4.18.24.89.52,1.77.78,2.65"
                      transform="translate(-4.22 -6.51)"/>
                <path class="cls-37"
                      d="M972.56,405.09c.16-.36.34-.68.48-1a27.3,27.3,0,0,0,1.93-5.32c0-.19.09-.37.14-.56.13.07,0,.23.12.32a3.06,3.06,0,0,1,.44,3.26,6.23,6.23,0,0,1-2,2.83,4.35,4.35,0,0,1-1.09.46"
                      transform="translate(-4.22 -6.51)"/>
                <path class="cls-39"
                      d="M972.27,405.15c-.31.2-.33.58-.49.87-.32-.15-.15-.42-.11-.62a33.66,33.66,0,0,0,.46-3.88,19,19,0,0,0-.09-2.87,5.38,5.38,0,0,1-.43,2.79,5.32,5.32,0,0,1-.62.86,2.73,2.73,0,0,0,.14-.8c.11-2.15-1.42-3.74-3-5-.77-.64-1.58-1.23-2.3-2a10.27,10.27,0,0,0,.92,2.28c.3.55.23.69-.4.68a8.92,8.92,0,0,1-4.73-1.45,10.81,10.81,0,0,1-4.36-5.37,5.47,5.47,0,0,1-1.36,1.31,3.29,3.29,0,0,1-.77.5,5.84,5.84,0,0,0-3.08,3.83,9.41,9.41,0,0,0-.62,3.91c0,.33.35,2,.16,2.09-.19-.38-.33-.5-.34.15a12.77,12.77,0,0,1,.36,2.59c0,.15-1.59-.88-1.65-.36-.24-.11-.89-2.69-1-5,0-.28-.29-4.6-.3-4.82,0-.41.06-8.3,3.57-10.86a6.29,6.29,0,0,1,4.4-1,7,7,0,0,1,1.16.43c.39-1.21.23-1.47,2-2.77a5.87,5.87,0,0,1,3-.67,11.48,11.48,0,0,1,7.77,2.82,13.35,13.35,0,0,1,3.25,4.78,20,20,0,0,1,1.29,8.22c-.1.8-.06,1.88-.19,2.67a19.21,19.21,0,0,1-1.31,6.54c-.08.16-1.19-.08-1.33,0"
                      transform="translate(-4.22 -6.51)"/>
                <path class="cls-37" d="M950.3,402.81a11.47,11.47,0,1,0,11.47-11.47,11.47,11.47,0,0,0-11.47,11.47"
                      transform="translate(-4.22 -6.51)"/>
                <path class="cls-39"
                      d="M948.88,399c0,8.44,5.77,15.28,12.89,15.28s12.89-6.84,12.89-15.28-5.77-15.29-12.89-15.29-12.89,6.84-12.89,15.29"
                      transform="translate(-4.22 -6.51)"/>
                <polyline class="cls-40" points="668.83 512.29 669.83 480.96 661.78 480.96 663.78 512.29"/>
                <polyline class="cls-40" points="650.14 512.29 649.13 480.96 657.18 480.96 655.18 512.29"/>
                <path class="cls-41"
                      d="M659.81,417.19c-5.19-2.27-8-6.49-9-12.13a23.78,23.78,0,0,1,.61-9.49c1.1-4.95,5.91-8.63,9.59-9.07,2.92-.35,5.87-.46,8.6,1.07a17.73,17.73,0,0,1,5.26,3.87,9.65,9.65,0,0,1,2.48,6.84,3.27,3.27,0,0,1-.13,1,8.57,8.57,0,0,0-.34,3,18.17,18.17,0,0,1-3,9.78.34.34,0,0,0,0,.43,3.18,3.18,0,0,1-.55,3.9c-.22.24-.6.35-.61.77a.16.16,0,0,1-.19-.07,1,1,0,0,0-1.7.56,3.76,3.76,0,0,1-1,1.77,7.12,7.12,0,0,0-1.17,1.22c-.06.1-.16.19-.29.08a4.75,4.75,0,0,1-1.19-3.08c0-.72,0-1.44,0-2.16a5.68,5.68,0,0,1,0-1.09c.1-.27.36-.35.58-.47a17,17,0,0,0,3-2,5.74,5.74,0,0,0,1.82-2.92c.16-.56.33-1.12.45-1.69a.86.86,0,0,1,.53-.66,3.43,3.43,0,0,0,1.42-1.28,6,6,0,0,0,1-2.46,1.82,1.82,0,0,0,0-.77c-.36.27-.63.59-1,.85a7.11,7.11,0,0,1-1.35.85,1.63,1.63,0,0,1-.69.17c-.43,0-.61-.16-.66-.61a16.25,16.25,0,0,0-.32-1.85,4.33,4.33,0,0,0-3.43-3.42,7.59,7.59,0,0,0-2.32-.18,11.26,11.26,0,0,1-4.38-.63,24.08,24.08,0,0,1-3.18-1.35.67.67,0,0,0-.84.1,8.77,8.77,0,0,0-2.28,2.71,5.49,5.49,0,0,1-2.13,2.27,1.58,1.58,0,0,1-1.67.22c-.19-.1-.27,0-.32.19a2.71,2.71,0,0,0-.21,1.26,6.05,6.05,0,0,0,1.62,3.34,2.55,2.55,0,0,0,.89.6.82.82,0,0,1,.49.6c.09.4.23.79.32,1.19a6.89,6.89,0,0,0,3.14,4.42,20.89,20.89,0,0,0,1.89,1.08c.2.1.41.18.5.43a5.25,5.25,0,0,1,0,1.12,6.19,6.19,0,0,1-.1,1.36c0,.13,0,.28-.2.3"
                      transform="translate(-4.22 -6.51)"/>
                <path class="cls-40"
                      d="M659.81,417.19a5.87,5.87,0,0,0,.19-1.67c.16-.14.34-.06.5,0a10.73,10.73,0,0,0,6.2,0c.16-.06.33-.14.5,0,0,.75,0,1.5,0,2.25a5.21,5.21,0,0,0,1.17,3,.47.47,0,0,1,0,.31,2.46,2.46,0,0,0,0,1.9,7.8,7.8,0,0,0,.24,1.35,1.93,1.93,0,0,1-.59,1.86c-.09.09-.21.17-.3.27.12.13.72.05.8.22a3.33,3.33,0,0,1-.75.26,16.32,16.32,0,0,1-5.26.36,15.12,15.12,0,0,1-5.3-1.38,6.87,6.87,0,0,1-3.68-4,.72.72,0,0,1-.1-.3c1.68-.55,3.42-1.05,5.11-1.58a1.56,1.56,0,0,0,1.22-1.33,3.25,3.25,0,0,0,.07-1.52"
                      transform="translate(-4.22 -6.51)"/>
                <path class="cls-40"
                      d="M672.48,422.06l.45-.65,1.44.48a6.26,6.26,0,0,1-1.3,2.39,8.54,8.54,0,0,0-.59-2.22"
                      transform="translate(-4.22 -6.51)"/>
                <path class="cls-40"
                      d="M660,414.33a14.33,14.33,0,0,1-3.68-2.38,6.14,6.14,0,0,1-1.7-2.8c-.19-.64-.36-1.29-.52-1.94-.06-.21-.13-.35-.35-.4a1.56,1.56,0,0,1-.76-.45,5.24,5.24,0,0,1-1.82-4.37,2.14,2.14,0,0,1,.39-1c.59.6,1.19.35,1.79,0a5.2,5.2,0,0,0,2-2.1,9.29,9.29,0,0,1,2.51-3,.58.58,0,0,1,.73-.09,17.89,17.89,0,0,0,5.68,2,10.92,10.92,0,0,0,2,0,7.75,7.75,0,0,1,2.45.21,4.63,4.63,0,0,1,3.51,4.07,6.53,6.53,0,0,1,.17,1.31c0,.4.2.52.54.5a2.9,2.9,0,0,0,1.3-.53,8.45,8.45,0,0,0,1.76-1.53,2.65,2.65,0,0,1,0,1.53,6,6,0,0,1-1.63,2.84,1.14,1.14,0,0,1-.49.37c-.7.15-.79.72-.93,1.3a7.8,7.8,0,0,1-1.51,3.47,7.68,7.68,0,0,1-1.59,1.37,17.81,17.81,0,0,1-2.62,1.57,1,1,0,0,1-.47.31,22.45,22.45,0,0,1-2.51.85,2.35,2.35,0,0,1-1.34,0c-.82-.24-1.64-.49-2.43-.81a1.07,1.07,0,0,1-.47-.32"
                      transform="translate(-4.22 -6.51)"/>
                <path class="cls-42"
                      d="M660,414.33c.89.33,1.8.63,2.69.95a3.67,3.67,0,0,0,2.51-.21c.68-.22,1.34-.49,2-.74,0,.4,0,.79,0,1.19-.68.15-1.34.39-2,.48a11.07,11.07,0,0,1-4.82-.39c-.11,0-.23-.06-.34-.09,0-.4,0-.79,0-1.19"
                      transform="translate(-4.22 -6.51)"/>
                <polygon class="cls-43" points="943.75 475.44 972.37 475.49 969.69 492.83 946.07 492.83 943.75 475.44"/>
                <path class="cls-17"
                      d="M783.12,468.92c0,3.8-4,6.88-8.85,6.88-4.45,0-8.13-2.56-8.75-5.89a5.44,5.44,0,0,1-.09-1c0-3.8,4-6.88,8.84-6.88s8.85,3.08,8.85,6.88"
                      transform="translate(-4.22 -6.51)"/>
                <polygon class="cls-17" points="764.89 512.59 774.58 512.61 778.89 462.81 761.22 462.81 764.89 512.59"/>
                <path class="cls-17"
                      d="M800,468.92c0,3.8-4,6.88-8.84,6.88-4.45,0-8.14-2.56-8.76-5.89a5.44,5.44,0,0,1-.09-1c0-3.8,4-6.88,8.85-6.88s8.84,3.08,8.84,6.88"
                      transform="translate(-4.22 -6.51)"/>
                <polygon class="cls-17" points="781.78 512.59 791.47 512.61 795.78 462.83 778.11 462.83 781.78 512.59"/>
                <path class="cls-19"
                      d="M780.6,524.63a4.28,4.28,0,0,0,.39-1.78c0-2.73-2.55-4.93-5.69-4.93s-5.69,2.2-5.69,4.93a4.28,4.28,0,0,0,.39,1.78Z"
                      transform="translate(-4.22 -6.51)"/>
                <path class="cls-19"
                      d="M797.52,524.63a4.28,4.28,0,0,0,.39-1.78c0-2.73-2.55-4.93-5.69-4.93s-5.69,2.2-5.69,4.93a4.28,4.28,0,0,0,.39,1.78Z"
                      transform="translate(-4.22 -6.51)"/>
                <path class="cls-19"
                      d="M898.91,523.29a3.42,3.42,0,0,0,.31-1.42c0-2.18-2-4-4.56-4s-4.56,1.77-4.56,4a3.28,3.28,0,0,0,.32,1.42Z"
                      transform="translate(-4.22 -6.51)"/>
                <path class="cls-19"
                      d="M913.51,523.29a3.43,3.43,0,0,0,.32-1.42c0-2.18-2-4-4.56-4s-4.56,1.77-4.56,4a3.42,3.42,0,0,0,.31,1.42Z"
                      transform="translate(-4.22 -6.51)"/>
                <path class="cls-19"
                      d="M661,522.82a3.43,3.43,0,0,0,.31-1.43c0-2.18-2-3.95-4.56-3.95s-4.55,1.77-4.55,3.95a3.43,3.43,0,0,0,.31,1.43Z"
                      transform="translate(-4.22 -6.51)"/>
                <path class="cls-19"
                      d="M675,522.82a3.43,3.43,0,0,0,.31-1.43c0-2.18-2-3.95-4.56-3.95s-4.56,1.77-4.56,3.95a3.44,3.44,0,0,0,.32,1.43Z"
                      transform="translate(-4.22 -6.51)"/>
                <path class="cls-44" d="M804,270.16s.42,65.08-.62,77.08c-1.63,18.64-15.68,29.23-15.68,29.23"
                      transform="translate(-4.22 -6.51)"/>
                <polygon class="cls-45" points="670.6 450.45 647.71 450.61 647.73 440.17 670.6 440.17 670.6 450.45"/>
                <path class="cls-46"
                      d="M679.65,463.6v-.05h0a7.55,7.55,0,0,0-7.4-7.32l-17-.06a7.49,7.49,0,0,0-7.48,7.38h0v.11a7.59,7.59,0,0,0,.28,2l3.62,27h23.61l4-26.5a7.53,7.53,0,0,0,.39-2.39c0-.05,0-.1,0-.16"
                      transform="translate(-4.22 -6.51)"/>
                <path class="cls-16"
                      d="M887.62,423.5a7,7,0,0,0,.53,7l.27.41c-.48.11,2.38,9.77,2.38,9.77h-3.88c-3.65-12.38-2.39-16.42.7-17.17"
                      transform="translate(-4.22 -6.51)"/>
                <polygon class="cls-16" points="884.14 440.17 886.4 449.06 886.42 440.17 884.14 440.17"/>
                <polygon class="cls-47" points="909.29 450.45 886.4 450.61 886.42 440.17 909.29 440.17 909.29 450.45"/>
                <path class="cls-48"
                      d="M918.44,463.6v-.05h0a7.54,7.54,0,0,0-7.36-7.34l-17.09,0a7.48,7.48,0,0,0-7.48,7.38h0v0s0,.05,0,.08a7.6,7.6,0,0,0,.29,2l3.61,27H914l4-26.5a7.53,7.53,0,0,0,.4-2.39c0-.05,0-.1,0-.16"
                      transform="translate(-4.22 -6.51)"/>
                <path class="cls-44"
                      d="M962.34,375.68s-2.21-29.93-33.48-30.47-47.12-.24-57.42-.56c-11.21-.34-14.06-3.38-16-8.75-2-5.54-1.79-65-1.79-65"
                      transform="translate(-4.22 -6.51)"/>
                <path class="cls-44"
                      d="M1028.26,375.68s-3.21-43.43-48.58-44.21-68.35-.35-83.3-.8c-16.26-.5-20-2.9-22.91-11.71-2.63-8.12-2.9-47.93-2.9-47.93"
                      transform="translate(-4.22 -6.51)"/>
                <path class="cls-44" d="M821.74,270.53s-.42,64.21.63,76.21C824,365.38,838,376,838,376"
                      transform="translate(-4.22 -6.51)"/>
                <rect class="cls-39" x="944.47" y="387.86" width="26.49" height="21.56"/>
                <path class="cls-16"
                      d="M916.55,423.51a7,7,0,0,1-.53,7c-.08.14-.18.28-.27.42.48.11-2.38,9.77-2.38,9.77h3.88c3.65-12.38,2.39-16.42-.7-17.17"
                      transform="translate(-4.22 -6.51)"/>
                <polygon class="cls-16" points="911.59 440.18 909.32 449.07 909.31 440.18 911.59 440.18"/>
                <path class="cls-47"
                      d="M918,424.49c-.23-.69-.68-.89-1.24-1.21a8.67,8.67,0,0,0-2.89-.83c-.83-.14-1.1-.25-1.29.23a3.82,3.82,0,0,1-.78,1.19,11.41,11.41,0,0,1-5.2,2.92,18.25,18.25,0,0,1-10-.72,6.68,6.68,0,0,1-4.19-4.05c0-.13-.19-.6-.19-.6s-1.1,0-1.34.07a5.89,5.89,0,0,0-3.42,2.09,2.16,2.16,0,0,0-.4.75,7.43,7.43,0,0,0,.53,5.68,1.93,1.93,0,0,0,.81.88s-.23,1.31-.31,2.19A9.63,9.63,0,0,0,890,439.9l.67.78h22.88s2.74-1.85,2.92-7.23a9.9,9.9,0,0,0-.4-2.56,1.21,1.21,0,0,0,.45-.42,9,9,0,0,0,1.67-4.33,3.86,3.86,0,0,0-.16-1.65"
                      transform="translate(-4.22 -6.51)"/>
                <path class="cls-29"
                      d="M900.09,416.55a12.14,12.14,0,0,1-.13,2.7,7.81,7.81,0,0,1-2.51,3.95,10.33,10.33,0,0,1-4.94,2.3,7,7,0,0,0-2.51,1,3.33,3.33,0,0,0-1.79,3c0,.1.07.21-.11.2a7.68,7.68,0,0,1-2.19-4.3,2.68,2.68,0,0,0-.07-.27c-.26-.28-.17-.57,0-.87a8,8,0,0,1,3.73-6.67l1.8-1.23a6.42,6.42,0,0,0,2.88-3.79,6,6,0,0,1,1.27.79,21.07,21.07,0,0,0,4.24,1.86.6.6,0,0,1,.24.12,1.46,1.46,0,0,1,.13,1.22"
                      transform="translate(-4.22 -6.51)"/>
                <path class="cls-40"
                      d="M648.94,423.5a7,7,0,0,0,.52,7l.27.42c-.48.11,2.39,9.77,2.39,9.77h-3.88c-3.65-12.38-2.4-16.42.7-17.18"
                      transform="translate(-4.22 -6.51)"/>
                <polygon class="cls-40" points="645.45 440.18 647.72 449.07 647.73 440.18 645.45 440.18"/>
                <path class="cls-40"
                      d="M677.86,423.51a7,7,0,0,1-.52,7l-.27.41c.48.11-2.39,9.78-2.39,9.78h3.88c3.65-12.39,2.4-16.43-.7-17.18"
                      transform="translate(-4.22 -6.51)"/>
                <polygon class="cls-40" points="672.9 440.19 670.64 449.08 670.62 440.18 672.9 440.19"/>
                <path class="cls-45"
                      d="M679.31,424.49a3.36,3.36,0,0,0-1.25-1.58,9.21,9.21,0,0,0-2.62-1.27c-.78-.31-.88-.25-1,.22l0,0c-.19.14-.23.38-.33.57a4.8,4.8,0,0,1-.93,1.41,14.45,14.45,0,0,1-5.41,2.92,16.81,16.81,0,0,1-9.82-.72,6.9,6.9,0,0,1-4.19-4.05c-.05-.13-.19-.6-.19-.6s-1.1,0-1.34.07a5.94,5.94,0,0,0-3.43,2.09,2.14,2.14,0,0,0-.39.75,7.38,7.38,0,0,0,.53,5.68,1.91,1.91,0,0,0,.8.88s-.23,1.31-.31,2.19a9.68,9.68,0,0,0,1.92,6.82l.67.78h22.87s2.75-1.85,2.93-7.23a9.9,9.9,0,0,0-.4-2.56,1.21,1.21,0,0,0,.45-.42,9.1,9.1,0,0,0,1.67-4.33,4,4,0,0,0-.16-1.65"
                      transform="translate(-4.22 -6.51)"/>
                <path class="cls-41"
                      d="M668.24,423a2.44,2.44,0,0,1,.15-2.23,4.7,4.7,0,0,1,1-1.16,3.57,3.57,0,0,0,1.25-1.93,1.24,1.24,0,0,1,1-1,1,1,0,0,1,1,.52,4.26,4.26,0,0,1,.4,3.8l-.15.43a.85.85,0,0,1-.48.71,1.88,1.88,0,0,1-.72-.22,3.15,3.15,0,0,0-2,0,2,2,0,0,0-1.2.87c-.06.12-.09.31-.3.26"
                      transform="translate(-4.22 -6.51)"/>
                <path class="cls-41"
                      d="M672.48,422.06a2.28,2.28,0,0,1,.72,1.85c-.42,1.76-1.7,2.41-3.22,2.74a4.9,4.9,0,0,1-1.87,0,1.81,1.81,0,0,1-.69-.16,5.81,5.81,0,0,0,.46-.38,1.8,1.8,0,0,0,.57-1.93,4.59,4.59,0,0,1-.21-1.22c.71-1.55,2.62-1.66,3.92-1.06l.32.13"
                      transform="translate(-4.22 -6.51)"/>
                <polygon class="cls-5" points="839.98 514.65 837.86 514.66 836.41 479.49 841.47 479.49 839.98 514.65"/>
                <rect class="cls-5" x="837.86" y="482.46" width="2.11" height="40.27"/>
                <polygon class="cls-5"
                         points="858.14 521.14 839.96 518.18 837.87 518.18 819.72 521.14 837.86 514.66 839.98 514.65 858.14 521.14"/>
                <path class="cls-6" d="M845,529.27a1.84,1.84,0,1,1-1.84-1.84,1.84,1.84,0,0,1,1.84,1.84"
                      transform="translate(-4.22 -6.51)"/>
                <path class="cls-6" d="M862.4,527.21a1.84,1.84,0,1,1-1.84-1.83,1.84,1.84,0,0,1,1.84,1.83"
                      transform="translate(-4.22 -6.51)"/>
                <path class="cls-6" d="M827.59,527.21a1.84,1.84,0,1,1-1.84-1.83,1.84,1.84,0,0,1,1.84,1.83"
                      transform="translate(-4.22 -6.51)"/>
                <path class="cls-6"
                      d="M864.26,476.8c0,5.2-3.86,9.42-8.62,9.42H829.55c-4.76,0-8.61-4.22-8.61-9.42V426.53c0-5.2,3.85-9.42,8.61-9.42h26.09c4.76,0,8.62,4.22,8.62,9.42Z"
                      transform="translate(-4.22 -6.51)"/>
                <rect class="cls-7" x="830.83" y="479.71" width="15.9" height="3.3"/>
                <path class="cls-19"
                      d="M736.09,525.77a5.3,5.3,0,0,0,.31-1.79,4.57,4.57,0,1,0-9.12,0,5.56,5.56,0,0,0,.31,1.79Z"
                      transform="translate(-4.22 -6.51)"/>
                <polygon class="cls-28"
                         points="732.09 513.45 735.6 478.05 725.89 478.05 725.89 481.35 721.63 481.35 723.29 513.45 732.09 513.45"/>
                <path class="cls-19"
                      d="M711,525.77a5.3,5.3,0,0,1-.31-1.79,4.57,4.57,0,1,1,9.12,0,5.3,5.3,0,0,1-.31,1.79Z"
                      transform="translate(-4.22 -6.51)"/>
                <polygon class="cls-28"
                         points="706.59 513.45 703.07 478.05 712.78 478.05 712.78 481.35 717.05 481.35 715.38 513.45 706.59 513.45"/>
                <polygon class="cls-5" points="720.41 514.65 718.29 514.66 716.84 479.49 721.9 479.49 720.41 514.65"/>
                <rect class="cls-5" x="718.29" y="482.46" width="2.11" height="40.27"/>
                <polygon class="cls-5"
                         points="738.57 521.14 720.39 518.18 718.3 518.18 700.15 521.14 718.29 514.66 720.41 514.65 738.57 521.14"/>
                <path class="cls-6" d="M725.41,529.27a1.84,1.84,0,1,1-1.84-1.84,1.84,1.84,0,0,1,1.84,1.84"
                      transform="translate(-4.22 -6.51)"/>
                <path class="cls-6" d="M742.83,527.21a1.84,1.84,0,1,1-1.84-1.83,1.84,1.84,0,0,1,1.84,1.83"
                      transform="translate(-4.22 -6.51)"/>
                <path class="cls-6" d="M708,527.21a1.84,1.84,0,1,1-1.84-1.83,1.84,1.84,0,0,1,1.84,1.83"
                      transform="translate(-4.22 -6.51)"/>
                <path class="cls-6"
                      d="M744.69,476.8c0,5.2-3.86,9.42-8.62,9.42H710c-4.76,0-8.62-4.22-8.62-9.42V426.53c0-5.2,3.86-9.42,8.62-9.42h26.08c4.76,0,8.62,4.22,8.62,9.42Z"
                      transform="translate(-4.22 -6.51)"/>
                <rect class="cls-7" x="711.26" y="479.71" width="15.9" height="3.3"/>
                <polygon class="cls-5" points="959.38 514.65 957.26 514.66 955.81 479.49 960.87 479.49 959.38 514.65"/>
                <rect class="cls-5" x="957.26" y="482.46" width="2.11" height="40.27"/>
                <polygon class="cls-5"
                         points="977.54 521.14 959.36 518.18 957.27 518.18 939.12 521.14 957.26 514.66 959.38 514.65 977.54 521.14"/>
                <path class="cls-6" d="M964.38,529.27a1.84,1.84,0,1,1-1.84-1.84,1.84,1.84,0,0,1,1.84,1.84"
                      transform="translate(-4.22 -6.51)"/>
                <path class="cls-6" d="M981.8,527.22a1.84,1.84,0,1,1-1.84-1.84,1.84,1.84,0,0,1,1.84,1.84"
                      transform="translate(-4.22 -6.51)"/>
                <path class="cls-6" d="M947,527.22a1.84,1.84,0,1,1-1.84-1.84,1.83,1.83,0,0,1,1.84,1.84"
                      transform="translate(-4.22 -6.51)"/>
                <path class="cls-6"
                      d="M983.66,476.8c0,5.2-3.86,9.42-8.62,9.42H949c-4.76,0-8.62-4.22-8.62-9.42V426.54c0-5.21,3.86-9.42,8.62-9.42H975c4.76,0,8.62,4.21,8.62,9.42Z"
                      transform="translate(-4.22 -6.51)"/>
                <rect class="cls-7" x="950.23" y="479.71" width="15.9" height="3.3"/>
                <path class="cls-44"
                      d="M901.36,375.68s-1.31-17.62-19.71-17.94-21.94.06-28-.21c-8-.34-14-3.34-15.17-11.4-.48-3.43-1.1-75.6-1.1-75.6"
                      transform="translate(-4.22 -6.51)"/>
                <path class="cls-44"
                      d="M663.6,374.93s2.21-29.93,33.48-30.47,47.11-.24,57.42-.56c11.21-.34,14.06-3.38,16-8.75,2-5.54,1.79-64.62,1.79-64.62"
                      transform="translate(-4.22 -6.51)"/>
                <path class="cls-44"
                      d="M597.68,374.93s3.21-43.43,48.58-44.21,68.35-.35,83.29-.8c16.27-.5,20.06-2.9,22.91-11.71,2.63-8.12,2.91-47.93,2.91-47.93"
                      transform="translate(-4.22 -6.51)"/>
                <path class="cls-44"
                      d="M724.58,374.93s1.3-17.62,19.71-17.94,21.94.06,28-.21c8-.34,14-3.34,15.17-11.4.48-3.43,1.1-74.47,1.1-74.47"
                      transform="translate(-4.22 -6.51)"/>
            </g>
            <g class="cls-49">
                <path class="cls-2"
                      d="M749.94,167.76a117.2,117.2,0,0,0,5.1-34.09C755,64.14,694.11,7.77,619,7.77c-54.51,0-101.51,29.67-123.23,72.48a145.14,145.14,0,0,0-54.29-10.44c-75.16,0-136.08,56.36-136.08,125.89,0,68.21,58.66,123.72,131.85,125.79v.1H741.65c46,0,83.34-34.52,83.34-77.1,0-40-32.91-72.88-75-76.73"
                      transform="translate(-4.22 -6.51)"/>
                <path class="cls-50"
                      d="M749.94,167.76a117.2,117.2,0,0,0,5.1-34.09C755,64.14,694.11,7.77,619,7.77c-54.51,0-101.51,29.67-123.23,72.48a145.14,145.14,0,0,0-54.29-10.44c-75.16,0-136.08,56.36-136.08,125.89,0,68.21,58.66,123.72,131.85,125.79v.1H741.65c46,0,83.34-34.52,83.34-77.1C825,204.49,792.08,171.61,749.94,167.76Z"
                      transform="translate(-4.22 -6.51)"/>
            </g>
            <text class="cls-51" transform="translate(341.87 138.49)"></text>
            <text class="cls-52" transform="translate(361.87 138.49)">
                Management der Erwartungen
            </text>
            <text class="cls-52" transform="translate(361.87 163.48)">
                einzelner Fachabteilungen an den
            </text>
            <text class="cls-52" transform="translate(361.87 188.48)">
                Data Scientist
            </text>

            <text class="cls-51" transform="translate(341.87 223.48)"></text>
            <text class="cls-52" transform="translate(361.87 223.48)">
                Finden und Frdern von Talenten
            </text>
            <text class="cls-52" transform="translate(361.87 248.47)">
                mit passenden Fhigkeiten und
            </text>
            <text class="cls-52" transform="translate(361.87 273.46)">
                Persnlichkeitseigenschaften
            </text>
            <g class="cls-71">
                <path class="cls-2"
                      d="M1219.94,167.1A117.27,117.27,0,0,0,1225,133C1225,63.47,1164.12,7.11,1089,7.11c-54.51,0-101.51,29.66-123.23,72.48a145,145,0,0,0-54.29-10.45c-75.16,0-136.08,56.36-136.08,125.89,0,68.22,58.66,123.72,131.85,125.79v.1h304.44c46,0,83.34-34.52,83.34-77.1,0-40-32.91-72.87-75-76.72"
                      transform="translate(-4.22 -6.51)"/>
                <path class="cls-50"
                      d="M1219.94,167.1A117.27,117.27,0,0,0,1225,133C1225,63.47,1164.12,7.11,1089,7.11c-54.51,0-101.51,29.66-123.23,72.48a145,145,0,0,0-54.29-10.45c-75.16,0-136.08,56.36-136.08,125.89,0,68.22,58.66,123.72,131.85,125.79v.1h304.44c46,0,83.34-34.52,83.34-77.1C1295,203.82,1262.08,171,1219.94,167.1Z"
                      transform="translate(-4.22 -6.51)"/>
            </g>
            <text class="cls-51" transform="translate(805.03 132.99)"></text>
            <text class="cls-52" transform="translate(825.03 132.99)">
                Aufbau von Teams aus Mitarbeitern
            </text>
            <text class="cls-52" transform="translate(825.03 157.98)">
                mit Fhigkeiten und Erfahrungen,
            </text>
            <text class="cls-52" transform="translate(825.03 182.97)">
                die sich ergnzen
            </text>

            <text class="cls-51" transform="translate(805.03 217.98)"></text>
            <text class="cls-52" transform="translate(825.03 217.98)">
                Frdern von gegenseitiger
            </text>
            <text class="cls-52" transform="translate(825.03 242.97)">
                Untersttzung, Lernen und
            </text>
            <text class="cls-52" transform="translate(825.03 267.96)">
                Weiterentwicklung
            </text>
            <g class="cls-86">
                <path class="cls-2"
                      d="M1570.07,142.88a85.34,85.34,0,0,0,3.71-24.84c0-50.65-44.38-91.71-99.13-91.71-39.71,0-73.94,21.61-89.77,52.8a105.55,105.55,0,0,0-39.55-7.61c-54.75,0-99.13,41.06-99.13,91.71,0,49.69,42.73,90.12,96,91.63v.08H1564c33.53,0,60.71-25.15,60.71-56.17,0-29.14-24-53.09-54.67-55.89"
                      transform="translate(-4.22 -6.51)"/>
                <path class="cls-87"
                      d="M1570.07,142.88a85.34,85.34,0,0,0,3.71-24.84c0-50.65-44.38-91.71-99.13-91.71-39.71,0-73.94,21.61-89.77,52.8a105.55,105.55,0,0,0-39.55-7.61c-54.75,0-99.13,41.06-99.13,91.71,0,49.69,42.73,90.12,96,91.63v.08H1564c33.53,0,60.71-25.15,60.71-56.17C1624.74,169.63,1600.77,145.68,1570.07,142.88Z"
                      transform="translate(-4.22 -6.51)"/>
            </g>
            <text class="cls-51" transform="translate(1269.6 140.98)"></text>
            <text class="cls-52" transform="translate(1292.83 140.98)">
                Ausrichten von Aus- und
            </text>
            <text class="cls-52" transform="translate(1292.83 165.97)">
                Weiterbildungsangeboten
            </text>
            <text class="cls-52" transform="translate(1292.83 190.96)">
                an Geschftsanforderungen
            </text>
            <g class="cls-95">
                <path class="cls-2"
                      d="M292.79,129.46a76.07,76.07,0,0,0,3.3-22.1c0-45.07-39.49-81.6-88.21-81.6-35.33,0-65.79,19.22-79.87,47A94,94,0,0,0,92.81,66c-48.71,0-88.2,36.53-88.2,81.6,0,44.22,38,80.19,85.46,81.54v.06H287.41c29.84,0,54-22.38,54-50,0-25.92-21.33-47.23-48.64-49.73"
                      transform="translate(-4.22 -6.51)"/>
                <path class="cls-96"
                      d="M292.79,129.46a76.07,76.07,0,0,0,3.3-22.1c0-45.07-39.49-81.6-88.21-81.6-35.33,0-65.79,19.22-79.87,47A94,94,0,0,0,92.81,66c-48.71,0-88.2,36.53-88.2,81.6,0,44.22,38,80.19,85.46,81.54v.06H287.41c29.84,0,54-22.38,54-50C341.43,153.27,320.1,132,292.79,129.46Z"
                      transform="translate(-4.22 -6.51)"/>
            </g>
            <text class="cls-97" transform="translate(31.25 139.06)">Ansprche an</text>
            <text class="cls-97" transform="translate(31.25 175.06)">das Unternehmen:</text>
            <g class="cls-100">
                <path class="cls-101"
                      d="M397,615.91c1-.3,2-.62,3.1-.85-.06-.81-.1-1.5-.16-2.27l-3.26-.3c-.2-.75-.35-1.4-.49-2.11.91-.62,1.79-1.21,2.64-1.82-.35-.75-.59-1.4-.91-2-1.14.25-2.15.49-3.16.75-.45-.66-.8-1.27-1.2-1.82.69-.91,1.3-1.66,2-2.57-.56-.55-1.05-1-1.6-1.66-.91.62-1.8,1.17-2.65,1.72l-1.7-1.3c.36-1,.65-2,.95-3-.69-.36-1.3-.72-2-1.05-.65.85-1.3,1.66-1.89,2.47-.81-.26-1.4-.5-2.15-.75v-3.06l-2.26-.3c-.35,1-.69,1.92-1,2.82H379c-.35-.94-.69-1.85-1-2.82-.85.2-1.5.3-2.31.45v3c-.75.25-1.35.49-2,.71-.65-.81-1.3-1.56-1.89-2.37-.75.45-1.35.81-2.06,1.16.36,1,.66,2,.95,2.93-.59.45-1.14.9-1.66,1.3-.91-.55-1.7-1-2.55-1.6-.55.65-1,1.2-1.56,1.76.66.85,1.21,1.6,1.8,2.41-.39.61-.81,1.2-1.14,1.75-1-.19-2-.45-2.91-.65-.35.81-.59,1.46-.91,2.16.91.61,1.66,1.1,2.51,1.65-.2.72-.35,1.37-.49,2.06-1,.1-2,.2-3,.35-.06.75-.1,1.5-.16,2.31,1.05.3,1.95.5,2.9.81.1.71.16,1.37.2,2-1,.45-1.86.91-2.75,1.36l.56,2.27,3.1-.25c.29.71.55,1.26.85,1.91-.81.71-1.56,1.4-2.31,2.15.49.71.9,1.31,1.3,1.92,1-.4,2-.81,2.9-1.21.5.56.95,1,1.41,1.5-.5,1-1,1.86-1.51,2.81.66.49,1.25,1,1.9,1.4l2.31-2.15c.65.35,1.21.65,1.8,1-.16,1.1-.3,2.15-.46,3.26l2.22.75c.55-1.05,1-2,1.5-2.87l2,.3c.2,1,.4,2.11.59,3.16h2.35c.2-1.11.36-2.11.56-3.16.69-.16,1.34-.26,2-.36.55,1,1.05,2,1.6,2.93.81-.26,1.5-.56,2.15-.75-.15-1.21-.35-2.28-.49-3.32l1.8-1c.85.81,1.66,1.5,2.51,2.25.65-.49,1.2-1,1.79-1.46-.59-1.05-1.1-2-1.6-2.92.56-.56,1-1,1.46-1.5,1.05.45,2,.84,3.07,1.26.45-.65.81-1.26,1.2-1.86-.85-.85-1.66-1.6-2.41-2.31.3-.71.55-1.3.85-1.91,1.11.1,2.15.15,3.3.25.2-.81.35-1.46.55-2.21-1.05-.49-2.05-.91-3.06-1.36.14-.83.2-1.48.3-2.13m-16.69,12a12.27,12.27,0,1,1,12.26-12.27,12.27,12.27,0,0,1-12.26,12.27"
                      transform="translate(-4.22 -6.51)"/>
            </g>
            <text class="cls-102" transform="translate(410.21 628.9)">
                technische Begabung
            </text>
            <g class="cls-106">
                <polyline class="cls-107"
                          points="1048.1 604.29 1062.2 604.29 1064.91 621.31 1069.61 590.61 1088.83 590.61 1088.83 596.35"/>
                <line class="cls-107" x1="1088.1" y1="627.74" x2="1072.68" y2="603.87"/>
                <line class="cls-107" x1="1072.48" y1="627.74" x2="1087.9" y2="603.87"/>
            </g>
            <text class="cls-102" transform="translate(1105.82 629.3)">
                mathematische Begabung
            </text>
            <g class="cls-111">
                <path class="cls-101"
                      d="M718,595.92c-12.74,0-23.06,7.94-23.06,17.74,0,4.81,2.48,9.18,6.52,12.37-.23,3.26-1,7.24-3.29,9.39,4.52,0,9.14-2.83,12.06-5a29.22,29.22,0,0,0,7.77,1c12.74,0,23.07-7.94,23.07-17.75S730.71,595.92,718,595.92"
                      transform="translate(-4.22 -6.51)"/>
            </g>
            <text class="cls-102" transform="translate(752.52 629.2)">
                Kommunikationsstrke
            </text>
            <text class="cls-102" transform="translate(87.6 628.9)">
                Geschftverstndnis
            </text>
            <g class="cls-115">
                <polyline class="cls-116" points="33.49 627.71 45.69 608.38 56.29 615.1 71.53 591.26"/>
            </g>
            <polygon class="cls-101" points="72.86 589.47 66.53 592.86 72.29 596.69 72.86 589.47"/>
            <g class="cls-117">
                <path class="cls-101"
                      d="M1454.83,629.05a1.85,1.85,0,0,1-1.87,1.8h-7.41a1.8,1.8,0,1,1,0-3.59H1453a1.85,1.85,0,0,1,1.87,1.79"
                      transform="translate(-4.22 -6.51)"/>
                <path class="cls-101"
                      d="M1453.56,633.63a1.67,1.67,0,0,1-1.48,1.79h-5.82a1.83,1.83,0,0,1,0-3.59h5.82a1.68,1.68,0,0,1,1.48,1.8"
                      transform="translate(-4.22 -6.51)"/>
                <path class="cls-101"
                      d="M1462.09,608.91a13,13,0,1,0-25.68,2.74.4.4,0,0,0,0,.15,12.9,12.9,0,0,0,3.57,6.38,23.12,23.12,0,0,1,1.56,3.54c.7,2.44,2.35,4.55,5.26,4.55h4.63c2.9,0,4.65-2.1,5.31-4.55a23.33,23.33,0,0,1,1.3-3.42,12.52,12.52,0,0,0,4-9.39"
                      transform="translate(-4.22 -6.51)"/>
            </g>
            <text class="cls-102" transform="translate(1471.78 628.9)">
                kreative Begabung
            </text>
            <text class="cls-97" transform="translate(30.84 573.15)">Ansprche an das Team</text>
        </g>
    </g>
</svg>