<svg xmlns="http://www.w3.org/2000/svg" xmlns:xlink="http://www.w3.org/1999/xlink" viewBox="0 0 1808.87 700.97"><defs><style>.cls-1,.cls-106,.cls-121,.cls-43,.cls-50,.cls-87,.cls-95{fill:none;}.cls-2{clip-path:url(#clip-path);}.cls-3{fill:#87482f;}.cls-4{fill:#e3e3dc;}.cls-5{fill:#01040d;}.cls-6{fill:#4e647c;}.cls-7{fill:#2e5b99;}.cls-8{fill:#3f0006;}.cls-9{fill:#1f5e1d;}.cls-10{fill:#696eb2;}.cls-11{fill:#170070;}.cls-12{fill:#080506;}.cls-13{fill:#0d0a0d;}.cls-14{fill:#270e0c;}.cls-15{fill:#d79b73;}.cls-16{fill:#1b2133;}.cls-17{fill:#0f4e1d;}.cls-18{fill:#0d0a0c;}.cls-19{fill:#bd864f;}.cls-20{fill:#e09c78;}.cls-21{fill:#914908;}.cls-22{fill:#c9865c;}.cls-23{fill:#19355b;}.cls-24{fill:#eed09b;}.cls-25{fill:#6a6c69;}.cls-26{fill:#e5e4dd;}.cls-27{fill:#111829;}.cls-28{fill:#251209;}.cls-29{fill:#a0785d;}.cls-30{fill:#efca9a;}.cls-31{fill:#dd4907;}.cls-32{fill:#f1d2b2;}.cls-33{fill:#f0d3b3;}.cls-34{fill:#62ba54;}.cls-35{fill:#dd6002;}.cls-36{fill:#f5b184;}.cls-37{fill:#f7487d;}.cls-38{fill:#980000;}.cls-39{fill:#edceaf;}.cls-40{fill:#ecf44d;}.cls-41{fill:#eda982;}.cls-42{fill:#22003b;}.cls-43{stroke:#ccc;stroke-width:1.74px;}.cls-106,.cls-121,.cls-43,.cls-50,.cls-87,.cls-95{stroke-miterlimit:10;}.cls-44{fill:#50065a;}.cls-45{fill:#ea7a11;}.cls-46{fill:#c91184;}.cls-47{fill:#763c94;}.cls-48{clip-path:url(#clip-path-2);}.cls-49{fill:#ccc;}.cls-50,.cls-87,.cls-95{stroke:#333;}.cls-50{stroke-width:1.19px;}.cls-51,.cls-52{font-size:24.39px;}.cls-51,.cls-52,.cls-96{fill:#333;}.cls-51{font-family:Wingdings-Regular, Wingdings;}.cls-52{font-family:Quicksand-Light, Quicksand;}.cls-53{letter-spacing:-0.15em;}.cls-54{letter-spacing:-0.02em;}.cls-55{letter-spacing:0.05em;}.cls-56{letter-spacing:0em;}.cls-57{letter-spacing:0em;}.cls-58{letter-spacing:-0.01em;}.cls-59{letter-spacing:-0.02em;}.cls-60{letter-spacing:0em;}.cls-61{letter-spacing:0em;}.cls-62{letter-spacing:-0.02em;}.cls-63{letter-spacing:-0.02em;}.cls-64{letter-spacing:0em;}.cls-65{letter-spacing:-0.1em;}.cls-66{letter-spacing:-0.02em;}.cls-67{letter-spacing:-0.01em;}.cls-68{letter-spacing:-0.02em;}.cls-69{letter-spacing:0.02em;}.cls-70{letter-spacing:0em;}.cls-71{letter-spacing:0em;}.cls-72{clip-path:url(#clip-path-3);}.cls-73{letter-spacing:-0.01em;}.cls-74{letter-spacing:-0.12em;}.cls-75{letter-spacing:0em;}.cls-76{letter-spacing:-0.02em;}.cls-77{letter-spacing:-0.02em;}.cls-78{letter-spacing:-0.01em;}.cls-79{letter-spacing:-0.02em;}.cls-80{letter-spacing:0em;}.cls-81{letter-spacing:-0.01em;}.cls-82{letter-spacing:0em;}.cls-83{letter-spacing:-0.02em;}.cls-84{letter-spacing:0.04em;}.cls-85{letter-spacing:-0.01em;}.cls-86{clip-path:url(#clip-path-4);}.cls-87{stroke-width:0.86px;}.cls-88{letter-spacing:-0.01em;}.cls-89{letter-spacing:-0.01em;}.cls-90{letter-spacing:0.02em;}.cls-91{letter-spacing:0.01em;}.cls-92{letter-spacing:0.02em;}.cls-93{letter-spacing:0em;}.cls-94{clip-path:url(#clip-path-5);}.cls-95{stroke-width:0.77px;}.cls-96{font-size:33.25px;font-family:Quicksand-Bold, Quicksand;font-weight:700;}.cls-97{letter-spacing:0em;}.cls-98{clip-path:url(#clip-path-6);}.cls-99{fill:#15bed1;}.cls-100{clip-path:url(#clip-path-7);}.cls-101{font-size:22.15px;}.cls-101,.cls-108{fill:#fff;font-family:Quicksand-Regular, Quicksand;}.cls-102{letter-spacing:0em;}.cls-103{letter-spacing:0em;}.cls-104{letter-spacing:0em;}.cls-105{clip-path:url(#clip-path-8);}.cls-106,.cls-121{stroke:#15bed1;}.cls-106{stroke-width:1.99px;}.cls-107{clip-path:url(#clip-path-9);}.cls-108{font-size:22.17px;}.cls-109{letter-spacing:0em;}.cls-110{letter-spacing:0em;}.cls-111{letter-spacing:0em;}.cls-112{clip-path:url(#clip-path-10);}.cls-113{clip-path:url(#clip-path-11);}.cls-114{letter-spacing:-0.02em;}.cls-115{letter-spacing:0em;}.cls-116{letter-spacing:-0.02em;}.cls-117{letter-spacing:0em;}.cls-118{letter-spacing:0em;}.cls-119{letter-spacing:0em;}.cls-120{clip-path:url(#clip-path-12);}.cls-121{stroke-width:2.03px;}.cls-122{clip-path:url(#clip-path-13);}.cls-123{letter-spacing:-0.02em;}.cls-124{letter-spacing:0em;}.cls-125{letter-spacing:0em;}.cls-126{letter-spacing:0em;}.cls-127{letter-spacing:0em;}</style><clipPath id="clip-path" transform="translate(-4.72 -18.29)"><rect class="cls-1" x="588.64" y="297.44" width="611.78" height="339.08"/></clipPath><clipPath id="clip-path-2" transform="translate(-4.72 -18.29)"><rect class="cls-1" x="330.59" y="11.74" width="591.74" height="363.6"/></clipPath><clipPath id="clip-path-3" transform="translate(-4.72 -18.29)"><rect class="cls-1" x="851.56" y="11" width="591.74" height="363.6"/></clipPath><clipPath id="clip-path-4" transform="translate(-4.72 -18.29)"><rect class="cls-1" x="1375.6" y="34.44" width="431.07" height="264.88"/></clipPath><clipPath id="clip-path-5" transform="translate(-4.72 -18.29)"><rect class="cls-1" y="34.44" width="383.57" height="235.69"/></clipPath><clipPath id="clip-path-6" transform="translate(-4.72 -18.29)"><rect class="cls-1" x="366.61" y="675.47" width="43.8" height="43.78"/></clipPath><clipPath id="clip-path-7" transform="translate(-4.72 -18.29)"><rect class="cls-1" y="11.36" width="1814" height="708"/></clipPath><clipPath id="clip-path-8" transform="translate(-4.72 -18.29)"><rect class="cls-1" x="1134.27" y="675.47" width="47.82" height="43.82"/></clipPath><clipPath id="clip-path-9" transform="translate(-4.72 -18.29)"><rect class="cls-1" y="11" width="1820" height="708.69"/></clipPath><clipPath id="clip-path-10" transform="translate(-4.72 -18.29)"><rect class="cls-1" x="738.32" y="675.47" width="51.13" height="43.78"/></clipPath><clipPath id="clip-path-11" transform="translate(-4.72 -18.29)"><rect class="cls-1" width="1820" height="719.36"/></clipPath><clipPath id="clip-path-12" transform="translate(-4.72 -18.29)"><rect class="cls-1" x="4.71" y="675.54" width="45.01" height="43.75"/></clipPath><clipPath id="clip-path-13" transform="translate(-4.72 -18.29)"><rect class="cls-1" x="1562.12" y="675.47" width="29.01" height="43.78"/></clipPath></defs><title>Element 3</title><g id="Ebene_2" data-name="Ebene 2"><g id="Ebene_1-2" data-name="Ebene 1"><g class="cls-2"><path class="cls-3" d="M606.41,474.12,604.85,485l13,3s.89-2,.34-2.58a19.34,19.34,0,0,1-2.92-3.67,11.37,11.37,0,0,1-.34-3.94Z" transform="translate(-4.72 -18.29)"/><polygon class="cls-4" points="1169.55 588.22 1172.27 588.23 1174.14 542.9 1167.62 542.9 1169.55 588.22"/><rect class="cls-4" x="1169.56" y="546.72" width="2.72" height="51.9"/><polygon class="cls-4" points="1146.14 596.59 1169.57 592.76 1172.26 592.76 1195.66 596.59 1172.28 588.23 1169.55 588.22 1146.14 596.59"/><path class="cls-5" d="M1173.27,617a2.37,2.37,0,1,0,2.37-2.37,2.36,2.36,0,0,0-2.37,2.37" transform="translate(-4.72 -18.29)"/><path class="cls-5" d="M1150.82,614.3a2.37,2.37,0,1,0,2.37-2.37,2.37,2.37,0,0,0-2.37,2.37" transform="translate(-4.72 -18.29)"/><path class="cls-5" d="M1195.69,614.3a2.37,2.37,0,1,0,2.37-2.37,2.37,2.37,0,0,0-2.37,2.37" transform="translate(-4.72 -18.29)"/><path class="cls-5" d="M1141.34,563.56a3.19,3.19,0,0,0,3.31,3.06h49.48a3.07,3.07,0,1,0,0-6.13h-49.48a3.2,3.2,0,0,0-3.31,3.07" transform="translate(-4.72 -18.29)"/><path class="cls-5" d="M1194.39,582.34c1.69,0,3.06-2.84,3.06-6.34V481.55c0-3.49-1.37-6.33-3.06-6.33s-3.06,2.84-3.06,6.33V576c0,3.5,1.37,6.34,3.06,6.34" transform="translate(-4.72 -18.29)"/><rect class="cls-6" x="1163.44" y="548.3" width="14.92" height="4.25"/><polygon class="cls-4" points="610.08 588.96 607.35 588.98 605.48 543.65 612 543.65 610.08 588.96"/><rect class="cls-4" x="607.35" y="547.47" width="2.72" height="51.9"/><polygon class="cls-4" points="633.49 597.33 610.05 593.51 607.36 593.51 583.96 597.33 607.35 588.98 610.08 588.96 633.49 597.33"/><path class="cls-5" d="M615.8,617.69a2.37,2.37,0,1,1-2.37-2.37,2.37,2.37,0,0,1,2.37,2.37" transform="translate(-4.72 -18.29)"/><path class="cls-5" d="M638.25,615a2.37,2.37,0,1,1-2.37-2.37,2.37,2.37,0,0,1,2.37,2.37" transform="translate(-4.72 -18.29)"/><path class="cls-5" d="M593.38,615a2.37,2.37,0,1,1-2.37-2.37,2.37,2.37,0,0,1,2.37,2.37" transform="translate(-4.72 -18.29)"/><path class="cls-5" d="M724.61,559.72c0,6-4.35,10.94-9.7,10.94H685.54c-5.36,0-9.7-4.9-9.7-10.94V501.29c0-6.05,4.34-11,9.7-11h29.37c5.35,0,9.7,4.9,9.7,11Z" transform="translate(-4.72 -18.29)"/><path class="cls-5" d="M878.25,559.12c0,6-4.35,11-9.71,11H839.18c-5.36,0-9.7-4.9-9.7-11V500.7c0-6.05,4.34-10.95,9.7-10.95h29.36c5.36,0,9.71,4.9,9.71,10.95Z" transform="translate(-4.72 -18.29)"/><path class="cls-5" d="M1032.42,559.12c0,6-4.35,11-9.7,11H993.35c-5.36,0-9.7-4.9-9.7-11V500.7c0-6.05,4.34-10.95,9.7-10.95h29.37c5.35,0,9.7,4.9,9.7,10.95Z" transform="translate(-4.72 -18.29)"/><path class="cls-7" d="M884.47,507.94a9.45,9.45,0,0,0-2.14-6.15,12.44,12.44,0,0,0-6.61-4.68c-2.38-.84-10.28-3.17-12-3.72a1.23,1.23,0,0,0-.2,0c-.23,0-.36.16-.51.28a14,14,0,0,1-7,3c-.63.08-1.62.12-2.23.14s-1.22-.06-1.85-.14a12.74,12.74,0,0,1-7-3c-.48-.44-.65-.28-.72-.26-1.73.55-9.63,2.88-12,3.72a12.44,12.44,0,0,0-6.61,4.68,9.45,9.45,0,0,0-2.14,6.15c-.14,5.85,8.66,45.83,8.64,46h43.62c0-.18,8.9-40.16,8.76-46" transform="translate(-4.72 -18.29)"/><path class="cls-8" d="M961.61,504.67a9.44,9.44,0,0,0-2.14-6.14,12.59,12.59,0,0,0-6.61-4.69c-2.39-.83-10.28-3.16-12-3.71a.65.65,0,0,0-.2,0c-.23,0-.37.16-.52.28a13.87,13.87,0,0,1-7,3c-.62.09-1.61.13-2.22.15a16.86,16.86,0,0,1-1.85-.15,13.94,13.94,0,0,1-7-3c-.15-.12-.28-.3-.52-.28a.68.68,0,0,0-.2,0c-1.74.55-9.63,2.88-12,3.71a12.58,12.58,0,0,0-6.62,4.69,9.49,9.49,0,0,0-2.14,6.14c-.13,5.86,8.67,45.84,8.65,46h43.62c0-.18,8.9-40.16,8.76-46" transform="translate(-4.72 -18.29)"/><path class="cls-9" d="M807.55,504.67a9.44,9.44,0,0,0-2.14-6.14,12.51,12.51,0,0,0-6.61-4.69c-2.39-.83-10.28-3.16-12-3.71a.65.65,0,0,0-.2,0c-.23,0-.36.16-.52.28a13.87,13.87,0,0,1-7,3c-.63.09-1.62.13-2.23.15a16.86,16.86,0,0,1-1.85-.15,13.94,13.94,0,0,1-7-3c-.15-.12-.28-.3-.52-.28a.71.71,0,0,0-.2,0c-1.73.55-9.63,2.88-12,3.71a12.51,12.51,0,0,0-6.61,4.69,9.44,9.44,0,0,0-2.14,6.14c-.14,5.86,8.66,45.84,8.64,46h43.62c0-.18,8.9-40.16,8.76-46" transform="translate(-4.72 -18.29)"/><path class="cls-5" d="M651,564.3a3.31,3.31,0,0,1-3.51,3.07H595.13a3.09,3.09,0,1,1,0-6.13h52.33A3.31,3.31,0,0,1,651,564.3" transform="translate(-4.72 -18.29)"/><path class="cls-5" d="M594.68,583.08c-1.69,0-3.06-2.83-3.06-6.33V482.3c0-3.5,1.37-6.33,3.06-6.33s3.06,2.83,3.06,6.33v94.45c0,3.5-1.37,6.33-3.06,6.33" transform="translate(-4.72 -18.29)"/><polygon class="cls-4" points="697.12 588.96 694.4 588.98 692.53 543.65 699.05 543.65 697.12 588.96"/><rect class="cls-4" x="694.4" y="547.47" width="2.72" height="51.9"/><polygon class="cls-4" points="720.53 597.33 697.1 593.51 694.41 593.51 671.01 597.33 694.4 588.98 697.12 588.96 720.53 597.33"/><path class="cls-5" d="M702.85,617.69a2.37,2.37,0,1,1-2.37-2.37,2.37,2.37,0,0,1,2.37,2.37" transform="translate(-4.72 -18.29)"/><path class="cls-5" d="M725.3,615a2.37,2.37,0,1,1-2.37-2.37A2.37,2.37,0,0,1,725.3,615" transform="translate(-4.72 -18.29)"/><path class="cls-5" d="M680.43,615a2.37,2.37,0,1,1-2.37-2.37,2.37,2.37,0,0,1,2.37,2.37" transform="translate(-4.72 -18.29)"/><polygon class="cls-4" points="850.22 589.03 847.5 589.04 845.63 543.71 852.15 543.71 850.22 589.03"/><rect class="cls-4" x="847.5" y="547.53" width="2.72" height="51.9"/><polygon class="cls-4" points="873.63 597.4 850.2 593.58 847.51 593.58 824.11 597.4 847.5 589.04 850.22 589.03 873.63 597.4"/><path class="cls-5" d="M856,617.76a2.37,2.37,0,1,1-2.37-2.37,2.37,2.37,0,0,1,2.37,2.37" transform="translate(-4.72 -18.29)"/><path class="cls-5" d="M878.4,615.11a2.37,2.37,0,1,1-2.37-2.37,2.37,2.37,0,0,1,2.37,2.37" transform="translate(-4.72 -18.29)"/><path class="cls-5" d="M833.53,615.11a2.37,2.37,0,1,1-2.37-2.37,2.37,2.37,0,0,1,2.37,2.37" transform="translate(-4.72 -18.29)"/><polygon class="cls-4" points="1004.36 589.19 1001.63 589.2 999.76 543.87 1006.29 543.87 1004.36 589.19"/><rect class="cls-4" x="1001.63" y="547.69" width="2.72" height="51.9"/><polygon class="cls-4" points="1027.77 597.55 1004.33 593.73 1001.65 593.73 978.25 597.55 1001.63 589.2 1004.36 589.18 1027.77 597.55"/><path class="cls-5" d="M1010.09,617.91a2.37,2.37,0,1,1-2.37-2.37,2.38,2.38,0,0,1,2.37,2.37" transform="translate(-4.72 -18.29)"/><path class="cls-5" d="M1032.54,615.27a2.37,2.37,0,1,1-2.37-2.38,2.37,2.37,0,0,1,2.37,2.38" transform="translate(-4.72 -18.29)"/><path class="cls-5" d="M987.67,615.27a2.37,2.37,0,1,1-2.37-2.38,2.37,2.37,0,0,1,2.37,2.38" transform="translate(-4.72 -18.29)"/><rect class="cls-6" x="601.27" y="549.05" width="14.92" height="4.25"/><path class="cls-5" d="M649.29,619.18a2.79,2.79,0,1,1-2.73-2.23,2.52,2.52,0,0,1,2.73,2.23" transform="translate(-4.72 -18.29)"/><polyline class="cls-3" points="651.59 594.66 655 555.76 643.59 555.5 645.09 594.66"/><path class="cls-10" d="M645.9,577.39H661s2.65-22.56,2-28.95c-.24-2.41-1.69-8.39-15.08-6.93-3.84.42-20.38,2-24.66,1.94s-4.38-6.93-4.38-6.93H598.31a72.21,72.21,0,0,1-.41,7.64c-.4,3-.95,6.35-.95,6.66,0,5.73.34,10.57,15.82,10.45H613c2.35,0,24.09.14,32-.13,0,0,1.63-.14,1.43,1.77Z" transform="translate(-4.72 -18.29)"/><path class="cls-11" d="M604.11,480.42s7.3,3.72,9.43,4.33a21.79,21.79,0,0,0,3.83.69s1.93,3.08,3,4.82c1.2,2,3.67,6.21,4.69,8.25s1.83,5.91.41,8.56-4.09,8.56-4.49,10.6a66.48,66.48,0,0,0-1.48,13.55c0,2.91,2.79,12.06,2.79,12.06l-24.5.58s-1-40.52-.1-51.57c.27-3.19,1.52-6.75,2.6-8a32.54,32.54,0,0,1,3.87-3.87" transform="translate(-4.72 -18.29)"/><path class="cls-3" d="M603.88,508.3l12-.09L624,522.82,639.18,540l-2.59,3.84-19.53-15h0a3.13,3.13,0,0,1-1.15-.72,3.92,3.92,0,0,1-.37-.46h0Z" transform="translate(-4.72 -18.29)"/><path class="cls-12" d="M605.36,477c-.46-.2-.93-.37-1.38-.59s-.67-.34-.7-.79c0-.19-.19-.14-.3-.17a3.07,3.07,0,0,1-2.31-2c-.08-.25-.19-.3-.46-.25a3.1,3.1,0,0,1-3.48-2c-.11-.3-.19-.4-.52-.26a1.25,1.25,0,0,1-1.29-.18,4.38,4.38,0,0,1-1.25-1.25,2.08,2.08,0,0,1-.39-1.73c.07-.23,0-.34-.21-.45a4.6,4.6,0,0,1-2.44-4.47,1.59,1.59,0,0,0-.6-1.8c-.91-.77-1-2.3-.75-3.47a3.5,3.5,0,0,1,.45-1.23,1.11,1.11,0,0,0,.15-.94,4.94,4.94,0,0,1,.89-4.35.34.34,0,0,0,.07-.38,2.49,2.49,0,0,1,2.09-3.3.7.7,0,0,0,.14,0,2.34,2.34,0,0,1,1.22-3.2c.09,0,.17-.1.26-.14a2.06,2.06,0,0,0,1.35-1.41,2.45,2.45,0,0,1,2-1.72,2.42,2.42,0,0,0,1.44-.82,2.52,2.52,0,0,1,1.14-.81s2.56-1.23,4-.87a1.83,1.83,0,0,0,1.1-.13,7.29,7.29,0,0,1,4.57-.06,1.62,1.62,0,0,0,1.17-.11,3.89,3.89,0,0,1,4.49,1,.76.76,0,0,0,.81.37.84.84,0,0,1,.69.18,1.25,1.25,0,0,0,1.16.25,3.34,3.34,0,0,1,3.2,2.32,2.18,2.18,0,0,0,1.4,1.1c1.56,0,1.22,5.13,1.53,6.45,0,.17,3.78,3.29,4.09,3.55,1,.86,2.18,2.73-.26,4.91a.44.44,0,0,0-.13.57,2.39,2.39,0,0,1-.55,2.8.86.86,0,0,0-.26.82A4.92,4.92,0,0,1,626,467a1.48,1.48,0,0,0-.43.72,5.28,5.28,0,0,1-1.36,2.31,2.79,2.79,0,0,1-1.88.89c-.31,0-.4.14-.44.43a2.42,2.42,0,0,1-2.33,2.07.35.35,0,0,0-.39.3,2.76,2.76,0,0,1-3.65,1.87c-.3-.1-.44-.11-.56.25a2.32,2.32,0,0,1-2,1.58c-.38-.22-.17-.59-.23-.89a11.37,11.37,0,0,1,.05-1.65c.11-.25-7.14-.17-7.08.08a7.94,7.94,0,0,1,0,1.29c0,.29.17.69-.32.81" transform="translate(-4.72 -18.29)"/><path class="cls-3" d="M611.75,484.08l1-4.83.47-.82s4.37,1.25,5.89,1.62c3,.72,4.15.35,6-3.34a36.71,36.71,0,0,0,3.58-9.23c1-3.79,1.39-4.74,1.16-8.89s-4.39-7.13-4.39-7.13-4.27-3-8.77-.6-1.82,11.78-1.82,11.78-.63-2.62-2.11-2.09-2.19,3.35-2.19,3.35-1,3.69.58,6,1,1.66-2.31,1.23c-.92-.13-3.36-.07-3.46,1.31-.12,1.59-.91,8.2-.91,8.2Z" transform="translate(-4.72 -18.29)"/><path class="cls-12" d="M614.9,463s0-3.93,1.86-6.54a7.27,7.27,0,0,1,6.69-2.21c3.1.69,1.43,2,5.43,1.5s-6.15-7-6.15-7l-4.49-.43-4,1.33-1.9,4.27Z" transform="translate(-4.72 -18.29)"/><path class="cls-13" d="M666.39,614.85h0l-.31-.15a14.12,14.12,0,0,0-3.93-1.23,13.87,13.87,0,0,1-3.31-.59,5.23,5.23,0,0,1-1.43-1.1h-8.65s-.87,7.59.25,7.66,2.61,0,2.61,0l16.78,0h.38a2.53,2.53,0,0,0,.41-1.33c0-1.26-1.06-2.4-2.77-3.25" transform="translate(-4.72 -18.29)"/><path class="cls-11" d="M607.53,461.82c.67-1.32,3.52-6.57,6.27-8a21.9,21.9,0,0,1,7.91-2.06,13.83,13.83,0,0,0,4.3-1.23s-.73-1.66-1.18-1.83c-1.06-.38-2.73.85-4.41.95a19.36,19.36,0,0,0-5.6.81,11.15,11.15,0,0,0-6.37,4.63c-2.78,3.69-3.92,6-3.57,7.14s2,.92,2.65-.41" transform="translate(-4.72 -18.29)"/><path class="cls-14" d="M1156.37,459.37s3.09,0,4.2-.78,3.44-2.13,5.16-1.12,4.15,1,4.25,2.73a36,36,0,0,0,.81,4.7s.45-1.93.57-2.49.2-2.84.2-2.84a9.79,9.79,0,0,0,0-2.28,9.11,9.11,0,0,0-.52-2.72c-.36-.52-.64-1.4-1-1.56s-1.24-1.08-1.64-1.12-1.44-.87-2.32-.71a12.06,12.06,0,0,0-1.68.31,12.77,12.77,0,0,0-3,1,17.06,17.06,0,0,1-1.88,1.44,13,13,0,0,0-1.6,1.68c-.28.36-1.6,3.72-1.6,3.72" transform="translate(-4.72 -18.29)"/><path class="cls-13" d="M1124,615h0l.32-.15a13.91,13.91,0,0,1,3.93-1.23,12.86,12.86,0,0,0,3.3-.59,5,5,0,0,0,1.43-1.1h8.65s.87,7.59-.25,7.66-2.61,0-2.61,0l-16.78,0h-.38a2.48,2.48,0,0,1-.4-1.32c0-1.26,1-2.41,2.77-3.26" transform="translate(-4.72 -18.29)"/><path class="cls-15" d="M1173.1,484.88l1.23-4.18s-.37,1.83-3.49,2.2-6.62-2-7.35-3.12-3.86-4.78-5-9.56-1.65-8.08-.74-11.75,6.07-5.52,6.07-5.52a5.56,5.56,0,0,1,6.06,0c3.31,2,1.84,11.95,1.84,11.95s.39-3.68,3.24-4.14c2.34-.38,3.2,2.3,3.32,3.43a18.72,18.72,0,0,1-1.47,8.35c-.57,1.48,6,3.21,6,3.21l.57,6.46Z" transform="translate(-4.72 -18.29)"/><path class="cls-16" d="M1145.8,612.37l-10.87-.27s-7.7-49-8.33-56.11c-.2-2.35-.61-12.74,13.86-12.74,3.27,0,20.46-.15,24.73-.34,1.32-.06,2.48-6.69,2.48-6.69l22.49-.24s.76,3.87,1,6.95.22,7.08.22,7.39c0,5.73-.19,10.52-15.67,10.41h0s-24.18-.13-32.2-.13c0,0-1.63-.14-1.43,1.76Z" transform="translate(-4.72 -18.29)"/><path class="cls-17" d="M1183.57,480s-8.23,4-10.47,4.85c-2,.75-5.15,2-5.15,2a13.57,13.57,0,0,0-2.53,2.85c-4.79,8.34-1.12,25.37-.68,27.42a120.85,120.85,0,0,1,1.4,13.28c.31,4.37-.53,4.29-1.33,12.44h26.52v-48.8s-.11-1.71-.18-2.4a15,15,0,0,0-7.57-11.62" transform="translate(-4.72 -18.29)"/><path class="cls-15" d="M1185.37,508.3l-12-.09-8.13,14.61L1150.08,540l2.58,3.84,19.53-15h0a3.13,3.13,0,0,0,1.15-.72,2.57,2.57,0,0,0,.37-.46h0Z" transform="translate(-4.72 -18.29)"/><path class="cls-14" d="M1176.81,475.87a11.31,11.31,0,0,0,3.64,1.38c1.22,0,2.83-.53,5-2.42s3.55-7.24,3.94-9.86c.68-4.51,1-12.46-5.82-17.3-4.93-3.51-9-3-12.9-2.49a14.12,14.12,0,0,0-9.94,6,22.75,22.75,0,0,0-2.67,5.22c-.54,1.73-1.12,4.07-.2,4.59s4.09.66,5.19.53,5.82.67,6.5,2.15,3.77,8.49,4.31,8.63,3,3.6,3,3.6" transform="translate(-4.72 -18.29)"/><path class="cls-14" d="M1160.61,475.46a1.66,1.66,0,0,1,.76-1.19c.33-.17,1.2-.61,3.78,1.66s-1.66,3.85-1.66,3.85a9.69,9.69,0,0,0-.19-3c-.3-.57-2.44-2.49-2.69-1.35" transform="translate(-4.72 -18.29)"/><path class="cls-14" d="M1171.14,461.58s.87.65,1.46,5.14a25.11,25.11,0,0,0,1.23,4.3,39.17,39.17,0,0,1,1.27,5.54,36.72,36.72,0,0,1-.1,5,6,6,0,0,1-1.42,2.8,15.64,15.64,0,0,1-2.74,2.72,6.2,6.2,0,0,1-3,1.24c-1.16.21-4.2-.43-5-2.55-.57-1.47-.13-4.46.67-6s1-5.09,3.52-7.58c1.65-1.59,4.09-5.63,4.09-6.26s0-4.36,0-4.36" transform="translate(-4.72 -18.29)"/><path class="cls-5" d="M1137.18,617.28a2.79,2.79,0,1,0,2.73-2.23,2.52,2.52,0,0,0-2.73,2.23" transform="translate(-4.72 -18.29)"/><path class="cls-18" d="M1080.93,627.76a8.5,8.5,0,0,0,.36-2.46c0-3.74-2.34-6.78-5.23-6.78s-5.22,3-5.22,6.78a8.5,8.5,0,0,0,.36,2.46Z" transform="translate(-4.72 -18.29)"/><path class="cls-18" d="M1099.48,627.76a8.5,8.5,0,0,0,.36-2.46c0-3.74-2.34-6.78-5.22-6.78s-5.23,3-5.23,6.78a8.5,8.5,0,0,0,.36,2.46Z" transform="translate(-4.72 -18.29)"/><rect class="cls-6" x="686.33" y="548.33" width="17.77" height="3.69"/><rect class="cls-6" x="993.35" y="548.22" width="17.77" height="3.69"/><rect class="cls-6" x="842.12" y="543.71" width="17.77" height="3.69"/><polygon class="cls-19" points="629.8 609.52 646.46 609.52 646.46 509.58 1132.67 509.58 1132.67 609.52 1149.33 609.52 1149.33 501.83 629.8 501.83 629.8 609.52"/><path class="cls-20" d="M837.58,469.72a3.5,3.5,0,0,1,.4-1.55,2.13,2.13,0,0,1,2.13-1.27.81.81,0,0,1,.18.6,33.9,33.9,0,0,0,.83,5.86c.11.44.26.87.4,1.3a1.42,1.42,0,0,0,.08.18c.1.17.19.38.4.39s.32-.21.39-.4a4.73,4.73,0,0,0,.35-2.66,10.93,10.93,0,0,0-.44-1.61,14.31,14.31,0,0,1-.59-7.11,8.43,8.43,0,0,0,.06-2.79,2.61,2.61,0,0,1,0-.56,1.07,1.07,0,0,1,.72-1,14,14,0,0,1,2.71-.63,15.53,15.53,0,0,1,5.5.65c1.45.3,2.9.67,4.35,1a12.4,12.4,0,0,0,7.58-.68,20,20,0,0,0,2.59-1.27c.36-.2.47-.17.62.21a23.84,23.84,0,0,1,1.73,6.38,19.28,19.28,0,0,1-.66,7.25,6.56,6.56,0,0,0-.25,1.46,2,2,0,0,0,1,1.8c.22.14.35.09.4-.19.24-1.38.45-2.77.58-4.16.12-1.2.21-2.4.24-3.6a.38.38,0,0,1,.11-.33c1,.07,1.46.78,1.81,1.63a5.25,5.25,0,0,1,.25,1.11,6.76,6.76,0,0,1,0,1.19,9.19,9.19,0,0,1-2.64,5.3,1.78,1.78,0,0,1-.92.54.47.47,0,0,0-.39.45,24.55,24.55,0,0,1-1.17,3.95,7.54,7.54,0,0,1-2.15,3c-1.07.94-2.17,1.82-3.27,2.71a.81.81,0,0,1-.26.29,21.78,21.78,0,0,1-3.47,2.07,4.78,4.78,0,0,1-1.78.38,11.17,11.17,0,0,1-2.24-.08,4.27,4.27,0,0,1-1.23-.42,19.93,19.93,0,0,1-3.06-1.85.78.78,0,0,1-.29-.31c-.91-.7-1.83-1.38-2.7-2.12a8.44,8.44,0,0,1-2.67-3.15,27.56,27.56,0,0,1-1.41-4.55c0-.17-.07-.32-.24-.37a3.81,3.81,0,0,1-1.86-1.62,9.59,9.59,0,0,1-1.59-3.62c0-.21,0-.42-.07-.63a5.92,5.92,0,0,1,0-1.19" transform="translate(-4.72 -18.29)"/><path class="cls-21" d="M868.93,467a51.42,51.42,0,0,1-.93,8.58,2.19,2.19,0,0,1-1.41-2.69c.22-1.13.57-2.24.74-3.39a17.92,17.92,0,0,0-.5-7.84c-.32-1.1-.67-2.18-1.09-3.24-.11-.27-.18-.33-.45-.17a16.73,16.73,0,0,1-5.2,2.08,13,13,0,0,1-5.81-.25c-2.16-.54-4.32-1.08-6.51-1.46a10.41,10.41,0,0,0-5.35.61.76.76,0,0,0-.5.57,1.5,1.5,0,0,0-.07.51,13.7,13.7,0,0,1-.15,4.14,13.58,13.58,0,0,0,.82,6.44,5.35,5.35,0,0,1,.1,3.68,2.56,2.56,0,0,1-.33.71c-.18.22-.37.23-.55,0a2.83,2.83,0,0,1-.43-.89,25.32,25.32,0,0,1-1-5.05c-.09-.8-.15-1.61-.23-2.43,0-.48,0-1,0-1.44a1.24,1.24,0,0,1,0-.47c0-.46.07-2,.07-2,0-.2.09-1,.09-1s0-.57.07-.71c.2-1.48.56-3.08.87-4.62a7.26,7.26,0,0,1,2.31-3.78,13.45,13.45,0,0,1,6.57-3.39c.69-.15,1.38-.25,2.08-.34.18-.07.37,0,.54-.06h3.95c.17.09.37,0,.54.06a16,16,0,0,1,5.93,1.79,12.05,12.05,0,0,1,4.5,4.19,4.48,4.48,0,0,1,.46,1.69c.21,1.19.38,2.38.56,3.58a14.38,14.38,0,0,1,.15,1.61c.07.18.12,1.68.14,2,0,1,0,2,0,3" transform="translate(-4.72 -18.29)"/><path class="cls-20" d="M863.63,493.38a11.82,11.82,0,0,1-2.86,2,12.89,12.89,0,0,1-4.88,1.42c-3.68.41-7.14-.08-10.11-2.41-.24-.19-1-.77-1.27-1l1.64-.4a2.29,2.29,0,0,0,1.72-2.14c.08-.62.12-1.24.18-1.87a.22.22,0,0,1,.17.07,10.69,10.69,0,0,0,5.15,2,8.24,8.24,0,0,0,4.28-.73,16.56,16.56,0,0,0,2.26-1.06.77.77,0,0,0,.45-.83.64.64,0,0,1,.07-.43s0-.15,0-.12a14.64,14.64,0,0,0,.29,3.24,2.11,2.11,0,0,0,1.54,1.78c.33.1,1,.33,1.33.45" transform="translate(-4.72 -18.29)"/><path class="cls-22" d="M860.47,488a.89.89,0,0,0,0,.28c0,.94-.17,1-.69,1.23a14.84,14.84,0,0,1-4.75,1.69,7.41,7.41,0,0,1-3.23-.32,14.41,14.41,0,0,1-2.85-1.18,2.8,2.8,0,0,1-.89-.72c0-.67,0-1.33.07-2,1,.68,2,1.35,3.1,1.93a7.2,7.2,0,0,0,4.11.58,8.53,8.53,0,0,0,3.58-1.57c.52-.31,1-.68,1.54-1l0,.32a3.38,3.38,0,0,1,0,.78" transform="translate(-4.72 -18.29)"/><path class="cls-23" d="M868.51,464.76c-.91-.15-3.2-.39-3.43-.41a24.83,24.83,0,0,0-3-.1,11,11,0,0,0-4.24.8,2.23,2.23,0,0,0-1.33,1.07c-.22,1-.8,1-1.52.92a10.59,10.59,0,0,0-1.26,0c-.3,0-.47-.07-.52-.38-.15-.88-.8-1.25-1.47-1.58a8.74,8.74,0,0,0-2.84-.72,30.33,30.33,0,0,0-7.9.41l-.78.14c-.58.09-.63.3-.5.81.22.87.38,1.54.63,1.7a.86.86,0,0,1,.41.66c.09.5.18,1,.25,1.51a5.2,5.2,0,0,0,3.28,4.47,8.47,8.47,0,0,0,4.07.54c3.1-.28,4.93-2.25,5.14-5.45.07-1,.14-1.11,1.11-1.13.22,0,.44,0,.67.05.52,0,.69.25.73.87.2,3.44,1.6,4.95,4.21,5.51a8.7,8.7,0,0,0,3.9-.05c2.7-.64,4.11-2.34,4.42-5.23a2.32,2.32,0,0,1,.49-1.62,2,2,0,0,0,.56-1.13c.33-1.47.33-1.42-1.09-1.66m-16.13,4.74c-.29,2.48-1.59,3.85-4,4.16a7.58,7.58,0,0,1-2.23,0c-2.4-.4-3.79-2.13-4-4.91-.15-2.08.69-2.87,2.65-3.14a18.94,18.94,0,0,1,5.16.26,3,3,0,0,1,2.38,3.65M867,470.66a4.15,4.15,0,0,1-3.31,2.92,6.7,6.7,0,0,1-4.25-.45c-2.28-1.13-2.74-4.24-1.7-6.2a2.19,2.19,0,0,1,1.36-.94,18.91,18.91,0,0,1,6-.38,2.37,2.37,0,0,1,2.33,2.62,8,8,0,0,1-.45,2.43" transform="translate(-4.72 -18.29)"/><path class="cls-8" d="M926.33,508a.59.59,0,0,0,0-.14,2.92,2.92,0,0,1,.14-.31c2.95.15,5.89,0,8.84.07a1.67,1.67,0,0,1,1.15.24.61.61,0,0,0,0,.14Z" transform="translate(-4.72 -18.29)"/><path class="cls-24" d="M949,462.62a1.5,1.5,0,0,1,1.08.11,1.26,1.26,0,0,1,.41.72,13.53,13.53,0,0,1,.13,1.63,10.67,10.67,0,0,1,0,1.87,4.62,4.62,0,0,1-.32,1.34c-.09.23-.13.36-.24.69a11.72,11.72,0,0,1-2.3,3.22,5.24,5.24,0,0,1-1.31.94,2.72,2.72,0,0,0-.77,1.49,18.36,18.36,0,0,1-1.3,3.52,1.36,1.36,0,0,1-.5.67,26,26,0,0,1-5.07,4.48,1.92,1.92,0,0,0-.18.22c-.16.18-.13.29-.14.61a1,1,0,0,0-.8.21c-.4.29-.85.52-1.25.81a9.36,9.36,0,0,1-6.62,1.55,4.9,4.9,0,0,1-1.62-.49,27.35,27.35,0,0,1-3.44-2c-.13.31.2.81-.34,1a2.14,2.14,0,0,0-1.23-2.4,26.32,26.32,0,0,1-2.91-2.36A11.08,11.08,0,0,1,917.1,475a.59.59,0,0,0,0-.13,3.82,3.82,0,0,0-1.41-2.22,8.3,8.3,0,0,1-3.34-6.1c0-.63,0-.78,0-1.47a3.61,3.61,0,0,1,1.21-2.46,1.73,1.73,0,0,1,1.27-.4c.32.09.4.39.5.64.72,1.71,2.58,4.89,2.56,4.85-.19-.33-.09-.69-.13-1s0-1.13.06-1.79,0-1,.08-1.55a27.46,27.46,0,0,1,1.74-6.63,23.58,23.58,0,0,1,3-4.06,1.14,1.14,0,0,1,.54-.45.21.21,0,0,1,.25.15,2,2,0,0,1-.27,1,16.31,16.31,0,0,0-1.22,5.6c1.6-1.34,3.38-2.26,5-3.42a22.05,22.05,0,0,0,2.8-2.49,2.65,2.65,0,0,1,.87-.72.22.22,0,0,1,.22.18.91.91,0,0,1-.14.54,23.66,23.66,0,0,0-1.92,5.34,15.54,15.54,0,0,1-.58,1.59,50.45,50.45,0,0,0,11.21-6.78c.56-.47.66-.46,1.1.15s1.06,1.33,1.62,2a14.79,14.79,0,0,1,2.52,4.5,44.24,44.24,0,0,1,2.08,7.23.41.41,0,0,0,.16.29,32.13,32.13,0,0,0,1.67-4c.09-.26.08-.58.42-.69" transform="translate(-4.72 -18.29)"/><path class="cls-25" d="M917.89,467v1.39c-.92-1.38-1.86,3.5-2.26,1.79-.15-.66-2.07-11-2.29-12.11a8.78,8.78,0,0,1,.16-3.93c.18-.74.39-1.47.59-2.2a32.31,32.31,0,0,1,2-3.79,23,23,0,0,1,1.84-2.58,27.27,27.27,0,0,1,3.2-2.85,16.84,16.84,0,0,1,1.74-1c.34-.15,2-.9,2.27-1,.6-.18,1-.37,1.78-.56q1.38-.3,2.79-.48l.78-.12.6,0h3.21a10.25,10.25,0,0,1,2.51.44,11.24,11.24,0,0,1,4.22,2.17,8.83,8.83,0,0,1,1.78,2.54.92.92,0,0,0,.51.55,6.23,6.23,0,0,1,2.79,2.2,16,16,0,0,1,2.13,3.53c.06.15.09.3.18.57a25.57,25.57,0,0,1,.94,2.8,8.35,8.35,0,0,1,.22,1.13c0,.41,0,.66,0,.78a27.59,27.59,0,0,1,0,3,10.23,10.23,0,0,1-.15,1.29l-.54,2.41a52.51,52.51,0,0,0-1.44,6.54c-.43-1.7-1.54-4.51-2-6.07a21.45,21.45,0,0,0-3.25-7.27,26.12,26.12,0,0,1-2.13-2.66c-.2-.34-.35,0-.49.08a50.46,50.46,0,0,1-11.63,7s-.08,0-.17,0c1.1-2.55,1.4-5.36,2.89-7.74,0-.08.08-.2,0-.25s-.11.08-.18.1a24.58,24.58,0,0,1-5.73,4.73,17.12,17.12,0,0,0-3.12,2.24,16.19,16.19,0,0,1,1.6-7c.06-.17,0-.25-.16-.15-5.17,4.3-5.33,13.33-5.27,14.5" transform="translate(-4.72 -18.29)"/><path class="cls-24" d="M930.61,492.48a50.81,50.81,0,0,1-4.81-1.7,6.12,6.12,0,0,1-2-1.27c.49-.89.33-1.91.55-2.85.24-.09.4.07.58.18a14.24,14.24,0,0,0,6.07,2,8.12,8.12,0,0,0,3.12-.51,17.78,17.78,0,0,0,3.52-1.46,1.14,1.14,0,0,1,.78-.19c.07,0,.2,1.29.3,1.7a7.66,7.66,0,0,1,.35,1.15.7.7,0,0,1-.45.52,21.87,21.87,0,0,1-4.91,1.79,2.82,2.82,0,0,0-1.54.74,1.93,1.93,0,0,1-1.55-.09" transform="translate(-4.72 -18.29)"/><path class="cls-26" d="M934.41,491.45a17,17,0,0,0,4.39-1.73c.08,0,.38-.31.74-.61a19.23,19.23,0,0,1,2.35,1.57c.07.07.3.35.09.54-1.5,2.23-3,4.46-4.47,6.71-.28.42-.42.53-.77.07-.53-.72-1.12-1.4-1.68-2.09-.44-.06-.58-.46-.8-.73a17.94,17.94,0,0,1-2.09-2.73,2.14,2.14,0,0,1,.91-.49c.46-.16.75-.33,1.33-.51" transform="translate(-4.72 -18.29)"/><path class="cls-24" d="M938.43,486.8a6.44,6.44,0,0,0-2,.88,16.41,16.41,0,0,1-4.81,1.37,8,8,0,0,1-2.86-.4,13.21,13.21,0,0,1-4.43-2c0-.48,0-1,0-1.43.3-.39,0-.87.2-1.31a15.57,15.57,0,0,0,4.39,2.36,7.92,7.92,0,0,0,5.52-.34,23.35,23.35,0,0,0,3.35-2c.27-.2.47-.24.6.13,0,.91,0,1.69,0,2.7" transform="translate(-4.72 -18.29)"/><path class="cls-8" d="M932.18,492.45c1.06,1.07,1.92,2.31,2.88,3.46a9.91,9.91,0,0,1-1.42,2.74c-.15.16-.16.27,0,.41a5.06,5.06,0,0,1,.93,1.87c.74,2.46,1.16,4.46,1.89,6.92H927.2c-.27,0-.65.17-.75-.3.78-2.61.87-5.16,2.34-7.81.94-1.71.8-.43-.14-2.46q-.18-.39-.33-.78c.92-1.15,1.52-2.28,2.43-3.44.07-.09,0-.71.42-.58l1,0" transform="translate(-4.72 -18.29)"/><path class="cls-26" d="M926.57,498.61c-.15.19-.27.36-.47.06-1.61-2.5-3.2-4.92-4.94-7.33-.34-.46-.28-.72.17-1a6.79,6.79,0,0,0,1.34-.89c.44-.41.64-.29,1.12,0a10.86,10.86,0,0,0,2.05,1.08c1.56.67,3.18,1.17,4.79,1.69a6,6,0,0,1,.6.19,1.44,1.44,0,0,1-.29.5,32.16,32.16,0,0,1-2.48,3.48s-1.31,1.45-1.89,2.16" transform="translate(-4.72 -18.29)"/><path class="cls-24" d="M916.61,472c0,8.16,7,13.48,15.18,13.48s14.37-5.32,14.37-13.48a14.78,14.78,0,1,0-29.55,0" transform="translate(-4.72 -18.29)"/><path class="cls-25" d="M915.38,466c0,11.94,6.42,18.34,16.91,18.34,8.93,0,15.39-6.4,15.39-18.34s-7.23-21.6-16.15-21.6-16.15,9.67-16.15,21.6" transform="translate(-4.72 -18.29)"/><path class="cls-18" d="M947.9,629.79a6.7,6.7,0,0,0,.41-2.3,5.9,5.9,0,1,0-11.76,0,6.7,6.7,0,0,0,.41,2.3Z" transform="translate(-4.72 -18.29)"/><polygon class="cls-27" points="943.46 604.02 948 558.4 935.48 558.4 935.48 562.66 929.98 562.66 932.13 604.02 943.46 604.02"/><path class="cls-18" d="M915.61,629.79a6.7,6.7,0,0,1-.41-2.3,5.9,5.9,0,1,1,11.76,0,6.94,6.94,0,0,1-.4,2.3Z" transform="translate(-4.72 -18.29)"/><polygon class="cls-27" points="910.6 604.02 906.07 558.4 918.59 558.4 918.59 562.66 924.08 562.66 921.93 604.02 910.6 604.02"/><path class="cls-15" d="M1027.13,498.88c-.94-.09-1.54.49-2.25,1.05a24,24,0,0,1-5.35,3.43,26.75,26.75,0,0,1-7.6,1.74c-5.24.65-10.24-.44-15.2-1.9-1.53-.45-3-.94-4.56-1.41,0-.42.42-.45.69-.57a20.67,20.67,0,0,1,3.74-1.14,12.21,12.21,0,0,0,4-1.74,11.06,11.06,0,0,0,4-5,8.68,8.68,0,0,0,.44-3.43c0-.34-.1-.71.19-1s.42-1.22,0-1.46l-.18,0a22.71,22.71,0,0,1-7-3.28,2,2,0,0,1-.41-.36c0-.06,0-.13-.09-.16a9.5,9.5,0,0,1-3.33-5.81c-.13-.56-.28-1-1-1.13a2.57,2.57,0,0,1-1.3-1,7.28,7.28,0,0,1-2-4.1,3.23,3.23,0,0,1,.68-2.57,1,1,0,0,1,.27.66c0,.16,0,.35.24.41s.34-.12.43-.27a8.45,8.45,0,0,0,1.29-2.56,1.22,1.22,0,0,0-.06-.9c-.18-.84,0-1,.83-.82a54.73,54.73,0,0,0,8.44,1.44c.47,0,.94,0,1.4.07a1.63,1.63,0,0,0,.76.06h5.92a1.59,1.59,0,0,0,.75-.06,53.73,53.73,0,0,0,9.43-1.52c.68-.18.82-.06.86.59a2.73,2.73,0,0,0,0,1.24,5.62,5.62,0,0,0,.81,2.28c.14.22.28.49.58.48s.35-.36.43-.6c.22-.61.31-.64.76-.24a5.35,5.35,0,0,1,.16,3.24,7.88,7.88,0,0,1-2.5,3.77,1.38,1.38,0,0,1-.57.35c-.76.09-.95.63-1.06,1.25-.73,4.13-3.57,6.4-7.14,8a1,1,0,0,0-.71,1.14,50.51,50.51,0,0,0,.29,5.07,2.2,2.2,0,0,0,1.64,2c3.41,1,6.81,2.11,10.21,3.17a7.63,7.63,0,0,1,3.12,1.51" transform="translate(-4.72 -18.29)"/><path class="cls-28" d="M1023.69,469.39c-.39-.25-.57-.19-.62.32,0,.28-.08.69-.51.73s-.55-.26-.73-.54a6.32,6.32,0,0,1-.85-2.36,4.9,4.9,0,0,1,0-1.21c0-.69,0-.7-.63-.53a66.17,66.17,0,0,1-7.12,1.35c-.8.13-9.56.25-9.77.19a45.5,45.5,0,0,1-5.46-.56c-1.55-.23-3.07-.63-4.61-1-.68-.15-.7-.14-.52.51,0,.08,0,.16,0,.24a2.16,2.16,0,0,1,0,.84,10,10,0,0,1-1.34,2.7c-.12.19-.29.4-.54.32s-.3-.3-.34-.53-.09-.51-.14-.76c-.14-.95-.48-1.85-.64-2.79a17.55,17.55,0,0,1,9.87-18.88l.61-.28a4.14,4.14,0,0,1,1.82-.83,17.52,17.52,0,0,1,9.89,0,2.94,2.94,0,0,1,1.2.56,17.58,17.58,0,0,1,10.36,22.48" transform="translate(-4.72 -18.29)"/><path class="cls-28" d="M1013.33,446.91a19.44,19.44,0,0,0-5.66-1.08,17.71,17.71,0,0,0-7.25,1.36,7.9,7.9,0,0,1,12.91-.28" transform="translate(-4.72 -18.29)"/><path class="cls-29" d="M1005.17,489c0-.53-.17-1.13-.22-1.65a2.68,2.68,0,0,1,.44.05,8.35,8.35,0,0,1,1.29.22,4.26,4.26,0,0,0,2.83-.22,11.64,11.64,0,0,1,2-.86,5.1,5.1,0,0,0,.53-.12,2.29,2.29,0,0,0-.11.74c0,.53,0,1,0,1a8.07,8.07,0,0,1-1.2.42,13.41,13.41,0,0,1-3.69.48,14,14,0,0,0-1.85-.08" transform="translate(-4.72 -18.29)"/><path class="cls-30" d="M760.4,464.39a31.64,31.64,0,0,0,1.86,7.31c.08.22,0,.48.24.7,0,.05.1-.1,0,0s0,0-.06,0a3.17,3.17,0,0,1-.23-1.61,24.08,24.08,0,0,0,0-4.33,9.77,9.77,0,0,1,.29-2.64,43.1,43.1,0,0,1,1.53-5.91c.33-1,.34-1,1.43-1a2,2,0,0,1,1.25.19.17.17,0,0,1,0,.22.48.48,0,0,1-.35,0c3.58-.11,7.16-.14,10.76,0a.83.83,0,0,1-.49,0,.17.17,0,0,1-.08-.21.84.84,0,0,1,.6-.2c.78,0,1.54-.13,2.31-.13,2.27,0,4.52-.22,6.78-.34a1.7,1.7,0,0,1,1.42.54,7.09,7.09,0,0,1,2.15,5.05c0,1.45,0,2.89-.09,4.33a26.44,26.44,0,0,0,.29,4.61,6.06,6.06,0,0,1,.1,1.12,46.46,46.46,0,0,0,.79-4.72,8.88,8.88,0,0,1,.26-1.92,2.61,2.61,0,0,1,.27-.67c1.39-.24,2.64.77,2.89,2.55a5.37,5.37,0,0,1-.1,2.06,10.4,10.4,0,0,1-2,4.55.84.84,0,0,1-.58.39,5.12,5.12,0,0,1-1.73,1.18c-.51,1.39-.82,2.85-1.43,4.21a4.63,4.63,0,0,1-1.19,1.83,29.76,29.76,0,0,1-3.87,3.48c-.2.13-.49.34-.91.6-2.58,2-5.3,3.54-8.76,2.8a10.17,10.17,0,0,1-2.89-1.3,6.87,6.87,0,0,1-1.94-1.36,46.15,46.15,0,0,1-4.63-3.74,6.15,6.15,0,0,1-1.46-2.28,21.15,21.15,0,0,1-1.15-3.62c0-.24-.07-.51-.38-.65-1.78-.83-2.63-2.43-3.37-4.13a6.35,6.35,0,0,1-.27-4.9c.67-1.57,2.76-2.23,2.79-2" transform="translate(-4.72 -18.29)"/><path class="cls-31" d="M791.32,465.36a64.88,64.88,0,0,1-.52,8.08c-.13-.78-1-1.86-1-2.45s-.13-1.24-.18-1.86a52.73,52.73,0,0,1,0-5.48,11.14,11.14,0,0,0-.26-3.45,7.47,7.47,0,0,0-2.09-3.31.81.81,0,0,0-.64-.27c-3.33.29-6.68.38-10,.52a6,6,0,0,1-2,.12,51,51,0,0,0-5.8,0,5.5,5.5,0,0,1-2-.12c-.58,0-1.15,0-1.73-.06-.26,0-.46,0-.55.31a38.69,38.69,0,0,0-2,9c0,1.5,0,3,0,4.47l.15,1.78c-.76-1.36-2-.73-2.31-2.92-.15-1.68-.15-4.38-.15-5.83-.05-.62-.12-3.44-.05-4.44a25,25,0,0,1,1.14-6.93,8.16,8.16,0,0,1,2.59-3.37A10.38,10.38,0,0,1,767.3,447a12.27,12.27,0,0,1,3.74-1.25,21.37,21.37,0,0,0,2.32-.35,3.76,3.76,0,0,1,1.85-.43c.35-.33,0-.58-.13-.8s-1.26-.89-1.43-1.2a3.58,3.58,0,0,0-2-.77s-2.38-.24-3.21-.39c-.34-.53,1.6-1.2,2.2-1.47l.93-.18a9.24,9.24,0,0,1,3.63,0,20.31,20.31,0,0,0,5.34,1.22,14.92,14.92,0,0,0,1.73.14,10.36,10.36,0,0,1,2.75.69c.18.1.35.21.52.32a10.08,10.08,0,0,1,1.2,1.12,4,4,0,0,1,.81,1.47,6.07,6.07,0,0,1,.12,1.65,4.76,4.76,0,0,1-.23.82c-.12.39-.6.74-.16,1.2.19.21,1.8,1.84,2,2,.08.08.37.53.46.65a5.11,5.11,0,0,1,.35.52,3.82,3.82,0,0,1,.24.55,6.65,6.65,0,0,1,.28,1.25,1.64,1.64,0,0,1,0,.76c.1.48.19,1,.29,1.45.42.7.46,2.91.55,3.23s.07,1.63.07,1.9c0,1-.14,3.81-.19,4.26" transform="translate(-4.72 -18.29)"/><path class="cls-30" d="M785.52,491.53c-2.13,1.32-3.92,2.66-6.2,3a20.91,20.91,0,0,1-13.29-2c-.22-.12-.44-.26-.65-.39a2.88,2.88,0,0,1,1.32-.74c1.18-.41,1.69-1.63,1.87-3.17.12-1.11.16-2.23.21-3.39.07-.09.1-.07.16,0a3.26,3.26,0,0,0,.6,1c2.46,2.06,5.06,3.23,7.93,2.3a13.33,13.33,0,0,0,4.29-2.41c.23-.18.44-.44.73-.35,0,.65.14,1,.22,1.58.1.72.22,1.3.36,2a2.88,2.88,0,0,0,1.54,2.14,8.7,8.7,0,0,0,.91.38" transform="translate(-4.72 -18.29)"/><path class="cls-32" d="M778.48,457.22h1.13v.1H767.68a.37.37,0,0,1,0-.11h1a17.88,17.88,0,0,1,2.64-.11c2.31-.07,4.61,0,6.91,0a.55.55,0,0,1,.28.07" transform="translate(-4.72 -18.29)"/><path class="cls-33" d="M782.66,457.19h-1.55a3,3,0,0,1,1.55,0" transform="translate(-4.72 -18.29)"/><path class="cls-34" d="M785,495.68a17.92,17.92,0,0,1-4.58,1.43,28.61,28.61,0,0,1-6.33.61c-.21,0-2.46-.15-2.86-.24,0,0,2.18,0,2.2,0s0-.05,0-.05a29.2,29.2,0,0,0,11.35-1.91c.11,0-.19.17-.07.16Z" transform="translate(-4.72 -18.29)"/><path class="cls-34" d="M773.51,497.45c0,.05,0,.12,0,.17-4.12.12-10-2-11.64-3.32a27.68,27.68,0,0,0,11.6,3.15" transform="translate(-4.72 -18.29)"/><path class="cls-34" d="M784.73,495.6c1.16-.57,2.38-1.06,3.54-1.63a16.67,16.67,0,0,1-4.43,2.1Z" transform="translate(-4.72 -18.29)"/><path class="cls-35" d="M776.45,457.05h-5.77c.2-.19.45-.11.68-.12h4.4c.23,0,.49-.07.69.12" transform="translate(-4.72 -18.29)"/><path class="cls-24" d="M761.83,474.76a14,14,0,1,0,14-14,14,14,0,0,0-14,14" transform="translate(-4.72 -18.29)"/><path class="cls-31" d="M760.13,469.19c0,10.88,7,19.71,15.54,19.71s15.54-8.83,15.54-19.71-7-19.72-15.54-19.72-15.54,8.83-15.54,19.72" transform="translate(-4.72 -18.29)"/><polygon class="cls-15" points="989.87 603.59 997 603.59 999.72 563.22 989.87 563.22 989.87 603.59"/><polyline class="cls-15" points="1015.36 603.59 1016.65 563.22 1006.28 563.22 1008.86 603.59"/><polygon class="cls-36" points="1067.88 603.6 1075.01 603.6 1077.72 563.22 1067.88 563.22 1067.88 603.6"/><polyline class="cls-36" points="1093.37 603.6 1094.66 563.22 1084.29 563.22 1086.87 603.6"/><path class="cls-36" d="M1071.13,474.41c.27,0,.28-.21.25-.4l-.36-2.26a4.51,4.51,0,0,1,0-1.83,8.82,8.82,0,0,0,.1-2.05,1.61,1.61,0,0,1,0-1,31.64,31.64,0,0,1,.72-3.74,7.91,7.91,0,0,1,4.12-5.25,9.69,9.69,0,0,0,2.88-2.42,14.4,14.4,0,0,0,4.77,6.41,11.68,11.68,0,0,0,7.58,2.46,19.5,19.5,0,0,1-1.69-4,.17.17,0,0,1,.26,0c1.51,1.56,3.4,2.67,4.85,4.28a8.31,8.31,0,0,1,2.34,5.1,11.23,11.23,0,0,0,.89-3.8.7.7,0,0,1,.25-.48l-.1.35c0,1.21,0,2,0,3a4.83,4.83,0,0,0,0,.93c0,1.81-.61,5.52-.62,5.77a8.56,8.56,0,0,1-2.1,4.58,15.71,15.71,0,0,1-3.92,2.95c-.6.32-1.67.82-1.87.91l-.14.13a18.15,18.15,0,0,1-4.86,1.56,2.63,2.63,0,0,1-1.23-.19,27.83,27.83,0,0,1-3.2-1,1.1,1.1,0,0,0-.73-.08c0-.29-.16-.42-.42-.52a23.37,23.37,0,0,1-3.88-2.22,17.69,17.69,0,0,1-1.87-1.64,6.06,6.06,0,0,1-1.18-1.67,7.78,7.78,0,0,1-.66-1.88c0-.14-.47-1.68-.49-1.84a.35.35,0,0,1,0-.17.11.11,0,0,1,.15,0" transform="translate(-4.72 -18.29)"/><path class="cls-37" d="M1059.09,506.56c0-.12,0-.24,0-.37-.17-.18-.09-.39-.09-.6a36.53,36.53,0,0,1,1.84-5.74,10.39,10.39,0,0,1,1.46-2c.13-.13,1.26-1.12,1.47-1.27a10.47,10.47,0,0,1,2.74-1.36c.93-.32,1.9-.55,2.83-.89a.54.54,0,0,1,.43,0c.91,1,1.79,2.09,2.78,3.05a24.25,24.25,0,0,0,11.9,6.39,1.83,1.83,0,0,0,.87,0,25.4,25.4,0,0,0,11-5.76,30.23,30.23,0,0,0,2.77-2.89,1.43,1.43,0,0,1,.73-.57,15.28,15.28,0,0,1,4.81,1.71.59.59,0,0,1,.28.32,12.57,12.57,0,0,1,3.12,3.34,13.68,13.68,0,0,1,1.81,5.69c0,.33.3.67,0,1h-50.75" transform="translate(-4.72 -18.29)"/><path class="cls-36" d="M1099.76,494.08a8.45,8.45,0,0,0-1.25,1.47,25.49,25.49,0,0,1-12.74,8.23,4,4,0,0,1-2.21-.06,24.6,24.6,0,0,1-12.53-8.08,9.54,9.54,0,0,1-1.31-1.77c.12-.35.44-.39.71-.48,2-.69,4.13-1.29,6.19-2l1-.33a1.86,1.86,0,0,0,1.28-1.49,20.33,20.33,0,0,0,.42-2.69,19.29,19.29,0,0,0,.15-2.17c.32-.17.64.15.93.24a14.63,14.63,0,0,0,8,.09c.89-.24.91-.27.92-1.26a1.66,1.66,0,0,1,.18-1h.14a41.48,41.48,0,0,0,.25,6.5,2.17,2.17,0,0,0,.87,1.6,14.4,14.4,0,0,1,2.4.72l6,2c.25.08.55.1.63.45" transform="translate(-4.72 -18.29)"/><path class="cls-36" d="M1071.13,474.41H1071a4.11,4.11,0,0,1-2.67-1.93,10.06,10.06,0,0,1-1.34-3.17,3.86,3.86,0,0,1,.48-3.13,1.49,1.49,0,0,1,.74-.53.71.71,0,0,1,.54,0c.46,1.79.91,3.59,1.39,5.38.31,1.15.66,2.28,1,3.42" transform="translate(-4.72 -18.29)"/><path class="cls-36" d="M1098.58,474.25c.2-.47.44-.88.62-1.27a35,35,0,0,0,2.48-6.87l.18-.71c.17.09,0,.29.15.4a3.91,3.91,0,0,1,.57,4.21,7.87,7.87,0,0,1-2.61,3.65,5.87,5.87,0,0,1-1.39.59" transform="translate(-4.72 -18.29)"/><path class="cls-38" d="M1098.21,474.32c-.41.27-.43.75-.64,1.12-.42-.19-.19-.53-.15-.79a41.87,41.87,0,0,0,.61-5,23.89,23.89,0,0,0-.13-3.7,6.82,6.82,0,0,1-.55,3.59,6.62,6.62,0,0,1-.8,1.11,3.19,3.19,0,0,0,.18-1c.15-2.78-1.82-4.82-3.84-6.49-1-.83-2-1.59-3-2.51a13.64,13.64,0,0,0,1.19,2.93c.39.71.3.9-.51.89a11.67,11.67,0,0,1-6.1-1.88,14,14,0,0,1-5.62-6.92,7,7,0,0,1-1.75,1.69,4.36,4.36,0,0,1-1,.64,7.54,7.54,0,0,0-4,4.94,12.25,12.25,0,0,0-.81,5c.06.43.46,2.57.21,2.69-.24-.48-.42-.64-.44.19a16.17,16.17,0,0,1,.47,3.34c0,.2-2-1.12-2.13-.46-.31-.14-1.15-3.47-1.29-6.39,0-.36-.36-5.93-.39-6.22,0-.52.08-10.69,4.6-14a8.2,8.2,0,0,1,5.68-1.24,10.19,10.19,0,0,1,1.49.56c.51-1.56.3-1.9,2.58-3.57A7.56,7.56,0,0,1,1086,442a14.8,14.8,0,0,1,10,3.64,17,17,0,0,1,4.19,6.16,25.47,25.47,0,0,1,1.66,10.59c-.12,1-.07,2.43-.23,3.44a24.48,24.48,0,0,1-1.7,8.43c-.1.21-1.53-.1-1.7.06" transform="translate(-4.72 -18.29)"/><path class="cls-36" d="M1069.89,471.31a14.78,14.78,0,1,0,14.78-14.78,14.78,14.78,0,0,0-14.78,14.78" transform="translate(-4.72 -18.29)"/><path class="cls-38" d="M1068.05,466.38c0,10.88,7.44,19.7,16.62,19.7s16.62-8.82,16.62-19.7-7.44-19.7-16.62-19.7-16.62,8.82-16.62,19.7" transform="translate(-4.72 -18.29)"/><polyline class="cls-39" points="707.82 602.53 709.11 562.15 698.74 562.15 701.32 602.53"/><polyline class="cls-39" points="683.73 602.53 682.44 562.15 692.81 562.15 690.23 602.53"/><path class="cls-40" d="M695.48,489.85c-6.69-2.93-10.3-8.37-11.59-15.64-.74-4.14-.13-8.15.78-12.23,1.43-6.38,7.62-11.12,12.37-11.69,3.76-.45,7.57-.59,11.08,1.38,2.45,1.38,4.9,2.73,6.77,5a12.38,12.38,0,0,1,3.21,8.83,4.13,4.13,0,0,1-.17,1.28,11.18,11.18,0,0,0-.44,3.9,23.46,23.46,0,0,1-3.87,12.6.45.45,0,0,0-.06.56,4.1,4.1,0,0,1-.71,5c-.28.31-.77.46-.78,1a.21.21,0,0,1-.25-.08c-.87-.92-2-.2-2.2.71a4.72,4.72,0,0,1-1.34,2.28,9.42,9.42,0,0,0-1.51,1.58c-.08.13-.21.24-.38.1a6.07,6.07,0,0,1-1.53-4c0-.92,0-1.85,0-2.77a6.73,6.73,0,0,1,0-1.42c.12-.35.45-.45.73-.6a21.68,21.68,0,0,0,3.87-2.57,7.35,7.35,0,0,0,2.35-3.77c.21-.71.42-1.43.58-2.16a1.11,1.11,0,0,1,.69-.87,4.29,4.29,0,0,0,1.82-1.64,7.86,7.86,0,0,0,1.35-3.17,2.38,2.38,0,0,0,0-1c-.47.34-.81.76-1.23,1.09a8.52,8.52,0,0,1-1.74,1.1,2.08,2.08,0,0,1-.88.22c-.56,0-.79-.2-.85-.79a21.33,21.33,0,0,0-.42-2.39,5.58,5.58,0,0,0-4.42-4.41,10,10,0,0,0-3-.22,14.71,14.71,0,0,1-5.65-.81,34.29,34.29,0,0,1-4.1-1.74.84.84,0,0,0-1.07.13,11.25,11.25,0,0,0-2.94,3.49,7.11,7.11,0,0,1-2.75,2.92,2.05,2.05,0,0,1-2.15.29c-.24-.13-.35,0-.42.24a3.59,3.59,0,0,0-.26,1.62,7.69,7.69,0,0,0,2.09,4.31,3.15,3.15,0,0,0,1.14.77,1,1,0,0,1,.63.78c.12.51.3,1,.41,1.54a8.94,8.94,0,0,0,4.05,5.69,27,27,0,0,0,2.45,1.39c.25.13.52.24.64.55a7,7,0,0,1,0,1.45,9.32,9.32,0,0,1-.13,1.75c0,.17,0,.36-.26.39" transform="translate(-4.72 -18.29)"/><path class="cls-39" d="M695.48,489.85a7.4,7.4,0,0,0,.24-2.15c.21-.18.43-.08.65,0a13.76,13.76,0,0,0,8,0c.21-.07.43-.17.64,0,0,1,0,1.93,0,2.89a6.74,6.74,0,0,0,1.5,3.86.56.56,0,0,1,0,.4,3.25,3.25,0,0,0,0,2.45,11.41,11.41,0,0,0,.31,1.73,2.48,2.48,0,0,1-.76,2.4c-.12.12-.26.22-.39.35.16.17.93.06,1,.29a4.54,4.54,0,0,1-1,.33,20.85,20.85,0,0,1-6.77.46,19.24,19.24,0,0,1-6.84-1.78,8.83,8.83,0,0,1-4.75-5.14,1,1,0,0,1-.12-.39c2.17-.71,4.4-1.35,6.58-2a2,2,0,0,0,1.57-1.71,4.06,4.06,0,0,0,.1-2" transform="translate(-4.72 -18.29)"/><path class="cls-39" d="M711.81,496.12l.58-.83,1.85.61a7.78,7.78,0,0,1-1.68,3.08,10.85,10.85,0,0,0-.75-2.86" transform="translate(-4.72 -18.29)"/><path class="cls-39" d="M695.71,486.16a18.41,18.41,0,0,1-4.75-3.07,8,8,0,0,1-2.19-3.6c-.24-.83-.46-1.67-.67-2.51-.07-.27-.16-.45-.45-.51a2.1,2.1,0,0,1-1-.58,6.75,6.75,0,0,1-2.34-5.63,2.69,2.69,0,0,1,.5-1.3c.76.78,1.54.45,2.3,0a6.58,6.58,0,0,0,2.62-2.71,12.16,12.16,0,0,1,3.24-3.84.72.72,0,0,1,.94-.11,23.17,23.17,0,0,0,7.33,2.55,12.79,12.79,0,0,0,2.55.06,9.83,9.83,0,0,1,3.15.28,6,6,0,0,1,4.53,5.23,11,11,0,0,1,.22,1.7c0,.51.26.66.69.63a3.69,3.69,0,0,0,1.67-.67,11.13,11.13,0,0,0,2.27-2,3.3,3.3,0,0,1,0,2,7.66,7.66,0,0,1-2.1,3.66,1.56,1.56,0,0,1-.63.48c-.9.2-1,.93-1.2,1.68a10,10,0,0,1-1.95,4.48,9.79,9.79,0,0,1-2,1.76,24.25,24.25,0,0,1-3.39,2,1.35,1.35,0,0,1-.61.41,32.25,32.25,0,0,1-3.23,1.09,3.09,3.09,0,0,1-1.73,0,31.76,31.76,0,0,1-3.12-1.05,1.35,1.35,0,0,1-.61-.41" transform="translate(-4.72 -18.29)"/><path class="cls-41" d="M695.71,486.16c1.15.43,2.31.82,3.47,1.23a4.71,4.71,0,0,0,3.23-.28c.87-.29,1.74-.63,2.6-.95,0,.51,0,1,0,1.54-.88.19-1.73.49-2.63.61a14,14,0,0,1-6.21-.51l-.44-.1c0-.52,0-1,0-1.54" transform="translate(-4.72 -18.29)"/><polygon class="cls-42" points="1062.17 555.03 1099.06 555.1 1095.59 577.45 1065.16 577.45 1062.17 555.03"/><path class="cls-16" d="M854.41,556.51c0,4.9-5.1,8.87-11.4,8.87-5.74,0-10.49-3.29-11.28-7.58a6.88,6.88,0,0,1-.12-1.29c0-4.89,5.1-8.86,11.4-8.86s11.4,4,11.4,8.86" transform="translate(-4.72 -18.29)"/><polygon class="cls-16" points="831.63 602.92 844.12 602.95 849.67 538.75 826.9 538.75 831.63 602.92"/><path class="cls-16" d="M876.18,556.51c0,4.9-5.1,8.87-11.4,8.87-5.74,0-10.48-3.29-11.28-7.58a6.88,6.88,0,0,1-.12-1.29c0-4.89,5.11-8.86,11.4-8.86s11.4,4,11.4,8.86" transform="translate(-4.72 -18.29)"/><polygon class="cls-16" points="853.4 602.92 865.89 602.95 871.45 538.78 848.67 538.78 853.4 602.92"/><path class="cls-18" d="M851.16,628.33a5.49,5.49,0,0,0,.51-2.31c0-3.5-3.29-6.35-7.34-6.35S837,622.52,837,626a5.65,5.65,0,0,0,.51,2.31Z" transform="translate(-4.72 -18.29)"/><path class="cls-18" d="M873,628.33a5.65,5.65,0,0,0,.51-2.31c0-3.5-3.29-6.35-7.34-6.35s-7.34,2.85-7.34,6.35a5.65,5.65,0,0,0,.51,2.31Z" transform="translate(-4.72 -18.29)"/><path class="cls-18" d="M1003.65,626.6a4.57,4.57,0,0,0,.4-1.84c0-2.81-2.63-5.09-5.88-5.09s-5.87,2.28-5.87,5.09a4.41,4.41,0,0,0,.4,1.84Z" transform="translate(-4.72 -18.29)"/><path class="cls-18" d="M1022.47,626.6a4.42,4.42,0,0,0,.41-1.84c0-2.81-2.63-5.09-5.88-5.09s-5.88,2.28-5.88,5.09a4.42,4.42,0,0,0,.41,1.84Z" transform="translate(-4.72 -18.29)"/><path class="cls-18" d="M697,626a4.57,4.57,0,0,0,.4-1.84c0-2.81-2.63-5.09-5.88-5.09s-5.87,2.28-5.87,5.09a4.57,4.57,0,0,0,.4,1.84Z" transform="translate(-4.72 -18.29)"/><path class="cls-18" d="M715.05,626a4.42,4.42,0,0,0,.41-1.84c0-2.81-2.64-5.09-5.88-5.09s-5.88,2.28-5.88,5.09a4.42,4.42,0,0,0,.41,1.84Z" transform="translate(-4.72 -18.29)"/><path class="cls-43" d="M881.31,300.34s.54,83.88-.81,99.35c-2.09,24-20.2,37.67-20.2,37.67" transform="translate(-4.72 -18.29)"/><polygon class="cls-44" points="710.11 522.83 680.6 523.03 680.62 509.57 710.11 509.57 710.11 522.83"/><path class="cls-45" d="M721.05,549.67v-.07h0a9.71,9.71,0,0,0-9.53-9.43l-22-.08a9.64,9.64,0,0,0-9.64,9.51h0v0s0,.07,0,.1a9.89,9.89,0,0,0,.37,2.63l4.66,34.74h30.43l5.2-34.15a9.52,9.52,0,0,0,.51-3.08c0-.07,0-.14,0-.2" transform="translate(-4.72 -18.29)"/><path class="cls-15" d="M989.1,498a9,9,0,0,0,.68,9c.11.18.23.36.35.54-.62.14,3.07,12.59,3.07,12.59h-5c-4.7-16-3.09-21.17.9-22.13" transform="translate(-4.72 -18.29)"/><polygon class="cls-15" points="985.33 509.58 988.25 521.04 988.27 509.57 985.33 509.58"/><polygon class="cls-46" points="1017.75 522.83 988.25 523.03 988.27 509.57 1017.75 509.57 1017.75 522.83"/><path class="cls-47" d="M1028.82,549.67v-.07h0a9.69,9.69,0,0,0-9.48-9.46l-22,0a9.64,9.64,0,0,0-9.64,9.51h0v.13a9.5,9.5,0,0,0,.37,2.63l4.66,34.74h30.43l5.2-34.15a9.8,9.8,0,0,0,.51-3.08c0-.07,0-.14,0-.2" transform="translate(-4.72 -18.29)"/><path class="cls-43" d="M1085.4,436.34s-2.85-38.57-43.15-39.27-60.73-.31-74-.72c-14.46-.44-18.13-4.35-20.63-11.28-2.58-7.13-2.31-83.77-2.31-83.77" transform="translate(-4.72 -18.29)"/><path class="cls-43" d="M1170.37,436.34s-4.14-56-62.62-57-88.09-.45-107.36-1c-21-.64-25.85-3.73-29.52-15.09-3.39-10.47-3.75-61.78-3.75-61.78" transform="translate(-4.72 -18.29)"/><path class="cls-43" d="M904.19,300.82s-.54,82.76.8,98.23c2.1,24,20.21,37.68,20.21,37.68" transform="translate(-4.72 -18.29)"/><rect class="cls-38" x="1063.08" y="442.15" width="34.14" height="27.79"/><path class="cls-15" d="M1026.39,498a9.05,9.05,0,0,1-.68,9l-.35.54c.62.13-3.08,12.59-3.08,12.59h5c4.71-16,3.09-21.17-.89-22.13" transform="translate(-4.72 -18.29)"/><polygon class="cls-15" points="1020.71 509.59 1017.79 521.05 1017.77 509.58 1020.71 509.59"/><path class="cls-46" d="M1028.26,499.25c-.3-.88-.88-1.14-1.61-1.55a11,11,0,0,0-3.71-1.07c-1.07-.18-1.43-.32-1.67.29a5.15,5.15,0,0,1-1,1.53,14.6,14.6,0,0,1-6.7,3.77,23.54,23.54,0,0,1-12.92-.92,8.66,8.66,0,0,1-5.41-5.23c-.06-.16-.24-.77-.24-.77s-1.41,0-1.73.09a7.64,7.64,0,0,0-4.41,2.69,2.82,2.82,0,0,0-.51,1,9.51,9.51,0,0,0,.68,7.32,2.57,2.57,0,0,0,1,1.14s-.3,1.68-.4,2.82a12.47,12.47,0,0,0,2.47,8.79l.86,1h29.49s3.53-2.38,3.77-9.31a12.66,12.66,0,0,0-.52-3.31,1.63,1.63,0,0,0,.58-.53,11.63,11.63,0,0,0,2.15-5.59,5.15,5.15,0,0,0-.2-2.13" transform="translate(-4.72 -18.29)"/><path class="cls-28" d="M1005.17,489a15,15,0,0,1-.17,3.48,10,10,0,0,1-3.23,5.1,13.52,13.52,0,0,1-6.36,3,9.25,9.25,0,0,0-3.24,1.23,4.26,4.26,0,0,0-2.31,3.9c0,.14.09.28-.14.27a9.85,9.85,0,0,1-2.82-5.54,2.3,2.3,0,0,0-.1-.35,1,1,0,0,1,0-1.12,10.31,10.31,0,0,1,4.81-8.6c.78-.52,1.54-1.06,2.32-1.58a8.32,8.32,0,0,0,3.71-4.89,7.64,7.64,0,0,1,1.63,1,26.12,26.12,0,0,0,5.47,2.4.88.88,0,0,1,.32.16,1.88,1.88,0,0,1,.16,1.57" transform="translate(-4.72 -18.29)"/><path class="cls-39" d="M681.46,498a9.07,9.07,0,0,0,.68,9c.11.18.23.36.35.54-.62.13,3.07,12.59,3.07,12.59h-5c-4.7-16-3.08-21.17.9-22.14" transform="translate(-4.72 -18.29)"/><polygon class="cls-39" points="677.69 509.58 680.61 521.05 680.63 509.58 677.69 509.58"/><path class="cls-39" d="M718.75,498a9.07,9.07,0,0,1-.68,9c-.11.18-.23.36-.35.54.62.14-3.07,12.59-3.07,12.59h5c4.7-16,3.09-21.17-.9-22.14" transform="translate(-4.72 -18.29)"/><polygon class="cls-39" points="713.07 509.6 710.15 521.06 710.13 509.59 713.07 509.6"/><path class="cls-44" d="M720.61,499.25a4.47,4.47,0,0,0-1.6-2,12.19,12.19,0,0,0-3.39-1.63c-1-.41-1.13-.32-1.34.28,0,0,0,0,0,0-.24.18-.29.49-.42.74a6.21,6.21,0,0,1-1.2,1.81,18.57,18.57,0,0,1-7,3.77A21.74,21.74,0,0,1,693,501.3a9,9,0,0,1-5.41-5.23c-.06-.16-.24-.77-.24-.77s-1.41,0-1.72.09a7.63,7.63,0,0,0-4.42,2.69,3,3,0,0,0-.51,1,9.51,9.51,0,0,0,.69,7.32,2.49,2.49,0,0,0,1,1.14s-.29,1.68-.4,2.82a12.43,12.43,0,0,0,2.48,8.79l.85,1h29.49s3.53-2.38,3.77-9.31a13,13,0,0,0-.51-3.31,1.63,1.63,0,0,0,.58-.53,11.72,11.72,0,0,0,2.14-5.59,5,5,0,0,0-.2-2.13" transform="translate(-4.72 -18.29)"/><path class="cls-40" d="M706.34,497.32a3.14,3.14,0,0,1,.2-2.87,6,6,0,0,1,1.31-1.5,4.62,4.62,0,0,0,1.62-2.49,1.59,1.59,0,0,1,1.31-1.3,1.3,1.3,0,0,1,1.28.67,5.48,5.48,0,0,1,.52,4.9c-.06.19-.13.37-.19.56a1.1,1.1,0,0,1-.62.91,2.46,2.46,0,0,1-.92-.28,4.11,4.11,0,0,0-2.57-.06,2.47,2.47,0,0,0-1.54,1.13c-.09.15-.13.4-.4.33" transform="translate(-4.72 -18.29)"/><path class="cls-40" d="M711.81,496.12a2.89,2.89,0,0,1,.92,2.39c-.53,2.26-2.18,3.1-4.14,3.53a6.31,6.31,0,0,1-2.41,0,2.66,2.66,0,0,1-.89-.2c.21-.18.41-.32.58-.49a2.34,2.34,0,0,0,.74-2.5,6.38,6.38,0,0,1-.27-1.57c.92-2,3.38-2.14,5.06-1.37.13.07.27.11.41.17" transform="translate(-4.72 -18.29)"/><polygon class="cls-4" points="928.41 605.58 925.69 605.59 923.82 560.26 930.34 560.26 928.41 605.58"/><rect class="cls-4" x="925.68" y="564.08" width="2.72" height="51.9"/><polygon class="cls-4" points="951.83 613.94 928.39 610.12 925.7 610.12 902.3 613.94 925.69 605.59 928.41 605.57 951.83 613.94"/><path class="cls-5" d="M934.14,634.3a2.37,2.37,0,1,1-2.37-2.37,2.37,2.37,0,0,1,2.37,2.37" transform="translate(-4.72 -18.29)"/><path class="cls-5" d="M956.59,631.65a2.37,2.37,0,1,1-2.37-2.37,2.37,2.37,0,0,1,2.37,2.37" transform="translate(-4.72 -18.29)"/><path class="cls-5" d="M911.72,631.65a2.37,2.37,0,1,1-2.37-2.37,2.37,2.37,0,0,1,2.37,2.37" transform="translate(-4.72 -18.29)"/><path class="cls-5" d="M959,566.67c0,6.71-5,12.14-11.11,12.14H914.26c-6.14,0-11.11-5.43-11.11-12.14V501.89c0-6.7,5-12.14,11.11-12.14h33.62c6.14,0,11.11,5.44,11.11,12.14Z" transform="translate(-4.72 -18.29)"/><rect class="cls-6" x="916.62" y="560.54" width="20.49" height="4.25"/><path class="cls-18" d="M793.79,629.79a6.7,6.7,0,0,0,.41-2.3,5.9,5.9,0,1,0-11.76,0,6.94,6.94,0,0,0,.4,2.3Z" transform="translate(-4.72 -18.29)"/><polygon class="cls-27" points="789.35 604.02 793.89 558.4 781.37 558.4 781.37 562.66 775.87 562.66 778.02 604.02 789.35 604.02"/><path class="cls-18" d="M761.5,629.79a6.7,6.7,0,0,1-.41-2.3,5.9,5.9,0,1,1,11.76,0,6.7,6.7,0,0,1-.41,2.3Z" transform="translate(-4.72 -18.29)"/><polygon class="cls-27" points="756.49 604.02 751.96 558.4 764.48 558.4 764.48 562.66 769.97 562.66 767.82 604.02 756.49 604.02"/><polygon class="cls-4" points="774.3 605.58 771.58 605.59 769.71 560.26 776.23 560.26 774.3 605.58"/><rect class="cls-4" x="771.57" y="564.08" width="2.72" height="51.9"/><polygon class="cls-4" points="797.72 613.94 774.28 610.12 771.59 610.12 748.19 613.94 771.58 605.59 774.3 605.57 797.72 613.94"/><path class="cls-5" d="M780,634.3a2.37,2.37,0,1,1-2.37-2.37A2.37,2.37,0,0,1,780,634.3" transform="translate(-4.72 -18.29)"/><path class="cls-5" d="M802.48,631.65a2.37,2.37,0,1,1-2.37-2.37,2.37,2.37,0,0,1,2.37,2.37" transform="translate(-4.72 -18.29)"/><path class="cls-5" d="M757.61,631.65a2.37,2.37,0,1,1-2.37-2.37,2.37,2.37,0,0,1,2.37,2.37" transform="translate(-4.72 -18.29)"/><path class="cls-5" d="M804.88,566.67c0,6.71-5,12.14-11.11,12.14H760.15c-6.14,0-11.11-5.43-11.11-12.14V501.89c0-6.7,5-12.14,11.11-12.14h33.62c6.14,0,11.11,5.44,11.11,12.14Z" transform="translate(-4.72 -18.29)"/><rect class="cls-6" x="762.51" y="560.54" width="20.49" height="4.25"/><polygon class="cls-4" points="1082.3 605.58 1079.58 605.59 1077.71 560.26 1084.23 560.26 1082.3 605.58"/><rect class="cls-4" x="1079.58" y="564.08" width="2.72" height="51.9"/><polygon class="cls-4" points="1105.71 613.94 1082.28 610.12 1079.59 610.12 1056.19 613.94 1079.58 605.59 1082.3 605.58 1105.71 613.94"/><path class="cls-5" d="M1088,634.31a2.37,2.37,0,1,1-2.37-2.37,2.38,2.38,0,0,1,2.37,2.37" transform="translate(-4.72 -18.29)"/><path class="cls-5" d="M1110.48,631.66a2.37,2.37,0,1,1-2.37-2.37,2.38,2.38,0,0,1,2.37,2.37" transform="translate(-4.72 -18.29)"/><path class="cls-5" d="M1065.61,631.66a2.37,2.37,0,1,1-2.37-2.37,2.38,2.38,0,0,1,2.37,2.37" transform="translate(-4.72 -18.29)"/><path class="cls-5" d="M1112.88,566.67c0,6.71-5,12.15-11.11,12.15h-33.62c-6.14,0-11.11-5.44-11.11-12.15V501.89c0-6.7,5-12.14,11.11-12.14h33.62c6.14,0,11.11,5.44,11.11,12.14Z" transform="translate(-4.72 -18.29)"/><rect class="cls-6" x="1070.51" y="560.54" width="20.49" height="4.25"/><path class="cls-43" d="M1006.8,436.34s-1.68-22.71-25.4-23.12-28.27.08-36.09-.26c-10.25-.45-18.1-4.31-19.55-14.7-.61-4.42-1.42-97.44-1.42-97.44" transform="translate(-4.72 -18.29)"/><path class="cls-43" d="M700.36,435.37s2.85-38.57,43.16-39.27,60.72-.31,74-.72c14.45-.44,18.12-4.35,20.62-11.28,2.58-7.13,2.31-83.28,2.31-83.28" transform="translate(-4.72 -18.29)"/><path class="cls-43" d="M615.4,435.37s4.14-56,62.61-57,88.09-.45,107.36-1c21-.64,25.85-3.73,29.53-15.09,3.39-10.46,3.74-61.78,3.74-61.78" transform="translate(-4.72 -18.29)"/><path class="cls-43" d="M779,435.37s1.68-22.71,25.4-23.12,28.28.08,36.09-.26c10.25-.45,18.1-4.31,19.55-14.7.62-4.42,1.43-96,1.43-96" transform="translate(-4.72 -18.29)"/></g><g class="cls-48"><path class="cls-49" d="M831.27,197a130.2,130.2,0,0,0,5.64-37.8c0-77.07-67.53-139.54-150.83-139.54-60.42,0-112.52,32.88-136.59,80.34A160.84,160.84,0,0,0,489.3,88.38c-83.3,0-150.83,62.47-150.83,139.54,0,75.61,65,137.13,146.15,139.43v.11H822.08c51,0,92.37-38.26,92.37-85.46,0-44.33-36.48-80.78-83.18-85" transform="translate(-4.72 -18.29)"/><path class="cls-50" d="M831.27,197a130.2,130.2,0,0,0,5.64-37.8c0-77.07-67.53-139.54-150.83-139.54-60.42,0-112.52,32.88-136.59,80.34A160.84,160.84,0,0,0,489.3,88.38c-83.3,0-150.83,62.47-150.83,139.54,0,75.61,65,137.13,146.15,139.43v.11H822.08c51,0,92.37-38.26,92.37-85.46C914.45,237.67,878,201.22,831.27,197Z" transform="translate(-4.72 -18.29)"/></g><text class="cls-51" transform="translate(375.61 153.45)"></text><text class="cls-52" transform="translate(425.78 153.45)"><tspan class="cls-53"> </tspan><tspan x="3.75" y="0"> </tspan></text><text class="cls-52" transform="translate(399.78 153.45)">Mana<tspan class="cls-54" x="65.72" y="0">g</tspan><tspan x="81.35" y="0">ement der E</tspan><tspan class="cls-55" x="229.68" y="0">r</tspan><tspan class="cls-56" x="241.58" y="0">w</tspan><tspan class="cls-57" x="262.68" y="0">artun</tspan><tspan class="cls-54" x="328.13" y="0">g</tspan><tspan class="cls-57" x="343.76" y="0">en </tspan></text><text class="cls-52" transform="translate(401.78 181.15)">ein<tspan class="cls-58" x="36.65" y="0">z</tspan><tspan x="49.94" y="0">elner </tspan><tspan class="cls-59" x="118.68" y="0">F</tspan><tspan x="132.95" y="0">achab</tspan><tspan class="cls-60" x="208.1" y="0">t</tspan><tspan x="217.74" y="0">ei</tspan><tspan class="cls-61" x="239.44" y="0">l</tspan><tspan x="245.41" y="0">un</tspan><tspan class="cls-62" x="275.31" y="0">g</tspan><tspan x="290.94" y="0">en an den </tspan></text><text class="cls-52" transform="translate(401.78 208.85)">Data Scientist</text><text class="cls-51" transform="translate(376.61 247.65)"></text><text class="cls-52" transform="translate(425.78 247.65)"><tspan class="cls-53"> </tspan><tspan x="3.75" y="0"> </tspan></text><text class="cls-52" transform="translate(402.78 247.65)">Finden und F<tspan class="cls-63" x="173.43" y="0">r</tspan><tspan x="183.6" y="0">dern </tspan><tspan class="cls-60" x="247.51" y="0">v</tspan><tspan class="cls-64" x="261.58" y="0">on </tspan><tspan class="cls-65" x="299.08" y="0">T</tspan><tspan x="312.45" y="0">a</tspan><tspan class="cls-58" x="327.54" y="0">l</tspan><tspan x="333.4" y="0">en</tspan><tspan class="cls-60" x="363.19" y="0">t</tspan><tspan x="372.83" y="0">en </tspan></text><text class="cls-52" transform="translate(401.78 275.35)">mit passenden <tspan class="cls-66" x="185.3" y="0">F</tspan><tspan x="199.57" y="0">hig</tspan><tspan class="cls-63" x="251.46" y="0">k</tspan><tspan x="264.58" y="0">ei</tspan><tspan class="cls-61" x="286.28" y="0">t</tspan><tspan x="295.94" y="0">en und </tspan></text><text class="cls-52" transform="translate(401.78 303.05)"><tspan class="cls-67">P</tspan><tspan x="13.97" y="0">ersnlich</tspan><tspan class="cls-68" x="123.88" y="0">k</tspan><tspan class="cls-57" x="137" y="0">ei</tspan><tspan class="cls-69" x="158.7" y="0">t</tspan><tspan x="168.94" y="0">sei</tspan><tspan class="cls-54" x="202.64" y="0">g</tspan><tspan class="cls-57" x="218.27" y="0">enscha</tspan><tspan class="cls-70" x="304.04" y="0">f</tspan><tspan class="cls-71" x="312.91" y="0">t</tspan><tspan class="cls-57" x="322.57" y="0">en </tspan></text><g class="cls-72"><path class="cls-49" d="M1352.23,196.22a129.92,129.92,0,0,0,5.65-37.8c0-77.07-67.53-139.54-150.84-139.54-60.42,0-112.51,32.88-136.59,80.34a160.79,160.79,0,0,0-60.18-11.58c-83.3,0-150.83,62.47-150.83,139.54,0,75.61,65,137.13,146.14,139.43v.11H1343c51,0,92.38-38.26,92.38-85.46,0-44.33-36.48-80.78-83.19-85" transform="translate(-4.72 -18.29)"/><path class="cls-50" d="M1352.23,196.22a129.92,129.92,0,0,0,5.65-37.8c0-77.07-67.53-139.54-150.84-139.54-60.42,0-112.51,32.88-136.59,80.34a160.79,160.79,0,0,0-60.18-11.58c-83.3,0-150.83,62.47-150.83,139.54,0,75.61,65,137.13,146.14,139.43v.11H1343c51,0,92.38-38.26,92.38-85.46C1435.42,236.93,1398.94,200.48,1352.23,196.22Z" transform="translate(-4.72 -18.29)"/></g><text class="cls-51" transform="translate(899.34 141.35)"></text><text class="cls-52" transform="translate(932.51 147.35)"><tspan class="cls-53"> </tspan><tspan x="3.75" y="0"> </tspan></text><text class="cls-52" transform="translate(921.51 141.35)"><tspan class="cls-73">A</tspan><tspan x="15.53" y="0">ufb</tspan><tspan class="cls-67" x="55.4" y="0">a</tspan><tspan x="70.25" y="0">u </tspan><tspan class="cls-71" x="92.52" y="0">v</tspan><tspan x="106.61" y="0">on </tspan><tspan class="cls-74" x="144.12" y="0">T</tspan><tspan class="cls-56" x="157.02" y="0">e</tspan><tspan x="171.96" y="0">ams </tspan><tspan class="cls-67" x="229.56" y="0">a</tspan><tspan x="244.41" y="0">us Mitarbei</tspan><tspan class="cls-75" x="379.46" y="0">t</tspan><tspan x="389.12" y="0">ern </tspan></text><text class="cls-52" transform="translate(921.51 169.05)">mit <tspan class="cls-62" x="47.11" y="0">F</tspan><tspan x="61.4" y="0">hig</tspan><tspan class="cls-76" x="113.29" y="0">k</tspan><tspan x="126.41" y="0">ei</tspan><tspan class="cls-71" x="148.12" y="0">t</tspan><tspan x="157.77" y="0">en und Erfahrun</tspan><tspan class="cls-77" x="352.83" y="0">g</tspan><tspan x="368.44" y="0">en, </tspan></text><text class="cls-52" transform="translate(921.51 196.75)">die sich e<tspan class="cls-78" x="115" y="0">r</tspan><tspan class="cls-75" x="125.34" y="0">g</tspan><tspan x="141.34" y="0">n</tspan><tspan class="cls-73" x="170.28" y="0">z</tspan><tspan x="183.57" y="0">en</tspan></text><text class="cls-51" transform="translate(899.34 235.55)"></text><text class="cls-52" transform="translate(932.51 241.55)"><tspan class="cls-53"> </tspan><tspan x="3.75" y="0"> </tspan></text><text class="cls-52" transform="translate(921.51 235.55)">F<tspan class="cls-79" x="30.36" y="0">r</tspan><tspan class="cls-80" x="40.55" y="0">dern </tspan><tspan class="cls-81" x="104.47" y="0">v</tspan><tspan x="118.54" y="0">on </tspan><tspan class="cls-62" x="156.04" y="0">g</tspan><tspan class="cls-75" x="171.67" y="0">e</tspan><tspan class="cls-62" x="186.43" y="0">g</tspan><tspan x="202.06" y="0">enseiti</tspan><tspan class="cls-62" x="282.16" y="0">g</tspan><tspan x="297.79" y="0">er </tspan></text><text class="cls-52" transform="translate(921.51 263.25)">Un<tspan class="cls-81" x="34.8" y="0">t</tspan><tspan class="cls-80" x="44.43" y="0">ersttzun</tspan><tspan class="cls-82" x="159.85" y="0">g</tspan><tspan class="cls-80" x="175.87" y="0">, Lernen und </tspan></text><text class="cls-52" transform="translate(921.51 290.95)"><tspan class="cls-83">W</tspan><tspan x="26.51" y="0">ei</tspan><tspan class="cls-71" x="48.21" y="0">t</tspan><tspan x="57.87" y="0">e</tspan><tspan class="cls-63" x="72.72" y="0">r</tspan><tspan x="82.89" y="0">en</tspan><tspan class="cls-84" x="112.68" y="0">t</tspan><tspan x="123.39" y="0">wic</tspan><tspan class="cls-85" x="165.16" y="0">k</tspan><tspan class="cls-71" x="178.7" y="0">l</tspan><tspan x="184.67" y="0">ung</tspan></text><g class="cls-86"><path class="cls-49" d="M1740.33,169.37a94.56,94.56,0,0,0,4.11-27.53c0-56.15-49.19-101.66-109.88-101.66-44,0-82,24-99.5,58.53a117.05,117.05,0,0,0-43.84-8.44c-60.69,0-109.88,45.51-109.88,101.65,0,55.09,47.36,99.91,106.46,101.58v.08h245.83c37.17,0,67.3-27.88,67.3-62.26,0-32.29-26.58-58.84-60.6-61.95" transform="translate(-4.72 -18.29)"/><path class="cls-87" d="M1740.33,169.37a94.56,94.56,0,0,0,4.11-27.53c0-56.15-49.19-101.66-109.88-101.66-44,0-82,24-99.5,58.53a117.05,117.05,0,0,0-43.84-8.44c-60.69,0-109.88,45.51-109.88,101.65,0,55.09,47.36,99.91,106.46,101.58v.08h245.83c37.17,0,67.3-27.88,67.3-62.26C1800.93,199,1774.35,172.48,1740.33,169.37Z" transform="translate(-4.72 -18.29)"/></g><text class="cls-51" transform="translate(1407.23 156.2)"></text><text class="cls-52" transform="translate(1426.4 156.2)"> </text><text class="cls-52" transform="translate(1432.99 156.2)"> </text><text class="cls-52" transform="translate(1432.99 156.2)"><tspan class="cls-73">A</tspan><tspan x="15.53" y="0">usrich</tspan><tspan class="cls-81" x="88.91" y="0">t</tspan><tspan x="98.54" y="0">en </tspan><tspan class="cls-71" x="135.66" y="0">v</tspan><tspan x="149.75" y="0">on </tspan><tspan class="cls-88" x="187.25" y="0">A</tspan><tspan x="202.79" y="0">us- und </tspan></text><text class="cls-52" transform="translate(1432.99 183.9)"><tspan class="cls-89">W</tspan><tspan x="26.53" y="0">ei</tspan><tspan class="cls-71" x="48.23" y="0">t</tspan><tspan x="57.89" y="0">erbi</tspan><tspan class="cls-67" x="106.39" y="0">l</tspan><tspan class="cls-90" x="112.22" y="0">d</tspan><tspan x="128.71" y="0">un</tspan><tspan class="cls-88" x="158.6" y="0">g</tspan><tspan class="cls-91" x="174.48" y="0">s</tspan><tspan x="186.64" y="0">an</tspan><tspan class="cls-62" x="216.69" y="0">g</tspan><tspan x="232.32" y="0">ebo</tspan><tspan class="cls-81" x="278.5" y="0">t</tspan><tspan class="cls-80" x="288.14" y="0">en </tspan></text><text class="cls-52" transform="translate(1432.99 211.6)">an Gesch<tspan class="cls-70" x="126.93" y="0">f</tspan><tspan class="cls-92" x="135.8" y="0">t</tspan><tspan class="cls-91" x="146.04" y="0">s</tspan><tspan class="cls-93" x="158.21" y="0">anfo</tspan><tspan class="cls-76" x="212.32" y="0">r</tspan><tspan class="cls-80" x="222.49" y="0">derun</tspan><tspan class="cls-62" x="294.04" y="0">g</tspan><tspan x="309.67" y="0">en</tspan></text><g class="cls-94"><path class="cls-49" d="M324.54,154.5a84.41,84.41,0,0,0,3.65-24.5c0-50-43.77-90.45-97.77-90.45-39.16,0-72.93,21.31-88.53,52.07a104.38,104.38,0,0,0-39-7.5c-54,0-97.77,40.5-97.77,90.45,0,49,42.14,88.89,94.73,90.38V265H318.58c33.07,0,59.88-24.8,59.88-55.4,0-28.73-23.65-52.35-53.92-55.12" transform="translate(-4.72 -18.29)"/><path class="cls-95" d="M324.54,154.5a84.41,84.41,0,0,0,3.65-24.5c0-50-43.77-90.45-97.77-90.45-39.16,0-72.93,21.31-88.53,52.07a104.38,104.38,0,0,0-39-7.5c-54,0-97.77,40.5-97.77,90.45,0,49,42.14,88.89,94.73,90.38V265H318.58c33.07,0,59.88-24.8,59.88-55.4C378.46,180.89,354.81,157.27,324.54,154.5Z" transform="translate(-4.72 -18.29)"/></g><text class="cls-96" transform="translate(46.27 150.23)">Ansprche an </text><text class="cls-96" transform="translate(46.27 190.13)">das Un<tspan class="cls-97" x="116.32" y="0">t</tspan><tspan x="129.49" y="0">ernehmen:</tspan></text><g class="cls-98"><path class="cls-99" d="M407,697.62c1.16-.33,2.28-.68,3.44-.94-.07-.9-.11-1.66-.18-2.52l-3.61-.33c-.22-.83-.39-1.55-.55-2.34,1-.68,2-1.33,2.94-2-.4-.83-.66-1.56-1-2.28-1.27.29-2.39.55-3.51.83-.5-.72-.89-1.4-1.33-2,.77-1,1.44-1.84,2.17-2.85-.62-.61-1.16-1.16-1.78-1.84-1,.68-2,1.3-2.93,1.91l-1.88-1.44c.39-1.12.72-2.24,1.05-3.36-.77-.39-1.45-.78-2.21-1.16-.72,1-1.45,1.84-2.1,2.74-.9-.28-1.56-.55-2.39-.83V675.8l-2.5-.33c-.39,1.11-.76,2.12-1.11,3.13H387c-.4-1.05-.77-2.06-1.16-3.13-.95.22-1.67.33-2.57.5v3.35c-.83.29-1.48.55-2.21.79-.72-.9-1.44-1.73-2.1-2.63-.83.5-1.49.9-2.27,1.29.39,1.12.72,2.17,1,3.24-.66.51-1.27,1-1.84,1.45-1-.61-1.89-1.16-2.83-1.77-.61.72-1.16,1.33-1.73,1.94.73,1,1.34,1.78,2,2.67-.44.68-.9,1.34-1.27,2-1.16-.22-2.17-.5-3.22-.72-.4.9-.66,1.62-1,2.39,1,.68,1.84,1.22,2.78,1.84-.22.78-.39,1.51-.55,2.27-1.11.11-2.16.22-3.32.4-.07.83-.11,1.66-.18,2.56,1.16.33,2.17.54,3.22.9.11.78.17,1.5.22,2.23-1.05.5-2.06,1-3.05,1.51l.62,2.52c1.27-.11,2.32-.18,3.44-.29.32.79.61,1.4.94,2.12-.9.79-1.73,1.56-2.56,2.39.54.79,1,1.44,1.44,2.12,1.16-.43,2.21-.89,3.22-1.33.55.61,1,1.11,1.55,1.66-.54,1-1.11,2.06-1.66,3.11.72.55,1.38,1.05,2.1,1.55.9-.83,1.73-1.62,2.56-2.38.72.39,1.34.72,2,1l-.5,3.61,2.45.83c.62-1.16,1.12-2.16,1.67-3.17l2.21.33c.22,1.16.44,2.34.65,3.5h2.61c.22-1.23.39-2.34.61-3.5.77-.18,1.49-.29,2.21-.4.62,1.12,1.16,2.17,1.78,3.24.89-.28,1.66-.61,2.38-.83-.17-1.33-.39-2.52-.55-3.68.77-.39,1.38-.72,2-1.05.94.9,1.84,1.67,2.78,2.5.72-.55,1.33-1.12,2-1.62-.66-1.16-1.23-2.17-1.77-3.24.61-.61,1.11-1.16,1.62-1.66,1.16.5,2.21.94,3.39,1.4.5-.73.9-1.4,1.33-2.06-.94-.94-1.83-1.78-2.67-2.56.33-.79.62-1.45.94-2.13,1.23.11,2.39.18,3.66.29.22-.9.39-1.62.61-2.45-1.16-.55-2.27-1-3.39-1.51.15-.92.22-1.65.33-2.37m-18.5,13.31a13.6,13.6,0,1,1,13.6-13.6,13.59,13.59,0,0,1-13.6,13.6" transform="translate(-4.72 -18.29)"/></g><g class="cls-100"><text class="cls-101" transform="translate(425.34 687.63) scale(1.01 1)"><tspan class="cls-102">t</tspan><tspan x="8.77" y="0">echnische </tspan><tspan class="cls-103" x="125.53" y="0">B</tspan><tspan class="cls-104" x="138.66" y="0">eg</tspan><tspan x="166.54" y="0">abung</tspan></text></g><g class="cls-105"><polyline class="cls-106" points="1130.88 673.68 1146.51 673.68 1149.52 692.55 1154.73 658.51 1176.03 658.51 1176.03 664.88"/><line class="cls-106" x1="1175.22" y1="699.67" x2="1158.13" y2="673.22"/><line class="cls-106" x1="1157.91" y1="699.67" x2="1175" y2="673.22"/></g><g class="cls-107"><text class="cls-108" transform="translate(1204.72 690.41) scale(1.01 1)">mathematische <tspan class="cls-109" x="177.97" y="0">B</tspan><tspan class="cls-110" x="191.11" y="0">e</tspan><tspan class="cls-111" x="204.53" y="0">g</tspan><tspan x="219.05" y="0">abung</tspan></text></g><g class="cls-112"><path class="cls-99" d="M763.89,675.47c-14.12,0-25.57,8.8-25.57,19.67,0,5.32,2.76,10.16,7.24,13.7-.26,3.61-1.13,8-3.65,10.41,5,0,10.13-3.14,13.37-5.59a32.5,32.5,0,0,0,8.61,1.14c14.12,0,25.57-8.8,25.57-19.66S778,675.47,763.89,675.47" transform="translate(-4.72 -18.29)"/></g><g class="cls-113"><text class="cls-108" transform="translate(808.1 690.3) scale(1.01 1)"><tspan class="cls-114">K</tspan><tspan x="15.41" y="0">ommuni</tspan><tspan class="cls-115" x="104.83" y="0">k</tspan><tspan x="117.16" y="0">ationsstr</tspan><tspan class="cls-116" x="226.56" y="0">k</tspan><tspan x="238.49" y="0">e</tspan></text><text class="cls-108" transform="translate(61.82 685.96) scale(1.01 1)">Gesch<tspan class="cls-117" x="81.42" y="0">f</tspan><tspan x="89.49" y="0">t</tspan><tspan class="cls-118" x="98.36" y="0">v</tspan><tspan class="cls-119" x="111.17" y="0">erstndnis</tspan></text></g><g class="cls-120"><polyline class="cls-121" points="1.35 699.64 14.88 678.22 26.62 685.66 43.52 659.24"/></g><polygon class="cls-99" points="45 657.25 37.97 661.02 44.36 665.25 45 657.25"/><g class="cls-122"><path class="cls-99" d="M1582.88,712.2a2.06,2.06,0,0,1-2.09,2h-8.21a2,2,0,1,1,0-4h8.21a2.06,2.06,0,0,1,2.09,2" transform="translate(-4.72 -18.29)"/><path class="cls-99" d="M1581.46,717.26a1.86,1.86,0,0,1-1.64,2h-6.45a2,2,0,0,1,0-4h6.45a1.85,1.85,0,0,1,1.64,2" transform="translate(-4.72 -18.29)"/><path class="cls-99" d="M1590.92,689.87a14.4,14.4,0,0,0-28.8,0,14.52,14.52,0,0,0,.33,3,.45.45,0,0,0,0,.16,14.34,14.34,0,0,0,4,7.07,26.24,26.24,0,0,1,1.73,3.92c.78,2.71,2.61,5.05,5.83,5.05h5.13c3.22,0,5.16-2.33,5.89-5.05a25.45,25.45,0,0,1,1.44-3.78,14,14,0,0,0,4.46-10.41" transform="translate(-4.72 -18.29)"/></g><g class="cls-107"><text class="cls-108" transform="translate(1600.62 688.96)">k<tspan class="cls-123" x="12.41" y="0">r</tspan><tspan class="cls-124" x="21.66" y="0">e</tspan><tspan x="35.23" y="0">ati</tspan><tspan class="cls-125" x="64.04" y="0">v</tspan><tspan x="76.86" y="0">e </tspan><tspan class="cls-126" x="97.01" y="0">B</tspan><tspan class="cls-125" x="110.16" y="0">e</tspan><tspan class="cls-127" x="123.57" y="0">g</tspan><tspan x="138.09" y="0">abung</tspan></text></g></g></g></svg>