<svg xmlns="http://www.w3.org/2000/svg" xmlns:xlink="http://www.w3.org/1999/xlink" viewBox="0 0 1553 440.06">
    <defs>
        <style>.cls-1,.cls-10,.cls-13,.cls-14,.cls-19,.cls-7,.cls-9{fill:none;}.cls-2{clip-path:url(#clip-path);}.cls-3{fill:#1597b2;}.cls-4{font-size:34.93px;font-family:Quicksand-Light, Quicksand;}.cls-11,.cls-4{fill:#fff;}.cls-5{letter-spacing:0em;}.cls-6{letter-spacing:-0.02em;}.cls-13,.cls-19,.cls-7,.cls-9{stroke:#fff;}.cls-7{stroke-width:2px;}.cls-8{clip-path:url(#clip-path-2);}.cls-10,.cls-13,.cls-14,.cls-9{stroke-miterlimit:10;}.cls-10,.cls-9{stroke-width:2.56px;}.cls-10,.cls-14{stroke:#ccc;}.cls-12{clip-path:url(#clip-path-5);}.cls-13,.cls-14{stroke-width:1.91px;}.cls-15{clip-path:url(#clip-path-8);}.cls-16{clip-path:url(#clip-path-10);}.cls-17{letter-spacing:-0.02em;}.cls-18{letter-spacing:0.02em;}.cls-19{stroke-linecap:round;stroke-linejoin:round;stroke-width:2.16px;}.cls-20{clip-path:url(#clip-path-14);}</style>
        <clipPath id="clip-path">
            <rect class="cls-1" width="1553" height="440.06"/>
        </clipPath>
        <clipPath id="clip-path-2">
            <rect class="cls-1" x="1244.79" y="54.72" width="176.36" height="193.25"/>
        </clipPath>
        <clipPath id="clip-path-5">
            <rect class="cls-1" x="764.94" y="50.44" width="131.39" height="143.97"/>
        </clipPath>
        <clipPath id="clip-path-8">
            <rect class="cls-1" x="710.81" y="77.22" width="131.39" height="143.97"/>
        </clipPath>
        <clipPath id="clip-path-10">
            <rect class="cls-1" x="656.67" y="104" width="131.39" height="143.97"/>
        </clipPath>
        <clipPath id="clip-path-14">
            <rect class="cls-1" x="122.55" y="54.21" width="194.95" height="194.95"/>
        </clipPath>
    </defs>
    <title>Element 1</title>
    <g id="Ebene_2" data-name="Ebene 2">
        <g id="Ebene_1-2" data-name="Ebene 1">
            <g class="cls-2">
                <path class="cls-3"
                      d="M1333,440.06c121.52,0,220-98.51,220-220S1454.49,0,1333,0s-220,98.51-220,220,98.51,220,220,220"/>
            </g>
            <text class="cls-4" transform="translate(1194.24 327.96)">BEFR
                <tspan class="cls-5" x="84.41" y="0">A</tspan>
                <tspan class="cls-6" x="106.83" y="0">G</tspan>
                <tspan x="134.39" y="0">TE N</tspan>
                <tspan class="cls-5" x="215.14" y="0">A</tspan>
                <tspan x="237.56" y="0">CH</tspan>
            </text>
            <text class="cls-4" transform="translate(1223.64 372.21)">GESCHLECHT</text>
            <line class="cls-7" x1="1190.85" y1="277.02" x2="1483.35" y2="277.02"/>
            <rect class="cls-3" x="1247.28" y="57.2" width="134.63" height="188.28"/>
            <g class="cls-8">
                <rect class="cls-9" x="1247.28" y="57.2" width="134.63" height="188.28"/>
            </g>
            <rect class="cls-9" x="1265.66" y="80.05" width="32.29" height="32.29"/>
            <rect class="cls-9" x="1265.66" y="125.26" width="32.29" height="32.29"/>
            <rect class="cls-9" x="1265.66" y="170.47" width="32.29" height="32.29"/>
            <line class="cls-9" x1="1309.87" y1="87.01" x2="1362.53" y2="87.01"/>
            <line class="cls-9" x1="1309.87" y1="93.96" x2="1348.13" y2="93.96"/>
            <line class="cls-9" x1="1309.87" y1="131.22" x2="1362.53" y2="131.22"/>
            <line class="cls-9" x1="1309.87" y1="138.18" x2="1348.13" y2="138.18"/>
            <line class="cls-9" x1="1309.87" y1="176.43" x2="1362.53" y2="176.43"/>
            <line class="cls-9" x1="1309.87" y1="183.38" x2="1348.13" y2="183.38"/>
            <polyline class="cls-10" points="1279.73 92.8 1284.7 100.75 1308.55 76.24"/>
            <rect class="cls-11" x="1340.31" y="150.35" width="93.4" height="11.43"
                  transform="translate(558.38 1279.24) rotate(-60)"/>
            <rect class="cls-10" x="1340.31" y="150.35" width="93.4" height="11.43"
                  transform="translate(558.38 1279.24) rotate(-60)"/>
            <polygon class="cls-11" points="1355.08 210.86 1357.65 197.06 1366.04 201.9 1355.08 210.86"/>
            <polygon class="cls-10" points="1355.08 210.86 1357.65 197.06 1366.04 201.9 1355.08 210.86"/>
            <g class="cls-8">
                <path class="cls-11" d="M1416.48,115.14l-8.89-5.13s3.53-4.56,7.21-2.49c3.87,2.18,1.68,7.62,1.68,7.62"/>
                <path class="cls-10"
                      d="M1416.48,115.14l-8.89-5.13s3.53-4.56,7.21-2.49C1418.67,109.7,1416.48,115.14,1416.48,115.14Z"/>
            </g>
            <g class="cls-2">
                <path class="cls-3"
                      d="M776.5,440.06c121.52,0,220-98.51,220-220S898,0,776.5,0s-220,98.51-220,220,98.51,220,220,220"/>
            </g>
            <text class="cls-4" transform="translate(690.52 327.96)">BEFR
                <tspan class="cls-5" x="84.41" y="0">A</tspan>
                <tspan class="cls-6" x="106.83" y="0">G</tspan>
                <tspan x="134.39" y="0">TE</tspan>
            </text>
            <text class="cls-4" transform="translate(708.64 372.21)">GESAMT</text>
            <line class="cls-7" x1="632.73" y1="277.02" x2="925.22" y2="277.02"/>
            <rect class="cls-3" x="766.79" y="52.29" width="100.3" height="140.27"/>
            <g class="cls-12">
                <rect class="cls-13" x="766.79" y="52.29" width="100.3" height="140.27"/>
            </g>
            <rect class="cls-13" x="780.48" y="69.32" width="24.06" height="24.06"/>
            <rect class="cls-13" x="780.48" y="103" width="24.06" height="24.06"/>
            <rect class="cls-13" x="780.48" y="136.68" width="24.06" height="24.06"/>
            <line class="cls-13" x1="813.42" y1="74.5" x2="852.66" y2="74.5"/>
            <line class="cls-13" x1="813.42" y1="79.68" x2="841.92" y2="79.68"/>
            <line class="cls-13" x1="813.42" y1="107.44" x2="852.66" y2="107.44"/>
            <line class="cls-13" x1="813.42" y1="112.62" x2="841.92" y2="112.62"/>
            <line class="cls-13" x1="813.42" y1="141.12" x2="852.66" y2="141.12"/>
            <line class="cls-13" x1="813.42" y1="146.3" x2="841.92" y2="146.3"/>
            <polyline class="cls-14" points="790.97 78.82 794.67 84.74 812.44 66.48"/>
            <rect class="cls-11" x="836.1" y="121.69" width="69.58" height="8.51"
                  transform="translate(326.5 817.29) rotate(-60.01)"/>
            <g class="cls-12">
                <rect class="cls-14" x="836.1" y="121.69" width="69.58" height="8.51"
                      transform="translate(326.5 817.29) rotate(-60.01)"/>
            </g>
            <polygon class="cls-11" points="847.11 166.77 849.02 156.49 855.27 160.1 847.11 166.77"/>
            <polygon class="cls-14" points="847.11 166.77 849.02 156.49 855.27 160.1 847.11 166.77"/>
            <g class="cls-12">
                <path class="cls-11" d="M892.85,95.46l-6.63-3.82s2.63-3.4,5.37-1.86,1.26,5.68,1.26,5.68"/>
                <path class="cls-14" d="M892.85,95.46l-6.63-3.82s2.63-3.4,5.37-1.86S892.85,95.46,892.85,95.46Z"/>
            </g>
            <rect class="cls-3" x="712.66" y="79.07" width="100.3" height="140.27"/>
            <g class="cls-15">
                <rect class="cls-13" x="712.66" y="79.07" width="100.3" height="140.27"/>
            </g>
            <rect class="cls-13" x="726.35" y="96.1" width="24.06" height="24.06"/>
            <rect class="cls-13" x="726.35" y="129.77" width="24.06" height="24.06"/>
            <rect class="cls-13" x="726.35" y="163.45" width="24.06" height="24.06"/>
            <line class="cls-13" x1="759.29" y1="101.28" x2="798.52" y2="101.28"/>
            <line class="cls-13" x1="759.29" y1="106.46" x2="787.79" y2="106.46"/>
            <line class="cls-13" x1="759.29" y1="134.22" x2="798.52" y2="134.22"/>
            <line class="cls-13" x1="759.29" y1="139.4" x2="787.79" y2="139.4"/>
            <line class="cls-13" x1="759.29" y1="167.9" x2="798.52" y2="167.9"/>
            <line class="cls-13" x1="759.29" y1="173.08" x2="787.79" y2="173.08"/>
            <polyline class="cls-14" points="736.84 105.59 740.54 111.52 758.3 93.26"/>
            <rect class="cls-11" x="781.97" y="148.47" width="69.58" height="8.51"
                  transform="translate(276.15 783.72) rotate(-60)"/>
            <rect class="cls-14" x="781.97" y="148.47" width="69.58" height="8.51"
                  transform="translate(276.15 783.72) rotate(-60)"/>
            <polygon class="cls-11" points="792.97 193.55 794.89 183.26 801.14 186.87 792.97 193.55"/>
            <polygon class="cls-14" points="792.97 193.55 794.89 183.26 801.14 186.87 792.97 193.55"/>
            <g class="cls-15">
                <path class="cls-11" d="M838.71,122.24l-6.62-3.82s2.63-3.4,5.37-1.86,1.25,5.68,1.25,5.68"/>
                <path class="cls-14" d="M838.71,122.24l-6.62-3.82s2.63-3.4,5.37-1.86S838.71,122.24,838.71,122.24Z"/>
            </g>
            <rect class="cls-3" x="658.52" y="105.84" width="100.3" height="140.27"/>
            <g class="cls-16">
                <rect class="cls-13" x="658.52" y="105.84" width="100.3" height="140.27"/>
            </g>
            <rect class="cls-13" x="672.22" y="122.87" width="24.06" height="24.06"/>
            <rect class="cls-13" x="672.22" y="156.55" width="24.06" height="24.06"/>
            <rect class="cls-13" x="672.22" y="190.23" width="24.06" height="24.06"/>
            <line class="cls-13" x1="705.16" y1="128.05" x2="744.39" y2="128.05"/>
            <line class="cls-13" x1="705.16" y1="133.23" x2="733.66" y2="133.23"/>
            <line class="cls-13" x1="705.16" y1="160.99" x2="744.39" y2="160.99"/>
            <line class="cls-13" x1="705.16" y1="166.17" x2="733.66" y2="166.17"/>
            <line class="cls-13" x1="705.16" y1="194.67" x2="744.39" y2="194.67"/>
            <line class="cls-13" x1="705.16" y1="199.85" x2="733.66" y2="199.85"/>
            <polyline class="cls-14" points="682.7 132.37 686.4 138.29 704.17 120.03"/>
            <rect class="cls-11" x="727.83" y="175.24" width="69.58" height="8.51"
                  transform="translate(225.97 750.31) rotate(-60.01)"/>
            <g class="cls-16">
                <rect class="cls-14" x="727.83" y="175.24" width="69.58" height="8.51"
                      transform="translate(225.97 750.31) rotate(-60.01)"/>
            </g>
            <polygon class="cls-11" points="738.84 220.33 740.75 210.04 747 213.65 738.84 220.33"/>
            <polygon class="cls-14" points="738.84 220.33 740.75 210.04 747 213.65 738.84 220.33"/>
            <g class="cls-16">
                <path class="cls-11" d="M784.58,149,778,145.19s2.63-3.4,5.37-1.85,1.25,5.67,1.25,5.67"/>
                <path class="cls-14" d="M784.58,149,778,145.19s2.63-3.4,5.37-1.85S784.58,149,784.58,149Z"/>
            </g>
            <g class="cls-2">
                <path class="cls-3"
                      d="M220,440.06c121.52,0,220-98.51,220-220S341.55,0,220,0,0,98.51,0,220s98.51,220,220,220"/>
            </g>
            <text class="cls-4" transform="translate(112.22 330.05)">HER
                <tspan class="cls-17" x="67.3" y="0">K</tspan>
                <tspan x="91.75" y="0">UN</tspan>
                <tspan class="cls-18" x="147.1" y="0">F</tspan>
                <tspan x="168.76" y="0">TS-</tspan>
            </text>
            <text class="cls-4" transform="translate(152.83 371.96)">LÄNDER</text>
            <line class="cls-7" x1="73.78" y1="278.91" x2="366.28" y2="278.91"/>
            <polyline class="cls-19"
                      points="222.23 193.76 221.92 194.66 221.8 198.62 220.98 200.44 217.99 201.52 216.7 204.04 216.76 207.72 219.1 209.5 222.62 211.62 226.49 215.41 229.01 218.37 231.01 218.48 231.21 220.66 230.23 222.84 230.59 224.34 230.81 224.51 239.47 222.8 247.82 220.29 255.86 216.92 265.35 211.69 273.76 205.54 273.9 203.05 275.34 199.34 277.96 195.63 279.44 193.44 277.26 191.79 276.1 191.63 273.29 192.86 267.8 194.11 263.31 194.71 259.62 190.42 253.78 190.53 249.46 189.79 244.45 187.69 240.46 188.6 234.99 188.69 232.84 189.72 228.83 188.31 226.17 189.53 223.88 191.39 222.6 192.71 220.54 192.28 217.38 192.01 214.69 190.05 214.19 188.71 214.98 186.37 215.14 184.38 213.29 183.05 210.46 182.28 207.31 182.32 206.94 180.83 207.92 178.97 208.39 175.79 206.53 174.66 204.05 175.53 203.07 177.21 201.26 177.75 198.91 176.95 195.71 174.36 195.36 171.02 195.8 168.01 198.44 164.46 201.92 163.72 204.09 164.01 205.58 164.84 207.08 164.63 208.75 163.77 211.57 164.03 214.24 165.17 216.12 167.97 217.63 170.11 219.29 169.59 218.77 166.93 217.73 164.77 218.21 162.09 219.5 159.89 222.78 157.51 224.75 155.81 224.9 152.64 226.2 149.09 227.82 146.71 228.98 146.37 229.64 144.7 231.26 142.16 232.75 141.46 234.25 142.27 235.4 140.93 237.89 139.54 239.69 138.51 239 136.84 236.51 137.23 235.35 136.9 235.17 135.09 233.5 134.61 231.85 135.96 230.03 136.84 229.85 136.02 231.66 134.14 234.62 132.59 236.47 132.39 238.96 131.33 239.75 129.49 238.89 127.15 236.38 124.19 231.83 120.76 229.16 120.47 227.66 120.18 226.15 118.21 221.65 116.28 219.98 116.81 220 119.65 220.21 123.33 221.4 124.63 220.43 126.14 219.98 129.33 219.5 132.19 217.65 130.53 216.31 128.39 216.11 125.89 213.94 124.93 210.59 124.15 209.39 122.34 209.69 118.49 211.66 115.44 214.79 112.39 217.59 110.32 218.88 108.65 217.37 107.01 215.39 107.72 213.22 107.07 212.85 104.89 212.65 102.9 211.16 102.92 210.71 105.79 209.37 106.97 208.24 106.15 208.17 102.65 207.31 100.35 205.46 99.37 203.95 97.05 201.46 97.26 199.98 98.64 201.82 100.25 202.19 102.25 204.37 103.88 204.06 106.07 197.33 100.84 193.82 97.73 191.96 95.08 191.94 92.74 191.23 89.61 189.7 88.94 186.89 88.99 185.72 89.68 184.23 89.38 182.57 89.56 181.94 91.24 181.27 92.43 178.09 91.82 176.13 93.18 175 95.55 174.35 97.56 172.52 97.26 170.66 95.79 171.35 97.96 174.21 99.24 177.38 100.36 180.06 101.82 181.09 104.62 181.29 107.79 180.19 112.49 178.74 117.35 178.45 121.21 178.49 123.39 179.02 125.7 177.05 128.08 175.25 131.13 173.48 135.16 172.7 140.02 172.12 146.87 172.82 149.36 174.21 154.01 175.24 157.66 176.79 162 178.8 164.13 180.49 164.76 178.79 162.79 177.92 160.3 177.41 157.46 176.88 154.97 178.19 154.62 178.88 156.61 180.09 161.43 182.66 166.57 183.37 169.39 182.71 171.24 184.26 173.55 187.26 175 191.8 179.1 194.62 180.22 198.98 181.63 203.97 183.72 206.5 185.37 208.85 187.47 210.73 191.61 214.41 193.05 216.76 193.85 219.41 193.48 222.23 193.76"/>
            <polyline class="cls-19"
                      points="212.86 174.89 214.85 174.01 218.02 174.78 221.69 175.9 224.51 176.17 227.03 177.32 226.37 178.65 223.38 179.05 220.88 177.24 217.86 175.78 212.86 174.89"/>
            <polyline class="cls-19"
                      points="227.87 178.12 227.74 179.46 229.9 180.28 231.9 180.57 235.38 180.01 233.03 178.69 233.19 177.87 231.84 177.38 227.87 178.12"/>
            <polyline class="cls-19"
                      points="240.26 129.31 241.44 130.46 243.62 132.25 245.96 134.21 246.65 135.7 242.97 135.78 240.64 133.16 239.78 131.31 240.26 129.31"/>
            <polyline class="cls-19"
                      points="224.62 115.74 222.46 115.09 219.79 114.64 222.43 112.6 222.56 109.74 221.36 107.94 218.19 106.99 216.02 106.02 213.83 103.2 215.64 101.5 218.15 102.14 221.32 103.77 224.34 105.37 225.53 108.02 226.54 108.83 229.03 109.96 230.58 112.62 229.25 114.13 228.8 116.32 226.81 116.68 224.62 115.74"/>
            <polyline class="cls-19"
                      points="236.74 113.17 239.75 115.11 241.09 115.78 244.08 114.88 247.71 113.64 244.2 112.38 243.02 110.54 243.32 107.36 243.58 101.86 245.56 99.99 245.53 96.99 242.34 93.87 238.98 91.42 234.95 90.15 231.62 88.04 227.78 87.95 224.81 88.99 223.32 90.86 221.65 91.06 221.5 89.73 219.16 89.75 216.35 90.98 216.86 92.82 215.58 96.01 216.94 98 219.59 99.61 220.73 95.58 222.04 94.06 222.92 96.88 225.24 99.18 227.42 100.14 230.79 102.74 233.66 105.38 234.37 110.38 236.38 111.49 236.74 113.17"/>
            <polyline class="cls-19"
                      points="248.04 99.44 248.43 102.27 249.42 103.77 251.25 104.56 253.57 101.86 254.51 98.49 252.5 97.03 250.34 97.73 249.36 99.06 248.04 99.44"/>
            <g class="cls-20">
                <polyline class="cls-19"
                          points="283.32 85.63 284.51 88.46 284.37 91.27 285.05 93.61 287.41 95.08 287.24 96.92 285.27 97.6 283.94 97.48 282.14 98.34 285.81 99.96 285.33 101.47 282 101.5 282.36 103.36 283.2 105.66 283.26 108.34 284.77 110.81 285.96 113.14 287.81 114.79 286.99 115.94 286.68 117.13 286.04 119.67 284.07 121.2 280.88 119.25 280.7 117.4 278.83 115.77 278.82 113.44 280.45 111.72 280.27 109.24 277.24 108.45 275.75 108.48 274.74 106.83 275.03 102.97 272.83 98.84 270.65 97.37 269.94 94.73 269.38 91.06 266.69 87.08 265.98 84.09 263.81 83.3 261.49 82 260.13 81.19 259.31 82.05 260.5 83.36 258.52 84.89 260.35 85.35 262.38 86.84 264.56 88.97 267.24 90.43 264.58 91.64 263.78 93.33 261.43 92.86 258.61 91.42 256.38 87.77 254.69 86.46 250.87 84.53 248.01 83.08 246 80.27 248.29 78.9 252.45 78.16 251.94 76.33 250.27 75.85 249.78 76.86 246.93 76.92 247.42 75.06 245.59 74.28 244.4 72.62 241.05 70.49 236.01 67.07 235.01 67.61 234.06 68.79 231.9 69.5 230.54 68.85 228.04 68.4 224.73 68.64 223.07 69.66 219.6 70.21 216.43 69.76 214.25 68.97 213.92 67.31 210.57 67.2 209.26 68.4 205.78 68.63 202.61 69.36 202.64 71.18 200.99 72.19 197.5 72.61 196.19 73.63 196.7 75.29 195.21 76.17 191.06 76.73 190.75 78.23 190.61 80.1 189.28 80.93 186.99 83.32 185.33 85.01 183.21 86.73 180.55 87.27 181.21 86.26 182.51 84.24 182.15 83.06 180.01 83.11 178.83 81.45 177.79 79.78 179.44 77.94 181.23 76.4 182.73 76.21 184.06 73.68 183.68 70.85 185.67 69.97 188.46 68.6 188.61 65.44 187.08 64.1 185.59 63.62 193.33 60.84 199.84 59.03 206.16 57.8 214.08 56.9 221.12 56.72 229.36 57.27 239.6 59.01 249.6 62.02 256.42 64.96 263.46 68.68 269.4 72.57 274.99 76.76 279.89 81.37 283.18 84.84 283.32 85.63"/>
            </g>
            <polyline class="cls-19"
                      points="263.98 95.83 262.49 96.52 263.15 98 264.7 100.31 265.21 101.97 265.91 104.47 268.27 106.43 269.91 106.57 269.24 105.09 267.2 103.29 267.03 102.26 269.05 103.09 271.24 104.21 273.23 104.85 273.22 103.18 273.29 103.01 273.35 102.84 273.4 102.66 273.41 102.48 273.41 102.13 273.37 101.79 273.3 101.47 273.24 101.22 273.19 101.07 273.17 101 271.84 100.2 267.66 98.44 265.82 97.62 263.98 95.83"/>
            <polyline class="cls-19"
                      points="289.05 92.17 288.9 94.38 289.6 96.87 288.93 98.22 287.79 98.25 288.79 99.91 290.83 102.52 291.02 106.04 289.2 105.58 288.03 105.77 287.75 109.77 287.96 113.26 287.48 114.94 287.67 117.96 286.69 119.65 286.07 121.81 287.09 124.81 288.8 128.78 288.67 131.64 288.58 137.49 289.31 142.8 290.69 147.13 292.9 151.94 295.76 155.07 299.12 155.84 301.06 152.78 302.38 150.77 304.19 149.96 304.63 144.57 304.69 139.57 304.47 134.45 303.83 128.42 302.48 121.35 300.79 115.31 298.89 109.95 296.52 104.62 294.09 99.88 291.13 95.14 289.05 92.17"/>
            <g class="cls-20">
                <circle class="cls-19" cx="220.03" cy="151.68" r="95.38"
                        transform="translate(52.99 360.29) rotate(-85.9)"/>
            </g>
        </g>
    </g>
</svg>