<svg xmlns="http://www.w3.org/2000/svg" xmlns:xlink="http://www.w3.org/1999/xlink" viewBox="0 0 1184.8 788.63">
    <defs>
        <style>.cls-1,.cls-2{fill:none;}.cls-2{stroke:#fff;stroke-width:0.96px;}.cls-3{font-size:52.71px;fill:#eeeeeb;}.cls-11,.cls-3{font-family:'Quicksand';}.cls-4{letter-spacing:-0.01em;}.cls-5{letter-spacing:0em;}.cls-6{letter-spacing:0em;}.cls-7{clip-path:url(#clip-path);}.cls-8{letter-spacing:-0.01em;}.cls-9{letter-spacing:-0.02em;}.cls-10{letter-spacing:-0.01em;}.cls-11{font-size:91.35px;fill:#15bed1;}.cls-12{clip-path:url(#clip-path-2);}.cls-13{fill:#999;}.cls-13,.cls-14{fill-rule:evenodd;}.cls-14{fill:#ccc;}.cls-15{clip-path:url(#clip-path-3);}.cls-16{clip-path:url(#clip-path-4);}.cls-17{clip-path:url(#clip-path-5);}.cls-18{clip-path:url(#clip-path-6);}.cls-19{clip-path:url(#clip-path-7);}.cls-20{clip-path:url(#clip-path-8);}.cls-21{clip-path:url(#clip-path-9);}</style>
        <clipPath id="clip-path" transform="translate(0 -1.05)">
            <rect class="cls-1" width="1184.86" height="789.68"/>
        </clipPath>
        <clipPath id="clip-path-2" transform="translate(0 -1.05)">
            <rect class="cls-1" x="769.48" width="151.8" height="198.5"/>
        </clipPath>
        <clipPath id="clip-path-3" transform="translate(0 -1.05)">
            <rect class="cls-1" x="987.86" y="140.52" width="197" height="198.5"/>
        </clipPath>
        <clipPath id="clip-path-4" transform="translate(0 -1.05)">
            <rect class="cls-1" x="258.38" y="591.18" width="157.64" height="198.5"/>
        </clipPath>
        <clipPath id="clip-path-5" transform="translate(0 -1.05)">
            <rect class="cls-1" y="140.52" width="198.88" height="198.5"/>
        </clipPath>
        <clipPath id="clip-path-6" transform="translate(0 -1.05)">
            <rect class="cls-1" y="435.94" width="198.88" height="199.02"/>
        </clipPath>
        <clipPath id="clip-path-7" transform="translate(0 -1.05)">
            <rect class="cls-1" x="255.95" width="160.07" height="198.5"/>
        </clipPath>
        <clipPath id="clip-path-8" transform="translate(0 -1.05)">
            <rect class="cls-1" x="769.77" y="591.18" width="149.64" height="198.5"/>
        </clipPath>
        <clipPath id="clip-path-9" transform="translate(0 -1.05)">
            <rect class="cls-1" x="987.86" y="436.46" width="197" height="198.5"/>
        </clipPath>
    </defs>
    <title>Element 1</title>
    <g id="Ebene_2" data-name="Ebene 2">
        <g id="Ebene_1-2" data-name="Ebene 1">
            <line class="cls-2" x1="423.42" y1="391.08" x2="755.28" y2="391.08"/>
            <line class="cls-2" x1="590.01" y1="579.24" x2="590.01" y2="219.05"/>
            <text class="cls-3" transform="translate(463.93 192.18)">PROAKTIV</text>
            <g class="cls-7">
                <text class="cls-3" transform="translate(760.36 411)">EXTROVERTIERT</text>
                <text class="cls-3" transform="translate(0.01 411)">INTROVERTIERT</text>
            </g>
            <text class="cls-3" transform="translate(484.41 644.93)">REAKTIV</text>
            <text class="cls-11" transform="translate(452.91 327.26)">D</text>
            <text class="cls-11" transform="translate(660.28 540.38)">S</text>
            <text class="cls-11" transform="translate(676.81 327.26)">I</text>
            <text class="cls-11" transform="translate(452.91 540.38)">C</text>
            <g class="cls-12">
                <path class="cls-13"
                      d="M770,198.5c-.56-7,2.18-13.12,5.51-19a26.53,26.53,0,0,1,5.19-6.64,4,4,0,0,1,3.07.51,1.57,1.57,0,0,1,.74,1.22A31.29,31.29,0,0,0,792.66,191c.22.19.31.5.6.66a2.65,2.65,0,0,1-.61-1.26,10.81,10.81,0,0,1,3.21-8.54c1.24-1.29,2.22-3,4.32-3.23,4.44,1.06,8.75,2.55,13.13,3.81,9.37,2.7,18.78,5.16,28.51,6.17,8.59.9,17.09,0,25.57-1.28a57.78,57.78,0,0,0,18.09-5.67A67,67,0,0,0,897,174a25.79,25.79,0,0,1,4.29-2.89,5.1,5.1,0,0,1,4.78-.41c7.07,1.92,10.41,7.42,12.82,13.64,1.8,4.63,2.41,9.4.42,14.19Z"
                      transform="translate(0 -1.05)"/>
                <path class="cls-14"
                      d="M906.05,170.67c-2.84-.29-5.17.9-7.3,2.6a72.39,72.39,0,0,1-16.14,10.35c-7.33,3.2-15.11,4.3-23,5.28-15.8,1.94-30.89-1.35-45.87-5.76-4.6-1.36-9.16-2.82-13.75-4.24.12-1.27,1.27-1.36,2.09-1.74a62.85,62.85,0,0,1,11.29-3.44,36.53,36.53,0,0,0,11.93-5.26,33.16,33.16,0,0,0,12.14-15c1.36-3.31,1.36-6.84,1.34-10.37,0-1-.3-2.11.57-3,.94-.45,1.25-3.67-.13-4.41a1.89,1.89,0,0,1-.53.08,67.94,67.94,0,0,1-21.1-9.89,5.41,5.41,0,0,1-1.24-1.1c-.08-.16-.13-.37-.27-.47-5.79-4.44-8.53-10.65-10.06-17.53-.38-1.7-.85-3-2.88-3.41-1.63-.34-2.85-1.66-3.95-2.92-3.13-3.57-5.55-7.52-6.05-12.37-.29-2.82.08-5.52,2.05-7.77a3.35,3.35,0,0,1,.83,2c.13.47.15,1.05.7,1.22s1-.34,1.32-.79c1.55-2.45,3.18-4.86,3.87-7.74a3.79,3.79,0,0,0-.16-2.71c-.55-2.55,0-3.13,2.48-2.47a164.23,164.23,0,0,0,25.48,4.33c1.41.15,2.84,0,4.25.22a5,5,0,0,0,2.27.19c6,0,11.91,0,17.87,0a5.13,5.13,0,0,0,2.27-.18,163.15,163.15,0,0,0,28.46-4.61c2-.52,2.46-.17,2.59,1.8a8,8,0,0,0-.1,3.73,17.53,17.53,0,0,0,2.45,6.89c.43.67.83,1.49,1.76,1.43s1-1.06,1.3-1.79c.65-1.83.93-1.93,2.27-.75,1,3.22,1.56,6.45.48,9.78a23.63,23.63,0,0,1-7.53,11.4,4,4,0,0,1-1.72,1c-2.29.3-2.87,1.9-3.2,3.79-2.21,12.47-10.78,19.32-21.53,24.15a3,3,0,0,0-2.16,3.42c.27,5.11.09,10.23.87,15.31.47,3,1.87,5,5,6,10.29,3.12,20.55,6.37,30.82,9.58a26.17,26.17,0,0,1,9.92,5.12"
                      transform="translate(0 -1.05)"/>
                <path class="cls-13"
                      d="M895.14,81.12c-1.17-.77-1.69-.57-1.86.94-.09.86-.23,2.11-1.53,2.2-1.12.08-1.66-.75-2.21-1.63A18.88,18.88,0,0,1,887,75.52a13.52,13.52,0,0,1,0-3.65c.13-2.09.12-2.13-1.9-1.59a205.85,205.85,0,0,1-21.48,4.08c-2.41.37-28.85.75-29.48.55a132,132,0,0,1-16.49-1.68c-4.67-.7-9.27-1.9-13.9-2.91-2.07-.45-2.12-.42-1.59,1.57.07.23.11.48.17.72a7.22,7.22,0,0,1,0,2.54c-.75,3-2.49,5.54-4.07,8.15-.33.56-.84,1.19-1.62.94s-.91-.89-1-1.59-.29-1.53-.43-2.3c-.44-2.86-1.45-5.58-1.93-8.43a53,53,0,0,1,29.79-57l1.83-.85c1.54-1.48,3.56-1.91,5.49-2.48a52.85,52.85,0,0,1,29.86-.06,9.07,9.07,0,0,1,3.63,1.71c12.28,4.81,21.85,12.8,28.07,24.47,7.44,13.94,8.42,28.46,3.17,43.38"
                      transform="translate(0 -1.05)"/>
                <path class="cls-13"
                      d="M839.28,140.36c0,3.51.27,7.06-.53,10.5-1.46,6.23-5.13,11.13-9.75,15.38-5.45,5-12.15,7.31-19.2,8.93-3.42.78-6.82,1.68-9.77,3.73-4.31,2.75-7.18,6.35-7,11.77.13.41.29.84-.42.8a29.82,29.82,0,0,1-8.52-16.72,9.73,9.73,0,0,0-.28-1.06c-1-1.08-.64-2.23-.14-3.38.38-11.14,5.3-19.72,14.5-25.94,2.34-1.58,4.65-3.22,7-4.79,5.44-3.63,9.55-8.27,11.21-14.76,1.91.59,3.27,2.07,4.92,3.07a80.63,80.63,0,0,0,16.51,7.25,2.35,2.35,0,0,1,1,.48c1,1.49.82,3.11.5,4.74"
                      transform="translate(0 -1.05)"/>
                <path class="cls-13"
                      d="M863.9,13.27A58.21,58.21,0,0,0,846.82,10a53.91,53.91,0,0,0-21.9,4.1c8.85-13.66,29.71-14.1,39-.83"
                      transform="translate(0 -1.05)"/>
                <path class="cls-14" d="M792.63,191.47c.36-.15.29-.53.42-.8.29.42.54.91.17,1.31-.16.18-.48-.22-.59-.51"
                      transform="translate(0 -1.05)"/>
                <path class="cls-14"
                      d="M839.27,140.4c-.17-1.58-.52-3.39-.69-5a12.81,12.81,0,0,1,1.35.14,25.8,25.8,0,0,1,3.9.68,12.61,12.61,0,0,0,8.52-.68c2.78-1.22,3.74-2,5.94-2.58.24,0,.49-.12,1.58-.35a7.32,7.32,0,0,0-.34,2.22c0,1.58.07,3.07.07,3.07a25,25,0,0,1-3.6,1.29,42.41,42.41,0,0,1-11.16,1.43,46.48,46.48,0,0,0-5.57-.25"
                      transform="translate(0 -1.05)"/>
            </g>
            <g class="cls-15">
                <path class="cls-13"
                      d="M1184.57,330.61a68.25,68.25,0,0,1,.17,8,6.37,6.37,0,0,1-2.34.15q-39,0-78.05,0a5.29,5.29,0,0,0-2.53.2h-.43a5.08,5.08,0,0,1-.41-.51c-2.48-7.21-4.63-14.53-7-21.79-.07-.19-.06-.43-.18-.58-2.25-2.78-1.16-5.23.69-7.69,1-1.33,1.18-3.09,2.31-4.38.92-.49,1.27.34,1.71.78a40,40,0,0,1,3.83,4.4c.88,1.19,1.34,1,2.1-.08,3.79-5.55,7.11-10.83,11-16.34.65-.94.68-2.77,2-3.09a56.26,56.26,0,0,1,7.74,2.27c10.7,3.34,21.35,6.84,32.16,9.86,1.19.34,9.54,4.32,11.5,5.4l2.49,1.87a32.35,32.35,0,0,1,6.4,6.66c.45.66.91,1.3,1.36,2s4.82,8,5.46,12.91"
                      transform="translate(0 -1.05)"/>
                <path class="cls-13"
                      d="M995.22,317.12A36,36,0,0,1,1016,302.37c7.59-2,15-4.5,22.55-6.8,5.77-1.76,12.27-4.1,18-5.82.91.4,1.52,2.22,2,2.95,4.1,5.88,7.25,11.45,11.34,17.33,1.28,1.84,1.41,1.83,2.86.11,1-1.23,2-2.51,3.12-3.68.43-.45.77-1.27,1.71-.81,1.43,1.74,2,3.91,3.25,5.76a1.36,1.36,0,0,1-.06,1.56c-2.77,4.1-3.4,8.94-5,13.44-1.36,3.81-2.27,7.76-3.75,11.54a1.46,1.46,0,0,1-1.22.79q-39.78,0-79.56,0a5.3,5.3,0,0,0-2.53.2h-.43c-.47-.63-.15-1.32-.18-2,.38-1.73.6-3.48.84-5.23a66.34,66.34,0,0,1,3-9.06,27,27,0,0,1,1.94-3.48l0,0c.49-.64.74-1.43,1.26-2.06"
                      transform="translate(0 -1.05)"/>
                <path class="cls-14" d="M1101.44,339c.4-.53,1-.4,1.52-.4l78,0a2.31,2.31,0,0,0,0,.37Z"
                      transform="translate(0 -1.05)"/>
                <path class="cls-14" d="M992.67,339c.6-.69,1.41-.4,2.13-.4h76.9c.13.06.19.14.17.24s-.06.16-.09.16Z"
                      transform="translate(0 -1.05)"/>
                <path class="cls-14"
                      d="M1071.78,339a1.29,1.29,0,0,0-.08-.4l.42-.91c8.54.45,17.07.08,25.6.21,1.15,0,2.35-.16,3.33.69,0,.13,0,.27,0,.41Z"
                      transform="translate(0 -1.05)"/>
                <path class="cls-14"
                      d="M1137.34,207.51a4.35,4.35,0,0,1,3.12.31,3.62,3.62,0,0,1,1.18,2.1,40.14,40.14,0,0,1,.4,4.71c0,1.78,0,3.63-.11,5.42a12.48,12.48,0,0,1-.92,3.88c-.26.69-.37,1.07-.71,2a33.75,33.75,0,0,1-6.64,9.33,16.13,16.13,0,0,1-3.79,2.74,8,8,0,0,0-2.25,4.29,54,54,0,0,1-3.76,10.22,4.07,4.07,0,0,1-1.45,1.94c-4.21,5.11-9.35,9.16-14.69,13a3.88,3.88,0,0,0-.52.62c-.45.52-.38.85-.42,1.77a3,3,0,0,0-2.3.61c-1.17.84-2.46,1.52-3.62,2.35-5.78,4.14-12.27,5.15-19.16,4.49a14.32,14.32,0,0,1-4.7-1.43,76.55,76.55,0,0,1-10-5.74c-.37.91.58,2.35-1,2.92.67-3.28-.91-5.29-3.57-7-3.07-1.92-5.66-4.5-8.43-6.83-4.93-4.17-7.1-9.89-9-15.77,0-.13,0-.28-.07-.41-.84-2.46-1.49-4.55-4.08-6.41-5.77-4.14-9-10.48-9.67-17.68-.08-1.82,0-2.27,0-4.26.54-4.09,2.62-6.71,3.49-7.14,1.23-1.29,3.26-1.11,3.68-1.14.94.26,1.15,1.11,1.46,1.86,2.07,4.93,7.47,14.16,7.4,14-.55-1-.26-2-.35-3,0-.76,0-3.28.15-5.18a39.15,39.15,0,0,1,.25-4.5c1.12-6.53,2.3-13.16,5-19.18,2-4.39,5.79-8,8.69-11.8a3.66,3.66,0,0,1,1.56-1.3.63.63,0,0,1,.73.44,5.48,5.48,0,0,1-.78,2.93,47.83,47.83,0,0,0-3.53,16.23c4.65-3.88,9.8-6.55,14.48-9.92a65.31,65.31,0,0,0,8.13-7.2,7.44,7.44,0,0,1,2.5-2.09.66.66,0,0,1,.65.54,2.52,2.52,0,0,1-.42,1.56c-2.83,4.8-4,10.21-5.55,15.44a40.25,40.25,0,0,1-1.69,4.62c11.6-5.47,22.73-11.41,32.48-19.63,1.63-1.37,1.92-1.34,3.21.41,1.47,2,3,3.88,4.68,5.73,3.37,3.8,5.45,8.36,7.3,13a129,129,0,0,1,6,20.93,1.06,1.06,0,0,0,.45.85,90.27,90.27,0,0,0,4.85-11.71c.25-.74.23-1.68,1.22-2"
                      transform="translate(0 -1.05)"/>
                <path class="cls-13"
                      d="M1047.33,220.21v4a89.24,89.24,0,0,1-6.49-11.47c-.84-1.78-6.06-15.1-6.71-18.45a25.49,25.49,0,0,1,.47-11.39c.51-2.14,1.14-4.25,1.72-6.37-.13-.5,4.79-9.58,5.75-11,0-.47,4.24-6.24,5.34-7.49,2.58-3.17,8.77-7.76,9.28-8.23a47.77,47.77,0,0,1,5-3c1-.43,5.68-2.62,6.57-2.93,1.75-.51,3-1.06,5.17-1.62,2.66-.58,5.36-1,8.06-1.39.78-.12,1.43-.23,2.28-.34.66-.06,1.14-.08,1.73-.1h9.3a30.77,30.77,0,0,1,7.27,1.28,32.33,32.33,0,0,1,12.24,6.3,25.43,25.43,0,0,1,5.14,7.35A2.61,2.61,0,0,0,1121,157c3.46,1.16,5.88,3.65,8.08,6.38a45.31,45.31,0,0,1,6.15,10.22c.2.44.27.86.54,1.66a72.31,72.31,0,0,1,2.72,8.12,22.68,22.68,0,0,1,.65,3.28c.05,1.16.09,1.91.1,2.23a75.76,75.76,0,0,1,0,8.62,32.38,32.38,0,0,1-.45,3.73c-.52,2.32-1,4.65-1.57,7a82.25,82.25,0,0,1-6.37,15.39c-1.24-4.92-2.26-9.5-3.56-14-2.15-7.46-4.65-14.8-9.43-21.08-2-2.61-4.48-4.82-6.15-7.69-.58-1-1-.12-1.42.22-10.14,8.59-21.73,14.78-33.69,20.34a1.82,1.82,0,0,1-.49,0c3.17-7.37,4.05-15.53,8.37-22.42.13-.23.22-.59.09-.72s-.3.24-.52.28a70.65,70.65,0,0,1-16.59,13.72,50.78,50.78,0,0,0-9,6.48,47,47,0,0,1,4.61-20.2c.19-.5.1-.7-.45-.43-15,12.45-15.46,38.64-15.26,42"
                      transform="translate(0 -1.05)"/>
                <path class="cls-14"
                      d="M1084.16,294a134.45,134.45,0,0,1-13.92-4.92,18.15,18.15,0,0,1-5.84-3.67c1.44-2.58,1-5.53,1.6-8.26.69-.27,1.16.22,1.68.52a41.25,41.25,0,0,0,17.58,5.77,23.73,23.73,0,0,0,9-1.47,53.91,53.91,0,0,0,10.21-4.24,3.14,3.14,0,0,1,2.24-.54c.21.09.58,3.72.86,4.91a23.71,23.71,0,0,1,1,3.35,2.07,2.07,0,0,1-1.3,1.49,62.7,62.7,0,0,1-14.23,5.19,8.31,8.31,0,0,0-4.48,2.14c-.82.4-2.31.64-4.49-.27"
                      transform="translate(0 -1.05)"/>
                <path class="cls-14"
                      d="M1095.18,291.05a49.66,49.66,0,0,0,12.73-5c.22-.12,1.08-.91,2.14-1.78a58.45,58.45,0,0,1,6.8,4.56c.21.22.87,1,.25,1.55-4.32,6.48-8.68,12.93-12.94,19.45-.8,1.21-1.23,1.54-2.22.2-1.54-2.08-3.24-4-4.88-6.05-1.26-.16-1.68-1.33-2.32-2.13-2.08-2.57-4.46-4.92-6-7.88a5.67,5.67,0,0,1,2.62-1.43c1.33-.45,2.18-.95,3.85-1.47"
                      transform="translate(0 -1.05)"/>
                <path class="cls-14"
                      d="M1106.82,277.56c-2.2.2-3.83,1.73-5.76,2.55a47.66,47.66,0,0,1-13.94,4,23.47,23.47,0,0,1-8.28-1.14,38.7,38.7,0,0,1-12.84-5.79l0-4.12c.88-1.14,0-2.53.58-3.82,4.1,2.59,8,5.71,12.72,6.84,5.3,1.28,10.79,1.61,16-1a66.86,66.86,0,0,0,9.7-5.71c.8-.57,1.36-.7,1.74.38.12,2.63-.09,4.91,0,7.81"
                      transform="translate(0 -1.05)"/>
                <path class="cls-14"
                      d="M1088.71,294c3.07,3.1,5.57,6.67,8.35,10-1.25,2.72-2,5.67-4.12,8-.43.46-.46.78,0,1.18,1.17,1.1,2.26,4,2.69,5.42,2.13,7.13,3.35,12.91,5.46,20-8.92,0-17.84,0-26.76,0-.79,0-1.89.49-2.17-.88,2.26-7.55,2.52-14.93,6.78-22.63,2.73-4.93,2.3-1.25-.42-7.12-.35-.75-.64-1.51-1-2.27,2.68-3.33,4.41-6.6,7.06-9.95.2-.26,0-2.06,1.2-1.68l2.92-.05"
                      transform="translate(0 -1.05)"/>
                <path class="cls-14"
                      d="M1072.47,311.79c-.44.55-.8,1-1.36.16-4.67-7.22-9.28-14.26-14.34-21.22-1-1.33-.81-2.09.51-2.85a19.73,19.73,0,0,0,3.88-2.59c1.27-1.17,1.87-.84,3.26.12a32.39,32.39,0,0,0,5.93,3.15c4.53,1.93,9.2,3.39,13.88,4.88.48.15,1.26.36,1.73.55a3.7,3.7,0,0,1-.84,1.46c-2.65,3.39-4.1,7.06-7.19,10.07-.09.09-3.79,4.2-5.46,6.27"
                      transform="translate(0 -1.05)"/>
            </g>
            <g class="cls-16">
                <path class="cls-14"
                      d="M415.18,789.33a1.07,1.07,0,0,0-.06.35H259.41a.51.51,0,0,1,.22-.65,5.73,5.73,0,0,1,2.83-.39q74.82,0,149.63,0c1.07,0,2.21-.22,3.09.68"
                      transform="translate(0 -1.05)"/>
                <path class="cls-14"
                      d="M259.48,789.28c0,.13-.05.27-.07.4h-.77v-.38c.47-.24-.26-1.4.87-1.13a.89.89,0,0,1,0,1.11"
                      transform="translate(0 -1.05)"/>
                <path class="cls-14"
                      d="M296.41,690.63c.83,0,.86-.62.77-1.23-.36-2.31-.75-4.62-1.12-6.93a14.51,14.51,0,0,1,0-5.61,26.51,26.51,0,0,0,.3-6.29,5,5,0,0,1,.09-3c.7-3.83,1.07-7.71,2.22-11.47,2.14-7,5.71-12.78,12.65-16.11,3.42-1.65,6.13-4.4,8.83-7.41a44.15,44.15,0,0,0,14.63,19.67,35.91,35.91,0,0,0,23.26,7.53,61.92,61.92,0,0,1-5.2-12.13.54.54,0,0,1,.83,0c4.6,4.78,10.4,8.18,14.85,13.12,4,4.45,6.78,9.47,7.17,15.66a34.09,34.09,0,0,0,2.74-11.66,2.28,2.28,0,0,1,.76-1.48l-.3,1.08c.06,3.69.07,6.08.18,9.11a12.94,12.94,0,0,0,.12,2.85c-.16,5.56-1.88,16.92-1.9,17.7a26.31,26.31,0,0,1-6.45,14.05c-3.41,3.82-7.67,6.51-12,9.07-1.82,1-5.12,2.51-5.75,2.76-.14.14-.28.28-.41.43a56.3,56.3,0,0,1-14.91,4.77,8.35,8.35,0,0,1-3.77-.57,89.85,89.85,0,0,1-9.84-3.24,3.32,3.32,0,0,0-2.21-.24c0-.9-.5-1.27-1.3-1.58a69.89,69.89,0,0,1-11.9-6.83,55.79,55.79,0,0,1-5.75-5,18.75,18.75,0,0,1-3.62-5.12,24.43,24.43,0,0,1-2-5.77c-.12-.42-1.43-5.14-1.49-5.65a1,1,0,0,1,.13-.5.33.33,0,0,1,.45,0"
                      transform="translate(0 -1.05)"/>
                <path class="cls-13"
                      d="M259.48,789.28c0-.38-.09-.75-.14-1.12-.5-.56-.26-1.23-.28-1.86.53-2.31,3.41-13.26,5.67-17.61a30.29,30.29,0,0,1,4.47-6.19c.38-.41,3.86-3.45,4.52-3.92a32.53,32.53,0,0,1,8.39-4.16c2.87-1,5.83-1.68,8.68-2.74a1.77,1.77,0,0,1,1.32,0c2.8,3.16,5.51,6.4,8.55,9.37a74.41,74.41,0,0,0,36.49,19.59,5.44,5.44,0,0,0,2.66-.07,78.18,78.18,0,0,0,33.79-17.66,91.35,91.35,0,0,0,8.49-8.89,4.58,4.58,0,0,1,2.26-1.73,46.74,46.74,0,0,1,14.74,5.25,1.64,1.64,0,0,1,.86,1,37.52,37.52,0,0,1,9.56,10.25,41.53,41.53,0,0,1,5.57,17.45c.1,1,.94,2,.1,3.09l-5,0H262l-2.51,0"
                      transform="translate(0 -1.05)"/>
                <path class="cls-14"
                      d="M384.26,752.59c-1.58,1.15-2.59,2.83-3.86,4.26a78.69,78.69,0,0,1-39.08,23.92,12.84,12.84,0,0,1-6.77-.16,76.24,76.24,0,0,1-38.45-23.5,26.9,26.9,0,0,1-4-5.13c.37-1,1.34-1.14,2.16-1.4,6.3-2,12.69-3.73,19-5.76,1-.31,2-.6,2.94-.93a5.53,5.53,0,0,0,3.92-4.35,59,59,0,0,0,1.3-7.8,54.6,54.6,0,0,0,.44-6.3c1-.51,2,.44,2.87.69a47.32,47.32,0,0,0,24.55.25c2.75-.67,2.79-.78,2.83-3.66a4.73,4.73,0,0,1,.57-2.78l.4,0c-.05,6.31-.21,12.62.8,18.88a6.16,6.16,0,0,0,2.66,4.64c2.56.32,4.91,1.36,7.34,2.1,6.17,1.89,12.31,3.86,18.47,5.76.74.23,1.69.27,1.93,1.29"
                      transform="translate(0 -1.05)"/>
                <path class="cls-14"
                      d="M296.41,690.63H296a12.84,12.84,0,0,1-8.22-5.91C286,682,284,677.45,283.67,675c-.46-3.18-.82-6.75,1.49-9.62a4.6,4.6,0,0,1,2.25-1.61,2.21,2.21,0,0,1,1.66-.14c1.42,5.51,2.8,11,4.27,16.52,1,3.52,2,7,3.07,10.48"
                      transform="translate(0 -1.05)"/>
                <path class="cls-14"
                      d="M321.84,726.06a10.77,10.77,0,0,0,0-1.18c0-1.27,0-2,.1-3.81.31-.69.59-1,1.53-.6a84.56,84.56,0,0,0,11.82,3.86,8.14,8.14,0,0,0,4.13,0,85.92,85.92,0,0,0,13.66-4.39c0,.71,0,1.52,0,2.22,0,4.42-.39,4.21-4.69,5.13a49.43,49.43,0,0,1-25.69-1,5.87,5.87,0,0,0-.82-.23"
                      transform="translate(0 -1.05)"/>
                <path class="cls-14"
                      d="M378.75,690.76c.62-1.42,1.34-2.69,1.9-3.88a107.38,107.38,0,0,0,7.62-21.07c.17-.73.37-1.46.55-2.19.53.27.09.9.46,1.24,3.45,3.91,3.36,8.37,1.74,12.9A24.19,24.19,0,0,1,383,689a16.44,16.44,0,0,1-4.28,1.81"
                      transform="translate(0 -1.05)"/>
                <path class="cls-13"
                      d="M379.48,690.37c-1.23.82-1.3,2.29-2,3.44-1.28-.59-.6-1.63-.45-2.43A131.85,131.85,0,0,0,378.93,676c.08-3.81.07-9.23-.38-11.35.21,3.92.06,7.58-1.7,11a20.05,20.05,0,0,1-2.43,3.41A10.89,10.89,0,0,0,375,676c.45-8.51-5.6-14.77-11.77-19.9-3.05-2.54-6.27-4.87-9.13-7.7a41.53,41.53,0,0,0,3.65,9c1.19,2.17.91,2.74-1.56,2.71a35.54,35.54,0,0,1-18.73-5.76,42.78,42.78,0,0,1-17.23-21.24c-1.25,2.26-3.48,3.55-5.36,5.18a13.25,13.25,0,0,1-3.07,2c-6.56,3-10.07,8.53-12.16,15.14-1.07,3.38-3,8.52-2.47,15.47.19,1.32,1.41,7.9.64,8.26-.76-1.48-1.29-2-1.35.59,0,.76,1.94,7.83,1.45,10.24-.13.62-1.19,1.43-1.43,3.45-1-.43-5.63-21.48-7.55-29.82-.15-1.11-2.65-12.84-2.72-13.73-.12-1.59-2.33-41.37,14.85-46.49,3-.88,5.9-1.77,16.69-.23a28.26,28.26,0,0,1,4.57,1.71c.2-1.09-1.25-3.29,8.22-9.9,2.91-2,8-3.43,11.5-3.73h5.2a45.88,45.88,0,0,1,25.49,11.17c7.42,6.47,11.28,15.21,12.86,18.89,2.54,5.92,6.39,21.42,5.09,32.51-.37,3.14-.69,6.27-1.19,9.38-1.49,9-5.07,17.26-8.86,25.45a5.35,5.35,0,0,1-1.11,1.77"
                      transform="translate(0 -1.05)"/>
            </g>
            <g class="cls-17">
                <path class="cls-13"
                      d="M130.59,288.55a54.49,54.49,0,0,1,6.59,2c9.62,3.1,19.22,6.29,28.87,9.27,4.3,1.32,8.62,2.46,12.58,4.7a37.34,37.34,0,0,1,14.56,14.59,43.58,43.58,0,0,1,5.17,16.47c.13,1.14.34,2.27.52,3.41H0c.64-8,2.68-15.59,7.1-22.35A36.27,36.27,0,0,1,28.51,301c7.43-2,14.68-4.6,22-6.91,5.65-1.78,11.25-3.67,16.88-5.51a2.81,2.81,0,0,1,.65-.07c.76-.06,1.19.53,1.68.94a44.41,44.41,0,0,0,22.63,10.09c13.39,1.86,25.61-1.2,36.36-9.77a4.54,4.54,0,0,1,1.86-1.22"
                      transform="translate(0 -1.05)"/>
                <path class="cls-14"
                      d="M42.77,209.58a12.51,12.51,0,0,1,1.36-5.19c1.48-3.13,4-4.28,7.14-4.24a2.73,2.73,0,0,1,.59,2,112.6,112.6,0,0,0,2.8,19.61c.35,1.48.87,2.9,1.33,4.34a3.38,3.38,0,0,0,.26.62c.32.58.63,1.28,1.34,1.3s1.06-.71,1.3-1.32a16,16,0,0,0,1.18-8.9,38.72,38.72,0,0,0-1.47-5.42,47.66,47.66,0,0,1-2-23.78,27.9,27.9,0,0,0,.19-9.34,7.79,7.79,0,0,1,0-1.87,3.62,3.62,0,0,1,2.41-3.45,45.6,45.6,0,0,1,9.07-2.11c6.32-.94,12.33.89,18.4,2.16,4.88,1,9.71,2.27,14.56,3.43,8.72,2.08,17.14,1,25.41-2.3a68,68,0,0,0,8.67-4.22c1.19-.67,1.55-.58,2.07.69a79.51,79.51,0,0,1,5.78,21.36,64.22,64.22,0,0,1-2.21,24.28,22.37,22.37,0,0,0-.85,4.88,6.56,6.56,0,0,0,3.21,6c.74.5,1.15.31,1.31-.62.83-4.62,1.51-9.26,2-13.94.39-4,.69-8,.79-12a1.3,1.3,0,0,1,.38-1.09c3.3.24,4.9,2.59,6,5.45a17.34,17.34,0,0,1,.86,3.72,23.12,23.12,0,0,1,0,4,30.82,30.82,0,0,1-8.86,17.73,6.14,6.14,0,0,1-3.06,1.82,1.55,1.55,0,0,0-1.31,1.5,82.66,82.66,0,0,1-3.92,13.22,25.21,25.21,0,0,1-7.2,10.14c-3.56,3.15-7.27,6.09-10.95,9.08a2.28,2.28,0,0,1-.87.95,71.51,71.51,0,0,1-11.61,6.93,16.19,16.19,0,0,1-6,1.29,39.92,39.92,0,0,1-7.49-.27,13.72,13.72,0,0,1-4.11-1.41,67.84,67.84,0,0,1-10.25-6.2,2.63,2.63,0,0,1-1-1c-3-2.36-6.12-4.61-9-7.1-3.51-3-7-6-8.92-10.53a92.71,92.71,0,0,1-4.72-15.24c-.13-.56-.25-1.06-.8-1.24-2.8-.9-4.61-3.1-6.24-5.44A32.18,32.18,0,0,1,43,215.67c-.14-.71-.06-1.41-.24-2.1a23.12,23.12,0,0,1,0-4"
                      transform="translate(0 -1.05)"/>
                <path class="cls-13"
                      d="M147.74,200.42a170.17,170.17,0,0,1-3.12,28.72c-4-1.68-5.55-4.74-4.71-9,.74-3.8,1.89-7.5,2.47-11.35a60,60,0,0,0-1.67-26.25c-1.08-3.67-2.24-7.3-3.65-10.85-.35-.89-.59-1.11-1.5-.57a55.64,55.64,0,0,1-17.42,6.95,43.35,43.35,0,0,1-19.45-.82c-7.22-1.81-14.45-3.6-21.78-4.88-6.13-1.07-12.09,0-17.92,2a2.55,2.55,0,0,0-1.66,1.9,4.43,4.43,0,0,0-.22,1.71c.79,4.67.07,9.26-.51,13.86a45.64,45.64,0,0,0,2.72,21.57,17.77,17.77,0,0,1,.35,12.3,8,8,0,0,1-1.11,2.4,1,1,0,0,1-1.83,0,9.15,9.15,0,0,1-1.44-3A83.55,83.55,0,0,1,52,208.28c-.31-2.7-.51-5.42-.76-8.13,0-1.61-.05-3.22-.07-4.83a4.1,4.1,0,0,1,0-1.6c0-1.52.25-6.74.25-6.75,0-.67.28-3.22.28-3.24,0-.44.19-1.92.25-2.37.65-5,1.85-10.32,2.92-15.47,1.11-5.32,4.11-9.2,7.71-12.66a45.28,45.28,0,0,1,22-11.34c2.3-.52,4.63-.83,7-1.14.59-.23,1.23.1,1.81-.2H106.6c.58.32,1.22,0,1.8.2a53.75,53.75,0,0,1,19.87,6,40.45,40.45,0,0,1,15,14c1.09,1.74,1.2,3.74,1.54,5.65.72,4,1.26,8,1.87,12a53.88,53.88,0,0,1,.51,5.37c.22.62.41,5.64.45,6.74q0,4.95.05,9.9"
                      transform="translate(0 -1.05)"/>
                <path class="cls-14"
                      d="M130,288.77c-2.55,2.67-6.44,4.85-9.6,6.58a43.82,43.82,0,0,1-16.34,4.75,44.25,44.25,0,0,1-33.36-9.55c-.81-.64-1.57-1.36-2.36-2a10.37,10.37,0,0,1,3.11-1.08c3.55-1,5.32-3.48,5.78-7.15.26-2.07.4-4.17.59-6.26a.71.71,0,0,1,.58.22c5.12,4,11,5.9,17.24,6.83,4.95.75,9.72-.6,14.33-2.42a54.26,54.26,0,0,0,7.56-3.57,2.6,2.6,0,0,0,1.51-2.78,2.18,2.18,0,0,1,.22-1.44c.11-.13,0-.49.15-.38a48.26,48.26,0,0,0,1,10.85c.64,3,2.21,5.1,5.16,5.95,1.12.32,3.21,1.09,4.47,1.49"
                      transform="translate(0 -1.05)"/>
                <path class="cls-14"
                      d="M119.42,270.74a3.74,3.74,0,0,0,0,.94c.07,3.13-.58,3.22-2.29,4.12-5.07,2.64-10.3,4.85-15.92,5.65a24.79,24.79,0,0,1-10.79-1.07,47.61,47.61,0,0,1-9.55-3.95,9.82,9.82,0,0,1-3-2.41l.24-6.7c3.4,2.26,6.8,4.52,10.39,6.46,4.42,2.37,9,2.29,13.76,1.93,4.56-.35,8.18-3,12-5.23,1.77-1.05,3.45-2.28,5.16-3.42,0,.36.07.72.1,1.08a9.43,9.43,0,0,1,0,2.6"
                      transform="translate(0 -1.05)"/>
            </g>
            <g class="cls-18">
                <path class="cls-14"
                      d="M52.67,506.8a92.14,92.14,0,0,0,5.38,21.12c.24.63.13,1.36.68,2,.06.13.3-.28.08-.11s-.15,0-.19-.07a8.93,8.93,0,0,1-.65-4.65,68,68,0,0,0,0-12.52c-.27-2.6.38-5.1.83-7.61a124.22,124.22,0,0,1,4.4-17.09c1-2.88,1-2.92,4.14-2.85,1.22,0,2.51-.27,3.62.54a.51.51,0,0,1-.12.63,1.44,1.44,0,0,1-1-.07c10.34-.3,20.67-.41,31.08,0a2.45,2.45,0,0,1-1.43.1.49.49,0,0,1-.21-.6,2.37,2.37,0,0,1,1.74-.58c2.22-.1,4.45-.38,6.66-.38,6.55,0,13-.66,19.58-1a5,5,0,0,1,4.11,1.57,20.49,20.49,0,0,1,6.21,14.6c0,4.16-.1,8.33-.26,12.5a73.32,73.32,0,0,0,.84,13.3,19.17,19.17,0,0,1,.29,3.26,135.48,135.48,0,0,0,2.28-13.63c.23-1.86.11-3.77.75-5.57a7,7,0,0,1,.78-1.93c4-.68,7.61,2.22,8.34,7.38.56,2.29-.17,5.22-.29,5.93a29.64,29.64,0,0,1-5.84,13.15,2.37,2.37,0,0,1-1.67,1.13,15.27,15.27,0,0,1-5,3.42c-1.49,4-2.4,8.23-4.14,12.16a13.47,13.47,0,0,1-3.45,5.28c-3.78,3.71-6.79,7-11.18,10-.58.4-1.4,1-2.62,1.76-7.45,5.78-15.31,10.21-25.3,8.06a28.54,28.54,0,0,1-8.34-3.75c-2-1.14-4.11-2.1-5.62-3.91a140.23,140.23,0,0,1-13.37-10.8A17.69,17.69,0,0,1,59.55,551a61.49,61.49,0,0,1-3.33-10.46c-.14-.69-.2-1.45-1.08-1.86-5.16-2.4-7.61-7-9.74-11.94-2-4.63-2.61-9.64-.78-14.17s8-6.42,8.05-5.78"
                      transform="translate(0 -1.05)"/>
                <path class="cls-13"
                      d="M0,634.5c.64,0,2.38-12.6,9.53-22.13,4.42-5.89,11.24-9.86,19-11.87,9.89-2.55,19.53-5.88,29.33-8.67,2.9-.83,5.67-2.06,8.71-2.44a6.67,6.67,0,0,1,2.84.44c20,6,37.24,2.12,57.69-2.11,1.61-.33,4.66,1.37,5.51,1.63,10.06,3.06,20.1,6.18,30.2,9.14,4.62,1.35,9.65,2.53,14,4.53A34.88,34.88,0,0,1,194,620.16c1.07,2.31,4.89,14.8,4.39,14.34"
                      transform="translate(0 -1.05)"/>
                <path class="cls-13"
                      d="M142,509.59c-.86,7.16-1.51,14.36-3.62,21.94-.38-2.27-.71-4-.93-5.66s-.36-3.6-.52-5.39c-.48-5.28-.08-10.56,0-15.84,0-3.32.22-6.66-.76-9.94a21.43,21.43,0,0,0-6-9.58,2.25,2.25,0,0,0-1.84-.77c-9.63.85-19.29,1.09-28.94,1.49-1.9.78-3.88.24-5.83.34a146.6,146.6,0,0,0-16.77,0c-1.95-.1-3.93.45-5.84-.35-1.66-.06-3.32-.08-5-.18-.77,0-1.34,0-1.61.88-2.73,8.51-5.2,17.08-5.86,26.05,0,4.31-.08,8.61,0,12.91l.42,5.15a56.2,56.2,0,0,1-4.65-12.48c-1.16-4.2-1.66-8.53-2.44-12.8-.16-1.82-.36-9.94-.16-12.85a73.13,73.13,0,0,1,3.31-20c1.23-4,4.37-6.95,7.48-9.74.81-.73,2.89-3,10.23-6.21A36.19,36.19,0,0,1,83.42,453c.48,0,5-.58,6.71-1,1.6-1.21,3.53-1,5.34-1.24,1-.95,0-1.67-.39-2.32s-3.62-2.57-4.13-3.45a10.27,10.27,0,0,0-5.73-2.24s-6.9-.7-9.28-1.12c-1-1.55,4.63-3.47,6.36-4.24.88-.23,1.78-.35,2.67-.55a27,27,0,0,1,10.49,0c5,1.61,10.07,3.28,15.43,3.52a43.56,43.56,0,0,0,5,.41c.73.22,6.24.74,7.94,2a16.34,16.34,0,0,1,1.5.93,26.79,26.79,0,0,1,3.47,3.24c1.33,1.1,1.63,2.78,2.34,4.23a16.63,16.63,0,0,1,.35,4.77,12.27,12.27,0,0,1-.66,2.37c-.34,1.13-1.74,2.13-.45,3.47.55.6,5.19,5.3,5.85,5.79.24.26,1.09,1.54,1.34,1.88.1.14.79,1.14,1,1.52a9.93,9.93,0,0,1,.68,1.57,17.93,17.93,0,0,1,.8,3.61,4.68,4.68,0,0,1-.13,2.2c.28,1.4.56,2.8.83,4.19,1.21,2,1.33,8.43,1.58,9.34.1,1.07.2,4.72.22,5.47,0,2.84-.43,11-.55,12.32"
                      transform="translate(0 -1.05)"/>
                <path class="cls-14"
                      d="M125.25,588.13c-6.16,2.66-11.31,5.35-17.92,6.12A84,84,0,0,1,69,590.19c-.64-.23-1.26-.52-1.9-.78a9.59,9.59,0,0,1,3.84-1.49c3.4-.84,4.89-3.28,5.39-6.39a68.47,68.47,0,0,0,.6-6.84c.2-.15.29-.13.48,0a6.44,6.44,0,0,0,1.74,2c7.11,4.16,14.6,6.5,22.9,4.62a45,45,0,0,0,12.38-4.84,3,3,0,0,1,2.12-.71c.15,1.31.4,2.07.62,3.19.29,1.45.64,2.62,1.06,4a6.46,6.46,0,0,0,4.45,4.32c1.38.5.9.22,2.62.75"
                      transform="translate(0 -1.05)"/>
                <path class="cls-14"
                      d="M116.47,575.94c-6.77,4.07-13.9,7.21-22,6.63a33.73,33.73,0,0,1-16.55-5.77,2.11,2.11,0,0,1-1.06-1.88,24.48,24.48,0,0,0,.13-2.71l.06-3.79c2.94,1.67,5.84,3.44,8.84,5,7.93,4.1,15.63,3.33,23.17-1.15,2.43-1.44,4.68-3.22,7.36-4.24,0,1.37.07,2.75.11,4.13s0,2,0,3.79"
                      transform="translate(0 -1.05)"/>
                <path class="cls-14"
                      d="M99.32,486.07h3.28c0,.1,0,.21,0,.31H68.13c0-.11,0-.21,0-.32h2.84a54.21,54.21,0,0,1,7.64-.34c6.65-.19,13.3-.11,20,.15a1.58,1.58,0,0,1,.8.2"
                      transform="translate(0 -1.05)"/>
                <path class="cls-14" d="M111.39,486h-4.46a8.76,8.76,0,0,1,4.46,0" transform="translate(0 -1.05)"/>
                <path class="cls-14"
                      d="M123.83,597.19c-3.92,2.14-8.93,3.17-13.22,4.12a82.62,82.62,0,0,1-18.3,1.78c-.61,0-7.09-.45-8.25-.7-.15-.09,6.29.13,6.34,0s.1-.13.15-.13a84.35,84.35,0,0,0,32.79-5.51c.31-.12-.54.49-.2.45Z"
                      transform="translate(0 -1.05)"/>
                <path class="cls-14"
                      d="M90.55,602.3c0,.13.13.36.13.49-11.92.34-29-5.84-33.65-9.59,10.56,5.32,21.65,8.7,33.52,9.1"
                      transform="translate(0 -1.05)"/>
                <path class="cls-14" d="M123,597c3.35-1.66,6.88-3.05,10.23-4.71-3.14,2.1-9.07,5.24-12.81,6.08Z"
                      transform="translate(0 -1.05)"/>
                <path class="cls-14" d="M93.45,485.6H76.79c.58-.55,1.31-.34,2-.34q6.36,0,12.7,0c.67,0,1.4-.21,2,.35"
                      transform="translate(0 -1.05)"/>
                <path class="cls-13"
                      d="M58.11,546.67c6.48,8.29,14.24,14.9,24.33,18.39,4.41,1.53,8.83,1.68,13.1-.62a3.15,3.15,0,0,1,3-.2c8.36,4.11,15.33.81,22.06-4A60.92,60.92,0,0,0,135,545.76c.11-.16.3-1.74.95-.21-1.81,9.82-7.29,17.23-15.2,23l-3.78,2.81a5.89,5.89,0,0,1-2.21,1.77,34.2,34.2,0,0,1-15.86,4.51,31.63,31.63,0,0,1-19.47-5.39,4.33,4.33,0,0,1-1.48-1.67C72.1,566.38,66.44,562,62.25,556A33.79,33.79,0,0,1,58,547.87c-.15-.42-.57-.86.12-1.2"
                      transform="translate(0 -1.05)"/>
            </g>
            <g class="cls-19">
                <path class="cls-13"
                      d="M383.59,158.64a.35.35,0,0,0,.13-.14c.71-2.05,1.15-2.35,4.6-1,4.18,1.67,8,2.77,11.63,5.62a16.71,16.71,0,0,1,5.47,7.22c1.44,2.23,1,4.74.73,7.1a40,40,0,0,1-7.37,19.17,5.68,5.68,0,0,1-2,1.86H320.32a2,2,0,0,0-1.32-.2q-13.12,0-26.23,0a2,2,0,0,0-1.32.2H274.29c-1.55-.82-2.3-2.4-3.06-3.85-4.19-8.05-5.88-16.41-2.58-25.31a5.22,5.22,0,0,1,1.75-2.62,22.64,22.64,0,0,1,14.89-9.83c1.07-.21,5.5-.33,5.5-.33a2.58,2.58,0,0,0,0,.8,1.29,1.29,0,0,0,.15.59,2.65,2.65,0,0,1,1.08,1.29c3.51,9,10.07,14.64,18.57,17.93a74.58,74.58,0,0,0,43.47,3.18C364.49,178,374.77,170.2,378,167.4a20.72,20.72,0,0,0,4.13-6.22c.44-.87.61-1.92,1.46-2.54"
                      transform="translate(0 -1.05)"/>
                <path class="cls-14"
                      d="M270.4,166.72c-5.13,10.57-3.19,20.45,2.7,29.94.38.62.79,1.23,1.19,1.84H256c.65-12,4.17-22.64,13-30.87.43-.41.79-.92,1.46-.91"
                      transform="translate(0 -1.05)"/>
                <path class="cls-14"
                      d="M396.77,198.5A41.34,41.34,0,0,0,405.56,178a26.64,26.64,0,0,0-.14-7.67c5.15,5,7.69,11.42,9.25,18.35a37.83,37.83,0,0,1,1.22,9.78Z"
                      transform="translate(0 -1.05)"/>
                <path class="cls-14" d="M291.45,198.5c.44-.57,1.06-.4,1.62-.4h25.62c.56,0,1.19-.18,1.63.4Z"
                      transform="translate(0 -1.05)"/>
                <path class="cls-13"
                      d="M319.17,137.87c-23-10.06-35.37-28.73-39.82-53.73-2.53-14.21-.43-28,2.7-42C287,20.24,308.21,4,324.51,2c12.93-1.55,26-2,38.05,4.75,8.4,4.71,16.84,9.37,23.27,17.09,7.25,8.72,11.64,18.5,11,30.31a13.91,13.91,0,0,1-.56,4.41c-1.74,4.34-1.37,8.87-1.52,13.38-.53,15.72-4.57,30.29-13.31,43.26a1.59,1.59,0,0,0-.2,1.93c3.23,6.27,2.31,12.1-2.44,17.26-1,1-2.63,1.55-2.68,3.39a.72.72,0,0,1-.85-.3c-3-3.15-6.7-.66-7.53,2.48a16.57,16.57,0,0,1-4.61,7.82c-1.81,1.73-3.81,3.24-5.2,5.41-.28.45-.72.83-1.3.36a20.8,20.8,0,0,1-5.24-13.63c-.14-3.18,0-6.37,0-9.55a24.48,24.48,0,0,1,.16-4.84c.45-1.22,1.56-1.58,2.54-2.07a75.63,75.63,0,0,0,13.28-8.82c4.07-3.31,6.56-7.83,8.06-12.94.72-2.46,1.45-4.93,2-7.45a3.74,3.74,0,0,1,2.36-3A14.85,14.85,0,0,0,386,85.67a26.32,26.32,0,0,0,4.63-10.88,8.17,8.17,0,0,0-.06-3.4c-1.61,1.16-2.79,2.6-4.21,3.72a29.81,29.81,0,0,1-6,3.79,7.17,7.17,0,0,1-3,.76c-1.92,0-2.72-.7-2.93-2.72a70.68,70.68,0,0,0-1.45-8.2c-1.91-8.51-7.36-13.09-15.17-15.14a33.51,33.51,0,0,0-10.27-.78,50.19,50.19,0,0,1-19.39-2.77,112.26,112.26,0,0,1-14.08-6,2.94,2.94,0,0,0-3.7.45,39.2,39.2,0,0,0-10.1,12,24.12,24.12,0,0,1-9.41,10c-2.32,1.35-4.71,2.41-7.38,1-.85-.45-1.21.13-1.45.82a12.3,12.3,0,0,0-.9,5.56c.68,5.84,3.4,10.63,7.18,14.82a10.89,10.89,0,0,0,3.91,2.63A3.58,3.58,0,0,1,294.39,94c.44,1.78,1.05,3.51,1.42,5.29,1.83,8.72,6.92,14.85,13.92,19.56a91.25,91.25,0,0,0,8.38,4.77c.86.46,1.81.81,2.2,1.89a25,25,0,0,1,.18,5,31.66,31.66,0,0,1-.44,6c-.05.58-.12,1.25-.88,1.36"
                      transform="translate(0 -1.05)"/>
                <path class="cls-14"
                      d="M319.17,137.87c.87-2.39.63-4.92.82-7.39.72-.62,1.48-.26,2.22,0a47.09,47.09,0,0,0,27.42,0c.74-.22,1.49-.58,2.22,0,0,3.31-.06,6.63.09,9.93a23.32,23.32,0,0,0,5.18,13.26,2,2,0,0,1-.18,1.37,11,11,0,0,0,0,8.4,40.12,40.12,0,0,0,1.07,5.95c.85,3.29-.48,5.93-2.61,8.23-.4.44-.91.75-1.33,1.2.53.61,3.19.22,3.55,1a13.5,13.5,0,0,1-3.34,1.13A71.29,71.29,0,0,1,331,182.54a66.74,66.74,0,0,1-23.49-6.09c-7.61-3.66-13.33-9.29-16.29-17.66a3.41,3.41,0,0,1-.43-1.34c7.44-2.45,15.13-4.65,22.6-7,3-.93,5-2.64,5.4-5.87.31-2.21,1.11-4.43.35-6.72"
                      transform="translate(0 -1.05)"/>
                <path class="cls-13"
                      d="M356.46,163.53a10.75,10.75,0,0,1,.66-9.86,20.54,20.54,0,0,1,4.53-5.17,15.76,15.76,0,0,0,5.54-8.53,5.48,5.48,0,0,1,4.51-4.47c1.87-.31,3.32.74,4.41,2.3,3.43,5.29,3.67,10.94,1.77,16.84-.2.63-.44,1.26-.66,1.89a3.74,3.74,0,0,1-2.14,3.14,8.77,8.77,0,0,1-3.16-.95,14.08,14.08,0,0,0-8.82-.22,8.64,8.64,0,0,0-5.29,3.88c-.31.5-.43,1.37-1.35,1.15"
                      transform="translate(0 -1.05)"/>
                <path class="cls-14"
                      d="M375.24,159.39l2-2.86,6.37,2.11c-1.1,3.39-3.13,8.16-5.78,10.58-.47-3-1.24-7.2-2.57-9.83"
                      transform="translate(0 -1.05)"/>
                <path class="cls-13"
                      d="M375.24,159.39c2.11,2.3,3.55,4.88,3.15,8.22-1.83,7.76-7.49,10.64-14.21,12.12a22.38,22.38,0,0,1-8.28.13,8.78,8.78,0,0,1-3-.69c.71-.6,1.39-1.1,2-1.7,2.4-2.34,3.61-5.1,2.52-8.57a22.2,22.2,0,0,1-.91-5.37c3.15-6.85,11.61-7.35,17.35-4.71.46.22.95.39,1.43.57"
                      transform="translate(0 -1.05)"/>
                <path class="cls-14"
                      d="M320,125.18c-5.83-2.86-11.51-6-16.31-10.54a27.35,27.35,0,0,1-7.51-12.36c-.83-2.85-1.59-5.72-2.31-8.61-.24-.92-.56-1.53-1.55-1.76a7,7,0,0,1-3.35-2c-5.23-5.29-8.92-11.29-8-19.34a9.19,9.19,0,0,1,1.7-4.46c2.61,2.67,5.29,1.56,7.91,0a22.78,22.78,0,0,0,9-9.32,41.81,41.81,0,0,1,11.12-13.19,2.51,2.51,0,0,1,3.23-.37c8,4.13,16.24,7.5,25.16,8.78a46.52,46.52,0,0,0,8.75.19,34.35,34.35,0,0,1,10.83,1c8.93,2.46,14,8.57,15.56,18a34.71,34.71,0,0,1,.75,5.83c0,1.73.89,2.26,2.36,2.17A12.72,12.72,0,0,0,383,76.88a38,38,0,0,0,7.79-6.78,11.6,11.6,0,0,1-.06,6.76,26.76,26.76,0,0,1-7.21,12.57,5.36,5.36,0,0,1-2.19,1.64c-3.08.68-3.5,3.19-4.1,5.77-1.29,5.56-2.93,11-6.71,15.36a32.94,32.94,0,0,1-7,6c-3.79,2.47-7.47,5.12-11.62,6.93a4.37,4.37,0,0,1-2.09,1.4,99.2,99.2,0,0,1-11.1,3.75,10.33,10.33,0,0,1-5.93-.13A101.66,101.66,0,0,1,322,126.59a4.38,4.38,0,0,1-2.09-1.41"
                      transform="translate(0 -1.05)"/>
                <path class="cls-14"
                      d="M320,125.18c3.94,1.5,7.94,2.81,11.9,4.23s7.49.24,11.09-.94c3-1,6-2.19,8.95-3.29,0,1.77,0,3.53,0,5.3-3,.64-5.94,1.69-9,2.09a48.54,48.54,0,0,1-21.35-1.73c-.49-.16-1-.24-1.49-.36,0-1.77,0-3.53,0-5.3"
                      transform="translate(0 -1.05)"/>
            </g>
            <g class="cls-20">
                <path class="cls-13"
                      d="M776.89,789.68c.65-5.54,1.61-11,4.21-16,3.57-6.92,8.83-11.77,16.25-14.09,4.26-1.34,8.2-2.58,12.47-3.89a4.54,4.54,0,0,1,2-.17c.15,1.43.73,2.09.93,3.28,2.14,13.25,11.4,22.89,24.49,24.69,6.67.91,13.47.74,19.88-2.11,10-4.43,16-12.17,18.13-23a5.56,5.56,0,0,1,.82-2.56c.09-.61-.11-.53,1-.29,5.57,1.92,11.37,2.88,16.76,5.31,9.38,4.23,14.2,12.14,16.27,22a22.4,22.4,0,0,1,.75,6.82Z"
                      transform="translate(0 -1.05)"/>
                <path class="cls-13"
                      d="M830,737.29c-1.71-.71-3.44-1.34-5.1-2.14-1.21-.6-2.47-1.28-2.58-2.92,0-.71-.69-.54-1.09-.65-4.05-1.07-7.12-3.27-8.52-7.37-.31-.91-.72-1.1-1.69-.9A11.43,11.43,0,0,1,798.14,716c-.39-1.11-.69-1.47-1.9-1a3.62,3.62,0,0,1-4.38-1c-1.46-1.64-3.77-2.26-5-4.24s-2.09-4-1.41-6.38a1.22,1.22,0,0,0-.78-1.67c-5.12-2.66-10.22-9.62-9-16.48.46-2.63.3-5-2.21-6.63a1.26,1.26,0,0,1-.51-.71c-1-4-3.14-7.75-2.22-12.09a12.65,12.65,0,0,1,1.63-4.51,4,4,0,0,0,.56-3.46,18.29,18.29,0,0,1,3.28-16,1.2,1.2,0,0,0,.25-1.41c-2-4.91,1.53-11.56,7.73-12.16a2.3,2.3,0,0,0,.5-.13c-1.8-4.19-.68-9.75,4.51-11.78.33-.12.61-.37.94-.51,2.41-1,4.21-2.37,5-5.19,1-3.6,3.82-5.62,7.5-6.36a8.84,8.84,0,0,0,5.32-3,9.23,9.23,0,0,1,4.17-3,1.36,1.36,0,0,0,.33-.14c4.42-3,9.14-4.41,14.51-3.06a6.68,6.68,0,0,0,4-.5c5.6-2.33,11.24-1.52,16.86-.23a6.06,6.06,0,0,0,4.32-.38c5.5-2.81,13.38-.53,16.55,3.74a2.82,2.82,0,0,0,3,1.39,3,3,0,0,1,2.53.66c1.3,1.21,2.72,1.14,4.28.9,5-.76,11.22,4.67,11.82,8.57.22,1.46,1.6,1.64,2.24,2.58a3.07,3.07,0,0,0,2.9,1.46c5.74,0,10.43,3.37,11.59,8.22a13.88,13.88,0,0,1,.22,1.94,11.46,11.46,0,0,0,1,4.47,6.31,6.31,0,0,1,.22,5.54c-.54,1.28-.08,1.45,1,1.77a10.73,10.73,0,0,1,7.12,12.57,6.13,6.13,0,0,1-1.5,2.79c-1,1-1.1,2.1.06,3.06,3.8,3.17,4.23,10.48,0,14.59a1.61,1.61,0,0,0-.45,2.11c1.53,3.84,1,7.34-2,10.31a3.13,3.13,0,0,0-.94,3c1,6.5-1.17,12-5.79,16.5a5.55,5.55,0,0,0-1.59,2.65,19.47,19.47,0,0,1-5,8.54,10.35,10.35,0,0,1-7,3.28c-1.14.06-1.44.51-1.6,1.57a8.93,8.93,0,0,1-8.6,7.64,1.32,1.32,0,0,0-1.45,1.13c-1.85,6-7.44,8.83-13.43,6.89-1.13-.37-1.63-.41-2.09.91-1.21,3.48-3.87,5.29-7.46,5.81-1.4-.8-.65-2.16-.84-3.28.1-2-.24-4.05.17-6.07.4-.92,1.31-1.17,2.1-1.56a48.2,48.2,0,0,0,11.41-7.31A22,22,0,0,0,877,710.25c.54-1.71,1-3.44,1.5-5.16a2.7,2.7,0,0,1,1.46-1.93c6-2.61,8.54-7.69,9.79-13.64a8.13,8.13,0,0,0-1.45-6.47c-1.38-2-2.39-2.23-4.59-1.31a1.77,1.77,0,0,1-2.19-.71c-1.14-1.31-1-2.88-.74-4.42a21.67,21.67,0,0,0,.19-9.24c-1.07-4.34-3.27-7.89-7.46-10-4-1.95-7.9-3.95-12-5.65a20.51,20.51,0,0,0-10-1.32,62.71,62.71,0,0,1-16.58-.72,9.78,9.78,0,0,0-6.25.95,134.47,134.47,0,0,0-12,7.14c-3,1.92-4.42,4.93-5.36,8.2a57.19,57.19,0,0,0-1.46,8.45,11.21,11.21,0,0,1-3.37,6.57c-.88.87-1.85,1.55-3.08.35-.74-.73-1.57-.28-2.28.22a7.13,7.13,0,0,0-3,5.63c-.47,5.93,4,13.38,9.54,15.76a2.75,2.75,0,0,1,1.7,1.92c.34,1.21.74,2.4,1,3.62,1.59,6.78,5.63,11.76,11.44,15.39a47.88,47.88,0,0,0,7.38,4,2.51,2.51,0,0,1,1.78,1.61,31.38,31.38,0,0,1,.1,4.75c-.2,1.06.63,2.54-1.17,3"
                      transform="translate(0 -1.05)"/>
                <path class="cls-14"
                      d="M857.42,735.37c.22,1.07-.21,2.22.37,3.25-.13,3.27-.07,6.52,1.32,9.58a4.57,4.57,0,0,0,2.69,2.46l14.27,5.14c-1.16,10.63-6.2,19-15.64,24-10.66,5.6-21.88,6-32.83.65-8.63-4.22-13.29-11.65-15.24-20.9-.29-1.38-.34-2.43-.52-3.83a4.41,4.41,0,0,0,1.15-.22c4.41-1.6,8.83-3.19,13.24-4.82a5.49,5.49,0,0,0,3.35-4.13c.72-2.67.55-5.43.9-8.14.06-.49-.32-.74-.52-1.09,1.23-.75.27-2,.71-3,.56-.45,1.14-.19,1.7,0a41.24,41.24,0,0,0,23.07.07c.93-.26,1.95-.55,2,1"
                      transform="translate(0 -1.05)"/>
                <path class="cls-14"
                      d="M830.68,729.26c-3.14-1.69-6.34-3.24-9.38-5.13-6.9-4.28-10.54-10.65-12.12-18.39-.28-1.34-.71-2.33-2.26-2.47a2.31,2.31,0,0,1-1.11-.54c-5-3.84-8.11-8.72-8.1-15.17a7.12,7.12,0,0,1,4-6.87c.82-.41,1.7-.69,2.29.42s1.11.51,1.7,0c2.92-2.37,3.82-5.63,4.09-9.18a33.54,33.54,0,0,1,1.13-6.14,14.55,14.55,0,0,1,7.07-9.45c3.23-1.79,6.33-3.81,9.53-5.66a11.7,11.7,0,0,1,8.08-1.45,61,61,0,0,0,17.28.54,16.76,16.76,0,0,1,8.38,1.33c3.86,1.58,7.58,3.47,11.37,5.2,7.32,3.33,10.15,10.68,9.05,18.1-.19,1.23-.44,2.46-.6,3.7a3.29,3.29,0,0,0,.91,2.79c.7.75,1.42,1.19,2.1,0,.49-.88,1.16-.61,1.85-.36,2.86,1,4.84,4.62,4.39,8.42a20,20,0,0,1-7.26,13.12,3.38,3.38,0,0,1-1.5.94c-2.28.28-2.63,1.94-3.05,3.73-1.17,5-3,9.72-6.82,13.33A45.88,45.88,0,0,1,857.54,729a4.18,4.18,0,0,1-2.16,1.48,35.27,35.27,0,0,0-3.87,1.33c-5.48,2.65-10.85,1.88-16.18-.37-1.57-.66-3.35-.87-4.65-2.13"
                      transform="translate(0 -1.05)"/>
                <path class="cls-14"
                      d="M885.86,662.23c-.74-9.82-5.68-17.29-13.26-23.15A43.84,43.84,0,0,0,847.46,630c-12.71-.65-24,2.92-33.55,11.5-6.91,6.24-10.82,14-10.67,23.41-.58-1-.91-2.79-.87-5.78.16-10,3.67-18.47,11.45-25a42,42,0,0,1,19.09-8.87c12.6-2.51,24.83-1.44,36.3,4.65,9.23,4.91,15.27,12.4,17.1,22.93a31.06,31.06,0,0,1,.11,9.43c-.19.27-.38.27-.56,0"
                      transform="translate(0 -1.05)"/>
                <path class="cls-14"
                      d="M830.68,729.26c3.05.79,5.92,2.11,8.94,3a12.85,12.85,0,0,0,8.35.13c3.19-1.15,6.5-1.95,9.57-3.44q-.06,3.21-.13,6.42c-.28-.64-.59-1-1.44-.68a39.59,39.59,0,0,1-14.9,1.73,44,44,0,0,1-10.4-2.11c0-1.68,0-3.37,0-5"
                      transform="translate(0 -1.05)"/>
                <path class="cls-14" d="M885.86,662.23h.56a1.74,1.74,0,0,1-.48,1.64,2.85,2.85,0,0,1-.08-1.65"
                      transform="translate(0 -1.05)"/>
            </g>
            <g class="cls-21">
                <path class="cls-13"
                      d="M1132.72,530.62a61.12,61.12,0,0,0-2.19,16c-.06,7-2,13.54-3.16,20.29-1.19,7.07-5.57,12.41-9.62,17.92-.89,2.42-2.73,4.1-4.58,5.72-2.85,2.48-5.8,4.85-8.68,7.31-7,6-15,6.45-23.53,4.18a22.53,22.53,0,0,1-8.39-4.32c-5.1-4.13-9.87-8.62-14.54-13.23-4.36-5.22-8.79-10.38-11.61-16.68a42.26,42.26,0,0,1-3.9-16.34,10,10,0,0,0-.36-3,90.82,90.82,0,0,1-4-38.57c.31-3.47-.82-6.86-1.16-10.31a96,96,0,0,1,.32-24.43,39.27,39.27,0,0,1,2.34-8.7c.5-2,1.58-3.78,2.17-5.75a23.84,23.84,0,0,0,2.25-4.38c.58-1.13,1.25-2.21,1.91-3.29a14.52,14.52,0,0,0,1.41-2.29,7.09,7.09,0,0,1,.88-1.16c.36-.45.73-.9,1.13-1.31s1-.95,1.43-1.44a12.55,12.55,0,0,1,1.53-1.38c.33-.21.69-.4,1-.58.72-.37,1.51-.59,2.21-1,.92-.51,1.94-.81,2.85-1.33a14.35,14.35,0,0,1,4.63-1.45,8.53,8.53,0,0,0,1.08-.35,37.56,37.56,0,0,1,21.09-3.53c9.22.94,18.33,1.88,27.21,4.84a25.66,25.66,0,0,1,15.11,13.06c7.23,13.57,9.09,28,7.5,43.05,0,.3,0,.61,0,.92a4.46,4.46,0,0,1,.32,3.13,54.81,54.81,0,0,0-.71,14.2c.4,3.7-.31,7.49-.75,11.22a9.51,9.51,0,0,1-1.2,3"
                      transform="translate(0 -1.05)"/>
                <path class="cls-13"
                      d="M1126.67,588.15c10.7,3.16,21.39,6.42,31.95,10,15,5,23,16.14,25.49,31.27a14.75,14.75,0,0,1,.45,5c-.7.53-1.52.27-2.27.27q-95.65,0-191.3,0c-1.56,0-3.13.17-3-2.09,1.09-7,2.66-13.79,6.7-19.76,4.69-6.93,10.49-12.61,18.83-15.2,10.07-2.83,20-6.09,29.93-9.29,1.09-.35,2.17-.93,3.39-.56,1.06.62,1.22,1.75,1.58,2.75a50.41,50.41,0,0,0,18.79,25.12,49.39,49.39,0,0,0,17.47,7.73,10.24,10.24,0,0,0,5.75-.67c12.85-4.36,23-12.1,30.11-23.55a59,59,0,0,0,4.57-8.87c.33-.83.52-1.82,1.56-2.18"
                      transform="translate(0 -1.05)"/>
                <path class="cls-14"
                      d="M1127,588.35c-5.31,14.37-15.27,25.11-29,32-.14.07-.29.12-.42.2-7.59,4.74-15,3.9-22.75,0-13.77-7-20.24-15.36-26.77-30.74-.24-.56-1.26-1.92-1-2,3.38-1.46,6.7-2.57,10.59-3.82,4.48,4.13,9.8,8.81,14.57,12.62,7.33,5.88,15.61,7.29,24.62,5a12.11,12.11,0,0,0,4.34-2.08,105.5,105.5,0,0,0,16.61-14.7c2.53,1.82,6.31,2.8,9.21,3.52"
                      transform="translate(0 -1.05)"/>
                <path class="cls-14"
                      d="M1132.72,530.62a95.33,95.33,0,0,0,.93-19.83c-.18-3.93,1-7.78,1.41-11.69,6.37,2,8.7,5.86,7.83,12.92-.92,7.54-4,13.93-10.17,18.6"
                      transform="translate(0 -1.05)"/>
                <path class="cls-14"
                      d="M1087,535.92c1.71.25,3.36.43,5,.75,5.16,1,8,4.42,9,9.38a7.92,7.92,0,0,1-3.21,8.37c-6,4.63-16.5,4.75-22.63.23-5.69-4.18-4.55-13.29,2.09-16.74,2.57-1.33,5.37-1.75,9-1.87a17.75,17.75,0,0,0-11.5-3.35c-6.92.4-12.06,3.85-15.82,9.54a22.21,22.21,0,0,0-1.17,2A2.79,2.79,0,0,1,1055,546a2.85,2.85,0,0,1-2.58-2c-3.86-9.34-7.12-18.89-10.07-28.56a2,2,0,0,1-.11-.68c.78-14.3.3-28.77,6.4-42.28a10,10,0,0,1,4.11-4.78c5.26-3.17,11.1-4.58,17.08-5.43,14.37-2.06,28.62-1.63,42.65,2.46.15,0,.3,0,.45.1,6.54,1.87,11,5.37,13,12.48a105.7,105.7,0,0,1,4,27.14,15.34,15.34,0,0,0,.14,2.54c1.22,6.37-.93,12.17-3,18q-3.25,9.13-6.51,18.29c-.48,1.34-1.1,2.58-2.79,2.71s-2.42-1.06-3.14-2.29c-5.81-9.88-15.93-13.61-25.37-9.33a4,4,0,0,0-2.25,1.56"
                      transform="translate(0 -1.05)"/>
                <path class="cls-14"
                      d="M1038.51,528.32c-5.32-4.67-9.73-15-7.25-23,1-3.22,3.49-5.55,6.36-5.8,1.51,5.87,1.4,11.83.8,17.78-.38,3.69.28,7.35.09,11"
                      transform="translate(0 -1.05)"/>
            </g>
        </g>
    </g>
</svg>