<svg version="1.1" xmlns="http://www.w3.org/2000/svg" xmlns:xlink="http://www.w3.org/1999/xlink" x="0px" y="0px"
	 viewBox="0 0 509.7 627.1" style="enable-background:new 0 0 509.7 627.1;" xml:space="preserve">
<style type="text/css">
	.st0{fill:#706F6F;}
	#man-stressed-heavy:hover, #man-stressed-heavy.active {fill:#155872;}
	#man-stressed-heavy{fill:#5C6872;}
	#man-stressed-medium:hover, #man-stressed-medium.active {fill:#1597B2;}
	#man-stressed-medium{fill:#83A2B2;}
	#man-stressed-light:hover, #man-stressed-light.active {fill:#15BED1;}
	#man-stressed-light{fill:#abc0c9;}
	#man-stressed-heavy:hover, #man-stressed-medium:hover, #man-stressed-light:hover
	{filter:url(#inset-shadow-light); cursor: pointer;}
	#man-stressed-heavy.active, #man-stressed-medium.active, #man-stressed-light.active
	{filter:url(#inset-shadow);}
	.st4{fill:#442318;}
	.st5{fill:#1A6C5D;}
	.st6{fill:#F4D4B3;}
	.st7{fill:#D4D4D4;}
	.st8{clip-path:url(#SVGMAN_CLIP);}
	.st9{font-family:'Quicksand';}
	.st10{font-size:123.0757px;}
</style>
	<filter id="inset-shadow" x="-50%" y="-50%" width="200%" height="200%">
		<feComponentTransfer in="SourceAlpha">
		  <feFuncA type="table" tableValues="0.8 0" />
		</feComponentTransfer>
		<feGaussianBlur stdDeviation="10"/>
		<feOffset dx="0" dy="0" result="offsetblur"/>
		<feFlood flood-color="rgb(60, 60, 60)" result="color"/>
		<feComposite in2="offsetblur" operator="in"/>
		<feComposite in2="SourceAlpha" operator="in" />
		<feMerge>
		  <feMergeNode in="SourceGraphic" />
		  <feMergeNode />
		</feMerge>
	  </filter>
	<filter id="inset-shadow-light" x="-50%" y="-50%" width="200%" height="200%">
		<feComponentTransfer in="SourceAlpha">
		  <feFuncA type="table" tableValues="0.8 0" />
		</feComponentTransfer>
		<feGaussianBlur stdDeviation="10"/>
		<feOffset dx="0" dy="0" result="offsetblur"/>
		<feFlood flood-color="rgb(150, 150, 150)" result="color"/>
		<feComposite in2="offsetblur" operator="in"/>
		<feComposite in2="SourceAlpha" operator="in" />
		<feMerge>
		  <feMergeNode in="SourceGraphic" />
		  <feMergeNode />
		</feMerge>
	  </filter>
<path class="st7" d="M466.2,441.5c10.5-32.4,16.2-67,16.2-103c0-35.9-5.7-70.5-16.2-103l-317,103L466.2,441.5z"/>
<path class="st7" d="M345.1,608c56.2-40.9,99.2-99,121.1-166.6l-317-103L345.1,608z"/>
<path class="st7" d="M466.2,235.6C444.3,168,401.4,109.9,345.1,69L149.3,338.5L466.2,235.6z"/>
<path id="man-stressed-medium" d="M453.9,437.3c10.1-31.2,15.6-64.4,15.6-99s-5.5-67.8-15.6-99l-304.7,99L453.9,437.3z"/>
<path id="man-stressed-light" class="active" d="M337.5,597.4c54.1-39.3,95.3-95.2,116.4-160.1l-304.7-99L337.5,597.4z"/>
<path id="man-stressed-heavy" d="M453.9,239.4c-21.1-64.9-62.4-120.8-116.4-160.1L149.3,338.3L453.9,239.4z"/>
<path class="st4" d="M239.3,106.4c-1.4,5-2.1,10.2-2.1,15.4c-0.1,6.7-2,13-3,19.5c-1.1,6.8-5.3,11.9-9.2,17.2
	c-0.9,2.3-2.6,3.9-4.4,5.5c-2.7,2.4-5.6,4.7-8.3,7c-6.8,5.8-14.5,6.2-22.6,4c-3-0.8-5.7-2.2-8.1-4.1c-4.9-4-9.5-8.3-14-12.7
	c-4.2-5-8.4-10-11.2-16c-2.2-5-3.6-10.2-3.7-15.7c0-1,0-1.9-0.3-2.9c-2.2-6.4-3.4-13.1-4.1-19.8c-0.6-5.8-0.3-11.5,0.2-17.2
	c0.3-3.3-0.8-6.6-1.1-9.9c-0.9-7.8-0.8-15.7,0.3-23.5c0.4-2.9,1.2-5.6,2.2-8.4c0.5-1.9,1.5-3.6,2.1-5.5c0.8-1.4,1.6-2.7,2.2-4.2
	c0.6-1.1,1.2-2.1,1.8-3.2c0.5-0.7,1-1.4,1.3-2.2c0.2-0.4,0.6-0.8,0.8-1.1c0.3-0.4,0.7-0.9,1.1-1.3c0.5-0.5,0.9-0.9,1.4-1.4
	c0.5-0.5,0.9-0.9,1.5-1.3c0.3-0.2,0.7-0.4,1-0.6c0.7-0.4,1.4-0.6,2.1-1c0.9-0.5,1.9-0.8,2.7-1.3c1.4-0.6,2.9-1.3,4.5-1.4
	c0.3-0.1,0.7-0.2,1-0.3c6.4-3.2,13-4.1,20.3-3.4c8.9,0.9,17.6,1.8,26.1,4.7c6.7,2.2,11.2,6.4,14.5,12.5c6.9,13,8.7,26.9,7.2,41.4
	c0,0.3,0,0.6,0,0.9c0.6,1,0.5,2,0.3,3c-0.7,4.5-1.2,9-0.7,13.6c0.4,3.6-0.3,7.2-0.7,10.8C240.3,104.6,239.7,105.5,239.3,106.4z"/>
<path class="st5" d="M233.4,161.6c10.3,3,20.5,6.2,30.7,9.6c14.4,4.8,22.1,15.5,24.5,30c0.3,1.6,0.7,3.2,0.4,4.8
	c-0.7,0.5-1.5,0.3-2.2,0.3c-61.3,0-122.5,0-183.8,0c-1.5,0-3,0.2-2.9-2c1.1-6.7,2.6-13.2,6.4-19c4.5-6.7,10.1-12.1,18.1-14.6
	c9.7-2.7,19.2-5.8,28.7-8.9c1.1-0.3,2.1-0.9,3.3-0.5c1,0.6,1.2,1.7,1.5,2.6c3.5,9.9,9.3,18,18,24.1c5.1,3.6,10.7,6,16.8,7.4
	c2,0.4,3.7,0,5.5-0.6c12.3-4.2,22.1-11.6,28.9-22.6c1.7-2.7,3.2-5.5,4.4-8.5C232.3,162.9,232.4,162,233.4,161.6z"/>
<path class="st6" d="M233.7,161.8c-5.1,13.8-14.7,24.1-27.9,30.8c-0.1,0.1-0.3,0.1-0.4,0.2c-7.3,4.6-14.4,3.7-21.9,0
	c-13.2-6.7-19.4-14.8-25.7-29.5c-0.2-0.5-1.2-1.8-0.9-2c3.3-1.4,6.4-2.5,10.2-3.7c4.3,4,9.4,8.5,14,12.1c7,5.6,15,7,23.7,4.8
	c1.5-0.4,2.9-1.1,4.2-2c5.7-4.2,11.2-8.8,15.9-14.1C227.3,160.2,230.9,161.1,233.7,161.8z"/>
<path class="st6" d="M239.3,106.4c1.1-6.3,1.2-12.7,0.9-19c-0.2-3.8,0.9-7.5,1.4-11.2c6.1,2,8.4,5.6,7.5,12.4
	C248.1,95.8,245.2,101.9,239.3,106.4z"/>
<path class="st6" d="M195.4,111.5c1.6,0.2,3.2,0.4,4.8,0.7c5,1,7.7,4.2,8.7,9c0.7,3.3-0.4,6-3.1,8c-5.8,4.5-15.8,4.6-21.7,0.2
	c-5.5-4-4.4-12.8,2-16.1c2.5-1.3,5.2-1.7,8.6-1.8c-3.7-2.5-7.2-3.4-11-3.2c-6.6,0.4-11.6,3.7-15.2,9.2c-0.4,0.6-0.8,1.3-1.1,1.9
	c-0.6,1.1-1.3,1.8-2.6,1.7c-1.3-0.1-2-0.8-2.5-1.9c-3.7-9-6.8-18.1-9.7-27.4c-0.1-0.2-0.1-0.4-0.1-0.7c0.7-13.7,0.3-27.6,6.1-40.6
	c0.9-2,2.1-3.5,3.9-4.6c5.1-3,10.7-4.4,16.4-5.2c13.8-2,27.5-1.6,41,2.4c0.1,0,0.3,0,0.4,0.1c6.3,1.8,10.5,5.2,12.5,12
	c2.5,8.6,3.6,17.2,3.8,26.1c0,0.8,0,1.6,0.1,2.4c1.2,6.1-0.9,11.7-2.9,17.3c-2.1,5.9-4.2,11.7-6.3,17.6c-0.5,1.3-1.1,2.5-2.7,2.6
	c-1.6,0.1-2.3-1-3-2.2c-5.6-9.5-15.3-13.1-24.4-9C196.8,110.3,195.9,110.6,195.4,111.5z"/>
<path class="st6" d="M148.8,104.2c-5.1-4.5-9.3-14.4-7-22.1c1-3.1,3.3-5.3,6.1-5.6c1.4,5.6,1.4,11.4,0.8,17.1
	C148.3,97.1,148.9,100.6,148.8,104.2z"/>
<path class="st7" d="M195.8,176.9c89,0,161.4,72.4,161.4,161.4s-72.4,161.4-161.4,161.4S34.4,427.3,34.4,338.3
	S106.8,176.9,195.8,176.9z"/>
<g>
	<defs>
		<rect id="SVGMAN" x="37.8" y="284.6" width="428.8" height="143.3"/>
	</defs>
	<clipPath id="SVGMAN_CLIP">
		<use xlink:href="#SVGMAN"  style="overflow:visible;"/>
	</clipPath>
	<g class="st8">
		<text transform="matrix(1 0 0 1 200.4741 385.64)" class="st0 st9 st10" text-anchor="end" id="text">52</text>
		<text transform="matrix(1 0 0 1 220.4741 385.64)" class="st0 st9 st10">%</text>
	</g>
</g>
</svg>
