<svg version="1.1" xmlns="http://www.w3.org/2000/svg" xmlns:xlink="http://www.w3.org/1999/xlink" x="0px" y="0px"
	 viewBox="0 0 490.9 645.1" style="enable-background:new 0 0 490.9 645.1;" xml:space="preserve">
<style type="text/css">
	*{pointer-events: none;}
	.st0{fill:#706F6F;}
	#woman-stressed-heavy:hover, #woman-stressed-heavy.active {fill:#155872;}
	#woman-stressed-heavy{fill:#5C6872;}
	#woman-stressed-medium:hover, #woman-stressed-medium.active {fill:#1597B2;}
	#woman-stressed-medium{fill:#83A2B2;}
	#woman-stressed-light:hover, #woman-stressed-light.active {fill:#15BED1;}
	#woman-stressed-light{fill:#abc0c9;}
	#woman-stressed-heavy:hover, #woman-stressed-medium:hover, #woman-stressed-light:hover
	{filter:url(#inset-shadow-light);cursor:pointer;}
	#woman-stressed-heavy.active, #woman-stressed-medium.active, #woman-stressed-light.active
	{filter:url(#inset-shadow);}
	#woman-stressed-heavy, #woman-stressed-medium, #woman-stressed-light
	{pointer-events: all;}
	.st4{fill:#E72687;}
	.st5{fill:#DDB090;}
	.st6{fill:#422913;}
	.st7{fill:#561848;}
	.st8{fill:#B2927C;}
	.st9{fill:#D4D4D4;}
	.st10{clip-path:url(#SVGID_2_);}
	.st11{font-family:'Quicksand';}
	.st12{font-size:123.0757px;}
</style>
<filter id="inset-shadow" x="-50%" y="-50%" width="200%" height="200%">
		<feComponentTransfer in="SourceAlpha">
		  <feFuncA type="table" tableValues="0.8 0" />
		</feComponentTransfer>
		<feGaussianBlur stdDeviation="10"/>
		<feOffset dx="0" dy="0" result="offsetblur"/>
		<feFlood flood-color="rgb(60, 60, 60)" result="color"/>
		<feComposite in2="offsetblur" operator="in"/>
		<feComposite in2="SourceAlpha" operator="in" />
		<feMerge>
		  <feMergeNode in="SourceGraphic" />
		  <feMergeNode />
		</feMerge>
	  </filter>
	<filter id="inset-shadow-light" x="-50%" y="-50%" width="200%" height="200%">
		<feComponentTransfer in="SourceAlpha">
		  <feFuncA type="table" tableValues="0.8 0" />
		</feComponentTransfer>
		<feGaussianBlur stdDeviation="10"/>
		<feOffset dx="0" dy="0" result="offsetblur"/>
		<feFlood flood-color="rgb(150, 150, 150)" result="color"/>
		<feComposite in2="offsetblur" operator="in"/>
		<feComposite in2="SourceAlpha" operator="in" />
		<feMerge>
		  <feMergeNode in="SourceGraphic" />
		  <feMergeNode />
		</feMerge>
	  </filter>
<path class="st9" d="M34.2,256.7c-10.5,32.4-16.2,67-16.2,103s5.7,70.5,16.2,103l317-103L34.2,256.7z"/>
<path class="st9" d="M155.4,90.2c-56.2,40.9-99.2,99-121.1,166.6l317,103L155.4,90.2z"/>
<path class="st9" d="M34.2,462.7c21.9,67.5,64.9,125.6,121.1,166.6l195.9-269.5L34.2,462.7z"/>
<path id="woman-stressed-heavy" d="M163,100.6C108.9,140,67.6,195.8,46.6,260.7l304.7,99L163,100.6z"/>
<path id="woman-stressed-medium" d="M46.6,260.7c-10.1,31.2-15.6,64.4-15.6,99s5.5,67.8,15.6,99l304.7-99L46.6,260.7z"/>
<path id="woman-stressed-light" class="active" d="M46.6,458.7c21.1,64.9,62.4,120.8,116.4,160.1l188.3-259.1L46.6,458.7z"/>
<path class="st4" d="M227.6,222.6c-0.6-7.5,2.3-13.9,5.9-20.2c1.5-2.6,3.3-5,5.5-7.1c1.2-0.4,2.2,0.1,3.3,0.5
	c0.5,0.3,0.7,0.8,0.8,1.3c1,6.7,4.1,12.5,8.6,17.5c0.2,0.2,0.3,0.5,0.6,0.7c-0.4-0.4-0.5-0.9-0.7-1.3c-0.3-3.5,1-6.6,3.4-9.1
	c1.3-1.4,2.4-3.2,4.6-3.4c4.7,1.1,9.3,2.7,14,4.1c10,2.9,20,5.5,30.3,6.5c9.1,1,18.1,0,27.2-1.4c6.7-1,13.2-2.9,19.2-6
	c4.4-2.3,8.4-5.1,12.2-8.2c1.4-1.2,2.9-2.2,4.6-3.1c1.6-0.8,3.3-1.3,5.1-0.4c7.5,2,11.1,7.9,13.6,14.5c1.9,4.9,2.6,10,0.4,15.1
	C333.3,222.6,280.4,222.6,227.6,222.6z"/>
<path class="st5" d="M372.1,193.1c-3-0.3-5.5,1-7.7,2.8c-5.3,4.3-10.8,8.2-17.2,11c-7.8,3.4-16,4.6-24.4,5.6
	c-16.8,2.1-32.8-1.4-48.7-6.1c-4.9-1.4-9.7-3-14.6-4.5c0.1-1.3,1.3-1.5,2.2-1.9c3.8-1.8,7.9-2.6,12-3.7c4.5-1.1,8.8-2.9,12.7-5.6
	c5.9-4,10.2-9.4,12.9-15.9c1.5-3.5,1.4-7.3,1.4-11c0-1.1-0.3-2.2,0.6-3.2c1-0.5,1.3-3.9-0.1-4.7c-0.2,0.1-0.4,0.1-0.6,0.1
	c-8-2.4-15.6-5.6-22.4-10.5c-0.5-0.3-1-0.7-1.3-1.2c-0.1-0.2-0.1-0.4-0.3-0.5c-6.1-4.7-9.1-11.3-10.7-18.6c-0.4-1.8-0.9-3.2-3.1-3.6
	c-1.7-0.4-3-1.8-4.2-3.1c-3.3-3.8-5.9-8-6.4-13.2c-0.3-3,0.1-5.9,2.2-8.2c0.7,0.6,0.7,1.4,0.9,2.1c0.1,0.5,0.2,1.1,0.7,1.3
	c0.7,0.2,1.1-0.4,1.4-0.8c1.6-2.6,3.4-5.2,4.1-8.2c0.3-1,0.2-1.9-0.2-2.9c-0.6-2.7,0-3.3,2.6-2.6c8.9,2.3,17.9,3.7,27.1,4.6
	c1.5,0.2,3-0.1,4.5,0.2c0.8,0.3,1.6,0.3,2.4,0.2c6.3,0,12.7,0,19,0c0.8,0.1,1.6,0.1,2.4-0.2c10.2-0.8,20.3-2.3,30.2-4.9
	c2.2-0.6,2.6-0.2,2.8,1.9c-0.3,1.3-0.4,2.6-0.1,4c0.4,2.6,1.1,5.1,2.6,7.3c0.5,0.7,0.9,1.6,1.9,1.5c1.1-0.1,1.1-1.1,1.4-1.9
	c0.7-1.9,1-2.1,2.4-0.8c1,3.4,1.7,6.9,0.5,10.4c-1.6,4.8-4.1,8.9-8,12.1c-0.6,0.4-1.2,1-1.8,1.1c-2.4,0.3-3,2-3.4,4
	c-2.3,13.3-11.5,20.5-22.9,25.7c-1.8,0.8-2.4,1.7-2.3,3.6c0.3,5.4,0.1,10.9,0.9,16.3c0.5,3.2,2,5.3,5.3,6.3
	c10.9,3.3,21.8,6.8,32.7,10.2C365.3,188.8,369,190.3,372.1,193.1z"/>
<path class="st6" d="M360.5,97.9c-1.2-0.8-1.8-0.6-2,1c-0.1,0.9-0.2,2.2-1.6,2.3c-1.2,0.1-1.8-0.8-2.4-1.7c-1.5-2.3-2.3-4.9-2.7-7.6
	c-0.1-1.3-0.2-2.6,0-3.9c0.1-2.2,0.1-2.3-2-1.7c-7.5,2-15.2,3.2-22.8,4.3c-2.6,0.4-30.6,0.8-31.3,0.6c-5.9-0.1-11.7-0.9-17.5-1.8
	c-5-0.7-9.8-2-14.8-3.1c-2.2-0.5-2.3-0.4-1.7,1.7c0.1,0.3,0.1,0.5,0.2,0.8c0.2,0.9,0.2,1.8,0,2.7c-0.8,3.2-2.6,5.9-4.3,8.7
	c-0.4,0.6-0.9,1.3-1.7,1c-0.7-0.2-1-0.9-1.1-1.7c-0.1-0.8-0.3-1.6-0.5-2.4c-0.5-3-1.5-5.9-2-9c-4.2-25.2,8.6-49.6,31.6-60.5
	c0.6-0.3,1.3-0.6,1.9-0.9c1.6-1.6,3.8-2,5.8-2.6c10.6-3.1,21.1-3,31.7-0.1c1.4,0.4,2.7,0.8,3.9,1.8c13,5.1,23.2,13.6,29.8,26
	C365,66.7,366,82.1,360.5,97.9z"/>
<path class="st6" d="M301.1,160.9c0,3.7,0.3,7.5-0.6,11.2c-1.5,6.6-5.4,11.8-10.3,16.3c-5.8,5.3-12.9,7.8-20.4,9.5
	c-3.6,0.8-7.2,1.8-10.4,4c-4.6,2.9-7.6,6.7-7.4,12.5c0.1,0.4,0.3,0.9-0.5,0.8c-5-4.9-7.9-10.9-9-17.8c-0.1-0.4-0.2-0.7-0.3-1.1
	c-1.1-1.2-0.7-2.4-0.2-3.6c0.4-11.8,5.6-21,15.4-27.6c2.5-1.7,4.9-3.4,7.4-5.1c5.8-3.9,10.1-8.8,11.9-15.7c2,0.6,3.5,2.2,5.2,3.3
	c5.5,3.3,11.5,5.7,17.5,7.7c0.4,0.1,0.7,0.2,1,0.5C301.7,157.4,301.5,159.1,301.1,160.9z"/>
<path class="st6" d="M328.2,26.5c-5.9-2-11.9-3.3-18.1-3.5c-8.1-0.2-15.8,1.4-23.3,4.4C296.2,12.9,318.3,12.4,328.2,26.5z"/>
<path class="st7" d="M304.3,430.3c0.3-0.1,0.3-0.5,0.4-0.7c0.3,0.4,0.5,0.8,0.2,1.2C304.7,430.9,304.4,430.6,304.3,430.3z"/>
<path class="st8" d="M301.1,160.9c-0.2-1.7-0.5-3.6-0.7-5.3c0.2,0,0.8,0.1,1.4,0.2c1.7,0.2,3.3,0.5,4.1,0.7c4.1,1.2,7.4,0,9-0.7
	c2.9-1.3,4-2.2,6.3-2.7c0.3,0,0.5-0.1,1.7-0.4c-0.3,0.9-0.4,1.6-0.4,2.4c0,1.7,0.1,3.3,0.1,3.3s-1.8,0.8-3.8,1.4
	c-3.9,1-8,1.6-11.9,1.5C304.4,161,303.1,160.8,301.1,160.9z"/>
<path class="st9" d="M304.6,521.1c-89,0-161.4-72.4-161.4-161.4s72.4-161.4,161.4-161.4s161.4,72.4,161.4,161.4
	S393.7,521.1,304.6,521.1z"/>
<g>
	<defs>
		<rect id="SVGID_1_" x="147.4" y="305" width="428.8" height="143.3"/>
	</defs>
	<clipPath id="SVGID_2_">
		<use xlink:href="#SVGID_1_"  style="overflow:visible;"/>
	</clipPath>
	<g class="st10">
		<text transform="matrix(1 0 0 1 320.0542 406.0099)" class="st0 st11 st12" text-anchor="end" id="text">47</text>
		<text transform="matrix(1 0 0 1 290.0542 406.0099)" class="st0 st11 st12"> %</text>
	</g>
</g>
</svg>
