<svg xmlns="http://www.w3.org/2000/svg" viewBox="0 0 740.87 747.16"><defs><style>.cls-1{fill:#0a3535;}.cls-1,.cls-2,.cls-3,.cls-4{fill-rule:evenodd;}.cls-2{fill:#ccc;}.cls-3{fill:#7f7f7f;}.cls-4{fill:#0a7d7b;}</style></defs><title>Element 1@72x</title><g id="Ebene_2" data-name="Ebene 2"><g id="Ebene_1-2" data-name="Ebene 1"><path class="cls-1" d="M740,715.86c-2.43-18.56-18.92-45.73-20.56-48.61-1.71-2.47-3.45-4.9-5.13-7.37-.78-1.1-12.39-15.34-24.11-25.08-12.88-10.7-37.72-22.7-52.67-27.36-40.36-12.6-80.83-24.56-121.13-37.17-8.38-2.62-20.31-7.31-29.14-8.54-5.08,1.21-5.19,8.1-7.66,11.63-14.5,20.75-27,40.65-41.27,61.55-2.84,4.18-4.6,4.78-7.9.3A151,151,0,0,0,416,618.63c-1.66-1.66-33.52-41.7-37-39.86-3,1.33-3.42,1.58-6.54,1.71-2,.08-6-.87-6.63-1.63-3.56-1.74-33.34,44.38-35,46.09-4.18,4.39-7.85,9.2-11.74,13.83-5.46,6.51-5.94,6.52-10.76-.39-15.41-22.16-27.28-43.12-42.7-65.27-1.92-2.74-4.24-9.6-7.67-11.13-21.76,6.5-46.24,15.33-68,22-28.29,8.64-56.34,17.89-84.95,25.59-33.2,8.94-59.12,28-78.16,55.53-2,2.38-2.9,5.35-4.78,7.78l-.07.12c-3,4.06-4.9,8.72-7.29,13.1A252.2,252.2,0,0,0,3.45,720.18c-.91,6.58-1.74,13.07-3.15,19.58.12,2.49-1.1,5.34.66,7.34H2.58c3.06-1,6.37-.65,9.54-.65q149.82-.08,299.64,0c1.71,0,79.29.94,115,.64h1.65l.08,0c9.34-.1,15.42-.29,15.85-.63q143.76-.06,287.54,0c2.93,0,5.92.56,8.79-.52C741.1,745.82,740.87,726.84,740,715.86Z"/><path class="cls-2" d="M566.13,252.28c3.76-1.1,7.26-.74,11.76,1.18,2.45,1.69,3.26,4.26,4.43,7.88a145.05,145.05,0,0,1,1.52,17.75c.18,6.71-.13,13.67-.39,20.43A47.87,47.87,0,0,1,580,314.13c-1,2.58-1.38,4-2.67,7.57-6.63,12.73-14.19,25-25,35.14A61.21,61.21,0,0,1,538,367.16c-5,4.23-6.83,10.1-8.49,16.14-3.61,13.22-17.82,43-19.63,45.8-12.9,20-56.67,44.67-63.23,52.67-8.18,10,17.15,98.05,17,101.5-3.23-.51-174.07-1-186.17-9C276.11,577.7,295,511.1,297.59,499c2.51-12.34-3.41-19.92-13.46-26.23a177.06,177.06,0,0,1-31.72-25.75c-18.58-18.84-34-60.45-34.13-60.92-3.15-9.25-5.61-17.13-15.36-24.14-21.72-15.6-33.79-39.46-36.41-66.6-.31-6.84-.16-8.56,0-16,2-15.41,9.84-25.27,13.14-26.89,4.6-4.86,12.28-4.18,13.85-4.3,3.55,1,4.32,4.19,5.49,7,7.81,18.58,28.12,53.33,27.87,52.9-2.08-3.6-1-7.57-1.33-11.37.08-2.87,0-12.35.6-19.51.62-6.69-.34-10.48.93-17,4.2-24.56,8.66-49.56,19-72.23,7.54-16.53,21.81-29.95,32.76-44.41a13.24,13.24,0,0,1,5.87-4.89,2.38,2.38,0,0,1,2.76,1.63c.62,4.1-1.52,7.5-3,11a180.32,180.32,0,0,0-13.26,61.12c17.48-14.6,36.87-24.67,54.51-37.33,11.11-8,21-17.44,30.62-27.13,2.88-2.88,5.32-6.37,9.4-7.86a2.43,2.43,0,0,1,2.44,2,9.45,9.45,0,0,1-1.56,5.9c-10.65,18.07-14.9,38.42-20.91,58.15a152.94,152.94,0,0,1-6.36,17.4c43.69-20.61,85.59-43,122.32-73.93,6.13-5.16,7.23-5.06,12.09,1.53,5.53,7.49,11.46,14.61,17.63,21.59,12.69,14.32,20.54,31.48,27.51,49.07,10.11,25.53,17,52,22.67,78.82a4,4,0,0,0,1.72,3.18,336.76,336.76,0,0,0,18.25-44.07C562.49,257,562.43,253.45,566.13,252.28Z"/><path class="cls-3" d="M228.17,300.11v15.16a327.65,327.65,0,0,1-24.44-43.18c-3.17-6.71-22.84-56.87-25.28-69.46-3-15.33-1.7-28.76,1.75-42.91,2-8.05,4.31-16,6.49-24-.48-1.87,18-36.07,21.66-41.31.08-1.76,16-23.5,20.12-28.19,9.71-12,33-29.24,35-31C265.26,33.68,280,24.82,282.34,24c3.7-1.61,21.42-9.84,24.75-11,6.59-1.93,11.5-4,19.48-6.09,10-2.2,20.17-3.91,30.35-5.23,2.94-.47,5.37-.88,8.6-1.29C368,.14,369.82.07,372,0q17.5,0,35,0a117.52,117.52,0,0,1,27.4,4.81c17.18,4.35,32.3,12.77,46.11,23.75,7.94,8.17,14.69,17.21,19.36,27.65,1.21,2.71,2.69,5,5.6,6,13,4.38,22.16,13.77,30.42,24a172.16,172.16,0,0,1,23.18,38.48c.75,1.68,1,3.27,2,6.28,3.83,10.25,7.62,19.92,10.25,30.56a83.78,83.78,0,0,1,2.45,12.35c.2,4.37.35,7.2.35,8.42,0,0,1.21,21.6.11,32.46a123.87,123.87,0,0,1-1.71,14q-2.94,13.15-5.9,26.29c-6.11,19.63-13.5,38.73-24,58-4.67-18.53-8.51-35.79-13.4-52.74-8.12-28.08-17.51-55.72-35.51-79.37-7.49-9.83-16.88-18.15-23.17-29-2.18-3.74-3.89-.45-5.37.81-38.17,32.37-81.81,55.66-126.87,76.6a7,7,0,0,1-1.85.19c12-27.74,15.27-58.47,31.52-84.43.51-.87.85-2.22.36-2.69s-1.14.89-1.95,1.05c-18.37,20.2-38.81,37.78-62.49,51.66-11.74,6.87-23.18,14.42-34,24.42-.34-27.44,6.61-52.19,17.38-76.08.7-1.87.37-2.66-1.71-1.64C229.15,188.76,227.39,287.37,228.17,300.11Z"/><path class="cls-4" d="M459.37,541.28c3.46-.55,16.58,10.56,25.61,17.2.78.79,3.27,3.81,1,5.83-16.3,24.39-32.71,48.7-48.77,73.22-3,4.59-4.6,5.81-8.34.76-5.79-7.83-50.25-54.44-49.84-60.47.28-4.1,3.46-3.24,9.9-5.39C393.89,570.73,446.62,543.3,459.37,541.28Z"/><path class="cls-4" d="M317.83,645c-1.66,2.06-3,3.84-5.1.59-17.58-27.19-35-53.69-54-79.91-3.63-5-3.05-7.89,1.91-10.72s10.37-5.81,14.61-9.76c4.78-4.43,7.05-3.16,12.26.46a124.3,124.3,0,0,0,22.37,11.84c17,7.29,52.83,12.29,57.95,19.34,1,1.38.22,3.46-2.35,6.62C355.51,596.22,324.13,637.22,317.83,645Z"/></g></g></svg>