<?xml version="1.0" encoding="utf-8"?>
<!-- Generator: Adobe Illustrator 22.0.1, SVG Export Plug-In . SVG Version: 6.00 Build 0)  -->
<svg version="1.1" id="Ebene_1" xmlns="http://www.w3.org/2000/svg" xmlns:xlink="http://www.w3.org/1999/xlink" x="0px" y="0px"
	 viewBox="0 0 500 500" style="enable-background:new 0 0 500 500;" xml:space="preserve">
<style type="text/css">
	.st0{fill:#155872;}
	.st1{fill:#CCCCCC;}
	.st2{fill:#7F7F7F;}
	.st3{fill:#1597B2;}
</style>
<path class="st0" d="M498.6,482.4c0.6,7.4,0.7,20.2,0.4,20.3c-1.9,0.7-4,0.4-5.9,0.4c-66,0-132,0-198.1,0c-2.1,0-4.4-0.5-6.4,0.5
	c-0.4,0-0.7,0-1.1,0c-0.4-0.4-0.7-0.8-1-1.3c-6.3-18.3-11.7-36.9-17.7-55.3c-0.2-0.5-0.1-1.1-0.5-1.5c-5.7-7-2.9-13.3,1.8-19.5
	c2.5-3.4,3-7.8,5.9-11.1c2.4-1.2,3.2,0.9,4.3,2c3.5,3.5,6.8,7.2,9.7,11.2c2.2,3,3.4,2.6,5.3-0.2c9.6-14.1,18-27.5,27.8-41.5
	c1.7-2.4,1.7-7,5.2-7.8c5.9,0.8,14,4,19.6,5.8c27.2,8.5,54.2,17.4,81.6,25c3,0.8,24.2,11,29.2,13.7c1.5,1.2,5.7,4.3,6.3,4.7
	c8.4,5.9,15.7,16.2,16.2,16.9c1.1,1.7,2.3,3.3,3.5,5C485.9,451.5,497,469.8,498.6,482.4z"/>
<path class="st0" d="M18.1,448.1c12.8-18.6,30.3-31.4,52.7-37.4c19.3-5.2,38.2-11.4,57.2-17.2c14.6-4.5,31.1-10.4,45.8-14.8
	c2.3,1,3.9,5.6,5.2,7.5c10.4,14.9,18.4,29,28.8,44c3.2,4.7,3.6,4.6,7.2,0.3c2.6-3.1,5.1-6.4,7.9-9.3c1.1-1.1,2-3.2,4.4-2.1
	c3.6,4.4,5.1,9.9,8.2,14.6c0.8,1.3,0.7,2.7-0.1,4c-7,10.4-8.6,22.7-12.7,34.1c-3.5,9.7-5.8,19.7-9.5,29.3c-0.7,1.1-1.6,2-3.1,2
	c-67.3,0-134.6,0-201.9,0c-2.1,0-4.4-0.5-6.4,0.5c-0.4,0-0.7,0-1.1,0c-1.2-1.6-0.4-3.3-0.4-5c0.9-4.4,1.5-8.8,2.1-13.3
	c1.9-7.8,4.6-15.5,7.6-23c1.6-3,2.9-6.1,4.9-8.8l0-0.1C16.2,451.7,16.8,449.7,18.1,448.1z"/>
<path class="st1" d="M378.8,170c2.5-0.7,4.9-0.5,7.9,0.8c1.7,1.1,2.2,2.9,3,5.3c0.6,3.1,1.1,10.2,1,12c0.1,4.5-0.1,9.2-0.3,13.8
	c-0.3,3.9-1.1,6.7-2.3,9.8c-0.7,1.7-0.9,2.7-1.8,5.1c-4.5,8.6-9.6,16.9-16.8,23.7c-2.9,2.7-6,5.1-9.6,6.9c-3.4,2.8-4.6,6.8-5.7,10.9
	c-2.4,8.9-5.4,17.7-9.5,25.9c-0.9,1.9-1.7,3.8-3.7,4.9c-10.7,13-23.7,23.2-37.3,32.9c-0.5,0.4-0.9,1-1.3,1.6c-1.1,1.3-1,2.2-1.1,4.5
	c-2.2-0.3-4,0.3-5.8,1.6c-3,2.1-6.2,3.8-9.2,6c-14.7,10.5-31.1,13.1-48.6,11.4c-4.2-0.4-8.1-1.9-11.9-3.6
	c-8.9-4.1-17.2-9.2-25.3-14.6c-0.9,2.3,1.5,6-2.5,7.4c1.7-8.3-2.3-13.4-9.1-17.7c-7.8-4.9-14.4-11.4-21.4-17.3
	c-12.5-10.6-18-25.1-22.8-40c-0.1-0.3,0-0.7-0.2-1c-2.1-6.2-3.8-11.5-10.4-16.3c-14.6-10.5-22.8-26.6-24.5-44.9
	c-0.2-4.6-0.1-5.8,0-10.8c1.4-10.4,6.6-17,8.9-18.1c3.1-3.3,8.3-2.8,9.3-2.9c2.4,0.7,2.9,2.8,3.7,4.7c5.3,12.5,18.9,35.9,18.8,35.6
	c-1.4-2.4-0.7-5.1-0.9-7.7c0.1-1.9,0-8.3,0.4-13.1c0.4-4.5-0.2-7.1,0.6-11.4c2.8-16.6,5.8-33.4,12.8-48.7
	c5.1-11.1,14.7-20.2,22.1-29.9c1.1-1.4,2.3-2.7,4-3.3c0.9-0.1,1.5,0.3,1.9,1.1c0.4,2.8-1,5.1-2,7.4c-5.3,13-8.3,26.5-8.9,41.2
	c11.8-9.8,24.8-16.6,36.7-25.2c7.5-5.4,14.1-11.8,20.6-18.3c1.9-1.9,3.6-4.3,6.3-5.3c0.9,0,1.4,0.5,1.6,1.4c0.2,1.5-0.3,2.8-1.1,4
	c-7.2,12.2-10,25.9-14.1,39.2c-1.2,3.8-2.5,7.6-4.3,11.7c29.4-13.9,57.7-29,82.4-49.8c4.1-3.5,4.9-3.4,8.2,1
	c3.7,5,7.7,9.8,11.9,14.5c8.5,9.7,13.8,21.2,18.5,33.1c6.8,17.2,11.5,35,15.3,53.1c0.1,0.7,0.1,1.4,1.2,2.1
	c4.9-9.6,8.9-19.5,12.3-29.7C376.3,173.2,376.3,170.8,378.8,170z"/>
<path class="st2" d="M150.4,202.2c0,2.9,0,5.7,0,10.2c-6.8-10.2-11.9-19.5-16.5-29.1c-2.1-4.5-15.4-38.3-17-46.8
	c-2-10.3-1.1-19.4,1.2-28.9c1.3-5.4,2.9-10.8,4.4-16.2c-0.3-1.3,12.1-24.3,14.6-27.8c0.1-1.2,10.8-15.8,13.6-19
	c6.5-8.1,22.3-19.7,23.5-20.9c1.2-1,11.2-7,12.7-7.5c2.5-1.1,14.4-6.6,16.7-7.4c4.4-1.3,7.7-2.7,13.1-4.1c6.8-1.5,13.6-2.6,20.5-3.5
	c2-0.3,3.6-0.6,5.8-0.9c1.7-0.2,2.9-0.2,4.4-0.2c7.9,0,15.7,0,23.6,0c8.9,0.5,15.2,2.3,18.5,3.2c11.6,2.9,21.8,8.6,31.1,16
	c5.4,5.5,9.9,11.6,13,18.6c0.8,1.8,1.8,3.4,3.8,4c8.8,3,14.9,9.3,20.5,16.2c6.5,8.1,11.3,16.4,15.6,25.9c0.5,1.1,0.7,2.2,1.4,4.2
	c2.6,6.9,5.1,13.4,6.9,20.6c0.8,2.3,1.6,7.4,1.7,8.3c0.1,2.9,0.2,4.9,0.2,5.7c0,0,0.8,14.6,0.1,21.9c0,1.2-0.6,6.7-1.2,9.4
	c-1.3,5.9-2.6,11.8-4,17.7c-4.1,13.2-9.1,26.1-16.2,39c-3.1-12.5-5.7-24.1-9-35.5c-5.5-18.9-11.8-37.5-23.9-53.5
	c-5-6.6-11.4-12.2-15.6-19.5c-1.5-2.5-2.6-0.3-3.6,0.5c-25.7,21.8-55.1,37.5-85.5,51.6c-0.3,0.1-0.6,0.1-1.2,0.1
	c8.1-18.7,10.3-39.4,21.2-56.9c0.3-0.6,0.6-1.5,0.2-1.8c-0.4-0.4-0.8,0.6-1.3,0.7c-12.4,13.6-26.2,25.5-42.1,34.8
	c-7.9,4.6-15.6,9.7-22.9,16.5c-0.2-18.5,4.5-35.2,11.7-51.3c0.5-1.3,0.2-1.8-1.2-1.1C151,127.2,149.9,193.6,150.4,202.2z"/>
<path class="st1" d="M243.8,389.5c-11.9-3.8-23.9-7.4-35.3-12.5c-5.4-2.4-10.7-5-14.8-9.3c3.7-6.5,2.4-14,4.1-21
	c1.8-0.7,3,0.6,4.3,1.3c13.8,8.1,28.6,13.4,44.6,14.7c7.9,0.6,15.5-1.4,23-3.7c9-2.8,17.7-6.2,25.9-10.8c1.7-0.9,3.7-1.9,5.7-1.4
	c0.5,0.2,1.5,9.4,2.2,12.5c0,0,2.2,5.6,2.6,8.5c-0.3,1.9-1.7,3-3.3,3.8c-11.6,5.7-23.5,10.4-36.1,13.2c-3.9,0.4-9.8,3.3-11.4,5.4
	C253.1,391.2,249.4,391.8,243.8,389.5z"/>
<path class="st3" d="M271.8,382c13-3.2,20.4-6.6,32.3-12.7c0.6-0.3,2.7-2.3,5.4-4.5c6.6,3.7,11.2,7.1,17.3,11.6
	c0.5,0.5,2.2,2.6,0.6,3.9c-11,16.4-22,32.8-32.9,49.3c-2,3.1-3.1,3.9-5.6,0.5c-3.9-5.3-8.2-10.2-12.4-15.3c-3.2-0.4-4.3-3.4-5.9-5.4
	c-5.3-6.5-11.3-12.5-15.3-20c2.1-1.7,2.3-2.2,6.7-3.6C265.4,384.6,267.5,383.3,271.8,382z"/>
<path class="st1" d="M301.3,347.8c-5.6,0.5-9.7,4.4-14.6,6.5c-11.4,4.8-23,8.9-35.4,10.1c-7,0.7-14.1-1-21-2.9
	c-11.6-3.2-22.8-7.5-32.6-14.7c0-3.5,0.1-7,0.1-10.5c2.2-2.9,0.1-6.4,1.5-9.7c10.4,6.6,20.3,14.5,32.3,17.4
	c13.5,3.2,27.4,4.1,40.6-2.5c8.6-4.2,16.9-8.9,24.6-14.5c2-1.4,3.5-1.8,4.4,0.9C301.5,334.6,301,340.4,301.3,347.8z"/>
<path class="st0" d="M255.4,389.3c7.8,7.9,14.1,16.9,21.2,25.4c-3.2,6.9-5.2,14.4-10.5,20.2c-1.1,1.2-1.2,2-0.1,3
	c3,2.8,5.7,10.1,6.8,13.8c5.4,18.1,8.5,32.7,13.9,50.8c-22.6,0-45.3,0-67.9,0c-2,0-4.8,1.2-5.5-2.2c5.7-19.1,6.4-37.9,17.2-57.4
	c6.9-12.5,5.9-3.2-1.1-18.1c-0.9-1.9-1.6-3.8-2.4-5.7c6.8-8.4,11.2-16.7,17.9-25.3c0.5-0.6-0.1-5.2,3.1-4.3
	C250.4,389.4,252.9,389.4,255.4,389.3z"/>
<path class="st3" d="M214.2,434.6c-1.1,1.4-2,2.6-3.4,0.4c-11.8-18.3-23.6-36.2-36.4-53.8c-2.4-3.4-2.1-5.3,1.3-7.2
	c3.4-1.9,7-3.9,9.8-6.6c3.2-3,4.7-2.1,8.3,0.3c4.7,3.3,9.8,5.7,15.1,8c11.5,4.9,23.3,8.6,35.2,12.4c1.2,0.4,3.2,0.9,4.4,1.4
	c-0.2,0.6-0.4,1.6-2.1,3.7c-6.7,8.6-10.4,17.9-18.2,25.6C227.8,418.9,218.4,429.4,214.2,434.6z"/>
</svg>
