<?xml version="1.0" encoding="utf-8"?>
<!-- Generator: Adobe Illustrator 16.0.4, SVG Export Plug-In . SVG Version: 6.00 Build 0)  -->
<!DOCTYPE svg PUBLIC "-//W3C//DTD SVG 1.1//EN" "http://www.w3.org/Graphics/SVG/1.1/DTD/svg11.dtd">
<svg version="1.1" id="Ebene_1" xmlns="http://www.w3.org/2000/svg" xmlns:xlink="http://www.w3.org/1999/xlink" x="0px" y="0px"
	 width="500px" height="500px" viewBox="0 0 500 500" enable-background="new 0 0 500 500" xml:space="preserve">
<path fill-rule="evenodd" clip-rule="evenodd" fill="#5B0B08" d="M498.631,482.354c0.574,7.395,0.725,20.203,0.411,20.27
	c-1.933,0.73-3.95,0.369-5.924,0.369c-66.024,0.02-132.048,0.012-198.069,0.045c-2.136,0-4.352-0.533-6.411,0.508
	c-0.364,0-0.729,0-1.092,0c-0.37-0.408-0.718-0.83-1.043-1.277c-6.288-18.311-11.733-36.877-17.688-55.293
	c-0.164-0.5-0.144-1.111-0.452-1.494c-5.699-7.043-2.946-13.266,1.757-19.51c2.536-3.365,2.983-7.838,5.85-11.104
	c2.357-1.238,3.229,0.85,4.346,1.969c3.49,3.518,6.809,7.219,9.725,11.176c2.223,3.018,3.408,2.609,5.327-0.203
	c9.61-14.082,18.036-27.492,27.802-41.475c1.664-2.377,1.74-7.022,5.166-7.833c5.945,0.824,13.987,3.987,19.635,5.753
	c27.154,8.496,54.185,17.354,81.613,25.041c3.011,0.842,24.197,10.959,29.177,13.693c1.524,1.152,5.735,4.312,6.316,4.748
	c8.383,5.92,15.721,16.156,16.244,16.895c1.135,1.664,2.309,3.305,3.457,4.965C485.885,451.539,496.991,469.844,498.631,482.354z"/>
<path fill-rule="evenodd" clip-rule="evenodd" fill="#5B0B08" d="M18.145,448.121c12.827-18.574,30.296-31.391,52.663-37.416
	c19.278-5.186,38.183-11.422,57.24-17.244c14.631-4.467,31.124-10.413,45.787-14.794c2.315,1.033,3.876,5.65,5.167,7.5
	c10.392,14.924,18.389,29.048,28.778,43.979c3.248,4.656,3.566,4.65,7.247,0.264c2.62-3.121,5.096-6.361,7.909-9.32
	c1.096-1.15,1.953-3.232,4.356-2.061c3.62,4.412,5.147,9.912,8.226,14.607c0.821,1.254,0.729,2.693-0.13,3.959
	c-7.047,10.4-8.629,22.691-12.711,34.105c-3.452,9.668-5.763,19.691-9.532,29.293c-0.721,1.096-1.589,1.99-3.078,2.01
	c-67.306,0.014-134.602,0-201.897,0.033c-2.139,0-4.367-0.533-6.43,0.508c-0.362,0-0.729,0-1.091,0
	c-1.186-1.588-0.367-3.34-0.444-5.018c0.947-4.387,1.507-8.828,2.123-13.266c1.949-7.844,4.576-15.479,7.64-22.986
	c1.609-2.957,2.875-6.092,4.911-8.832l0.049-0.08C16.188,451.725,16.814,449.723,18.145,448.121z"/>
<path fill-rule="evenodd" clip-rule="evenodd" fill="#CBBED7" d="M287.685,503.545c1.008-1.35,2.493-1.021,3.843-1.021
	c66.006,0.02,132.014,0.061,198.021,0.1c-0.055,0.303-0.081,0.613-0.078,0.922C422.207,503.545,354.944,503.545,287.685,503.545z"/>
<path fill-rule="evenodd" clip-rule="evenodd" fill="#CBBED7" d="M11.666,503.545c1.527-1.746,3.582-1.002,5.396-1.002
	c65.047-0.033,130.096-0.02,195.143-0.02c0.339,0.172,0.484,0.375,0.428,0.627c-0.056,0.264-0.13,0.395-0.226,0.395
	C145.493,503.545,78.579,503.545,11.666,503.545z"/>
<path fill-rule="evenodd" clip-rule="evenodd" fill="#482F6A" d="M212.407,503.545c-0.01-0.35-0.076-0.693-0.202-1.021
	c0.363-0.77,0.726-1.535,1.084-2.305c21.646,1.154,43.308,0.217,64.959,0.541c2.912,0.045,5.952-0.402,8.441,1.744
	c-0.017,0.348-0.033,0.697-0.053,1.041C261.893,503.545,237.151,503.545,212.407,503.545z"/>
<path fill-rule="evenodd" clip-rule="evenodd" fill="#F1D8B4" d="M378.768,169.99c2.532-0.74,4.892-0.504,7.921,0.794
	c1.651,1.141,2.202,2.872,2.989,5.31c0.551,3.147,1.079,10.173,1.022,11.958c0.118,4.523-0.085,9.209-0.263,13.767
	c-0.288,3.894-1.135,6.662-2.342,9.843c-0.66,1.741-0.936,2.704-1.801,5.104c-4.466,8.575-9.563,16.853-16.848,23.677
	c-2.937,2.749-6.04,5.15-9.623,6.95c-3.384,2.849-4.603,6.81-5.716,10.875c-2.438,8.91-5.353,17.654-9.545,25.926
	c-0.941,1.852-1.732,3.834-3.684,4.939c-10.674,12.957-23.71,23.23-37.259,32.939c-0.541,0.389-0.89,1.047-1.327,1.574
	c-1.138,1.303-0.953,2.152-1.058,4.479c-2.177-0.344-4.044,0.256-5.842,1.553c-2.96,2.143-6.235,3.848-9.191,5.963
	c-14.674,10.498-31.131,13.072-48.627,11.406c-4.235-0.402-8.125-1.885-11.921-3.643c-8.866-4.104-17.171-9.174-25.322-14.568
	c-0.934,2.311,1.473,5.973-2.512,7.416c1.692-8.318-2.299-13.422-9.069-17.678c-7.778-4.887-14.352-11.42-21.371-17.348
	c-12.526-10.574-18.023-25.088-22.834-40.025c-0.105-0.324-0.049-0.705-0.161-1.027c-2.127-6.232-3.785-11.539-10.351-16.259
	c-14.637-10.519-22.769-26.59-24.537-44.876c-0.209-4.614-0.104-5.769,0-10.803c1.364-10.384,6.633-17.028,8.859-18.122
	c3.099-3.276,8.272-2.814,9.332-2.894c2.388,0.659,2.905,2.82,3.699,4.712c5.26,12.519,18.947,35.93,18.777,35.641
	c-1.399-2.428-0.654-5.1-0.897-7.663c0.052-1.934-0.015-8.318,0.404-13.144c0.419-4.51-0.229-7.066,0.628-11.434
	c2.828-16.553,5.831-33.392,12.796-48.671c5.079-11.134,14.696-20.179,22.069-29.922c1.05-1.388,2.25-2.671,3.962-3.299
	c0.916-0.135,1.508,0.28,1.855,1.101c0.418,2.764-1.025,5.054-1.996,7.433c-5.313,12.979-8.269,26.451-8.941,41.181
	c11.779-9.836,24.847-16.619,36.731-25.152c7.486-5.376,14.132-11.754,20.636-18.278c1.94-1.943,3.582-4.294,6.333-5.295
	c0.902,0.019,1.405,0.524,1.644,1.352c0.171,1.46-0.349,2.781-1.051,3.972c-7.176,12.176-10.043,25.894-14.091,39.188
	c-1.169,3.832-2.473,7.605-4.281,11.722c29.438-13.889,57.671-28.955,82.415-49.816c4.131-3.479,4.874-3.411,8.151,1.033
	c3.721,5.043,7.718,9.845,11.878,14.542c8.547,9.654,13.842,21.214,18.534,33.065c6.813,17.208,11.457,35.042,15.277,53.114
	c0.138,0.657,0.114,1.391,1.159,2.138c4.87-9.639,8.858-19.544,12.296-29.692C376.317,173.154,376.274,170.777,378.768,169.99z"/>
<path fill-rule="evenodd" clip-rule="evenodd" fill="#808788" d="M150.372,202.216c0,2.868,0,5.733,0,10.216
	c-6.79-10.161-11.911-19.463-16.464-29.094c-2.139-4.526-15.39-38.32-17.035-46.807c-2.001-10.326-1.146-19.379,1.18-28.913
	c1.319-5.422,2.903-10.78,4.371-16.168c-0.325-1.26,12.147-24.303,14.593-27.833c0.053-1.187,10.764-15.835,13.561-18.999
	c6.539-8.06,22.252-19.704,23.546-20.906c1.242-1.018,11.187-6.987,12.748-7.53c2.494-1.084,14.432-6.63,16.674-7.437
	c4.445-1.297,7.749-2.675,13.129-4.105c6.754-1.48,13.588-2.63,20.453-3.521c1.977-0.318,3.617-0.591,5.792-0.869
	c1.672-0.157,2.9-0.204,4.392-0.238c7.864-0.009,15.724-0.015,23.579-0.009c8.925,0.483,15.207,2.314,18.464,3.236
	c11.574,2.936,21.765,8.606,31.065,16.007c5.351,5.503,9.896,11.594,13.047,18.631c0.817,1.823,1.813,3.372,3.774,4.032
	c8.766,2.952,14.928,9.279,20.493,16.194c6.543,8.131,11.331,16.404,15.618,25.929c0.508,1.127,0.688,2.203,1.357,4.228
	c2.581,6.906,5.135,13.423,6.903,20.592c0.767,2.281,1.587,7.395,1.652,8.319c0.138,2.95,0.235,4.858,0.24,5.676
	c0,0,0.815,14.558,0.073,21.873c-0.039,1.205-0.569,6.652-1.153,9.45c-1.323,5.903-2.65,11.805-3.975,17.708
	c-4.122,13.23-9.098,26.098-16.169,39.049c-3.146-12.484-5.73-24.115-9.029-35.538c-5.468-18.916-11.797-37.541-23.925-53.479
	c-5.043-6.626-11.372-12.229-15.611-19.52c-1.468-2.522-2.62-0.304-3.619,0.544c-25.716,21.812-55.123,37.504-85.486,51.617
	c-0.278,0.129-0.637,0.074-1.245,0.129c8.062-18.697,10.291-39.401,21.241-56.893c0.342-0.587,0.57-1.492,0.241-1.814
	c-0.406-0.396-0.771,0.602-1.317,0.711c-12.376,13.609-26.151,25.455-42.106,34.805c-7.906,4.634-15.613,9.722-22.898,16.455
	c-0.231-18.491,4.452-35.166,11.711-51.261c0.471-1.264,0.245-1.795-1.152-1.105C151.034,127.186,149.85,193.629,150.372,202.216z"
	/>
<path fill-rule="evenodd" clip-rule="evenodd" fill="#F1D8B4" d="M243.827,389.49c-11.888-3.828-23.882-7.357-35.316-12.488
	c-5.391-2.424-10.657-4.994-14.825-9.326c3.664-6.541,2.443-14.023,4.06-20.959c1.763-0.664,2.96,0.561,4.265,1.324
	c13.824,8.082,28.611,13.352,44.609,14.654c7.881,0.646,15.51-1.402,22.977-3.727c8.953-2.787,17.675-6.197,25.9-10.762
	c1.687-0.936,3.655-1.875,5.688-1.377c0.524,0.219,1.469,9.441,2.169,12.455c0,0,2.154,5.559,2.642,8.521
	c-0.33,1.93-1.727,2.99-3.304,3.768c-11.558,5.684-23.474,10.412-36.103,13.172c-3.929,0.441-9.846,3.287-11.361,5.416
	C253.146,391.182,249.372,391.805,243.827,389.49z"/>
<path fill-rule="evenodd" clip-rule="evenodd" fill="#E9E9E9" d="M271.792,381.971c13.019-3.168,20.424-6.57,32.303-12.742
	c0.561-0.287,2.742-2.301,5.432-4.514c6.623,3.656,11.172,7.121,17.256,11.592c0.525,0.533,2.202,2.57,0.645,3.93
	c-10.979,16.432-22.034,32.812-32.858,49.338c-2.026,3.09-3.103,3.912-5.619,0.508c-3.902-5.277-8.229-10.242-12.375-15.342
	c-3.217-0.414-4.27-3.369-5.908-5.406c-5.27-6.533-11.319-12.482-15.3-19.996c2.147-1.742,2.333-2.18,6.671-3.629
	C265.409,384.561,267.544,383.309,271.792,381.971z"/>
<path fill-rule="evenodd" clip-rule="evenodd" fill="#EBC9A2" d="M301.318,347.752c-5.583,0.494-9.705,4.387-14.615,6.461
	c-11.426,4.842-23.048,8.893-35.376,10.064c-7.042,0.664-14.114-1.002-20.994-2.891c-11.621-3.209-22.757-7.477-32.588-14.67
	c0.027-3.482,0.053-6.973,0.076-10.465c2.232-2.893,0.055-6.434,1.468-9.695c10.421,6.561,20.348,14.496,32.276,17.369
	c13.451,3.246,27.373,4.07,40.596-2.465c8.575-4.234,16.878-8.898,24.632-14.488c2.016-1.449,3.455-1.779,4.42,0.941
	C301.498,334.609,300.975,340.381,301.318,347.752z"/>
<path fill-rule="evenodd" clip-rule="evenodd" fill="#B54040" d="M255.366,389.338c7.795,7.857,14.147,16.926,21.208,25.402
	c-3.176,6.898-5.224,14.387-10.479,20.17c-1.07,1.178-1.153,1.98-0.082,2.988c2.971,2.807,5.74,10.146,6.82,13.768
	c5.396,18.088,8.493,32.746,13.857,50.838c-22.641,0.006-45.28,0.033-67.921-0.047c-1.986-0.006-4.792,1.246-5.479-2.238
	c5.73-19.141,6.376-37.887,17.183-57.406c6.932-12.521,5.852-3.174-1.063-18.086c-0.873-1.885-1.618-3.828-2.42-5.744
	c6.816-8.443,11.194-16.746,17.926-25.264c0.511-0.648-0.083-5.213,3.062-4.264C250.439,389.418,252.902,389.377,255.366,389.338z"
	/>
<path fill-rule="evenodd" clip-rule="evenodd" fill="#E9E9E9" d="M214.159,434.613c-1.12,1.389-2.02,2.588-3.442,0.395
	c-11.846-18.318-23.55-36.175-36.383-53.841c-2.449-3.371-2.058-5.317,1.288-7.222c3.431-1.949,6.988-3.918,9.846-6.58
	c3.218-2.982,4.748-2.131,8.26,0.311c4.733,3.291,9.787,5.717,15.069,7.977c11.477,4.912,23.346,8.607,35.201,12.389
	c1.238,0.369,3.203,0.908,4.391,1.404c-0.197,0.629-0.394,1.572-2.124,3.697c-6.723,8.594-10.408,17.902-18.249,25.562
	C227.786,418.932,218.4,429.363,214.159,434.613z"/>
</svg>
