<?xml version="1.0" encoding="utf-8"?>
<!-- Generator: Adobe Illustrator 16.0.4, SVG Export Plug-In . SVG Version: 6.00 Build 0)  -->
<!DOCTYPE svg PUBLIC "-//W3C//DTD SVG 1.1//EN" "http://www.w3.org/Graphics/SVG/1.1/DTD/svg11.dtd">
<svg version="1.1" id="Ebene_1" xmlns="http://www.w3.org/2000/svg" xmlns:xlink="http://www.w3.org/1999/xlink" x="0px" y="0px"
	 width="500px" height="500px" viewBox="0 0 500 500" enable-background="new 0 0 500 500" xml:space="preserve">
<path fill-rule="evenodd" clip-rule="evenodd" fill="#D75EA3" d="M443.768,503.117c-0.116,0.284-0.172,0.581-0.168,0.889
	c-131.792,0-263.582,0-395.375,0c-0.254-0.705-0.062-1.254,0.57-1.651c2.269-1.215,4.753-0.995,7.182-0.995
	c126.646-0.022,253.291-0.022,379.938,0.016C438.617,501.375,441.531,500.836,443.768,503.117z"/>
<path fill-rule="evenodd" clip-rule="evenodd" fill="#F6F6F6" d="M48.41,502.979c-0.062,0.342-0.123,0.685-0.185,1.027
	c-0.652,0-1.304,0-1.957,0c0-0.326,0-0.653,0-0.979c1.208-0.595-0.651-3.544,2.206-2.872C49.11,501.11,49.081,502.051,48.41,502.979
	z"/>
<path fill-rule="evenodd" clip-rule="evenodd" fill="#F4C19F" d="M142.173,252.495c2.114-0.121,2.19-1.589,1.951-3.12
	c-0.918-5.877-1.891-11.741-2.844-17.612c-0.878-4.75-0.941-9.496,0.041-14.239c1.303-5.276,0.696-10.64,0.743-15.973
	c-0.467-2.535-0.819-5.065,0.252-7.549c1.769-9.729,2.708-19.596,5.617-29.134c5.438-17.835,14.5-32.446,32.126-40.923
	c8.675-4.169,15.577-11.169,22.431-18.806c7.974,20.155,19.929,37.045,37.138,49.94c17.25,12.926,36.493,19.733,59.075,19.133
	c-5.679-10.146-9.968-20.236-13.205-30.8c0.645-0.705,1.505-0.628,2.092-0.018c11.68,12.113,26.427,20.756,37.719,33.299
	c10.185,11.31,17.219,24.055,18.209,39.777c4.286-9.376,6.144-19.363,6.951-29.612c0.319-1.94,0.777-2.565,1.936-3.761
	c-0.257,0.914-0.512,1.827-0.769,2.74c0.152,9.373,0.163,15.432,0.455,23.141c0.092,2.407-0.331,4.837,0.296,7.222
	c-0.395,14.119-4.763,42.969-4.824,44.946c-1.968,13.493-7.249,25.493-16.36,35.684c-8.657,9.686-19.493,16.53-30.577,23.019
	c-4.626,2.486-13.008,6.374-14.594,7.022c-0.362,0.347-0.713,0.707-1.046,1.084c-11.983,6.025-24.769,9.612-37.866,12.116
	c-3.208,0.614-6.443-0.572-9.57-1.451c-8.446-2.369-16.848-4.896-24.978-8.22c-1.869-0.764-3.67-1.151-5.628-0.604
	c0.063-2.298-1.254-3.247-3.292-4.029c-13.568-5.724-28.242-15.8-30.218-17.325c-6.184-4.773-9.351-7.648-14.601-12.773
	c-4.028-3.933-6.795-8.338-9.179-13.022c-2.349-4.614-4.037-9.556-5.16-14.646c-0.303-1.069-3.633-13.049-3.795-14.338
	c-0.005-0.451,0.108-0.872,0.33-1.265C141.435,252.123,141.817,252.155,142.173,252.495z"/>
<path fill-rule="evenodd" clip-rule="evenodd" fill="#F96488" d="M48.41,502.979c-0.118-0.95-0.236-1.9-0.355-2.847
	c-1.284-1.415-0.663-3.115-0.71-4.715c1.35-5.874,8.655-33.667,14.395-44.727c3.057-5.755,6.945-10.911,11.343-15.693
	c0.98-1.066,9.812-8.766,11.487-9.958c6.532-4.649,13.745-7.99,21.29-10.568c7.293-2.491,14.816-4.277,22.055-6.966
	c1.084-0.402,2.229-0.407,3.333,0.047c7.111,8.036,13.996,16.266,21.71,23.788c26.142,25.499,57.131,41.819,92.666,49.764
	c2.312,0.518,4.53,0.385,6.766-0.174c32.195-8.055,60.927-22.604,85.78-44.847c7.82-6.999,14.792-14.656,21.572-22.575
	c1.581-1.849,3.166-3.769,5.722-4.392c13.106,2.663,25.815,6.449,37.425,13.318c0.976,0.575,1.887,1.296,2.188,2.501
	c9.499,7.367,18.02,15.551,24.29,26.022c8.22,13.716,12.533,28.592,14.14,44.317c0.262,2.536,2.381,5.186,0.258,7.842
	c-4.238-0.029-8.478-0.081-12.717-0.081c-125.427-0.007-250.852-0.003-376.277-0.007C52.649,503.029,50.53,502.994,48.41,502.979z"
	/>
<path fill-rule="evenodd" clip-rule="evenodd" fill="#F4C19F" d="M365.244,409.817c-4.016,2.918-6.565,7.187-9.8,10.812
	c-26.982,30.249-60.176,50.19-99.241,60.736c-5.974,1.616-11.465,1.076-17.186-0.403c-38.598-9.99-71.084-29.997-97.634-59.654
	c-3.665-4.094-7.513-8.12-10.152-13.045c0.927-2.575,3.393-2.877,5.496-3.548c15.994-5.097,32.204-9.473,48.185-14.615
	c2.481-0.798,4.982-1.541,7.454-2.37c5.417-1.814,8.814-5.497,9.975-11.057c1.433-6.871,2.733-12.793,3.284-19.798
	c0.426-5.41,1.25-9.375,1.125-16c2.467-1.282,4.979,1.113,7.282,1.761c20.732,5.822,41.523,5.793,62.351,0.64
	c6.963-1.722,7.084-1.99,7.167-9.296c0.027-2.455-0.028-4.911,1.445-7.062c0.346-0.017,0.69-0.032,1.036-0.047
	c-0.131,16.008-0.538,32.037,2.028,47.919c0.76,4.687,2.346,9.104,6.757,11.799c6.486,0.801,12.462,3.45,18.631,5.337
	c15.656,4.79,31.249,9.8,46.898,14.616C362.231,407.121,364.622,407.228,365.244,409.817z"/>
<path fill-rule="evenodd" clip-rule="evenodd" fill="#F4C19F" d="M142.173,252.495c-0.352,0.006-0.704,0.015-1.054,0.021
	c-13.414-2.6-19.914-13.516-20.872-15.016c-4.5-7.043-9.542-18.459-10.43-24.7c-1.148-8.07-2.073-17.14,3.806-24.426
	c1.917-2.375,3.286-3.113,5.708-4.083c1.458-0.583,2.542-0.875,4.216-0.364c3.602,13.991,7.094,28.012,10.843,41.963
	C136.789,234.812,139.566,243.63,142.173,252.495z"/>
<path fill-rule="evenodd" clip-rule="evenodd" fill="#E2B596" d="M206.75,342.46c0-0.75,0.051-2.683-0.042-3
	c0.096-3.228,0.098-5.047,0.235-9.664c0.801-1.768,1.51-2.53,3.887-1.532c9.721,4.089,19.8,7.18,30.018,9.81
	c3.526,0.908,6.892,0.837,10.488-0.055c11.511-2.857,23.826-6.384,34.695-11.148c0.012,1.792-0.076,3.842-0.074,5.632
	c0.011,11.213-0.981,10.696-11.903,13.013c-22.033,4.672-43.723,4.388-65.22-2.472C208.226,342.851,207.396,342.531,206.75,342.46z"
	/>
<path fill-rule="evenodd" clip-rule="evenodd" fill="#F4C19F" d="M351.246,252.832c1.584-3.625,3.412-6.832,4.827-9.874
	c8.034-17.262,15.066-34.873,19.36-53.483c0.432-1.864,0.931-3.716,1.398-5.574c1.33,0.705,0.211,2.306,1.152,3.152
	c8.771,9.933,8.533,21.252,4.428,32.766c-4.028,11.302-10.687,20.952-20.286,28.415C359.249,250.472,354.532,251.62,351.246,252.832
	z"/>
<path fill-rule="evenodd" clip-rule="evenodd" fill="#A00505" d="M353.101,251.842c-3.11,2.082-3.306,5.814-4.94,8.73
	c-3.245-1.508-1.516-4.156-1.144-6.184c2.358-12.888,3.867-25.868,4.702-38.937c0.194-9.671,0.156-23.452-0.969-28.827
	c0.524,9.953,0.137,19.249-4.315,27.967c-2.06,4.033-6.185,8.658-6.185,8.658s1.099-2.748,1.375-8
	c1.138-21.617-14.21-37.525-29.88-50.542c-7.748-6.437-15.929-12.359-23.173-19.546c2.23,8.028,5.281,15.633,9.253,22.861
	c3.019,5.494,2.306,6.959-3.969,6.869c-17.247-0.246-33.017-5.467-47.538-14.63c-21.533-13.587-35.273-32.32-43.758-53.926
	c-3.166,5.729-8.836,9.008-13.614,13.16c-2.326,2.021-4.979,3.727-7.795,5.034c-16.649,7.729-25.567,21.678-30.874,38.458
	c-2.711,8.569-7.652,21.636-6.283,39.27c0.485,3.36,3.586,20.057,1.631,20.991c-1.924-3.775-3.273-5.02-3.434,1.486
	c-0.047,1.928,4.934,19.889,3.684,26.014c-0.318,1.558-3,3.625-3.625,8.75c-2.434-1.096-14.293-54.533-19.165-75.719
	c-0.372-2.824-6.731-32.598-6.903-34.863c-0.307-4.043-5.932-105.043,37.693-118.043c7.555-2.251,15-4.502,42.395-0.597
	c0.756,0.108,9.105,2.847,11.605,4.347c0.5-2.75-3.18-8.342,20.875-25.125c7.366-5.139,20.252-8.73,29.193-9.484
	c4.404-0.006,8.807-0.037,13.205,0.007c14.498,1.835,39.697,6.505,64.727,28.352C354.696,44.803,364.5,67,368.518,76.354
	c6.448,15.013,16.232,54.396,12.924,82.553c-0.937,7.971-1.75,15.911-3.03,23.811c-3.762,22.836-12.851,43.82-22.493,64.617
	C355.162,248.967,354.451,250.595,353.101,251.842z"/>
</svg>
