<?xml version="1.0" encoding="utf-8"?>
<!-- Generator: Adobe Illustrator 16.0.4, SVG Export Plug-In . SVG Version: 6.00 Build 0)  -->
<!DOCTYPE svg PUBLIC "-//W3C//DTD SVG 1.1//EN" "http://www.w3.org/Graphics/SVG/1.1/DTD/svg11.dtd">
<svg version="1.1" id="Ebene_1" xmlns="http://www.w3.org/2000/svg" xmlns:xlink="http://www.w3.org/1999/xlink" x="0px" y="0px"
	 width="500px" height="500px" viewBox="0 0 500 500" enable-background="new 0 0 500 500" xml:space="preserve">
<g>
	<path fill-rule="evenodd" clip-rule="evenodd" fill="#1B73AE" d="M328.963,372.87c5.724,1.073,11.104,3.32,16.62,5.094
		c24.234,7.813,48.398,15.857,72.727,23.353c10.815,3.332,21.702,6.211,31.679,11.844c15.601,8.805,27.881,20.985,36.692,36.771
		c7.197,12.89,11.331,26.782,13.015,41.474c0.33,2.879,0.863,5.731,1.305,8.595c-167.003,0-334.005,0-501.007,0
		c1.61-20.196,6.76-39.281,17.887-56.297c13.079-19.998,31.147-33.285,53.929-39.474c18.722-5.088,36.994-11.598,55.481-17.417
		c14.219-4.478,28.345-9.251,42.52-13.87c0.515-0.171,1.092-0.133,1.641-0.192c1.902-0.133,2.991,1.343,4.227,2.373
		c16.676,13.897,35.777,22.455,57.006,25.411c33.75,4.702,64.53-3.022,91.608-24.592
		C325.747,374.781,326.998,373.245,328.963,372.87z"/>
	<path fill-rule="evenodd" clip-rule="evenodd" fill="#E4B194" d="M107.75,173.934c0.06-4.677,1.439-8.939,3.407-13.097
		c3.734-7.881,10.033-10.773,17.989-10.668c1.427,1.36,1.386,3.211,1.496,5.003c1.035,16.679,3.119,33.192,7.039,49.413
		c0.898,3.72,2.193,7.31,3.367,10.937c0.172,0.534,0.38,1.059,0.65,1.547c0.811,1.464,1.581,3.243,3.378,3.282
		c1.871,0.041,2.676-1.787,3.26-3.327c2.724-7.202,4.546-14.556,2.985-22.416c-0.921-4.647-2.114-9.214-3.712-13.645
		c-7.033-19.49-8.099-39.514-4.979-59.93c1.195-7.813,1.914-15.634,0.483-23.515c-0.281-1.55-0.191-3.151-0.081-4.727
		c0.296-4.225,2.193-7.243,6.071-8.684c7.411-2.75,15.087-4.141,22.852-5.304c15.928-2.387,31.061,2.244,46.353,5.427
		c12.294,2.558,24.466,5.726,36.684,8.642c21.961,5.238,43.165,2.417,63.996-5.778c7.542-2.969,14.776-6.611,21.852-10.636
		c2.993-1.705,3.908-1.465,5.208,1.727c7.022,17.283,12.518,35.067,14.574,53.807c2.278,20.77-0.058,41.158-5.587,61.178
		c-1.109,4.022-1.943,8.081-2.133,12.279c-0.305,6.826,2.881,11.558,8.074,15.118c1.875,1.282,2.901,0.782,3.32-1.558
		c2.071-11.638,3.808-23.328,4.936-35.111c0.965-10.085,1.724-20.186,1.974-30.324c0.026-1.007,0.079-2.051,0.974-2.739
		c8.31,0.586,12.328,6.511,15.241,13.708c1.205,2.981,1.642,6.206,2.152,9.391c0.27,3.345,0.304,6.691-0.015,10.036
		c-2.585,17.576-10.1,32.432-22.314,44.667c-2.186,2.191-4.781,3.994-7.714,4.598c-2.29,0.471-2.939,1.808-3.31,3.76
		c-2.169,11.471-5.837,22.445-9.871,33.304c-3.82,10.279-10.115,18.43-18.137,25.538c-8.966,7.951-18.31,15.353-27.577,22.885
		c-0.459,1.068-1.291,1.762-2.191,2.395c-9.338,6.592-18.907,12.742-29.252,17.466c-4.787,2.187-9.884,2.979-15.008,3.238
		c-6.297,0.319-12.609,0.203-18.885-0.688c-3.655-0.518-7.038-1.916-10.336-3.535c-9.031-4.438-17.665-9.613-25.841-15.627
		c-0.972-0.716-1.937-1.415-2.464-2.588c-7.611-5.936-15.422-11.607-22.776-17.879c-8.825-7.527-17.723-15.06-22.475-26.54
		c-5.137-12.406-8.925-25.247-11.881-38.381c-0.323-1.429-0.628-2.684-2.006-3.127c-7.053-2.274-11.629-7.806-15.715-13.699
		c-6.367-9.188-11.206-19.199-13.445-30.48c-0.356-1.79-0.156-3.574-0.593-5.305C107.448,180.625,107.482,177.279,107.75,173.934z"
		/>
	<path fill-rule="evenodd" clip-rule="evenodd" fill="#A36517" d="M372.18,150.835c-0.767,24.321-3.005,48.461-7.862,72.35
		c-9.974-4.217-13.973-11.931-11.872-22.675c1.876-9.583,4.771-18.911,6.23-28.611c3.363-22.396,2.188-44.411-4.2-66.126
		c-2.724-9.25-5.652-18.397-9.202-27.335c-0.89-2.244-1.499-2.797-3.771-1.438c-13.752,8.223-28.306,14.307-43.889,17.507
		c-16.489,3.387-32.79,2.006-48.993-2.055c-18.199-4.562-36.415-9.075-54.872-12.3c-15.441-2.698-30.47-0.073-45.161,5.128
		c-2.166,0.768-3.61,2.427-4.159,4.775c-0.33,1.408-0.805,2.946-0.576,4.305c1.994,11.756,0.181,23.324-1.284,34.928
		c-2.366,18.749,0.484,36.801,6.854,54.325c3.726,10.255,4.536,20.539,0.886,30.998c-0.737,2.115-1.41,4.268-2.804,6.033
		c-1.479,1.875-3.084,1.902-4.591,0.06c-1.776-2.172-2.752-4.81-3.632-7.472c-4.559-13.801-6.569-28.16-8.222-42.578
		c-0.781-6.812-1.283-13.656-1.913-20.487c-0.06-4.058-0.121-8.113-0.179-12.171c-0.284-1.341-0.259-2.684-0.018-4.028
		c0.055-3.826,0.626-16.976,0.628-17.011c0.099-1.684,0.694-8.113,0.696-8.162c0.047-1.107,0.489-4.822,0.637-5.957
		c1.633-12.508,4.668-26.022,7.37-38.973c2.798-13.412,10.336-23.181,19.417-31.894c15.78-15.142,34.688-23.921,55.44-28.583
		c5.8-1.303,11.665-2.092,17.537-2.857c1.48-0.585,3.105,0.253,4.566-0.522c11.104-0.004,22.203-0.008,33.307-0.014
		c1.443,0.801,3.058-0.043,4.525,0.519c17.475,2.128,34.373,6.417,50.049,15.104c15.363,8.514,28.282,19.952,37.917,35.323
		c2.736,4.36,3.019,9.404,3.887,14.231c1.8,10.03,3.171,20.145,4.716,30.225c0.479,1.088,1.228,12.413,1.271,13.531
		c0.557,1.558,1.023,14.196,1.138,16.986C372.096,134.223,372.139,142.529,372.18,150.835z"/>
	<path fill-rule="evenodd" clip-rule="evenodd" fill="#E4B194" d="M327.5,373.416c-6.426,6.729-16.21,12.223-24.167,16.583
		c-12.688,6.95-26.882,10.381-41.171,11.955c-30.987,3.426-59.035-4.421-84.035-24.067c-2.05-1.608-3.959-3.42-5.934-5.137
		c2.41-1.542,5.179-2,7.833-2.716c8.919-2.411,13.386-8.771,14.545-18c0.659-5.236,1-10.512,1.483-15.77
		c0.582-0.1,1.032,0.198,1.464,0.54c12.901,10.131,27.832,14.878,43.428,17.224c12.484,1.883,24.482-1.526,36.116-6.113
		c6.513-2.57,12.924-5.411,19.038-8.986c2.778-1.617,4.176-3.645,3.793-7.02c-0.136-1.212-0.109-2.495,0.562-3.613
		c0.27-0.329,0.048-1.228,0.376-0.963c-0.218,8.887,0.587,18.601,2.423,27.328c1.608,7.626,5.555,12.862,12.994,14.999
		C319.076,370.47,324.333,372.416,327.5,373.416z"/>
	<path fill-rule="evenodd" clip-rule="evenodd" fill="#D19D7A" d="M300.825,328.005c-0.039,0.787-0.244,1.608-0.094,2.352
		c0.185,7.894-1.45,8.121-5.776,10.379c-12.777,6.651-25.94,12.213-40.093,14.239c-9.113,1.306-18.273,0.017-27.189-2.703
		c-8.32-2.544-16.418-5.633-24.065-9.956c-2.82-1.591-5.491-3.402-7.553-6.051c0.201-5.628,0.403-11.256,0.604-16.883
		c8.573,5.699,17.138,11.377,26.192,16.26c11.108,5.992,22.761,5.771,34.656,4.868c11.479-0.876,20.604-7.521,30.132-13.183
		c4.451-2.642,8.673-5.726,12.996-8.605c0.087,0.908,0.174,1.812,0.26,2.72C301.1,323.634,301.199,325.825,300.825,328.005z"/>
</g>
<path fill-rule="evenodd" clip-rule="evenodd" fill="#1A5375" d="M366.626,139.933c-7.673-1.259-26.957-3.323-28.873-3.487
	c-8.417-0.718-16.843-1.191-25.272-0.848c-12.191,0.492-24.342,1.48-35.714,6.732c-4.449,2.049-7.432,2.67-11.234,9.057
	c-1.882,8.194-6.774,8.237-12.787,7.746c-3.545-0.285-7.139-0.231-10.685,0.008c-2.482,0.174-3.922-0.597-4.365-3.21
	c-1.262-7.399-6.753-10.567-12.413-13.315c-7.551-3.675-15.66-5.185-23.893-6.106c-22.377-2.499-44.507,0.207-66.609,3.449
	c-2.204,0.428-4.447,0.875-6.606,1.215c-4.884,0.769-5.278,2.479-4.188,6.79c1.861,7.341,3.181,13.037,5.297,14.358
	c2.309,1.494,3.097,3.404,3.463,5.53c0.738,4.258,1.48,8.522,2.048,12.812c2.405,18.153,11.417,30.913,27.723,37.684
	c11.047,4.602,22.62,5.576,34.289,4.514c26.158-2.382,41.624-18.963,43.356-45.982c0.555-8.656,1.196-9.335,9.359-9.467
	c1.87-0.029,3.739,0.266,5.609,0.372c4.443,0.261,5.848,2.132,6.157,7.37c1.713,29.014,13.518,41.698,35.512,46.483
	c10.97,2.375,22.012,2.151,32.931-0.434c22.77-5.392,34.683-19.754,37.258-44.101c0.5-4.721,0.151-10.002,4.141-13.672
	c2.708-2.566,3.941-5.841,4.751-9.544C378.595,141.462,378.622,141.901,366.626,139.933z M230.63,179.846
	c-2.48,20.933-13.412,32.532-33.397,35.073c-6.247,0.805-12.604,0.915-18.825-0.139c-20.195-3.419-31.939-18.014-33.678-41.45
	c-1.296-17.523,5.765-24.14,22.347-26.448c9.925-1.381,33.94-0.295,43.463,2.168C225.727,152.973,232.575,163.431,230.63,179.846z
	 M354.223,189.64c-4.913,13.652-14.026,22.183-27.834,24.594c-12.24,2.145-24.372,1.951-35.869-3.752
	c-19.229-9.529-23.08-35.798-14.36-52.306c2.454-4.645,6.977-6.34,11.445-7.875c18.897-5.801,45.11-3.558,50.845-3.253
	c12.248,0.642,19.896,9.339,19.57,22.108C357.837,176.186,356.597,183.05,354.223,189.64z"/>
</svg>
