<svg id="Ebene_1" data-name="Ebene 1" xmlns="http://www.w3.org/2000/svg" viewBox="0 0 235.69 150.43">
    <defs>
        <style>.cls-1{fill:#585858;}.cls-2{fill:#fff;}</style>
    </defs>
    <title>Laptop1</title>
    <path class="cls-1"
          d="M155.66,175.06a12.33,12.33,0,0,0-12.27,12.28V297.79a12.32,12.32,0,0,0,12.27,12.27H344.34a12.32,12.32,0,0,0,12.27-12.27V187.34a12.33,12.33,0,0,0-12.27-12.28Zm0,7H344.34a5.16,5.16,0,0,1,5.24,5.26V297.79a5.15,5.15,0,0,1-5.24,5.24H155.66a5.15,5.15,0,0,1-5.24-5.24V187.34a5.16,5.16,0,0,1,5.24-5.26Z"
          transform="translate(-132.15 -175.06)"/>
    <path class="cls-1" d="M132.15,312.09c0,7.42,5.12,13.4,11.48,13.4H356.36c6.36,0,11.48-6,11.48-13.4Z"
          transform="translate(-132.15 -175.06)"/>
    <path class="cls-2" d="M232.45,314.9h35.1a1,1,0,1,1,0,2h-35.1a1,1,0,0,1,0-2Z"
          transform="translate(-132.15 -175.06)"/>
</svg>