<?xml version="1.0" encoding="utf-8"?>
<!-- Generator: Adobe Illustrator 16.0.4, SVG Export Plug-In . SVG Version: 6.00 Build 0)  -->
<!DOCTYPE svg PUBLIC "-//W3C//DTD SVG 1.1//EN" "http://www.w3.org/Graphics/SVG/1.1/DTD/svg11.dtd">
<svg version="1.1" id="Ebene_1" xmlns="http://www.w3.org/2000/svg" xmlns:xlink="http://www.w3.org/1999/xlink" x="0px" y="0px"
	 width="500px" height="500px" viewBox="0 0 500 500" enable-background="new 0 0 500 500" xml:space="preserve">
<g transform="matrix(7.0274 0 0 7.0274 74.315 -6969.7)">
	<path color-rendering="auto" image-rendering="auto" shape-rendering="auto" fill="#585858" d="M11.576,1016.7
		c-0.959,0-1.746,0.789-1.746,1.748v15.717c0,0.959,0.787,1.746,1.746,1.746h26.848c0.959,0,1.746-0.787,1.746-1.746v-15.717
		c0-0.959-0.787-1.748-1.746-1.748L11.576,1016.7L11.576,1016.7z M11.576,1017.7h26.848c0.423,0,0.746,0.325,0.746,0.748v15.717
		c0,0.423-0.323,0.746-0.746,0.746H11.576c-0.423,0-0.746-0.323-0.746-0.746v-15.717C10.83,1018.025,11.153,1017.7,11.576,1017.7
		L11.576,1017.7z"/>
	<path fill="#585858" d="M8.23,1036.2c0,1.056,0.729,1.906,1.634,1.906h30.271c0.905,0,1.634-0.85,1.634-1.906H8.23L8.23,1036.2z"/>
	<path fill="#FFFFFF" d="M22.503,1036.6h4.995c0.077,0,0.139,0.062,0.139,0.139c0,0.077-0.062,0.139-0.139,0.139h-4.995
		c-0.077,0-0.139-0.062-0.139-0.139C22.364,1036.662,22.426,1036.6,22.503,1036.6z"/>
</g>
</svg>
