<?xml version="1.0" encoding="utf-8"?>
<!-- Generator: Adobe Illustrator 16.0.4, SVG Export Plug-In . SVG Version: 6.00 Build 0)  -->
<!DOCTYPE svg PUBLIC "-//W3C//DTD SVG 1.1//EN" "http://www.w3.org/Graphics/SVG/1.1/DTD/svg11.dtd">
<svg version="1.1" id="Ebene_1" xmlns="http://www.w3.org/2000/svg" xmlns:xlink="http://www.w3.org/1999/xlink" x="0px" y="0px"
	 width="500px" height="500px" viewBox="0 0 500 500" enable-background="new 0 0 500 500" xml:space="preserve">
<path fill-rule="evenodd" clip-rule="evenodd" fill="#6B256B" d="M367.232,401.088c0.117-0.119,0.293-0.22,0.343-0.363
	c1.8-5.224,2.917-5.974,11.695-2.474c10.643,4.244,20.463,7.046,29.59,14.317c6.155,4.893,11.093,10.758,13.944,18.367
	c3.645,5.67,2.493,12.074,1.85,18.064c-1.942,17.994-8.394,34.252-18.751,48.807c-1.41,1.982-2.998,3.635-5.119,4.723
	c-64.864,0-129.729,0-194.591,0c-1.027-0.783-2.219-0.521-3.351-0.521c-22.254-0.01-44.511-0.01-66.767,0
	c-1.131,0-2.322-0.262-3.351,0.521c-14.561,0-29.123,0-43.684,0c-3.938-2.092-5.837-6.107-7.764-9.803
	c-10.671-20.477-14.971-41.77-6.575-64.414c0.967-2.607,2.162-5.029,4.439-6.674c9.41-13.658,22.031-21.969,37.899-25.023
	c2.724-0.531,14.007-0.834,14.007-0.834s-0.1,0.099,0.06,2.031c0.052,0.631,0.066,0.911,0.368,1.521
	c1.334,0.895,2.203,1.829,2.762,3.272c8.92,22.932,25.625,37.266,47.263,45.65c36.061,13.99,73.029,16.123,110.621,8.092
	c26.498-6.014,52.674-25.847,60.881-32.963c4.724-4.395,7.649-10.072,10.521-15.828C364.63,405.338,365.076,402.664,367.232,401.088
	z"/>
<path fill-rule="evenodd" clip-rule="evenodd" fill="#F1D9C4" d="M79.141,421.639c-13.041,26.904-8.098,52.045,6.872,76.201
	c0.981,1.576,2.017,3.129,3.027,4.689c-15.553,0-31.108,0-46.661,0c1.639-30.49,10.602-57.621,33.047-78.58
	C76.527,422.92,77.45,421.621,79.141,421.639z"/>
<path fill-rule="evenodd" clip-rule="evenodd" fill="#F1D9C4" d="M400.784,502.529c11.897-15.279,19.855-32.396,22.359-52.07
	c0.832-6.521,0.728-13.027-0.339-19.523c13.098,12.682,19.552,29.074,23.523,46.699c1.838,8.141,3.442,16.408,3.103,24.895
	C433.216,502.529,416.999,502.529,400.784,502.529z"/>
<path fill-rule="evenodd" clip-rule="evenodd" fill="#B05C9F" d="M132.724,502.529c1.125-1.451,2.705-1.02,4.135-1.02
	c21.736-0.018,43.473-0.025,65.206,0c1.427,0,3.011-0.457,4.128,1.02C181.703,502.529,157.214,502.529,132.724,502.529z"/>
<path fill-rule="evenodd" clip-rule="evenodd" fill="#F6E964" d="M203.277,348.221c-58.508-25.596-90.027-73.129-101.355-136.741
	c-6.439-36.166-1.089-71.225,6.88-106.865C121.273,48.827,175.388,7.411,216.866,2.454c32.906-3.936,66.151-5.13,96.853,12.099
	c21.383,11.997,42.862,23.838,59.207,43.487c18.47,22.201,29.632,47.105,27.984,77.149c-0.207,3.775-0.065,7.867-1.419,11.229
	c-4.439,11.049-3.498,22.568-3.882,34.043c-1.351,40.014-11.634,77.092-33.874,110.114c-1.13,1.678-1.602,2.783-0.505,4.91
	c8.223,15.963,5.889,30.795-6.2,43.922c-2.441,2.648-6.696,3.957-6.831,8.648c-0.924,0.369-1.595-0.152-2.17-0.77
	c-7.557-8.023-17.036-1.695-19.168,6.295c-2.087,7.83-6.03,14.443-11.735,19.91c-4.592,4.395-9.699,8.244-13.219,13.777
	c-0.731,1.146-1.828,2.109-3.312,0.902c-8.906-9.693-12.742-21.59-13.335-34.691c-0.368-8.082-0.114-16.191-0.062-24.289
	c0.004-4.117-0.404-8.252,0.41-12.336c1.146-3.088,3.987-3.998,6.467-5.256c12.096-6.133,23.229-13.895,33.79-22.459
	c10.377-8.418,16.698-19.926,20.522-32.918c1.845-6.269,3.694-12.555,5.086-18.958c0.796-3.67,2.544-6.074,6.014-7.524
	c6.825-2.86,11.652-8.252,15.909-14.377c5.82-8.378,10.116-17.399,11.773-27.678c0.438-2.709,0.659-5.417-0.155-8.657
	c-4.098,2.94-7.079,6.609-10.7,9.466c-4.779,3.771-9.765,7.117-15.242,9.643c-2.439,1.127-4.954,1.933-7.663,1.933
	c-4.902,0-6.931-1.788-7.465-6.931c-0.736-7.053-2.125-13.958-3.679-20.863c-4.872-21.666-18.732-33.326-38.606-38.52
	c-8.61-2.246-17.386-2.445-26.143-1.986c-16.909,0.892-33.334-1.476-49.358-7.07c-12.253-4.277-24.232-9.301-35.825-15.232
	c-3.715-1.902-6.325-1.424-9.426,1.148c-10.347,8.58-19.381,18.371-25.697,30.553c-5.684,10.959-13.573,19.511-23.957,25.543
	c-5.903,3.426-11.982,6.138-18.798,2.493c-2.145-1.147-3.06,0.319-3.674,2.067c-1.604,4.572-2.875,9.255-2.298,14.174
	c1.739,14.848,8.647,27.033,18.272,37.713c2.75,3.055,6.257,5.121,9.957,6.691c3.047,1.298,4.685,3.525,5.49,6.8
	c1.116,4.514,2.673,8.917,3.626,13.464c4.643,22.18,17.61,37.789,35.411,49.77c6.843,4.605,14.12,8.293,21.338,12.139
	c2.185,1.166,4.618,2.076,5.609,4.809c0.864,4.193,0.434,8.438,0.454,12.664c0.483,5.156-0.642,10.191-1.109,15.271
	C205.394,346.238,205.219,347.928,203.277,348.221z"/>
<path fill-rule="evenodd" clip-rule="evenodd" fill="#F1D9C4" d="M203.277,348.221c2.211-6.09,1.594-12.518,2.076-18.812
	c1.853-1.578,3.784-0.666,5.65-0.109c23.27,6.926,46.533,6.926,69.805,0c1.867-0.557,3.796-1.469,5.648,0.109
	c0.052,8.43-0.164,16.873,0.217,25.285c0.576,12.799,5.652,23.826,13.184,33.738c0.382,1.232-0.011,2.371-0.438,3.477
	c-2.778,7.129-2.925,14.25-0.036,21.387c0.539,5.121,1.426,10.15,2.723,15.152c2.17,8.361-1.217,15.084-6.654,20.947
	c-1.018,1.105-2.307,1.906-3.382,3.037c1.347,1.555,8.121,0.568,9.053,2.568c-3.375,1.775-7.171,2.547-8.5,2.875
	c-19.447,4.834-39.323,5.686-59.16,4.023c-20.674-1.729-40.832-6.395-59.773-15.49c-19.377-9.305-33.932-23.652-41.474-44.939
	c-0.281-0.793-0.913-1.406-1.093-3.422c18.949-6.219,38.497-11.826,57.517-17.791c7.527-2.354,12.622-6.705,13.755-14.932
	C203.171,359.688,205.219,354.045,203.277,348.221z"/>
<path fill-rule="evenodd" clip-rule="evenodd" fill="#F6E964" d="M298.196,413.521c-3.417-8.646-3.06-17.025,1.661-25.09
	c3.084-5.121,6.982-9.332,11.538-13.16c6.715-5.645,11.937-12.58,14.096-21.701c1.454-6.15,5.43-10.359,11.484-11.373
	c4.754-0.809,8.45,1.867,11.224,5.857c8.723,13.457,9.337,27.84,4.506,42.842c-0.522,1.619-1.127,3.215-1.693,4.816
	c-0.365,3.736-2.232,6.354-5.436,7.98c-2.918,0.084-5.411-1.467-8.033-2.414c-7.456-2.699-14.943-2.674-22.448-0.547
	c-5.578,1.586-10.287,4.564-13.473,9.854C300.843,411.877,300.54,414.096,298.196,413.521z"/>
<path fill-rule="evenodd" clip-rule="evenodd" fill="#F1D9C4" d="M345.985,403.002c1.675-2.43,3.351-4.859,5.025-7.289
	c5.407,1.797,10.814,3.584,16.222,5.375c-2.794,8.629-7.955,20.771-14.696,26.912C351.332,420.408,349.373,409.676,345.985,403.002z
	"/>
<path fill-rule="evenodd" clip-rule="evenodd" fill="#F6E964" d="M345.985,403.002c5.367,5.846,9.029,12.402,8.02,20.914
	c-4.66,19.752-19.062,27.082-36.184,30.846c-6.971,1.525-14.021,1.434-21.053,0.338c-2.565-0.271-5.139-0.516-7.77-1.781
	c1.798-1.51,3.54-2.793,5.079-4.303c6.112-5.973,9.188-13.002,6.418-21.809c-1.401-4.463-2.03-9.027-2.3-13.686
	c8.009-17.42,29.539-18.711,44.145-11.979C343.528,402.092,344.77,402.521,345.985,403.002z"/>
<path fill-rule="evenodd" clip-rule="evenodd" fill="#F1D9C4" d="M205.25,315.918c-14.826-7.264-29.27-15.145-41.51-26.812
	c-9.134-8.715-15.524-19.168-19.114-31.477c-2.114-7.248-4.04-14.561-5.877-21.893c-0.591-2.363-1.429-3.914-3.93-4.497
	c-3.273-0.76-6.153-2.615-8.541-5.028c-13.29-13.457-22.685-28.742-20.457-49.227c0.479-4.408,1.371-6.434,4.339-11.352
	c6.635,6.804,13.441,3.961,20.12,0.072c9.733-5.669,17.574-13.377,22.919-23.717c6.957-13.446,16.786-24.234,28.281-33.561
	c2.815-2.283,4.872-2.695,8.238-0.953c20.336,10.512,41.336,19.096,64.017,22.357c7.411,1.062,14.854,0.797,22.284,0.465
	c9.294-0.423,18.516-0.064,27.557,2.424c22.729,6.256,35.603,21.818,39.594,45.779c0.82,4.931,1.946,9.82,1.909,14.848
	c-0.031,4.396,2.274,5.758,6.009,5.521c5.468-0.346,10.081-3.076,14.644-5.872c7.432-4.546,13.659-10.667,19.817-17.266
	c2.068,6.087,1.207,11.731-0.151,17.211c-3.096,12.498-9.472,23.06-18.336,31.987c-1.65,1.652-3.521,3.72-5.577,4.175
	c-7.851,1.738-8.905,8.133-10.429,14.681c-3.286,14.147-7.464,27.926-17.074,39.096c-5.222,6.066-11.191,11.025-17.86,15.389
	c-9.64,6.301-19.008,13.033-29.558,17.656c-1.35,1.881-3.323,2.744-5.333,3.57c-9.215,3.83-18.688,6.809-28.243,9.541
	c-5.102,1.459-10.022,1.139-15.101-0.336c-9.227-2.693-18.405-5.484-27.306-9.197C208.573,318.66,206.598,317.816,205.25,315.918z"
	/>
<path fill-rule="evenodd" clip-rule="evenodd" fill="#EEBB9D" d="M205.25,315.918c10.033,3.812,20.225,7.154,30.309,10.766
	c10.172,3.627,19.049,0.607,28.217-2.396c7.679-2.523,15.199-5.561,22.789-8.361c-0.035,4.49-0.071,8.986-0.107,13.482
	c-7.685,1.629-15.116,4.303-22.969,5.316c-18.429,2.377-36.535,1.332-54.331-4.396c-1.241-0.406-2.535-0.615-3.804-0.92
	C205.319,324.912,205.284,320.416,205.25,315.918z"/>
</svg>
