<?xml version="1.0" encoding="utf-8"?>
<!-- Generator: Adobe Illustrator 16.0.4, SVG Export Plug-In . SVG Version: 6.00 Build 0)  -->
<!DOCTYPE svg PUBLIC "-//W3C//DTD SVG 1.1//EN" "http://www.w3.org/Graphics/SVG/1.1/DTD/svg11.dtd">
<svg version="1.1" id="Ebene_1" xmlns="http://www.w3.org/2000/svg" xmlns:xlink="http://www.w3.org/1999/xlink" x="0px" y="0px"
	 width="500px" height="500px" viewBox="0 0 500 500" enable-background="new 0 0 500 500" xml:space="preserve">
<path fill-rule="evenodd" clip-rule="evenodd" fill="#361284" d="M80.034,500.89c1.65-14.112,4.104-27.99,10.713-40.783
	c9.085-17.597,22.464-29.943,41.325-35.843c10.839-3.386,20.874-6.554,31.725-9.889c1.32-0.406,3.216-0.728,5.094-0.438
	c0.372,3.647,1.853,5.318,2.346,8.351c5.463,33.692,29.018,58.215,62.295,62.793c16.974,2.329,34.274,1.894,50.573-5.349
	c25.419-11.291,40.559-30.977,46.119-58.478c0.455-2.255,0.548-4.616,2.071-6.518c0.236-1.562-0.265-1.362,2.548-0.737
	c14.18,4.873,28.928,7.331,42.622,13.508c23.856,10.763,36.12,30.879,41.396,56.034c1.192,5.694,2.479,11.435,1.897,17.348
	C307.185,500.89,193.612,500.89,80.034,500.89z"/>
<path fill-rule="evenodd" clip-rule="evenodd" fill="#180D08" d="M215.016,367.623c-4.33-1.795-8.752-3.403-12.96-5.449
	c-3.095-1.514-6.294-3.24-6.569-7.422c-0.119-1.802-1.749-1.379-2.776-1.653c-10.288-2.721-18.098-8.304-21.66-18.728
	c-0.79-2.312-1.84-2.795-4.304-2.291c-13.631,2.78-28.013-5.36-32.666-18.527c-0.993-2.816-1.749-3.736-4.833-2.462
	c-4.075,1.691-7.952,0.964-11.125-2.579c-3.726-4.168-9.59-5.746-12.745-10.78c-3.181-5.071-5.334-10.202-3.6-16.222
	c0.623-2.157,0.019-3.232-1.972-4.263c-13.019-6.739-25.997-24.452-22.96-41.906c1.164-6.694,0.741-12.711-5.624-16.859
	c-0.593-0.382-1.148-1.131-1.315-1.809c-2.495-10.132-7.97-19.699-5.631-30.757c0.857-4.044,1.857-8.062,4.137-11.458
	c1.931-2.876,2.213-5.509,1.435-8.804c-3.515-14.846-1.023-28.58,8.34-40.817c0.938-1.227,1.261-2.098,0.642-3.585
	c-5.223-12.492,3.889-29.407,19.658-30.931c0.426-0.041,0.837-0.219,1.268-0.336c-4.574-10.662-1.727-24.8,11.473-29.949
	c0.837-0.326,1.553-0.96,2.383-1.309c6.131-2.583,10.713-6.031,12.741-13.204c2.591-9.148,9.727-14.298,19.087-16.185
	c5.338-1.075,9.952-3.351,13.519-7.688c2.817-3.425,6.32-6.079,10.609-7.525c0.286-0.097,0.583-0.204,0.826-0.371
	c11.255-7.584,23.255-11.213,36.926-7.788c3.31,0.828,7.046,0.076,10.282-1.268c14.243-5.92,28.578-3.864,42.875-0.569
	c3.927,0.906,7.46,0.815,10.992-0.986c13.982-7.13,34.019-1.352,42.096,9.517c1.883,2.536,4.025,4.178,7.562,3.529
	c2.239-0.411,4.846,0.178,6.454,1.688c3.291,3.091,6.902,2.902,10.868,2.298c12.711-1.942,28.544,11.877,30.07,21.786
	c0.572,3.708,4.078,4.171,5.703,6.565c1.781,2.633,3.832,3.733,7.36,3.704c14.617-0.123,26.553,8.578,29.482,20.917
	c0.381,1.602,0.418,3.288,0.574,4.938c0.366,3.903,0.7,7.725,2.646,11.354c2.403,4.482,2.472,9.493,0.545,14.09
	c-1.368,3.258-0.188,3.691,2.516,4.511c13.247,4.011,21.535,18.842,18.111,31.969c-0.703,2.688-1.863,5.097-3.815,7.095
	c-2.598,2.655-2.788,5.345,0.158,7.796c9.664,8.045,10.748,26.649,0.03,37.111c-1.767,1.723-2.101,2.943-1.139,5.372
	c3.867,9.752,2.536,18.671-5.226,26.222c-2.18,2.121-2.914,4.415-2.395,7.726c2.588,16.527-2.967,30.443-14.721,41.965
	c-2.047,2.009-3.311,4.033-4.041,6.746c-2.261,8.37-6.754,15.547-12.722,21.723c-4.782,4.944-10.771,7.919-17.7,8.318
	c-2.909,0.171-3.674,1.312-4.077,4.004c-1.658,10.994-10.535,18.868-21.872,19.438c-2.21,0.111-3.025,0.75-3.678,2.862
	c-4.7,15.14-18.942,22.479-34.156,17.533c-2.887-0.941-4.17-1.03-5.33,2.306c-3.077,8.867-9.827,13.472-18.965,14.783
	c-3.574-2.038-1.654-5.492-2.153-8.333c0.271-5.138-0.608-10.319,0.448-15.435c1.006-2.351,3.336-2.989,5.339-3.968
	c10.397-5.078,20.34-10.787,29.029-18.607c7.925-7.126,13.191-15.763,16.31-25.815c1.35-4.353,2.502-8.756,3.796-13.123
	c0.626-2.105,1.564-3.959,3.718-4.901c15.158-6.642,21.708-19.571,24.914-34.706c1.239-5.841-0.247-11.506-3.709-16.444
	c-3.503-4.997-6.074-5.675-11.655-3.332c-2.439,1.023-4.111-0.104-5.575-1.802c-2.896-3.355-2.625-7.321-1.884-11.258
	c1.468-7.818,2.395-15.707,0.479-23.494c-2.718-11.032-8.333-20.07-18.986-25.323c-10.076-4.967-20.085-10.06-30.468-14.382
	c-8.186-3.407-16.479-4.137-25.367-3.347c-14.063,1.25-28.206,0.659-42.177-1.838c-5.613-1.002-10.876-0.109-15.899,2.412
	c-10.605,5.319-20.533,11.777-30.509,18.153c-7.644,4.89-11.254,12.553-13.656,20.856c-2.027,7.013-2.736,14.291-3.696,21.512
	c-0.871,6.572-3.944,12.085-8.582,16.692c-2.232,2.217-4.696,3.941-7.826,0.896c-1.894-1.842-4.007-0.696-5.808,0.549
	c-4.989,3.452-7.269,8.456-7.733,14.32c-1.19,15.107,10.261,34.042,24.276,40.107c2.324,1.001,3.685,2.543,4.33,4.878
	c0.842,3.07,1.866,6.103,2.592,9.201c4.044,17.253,14.316,29.908,29.085,39.138c6.042,3.774,12.092,7.577,18.761,10.247
	c1.983,0.793,3.929,1.734,4.533,4.114c0.568,4.011,0.315,8.036,0.267,12.062C217.498,362.759,219.612,366.519,215.016,367.623z"/>
<path fill-rule="evenodd" clip-rule="evenodd" fill="#9B6649" d="M284.854,362.744c0.566,2.721-0.513,5.642,0.956,8.266
	c-0.33,8.319-0.189,16.586,3.348,24.363c1.379,3.024,3.707,5.13,6.857,6.265c12.092,4.359,24.188,8.711,36.284,13.063
	c-2.955,27.054-15.773,48.323-39.782,60.941c-27.103,14.25-55.646,15.251-83.504,1.654c-21.956-10.713-33.803-29.634-38.756-53.144
	c-0.737-3.515-0.853-6.188-1.319-9.747c1.688-0.25,1.835-0.158,2.91-0.55c11.233-4.079,22.479-8.134,33.697-12.264
	c4.878-1.794,7.221-5.769,8.503-10.505c1.838-6.792,1.416-13.827,2.292-20.723c0.154-1.23-0.806-1.875-1.328-2.75
	c3.14-1.912,0.711-5.161,1.812-7.569c1.417-1.149,2.906-0.49,4.318-0.082c19.547,5.665,39.098,5.717,58.678,0.193
	C282.203,359.489,284.787,358.74,284.854,362.744z"/>
<path fill-rule="evenodd" clip-rule="evenodd" fill="#9B6649" d="M216.846,347.205c-7.973-4.293-16.114-8.253-23.843-13.049
	c-17.552-10.898-26.823-27.083-30.841-46.775c-0.697-3.416-1.805-5.931-5.739-6.279c-0.982-0.081-2.009-0.748-2.832-1.386
	c-12.64-9.764-20.614-22.176-20.604-38.573c0.008-7.503,2.973-13.935,10.206-17.486c2.083-1.023,4.322-1.742,5.823,1.09
	c1.354,2.562,2.833,1.297,4.315,0.093c7.429-6.023,9.72-14.321,10.417-23.354c0.407-5.301,1.49-10.498,2.876-15.618
	c2.813-10.364,8.303-18.66,17.986-24.028c8.215-4.556,16.106-9.69,24.237-14.402c6.361-3.689,13.114-4.926,20.546-3.677
	c14.554,2.453,29.218,3.058,43.944,1.363c7.391-0.853,14.467,0.594,21.321,3.392c9.828,4.007,19.28,8.823,28.926,13.219
	c18.601,8.478,25.812,27.156,23.005,46.025c-0.467,3.144-1.105,6.261-1.527,9.412c-0.363,2.699,0.448,5.105,2.321,7.111
	c1.782,1.913,3.621,3.024,5.334-0.033c1.25-2.232,2.954-1.535,4.71-0.923c7.284,2.538,12.31,11.77,11.171,21.434
	c-1.596,13.579-8.196,24.537-18.479,33.367c-1.135,0.979-2.458,2.217-3.807,2.38c-5.791,0.712-6.688,4.952-7.755,9.497
	c-2.984,12.7-7.537,24.711-17.338,33.903c-10.513,9.861-22.761,17.037-36.05,22.502c-1.368,1.936-3.314,3.011-5.498,3.767
	c-3.283,1.142-6.75,1.875-9.853,3.381c-13.912,6.738-27.572,4.796-41.129-0.934C224.698,350.934,220.153,350.407,216.846,347.205z"
	/>
<path fill-rule="evenodd" clip-rule="evenodd" fill="#361284" d="M357.195,176.728c-1.883-24.985-14.445-43.991-33.726-58.881
	c-18.765-14.499-40.288-22.001-63.949-23.21c-32.329-1.653-61.135,7.429-85.315,29.256c-17.579,15.865-27.518,35.516-27.135,59.53
	c-1.491-2.506-2.328-7.081-2.209-14.688c0.401-25.425,9.308-46.989,29.1-63.567c14.172-11.874,30.609-18.957,48.558-22.545
	c32.054-6.41,63.162-3.677,92.325,11.817c23.494,12.482,38.86,31.543,43.497,58.314c1.378,7.971,1.347,15.984,0.292,23.996
	C358.146,177.42,357.663,177.435,357.195,176.728z"/>
<path fill-rule="evenodd" clip-rule="evenodd" fill="#84533E" d="M216.846,347.205c7.755,2.017,15.062,5.36,22.75,7.637
	c7.199,2.135,14.101,2.913,21.233,0.332c8.108-2.936,16.538-4.981,24.341-8.763c-0.107,5.441-0.211,10.884-0.315,16.333
	c-0.737-1.616-1.524-2.447-3.674-1.728c-12.313,4.093-25.051,5.13-37.914,4.39c-9.034-0.52-17.809-2.678-26.442-5.36
	C216.832,355.768,216.839,351.49,216.846,347.205z"/>
<path fill-rule="evenodd" clip-rule="evenodd" fill="#57084B" d="M357.195,176.728c0.478,0.007,0.96,0.015,1.438,0.022
	c0.413,1.586-0.155,2.835-1.236,4.17C356.74,179.344,357.01,178.036,357.195,176.728z"/>
</svg>
