<svg xmlns="http://www.w3.org/2000/svg" xmlns:xlink="http://www.w3.org/1999/xlink" viewBox="-20 -20 1667.9 842.11">
    <defs>
        <style>
            * {pointer-events:none;}
            .lines{pointer-events:none;}
            #cruncher, #gurus, #other, #lynchpins, #geeks, #driver, #deliverer, #voices
            {
                fill:#ededed;
                cursor:pointer;
            }
            #cruncher *, #gurus *, #other *, #lynchpins *, #geeks *, #driver *, #deliverer *, #voices *
            {
                pointer-events:all;
            }
            .cls-31 {
                letter-spacing: 1px;
            }
            .cls-1,.cls-65,.cls-66,.cls-67,.cls-68,.cls-69{fill:none;}.cls-15,.cls-2,.cls-31,.cls-7{fill:#eeeeeb;}.cls-3{clip-path:url(#clip-path);}.cls-4{fill:#ccc;}.cls-5{clip-path:url(#clip-path-3);}.cls-6{fill:#0A7D7B;}.cls-14,.cls-15,.cls-31,.cls-7{isolation:isolate;}.cls-7{font-size:32px;}.cls-15,.cls-31,.cls-7{font-family:'Quicksand';}.cls-8{clip-path:url(#clip-path-4);}.cls-9{fill:#f01788;}.cls-10{fill:#ddaf90;}.cls-11{fill:#442500;}.cls-12{fill:#580746;}.cls-13{fill:#b2917b;}.cls-15,.cls-31{font-size:23px;}.cls-16{clip-path:url(#clip-path-12);}.cls-17{fill:#f2d4b3;}.cls-18{fill:#167729;}.cls-19{fill:#d86416;}.cls-20{fill:#e9c09c;}.cls-21{fill:#f3dcc7;}.cls-22{fill:#f3ddc8;}.cls-23{fill:#56d66b;}.cls-24{fill:#da7911;}.cls-25{clip-path:url(#clip-path-25);}.cls-26{fill:#6b256b;}.cls-27{fill:#f1d9c4;}.cls-28{fill:#b05c9f;}.cls-29{fill:#f6e964;}.cls-30{fill:#eebb9d;}.cls-32{clip-path:url(#clip-path-37);}.cls-33{fill:#1b73ae;}.cls-34{fill:#e4b194;}.cls-35{fill:#a36517;}.cls-36{fill:#d19d7a;}.cls-37{fill:#1a5375;}.cls-38{clip-path:url(#clip-path-44);}.cls-39{fill:#d75ea3;}.cls-40{fill:#f6f6f6;}.cls-41{fill:#f4c19f;}.cls-42{fill:#f96488;}.cls-43{fill:#e2b596;}.cls-44{fill:#a00505;}.cls-45{clip-path:url(#clip-path-54);}.cls-46{fill:#5b0b08;}.cls-47{fill:#cbbed7;}.cls-48{fill:#482f6a;}.cls-49{fill:#f1d8b4;}.cls-50{fill:#808788;}.cls-51{fill:#e9e9e9;}.cls-52{fill:#ebc9a2;}.cls-53{fill:#b54040;}.cls-54{clip-path:url(#clip-path-67);}.cls-55{fill:#442217;}.cls-56{fill:#186b5c;}.cls-57{fill:#f3d3b3;}.cls-59{clip-path:url(#clip-path-74);}.cls-60{fill:#361284;}.cls-61{fill:#180d08;}.cls-62{fill:#9b6649;}.cls-63{fill:#84533e;}.cls-64{fill:#57084b;}.cls-65,.cls-66,.cls-67,.cls-68,.cls-69{stroke:#0A7D7B;stroke-linecap:round;stroke-linejoin:round;stroke-width:5px;}.cls-65{stroke-dasharray:0 15.32;}.cls-67{stroke-dasharray:0 15.67;}.cls-68{stroke-dasharray:0 15.2;}.cls-69{stroke-dasharray:0 15.32;}
        .cls-90{fill:none;}.cls-91{fill:#fff;}.cls-92{clip-path:url(#clip-path);}.cls-93{fill:#ccc;}
        </style>
        <clipPath id="clip-path" transform="translate(0 0)">
            <rect class="cls-1" x="656.21" y="387.52" width="303.27" height="193.55"/>
        </clipPath>
        <clipPath id="clip-path-3" transform="translate(0 0)">
            <rect class="cls-1" width="1617.9" height="794.64"/>
        </clipPath>
        <clipPath id="clip-path-4" transform="translate(0 0)">
            <rect class="cls-1" x="1410.44" y="364.77" width="126.24" height="165.07"/>
        </clipPath>
        <clipPath id="clip-path-12" transform="translate(0 0)">
            <rect class="cls-1" x="1186.43" y="130.71" width="161.45" height="161.57"/>
        </clipPath>
        <clipPath id="clip-path-25" transform="translate(0 0)">
            <rect class="cls-1" x="860.2" y="65.07" width="131.13" height="162.62"/>
        </clipPath>
        <clipPath id="clip-path-37" transform="translate(0 0)">
            <rect class="cls-1" x="606.01" y="65.07" width="162.77" height="162.46"/>
        </clipPath>
        <clipPath id="clip-path-44" transform="translate(0 0)">
            <rect class="cls-1" x="314.33" y="137.27" width="128.84" height="162.24"/>
        </clipPath>
        <clipPath id="clip-path-54" transform="translate(0 0)">
            <rect class="cls-1" x="99.32" y="366.27" width="160.91" height="159.91"/>
        </clipPath>
        <clipPath id="clip-path-67" transform="translate(0 0)">
            <rect class="cls-1" x="1105.53" y="592.44" width="161.3" height="162.53"/>
        </clipPath>
        <clipPath id="clip-path-74" transform="translate(0 0)">
            <rect class="cls-1" x="373.81" y="592.44" width="127.62" height="169.28"/>
        </clipPath>
        <clipPath id="clip-path">
            <rect class="cls-90" width="303.27" height="193.55"/>
        </clipPath>
    </defs>
    <title>Element 4</title>
    <g id="Ebene_2" data-name="Ebene 2">
        <g id="Ebene_1-2" data-name="Ebene 1">
        <g id="cruncher">
            <g class="cls-5">
                <rect width="300" height="200" transform="translate(1411.43 367.71)" fill-opacity="0"/>
            </g>
            <g class="cls-5">
                <path class="cls-6" d="M1558.66,530.51a59.24,59.24,0,1,0-59.24-59.24,59.24,59.24,0,0,0,59.24,59.24"
                      transform="translate(0 0)"/>
            </g>
            <text class="cls-7" transform="translate(1531.43 487.71)">13%</text>
            <g class="cls-8">
                <path class="cls-9"
                      d="M1410.91,529.84c-.47-5.85,1.81-10.91,4.58-15.82a22.22,22.22,0,0,1,4.31-5.53,3.34,3.34,0,0,1,2.56.43,1.32,1.32,0,0,1,.61,1,26.1,26.1,0,0,0,6.75,13.7c.18.15.26.41.49.54a2.34,2.34,0,0,1-.51-1,9,9,0,0,1,2.68-7.1c1-1.07,1.85-2.52,3.59-2.68,3.69.88,7.28,2.12,10.92,3.17,7.79,2.24,15.62,4.29,23.71,5.13,7.14.74,14.21,0,21.26-1.06a48.18,48.18,0,0,0,15.05-4.72,55.88,55.88,0,0,0,9.56-6.42A22.07,22.07,0,0,1,1520,507a4.24,4.24,0,0,1,4-.34c5.88,1.59,8.67,6.17,10.67,11.35,1.49,3.84,2,7.81.34,11.8H1410.91Z"
                      transform="translate(0 0)"/>
            </g>
            <g class="cls-8">
                <path class="cls-10"
                      d="M1524,506.7a8.19,8.19,0,0,0-6.06,2.16,60.12,60.12,0,0,1-13.43,8.61c-6.09,2.66-12.56,3.58-19.09,4.39-13.14,1.62-25.69-1.12-38.14-4.79-3.83-1.13-7.63-2.35-11.44-3.52.1-1.06,1.05-1.14,1.74-1.45a52.68,52.68,0,0,1,9.38-2.87,30.38,30.38,0,0,0,9.92-4.36A27.64,27.64,0,0,0,1467,492.4c1.13-2.74,1.13-5.68,1.11-8.61,0-.84-.24-1.76.48-2.48.78-.37,1-3.05-.11-3.67a1.35,1.35,0,0,1-.44.07,56.53,56.53,0,0,1-17.55-8.23,4.46,4.46,0,0,1-1-.91c-.07-.13-.11-.31-.22-.39-4.81-3.69-7.1-8.85-8.37-14.57-.31-1.42-.71-2.49-2.39-2.84a6.51,6.51,0,0,1-3.29-2.43c-2.6-3-4.62-6.26-5-10.29a8.07,8.07,0,0,1,1.7-6.46,2.76,2.76,0,0,1,.7,1.66c.1.4.12.87.58,1s.86-.28,1.09-.66a21.56,21.56,0,0,0,3.22-6.43,3.15,3.15,0,0,0-.13-2.26c-.46-2.12,0-2.61,2.06-2.06a137.18,137.18,0,0,0,21.19,3.61c1.18.12,2.36-.05,3.53.18a4.18,4.18,0,0,0,1.89.16q7.44,0,14.86,0a4.08,4.08,0,0,0,1.9-.15,134.45,134.45,0,0,0,23.66-3.83c1.7-.43,2-.14,2.16,1.5a6.38,6.38,0,0,0-.09,3.1,14.64,14.64,0,0,0,2,5.73c.37.56.7,1.24,1.47,1.19s.87-.89,1.08-1.49c.54-1.52.77-1.61,1.89-.62.81,2.68,1.3,5.36.4,8.13a19.73,19.73,0,0,1-6.26,9.48,3.44,3.44,0,0,1-1.43.87c-1.91.24-2.39,1.58-2.67,3.15-1.83,10.37-9,16.06-17.9,20.08a2.54,2.54,0,0,0-1.8,2.85c.23,4.24.08,8.51.73,12.73a5.49,5.49,0,0,0,4.12,5c8.56,2.6,17.09,5.3,25.63,8a21.51,21.51,0,0,1,8.25,4.25"
                      transform="translate(0 0)"/>
            </g>
            <g class="cls-8">
                <path class="cls-11"
                      d="M1514.94,432.23c-1-.64-1.41-.47-1.54.78-.08.72-.2,1.76-1.28,1.83-.92.07-1.38-.63-1.84-1.35a16,16,0,0,1-2.13-5.92,11.82,11.82,0,0,1,0-3c.11-1.74.1-1.77-1.57-1.33a170,170,0,0,1-17.87,3.4c-2,.31-24,.62-24.51.46a110.53,110.53,0,0,1-13.72-1.4c-3.89-.59-7.71-1.58-11.56-2.42-1.72-.37-1.76-.35-1.32,1.3.06.2.09.4.14.6a6.23,6.23,0,0,1,0,2.11,24.9,24.9,0,0,1-3.39,6.78c-.28.47-.7,1-1.35.78s-.75-.74-.84-1.32-.24-1.27-.36-1.91c-.36-2.38-1.2-4.64-1.6-7A44,44,0,0,1,1455,377.21l1.52-.72c1.28-1.23,3-1.59,4.57-2.06a44,44,0,0,1,24.84,0,7.4,7.4,0,0,1,3,1.42c10.21,4,18.17,10.64,23.35,20.35,6.18,11.59,7,23.66,2.63,36.07"
                      transform="translate(0 0)"/>
            </g>
            <g class="cls-8">
                <path class="cls-11"
                      d="M1468.48,481.5c0,2.91.23,5.86-.44,8.73-1.21,5.18-4.26,9.25-8.1,12.78-4.54,4.17-10.11,6.09-16,7.43a22.53,22.53,0,0,0-8.12,3.11c-3.59,2.28-6,5.28-5.81,9.79.11.34.24.69-.35.66a24.84,24.84,0,0,1-7.08-13.91c0-.3-.16-.58-.23-.87-.85-.91-.54-1.86-.13-2.82.32-9.26,4.42-16.4,12.06-21.57,2-1.31,3.87-2.67,5.82-4,4.52-3,7.94-6.88,9.32-12.27,1.59.49,2.72,1.72,4.09,2.55a66.8,66.8,0,0,0,13.73,6,2.23,2.23,0,0,1,.8.4c.87,1.24.68,2.59.41,3.95"
                      transform="translate(0 0)"/>
            </g>
            <g class="cls-8">
                <path class="cls-11"
                      d="M1489,375.81a47.77,47.77,0,0,0-14.2-2.72,45,45,0,0,0-18.22,3.4c7.37-11.35,24.72-11.72,32.42-.68"
                      transform="translate(0 0)"/>
            </g>
            <g class="cls-8">
                <path class="cls-12" d="M1429.69,524c.3-.13.24-.44.35-.66.24.34.45.75.15,1.08-.14.15-.4-.18-.5-.42"
                      transform="translate(0 0)"/>
            </g>
            <g class="cls-8">
                <path class="cls-13"
                      d="M1468.48,481.52c-.14-1.31-.43-2.81-.57-4.13.14,0,.61.07,1.12.12a23,23,0,0,1,3.24.56,10.47,10.47,0,0,0,7.09-.56c2.3-1,3.11-1.69,4.93-2.14.21,0,.41-.1,1.32-.3a5.78,5.78,0,0,0-.28,1.85c0,1.32.05,2.55.05,2.55a20.12,20.12,0,0,1-3,1.07,35.23,35.23,0,0,1-9.28,1.19,42.89,42.89,0,0,0-4.63-.21"
                      transform="translate(0 0)"/>
            </g>
            <g class="cls-14">
                <text class="cls-15" transform="translate(1411.76 563.95)">CRUNCHER</text>
            </g>
        </g>
        <g id="gurus">
            <rect width="240" height="200" transform="translate(1182.06 125.87)" fill-opacity="0"/>
            <g class="cls-5">
                <path class="cls-6" d="M1367.77,292.27a53.91,53.91,0,1,0-53.92-53.91,53.91,53.91,0,0,0,53.92,53.91"
                      transform="translate(0 0)"/>
            </g>
            <text class="cls-7" transform="translate(1339.06 249.87)">10%</text>
            <g class="cls-16">
                <path class="cls-17"
                      d="M1229.19,188.23a75.13,75.13,0,0,0,4.37,17.15c.19.51.1,1.11.55,1.64.05.11.24-.23.07-.09s-.13,0-.16-.06a7.17,7.17,0,0,1-.52-3.77,55.72,55.72,0,0,0,0-10.17,22.06,22.06,0,0,1,.69-6.17,99.18,99.18,0,0,1,3.57-13.88c.78-2.34.81-2.37,3.35-2.31,1,0,2-.22,2.94.44a.41.41,0,0,1-.09.51,1.22,1.22,0,0,1-.82-.06c8.39-.25,16.79-.33,25.23,0a2,2,0,0,1-1.16.07.4.4,0,0,1-.17-.49,1.91,1.91,0,0,1,1.41-.46c1.81-.08,3.62-.31,5.41-.31,5.31,0,10.6-.54,15.9-.81a4,4,0,0,1,3.33,1.27,16.64,16.64,0,0,1,5,11.85c0,3.38-.08,6.77-.21,10.15a59.34,59.34,0,0,0,.69,10.8,15,15,0,0,1,.23,2.64,108.1,108.1,0,0,0,1.85-11.06,20.84,20.84,0,0,1,.61-4.52,5.5,5.5,0,0,1,.63-1.57c3.26-.55,6.18,1.8,6.78,6a12.31,12.31,0,0,1-.24,4.82,24.19,24.19,0,0,1-4.74,10.67,1.94,1.94,0,0,1-1.35.92,12.67,12.67,0,0,1-4,2.78c-1.21,3.26-2,6.68-3.36,9.86a10.82,10.82,0,0,1-2.8,4.3c-3.07,3-5.52,5.66-9.08,8.14-.47.33-1.14.82-2.13,1.43-6,4.69-12.42,8.3-20.54,6.55a23.5,23.5,0,0,1-6.77-3c-1.59-.92-3.33-1.7-4.56-3.18a111.38,111.38,0,0,1-10.85-8.76,14.42,14.42,0,0,1-3.43-5.36,50.64,50.64,0,0,1-2.71-8.5c-.11-.56-.16-1.17-.88-1.5-4.18-2-6.18-5.72-7.9-9.7-1.63-3.76-2.12-7.83-.63-11.5s6.47-5.22,6.53-4.7"
                      transform="translate(0 0)"/>
            </g>
            <g class="cls-16">
                <path class="cls-18"
                      d="M1186.43,291.9c.52,0,1.93-10.22,7.74-18,3.58-4.78,9.12-8,15.45-9.63,8-2.07,15.85-4.77,23.81-7,2.35-.67,4.6-1.67,7.07-2a5.45,5.45,0,0,1,2.3.36c16.22,4.88,30.24,1.72,46.84-1.72,1.3-.27,3.78,1.12,4.47,1.33,8.17,2.48,16.32,5,24.52,7.41,3.75,1.1,7.83,2.06,11.41,3.69a28.36,28.36,0,0,1,13.88,13.91c.86,1.87,4,12,3.56,11.64"
                      transform="translate(0 0)"/>
            </g>
            <g class="cls-16">
                <path class="cls-19"
                      d="M1301.72,190.5c-.7,5.81-1.23,11.66-2.94,17.81-.31-1.84-.58-3.21-.76-4.59s-.29-2.93-.42-4.39a122.4,122.4,0,0,1,0-12.85,26.76,26.76,0,0,0-.62-8.07,17.49,17.49,0,0,0-4.91-7.78,1.84,1.84,0,0,0-1.5-.63c-7.81.69-15.66.9-23.49,1.22-1.55.63-3.15.19-4.73.27a121.34,121.34,0,0,0-13.62,0c-1.58-.08-3.19.37-4.74-.28-1.35-.05-2.7-.06-4-.15-.62,0-1.08,0-1.3.72-2.21,6.91-4.22,13.86-4.76,21.15,0,3.49-.06,7,0,10.48.11,1.39.22,2.78.34,4.18a45.83,45.83,0,0,1-3.78-10.13c-.94-3.41-1.34-6.93-2-10.39-.12-1.48-.29-8.07-.13-10.44A59.36,59.36,0,0,1,1231,160.4c1-3.22,3.55-5.65,6.08-7.91.65-.59,2.34-2.48,8.29-5a29.17,29.17,0,0,1,8.78-2.93c.39,0,4-.48,5.44-.82,1.3-1,2.87-.79,4.34-1,.81-.77,0-1.36-.32-1.88s-2.94-2.09-3.35-2.81a8.33,8.33,0,0,0-4.65-1.81s-5.6-.57-7.54-.91c-.81-1.26,3.76-2.82,5.16-3.45.72-.18,1.45-.27,2.17-.44a22,22,0,0,1,8.52,0c4.09,1.3,8.18,2.67,12.53,2.86a33.47,33.47,0,0,0,4,.33c.59.18,5.06.61,6.45,1.61.41.23.82.49,1.21.76a22,22,0,0,1,2.82,2.63c1.08.9,1.32,2.26,1.89,3.44a13.17,13.17,0,0,1,.29,3.86,9.85,9.85,0,0,1-.53,1.93c-.28.92-1.42,1.73-.37,2.82.45.49,4.22,4.3,4.75,4.7.2.21.88,1.25,1.09,1.53.08.11.64.92.82,1.23a8.56,8.56,0,0,1,.56,1.28,14.59,14.59,0,0,1,.64,2.93,3.7,3.7,0,0,1-.1,1.78c.23,1.14.45,2.27.68,3.41,1,1.65,1.08,6.83,1.28,7.57s.16,3.84.17,4.45c0,2.3-.34,9-.44,10"
                      transform="translate(0 0)"/>
            </g>
            <g class="cls-16">
                <path class="cls-17"
                      d="M1288.11,254.26c-5,2.16-9.18,4.34-14.55,5a68,68,0,0,1-31.15-3.29c-.52-.19-1-.42-1.54-.64a7.7,7.7,0,0,1,3.11-1.2c2.76-.68,4-2.66,4.38-5.19a55.32,55.32,0,0,0,.48-5.55c.17-.13.24-.11.39,0a5.21,5.21,0,0,0,1.41,1.65c5.77,3.38,11.86,5.28,18.6,3.76a36.93,36.93,0,0,0,10-3.93,2.43,2.43,0,0,1,1.72-.58c.12,1.06.32,1.68.5,2.59.24,1.17.52,2.12.86,3.26a5.26,5.26,0,0,0,3.61,3.51c1.13.4.74.18,2.13.61"
                      transform="translate(0 0)"/>
            </g>
            <g class="cls-16">
                <path class="cls-20"
                      d="M1281,244.36c-5.5,3.31-11.28,5.85-17.86,5.38a27.27,27.27,0,0,1-13.44-4.68,1.72,1.72,0,0,1-.86-1.53,17.27,17.27,0,0,0,.11-2.2c0-1,0-2.05,0-3.08,2.39,1.36,4.74,2.8,7.18,4.06,6.44,3.32,12.69,2.7,18.81-.93a39.88,39.88,0,0,1,6-3.45l.09,3.35c0,1.05,0,1.64,0,3.08"
                      transform="translate(0 0)"/>
            </g>
            <g class="cls-16">
                <path class="cls-21"
                      d="M1267.06,171.4h2.66v.26h-28l0-.26h2.3a43,43,0,0,1,6.21-.28c5.39-.15,10.8-.09,16.19.12a1.33,1.33,0,0,1,.65.16"
                      transform="translate(0 0)"/>
            </g>
            <g class="cls-16">
                <path class="cls-22" d="M1276.86,171.33h-3.62a7.16,7.16,0,0,1,3.62,0" transform="translate(0 0)"/>
            </g>
            <g class="cls-16">
                <path class="cls-23"
                      d="M1287,261.61c-3.18,1.74-7.25,2.58-10.73,3.35a66.76,66.76,0,0,1-14.86,1.44c-.49,0-5.75-.36-6.7-.56-.12-.08,5.11.1,5.15,0s.08-.11.13-.11a68.64,68.64,0,0,0,26.61-4.47c.26-.1-.44.39-.16.36Z"
                      transform="translate(0 0)"/>
            </g>
            <g class="cls-16">
                <path class="cls-23"
                      d="M1259.94,265.76c0,.11.11.29.1.4-9.67.28-23.51-4.75-27.31-7.78a65.1,65.1,0,0,0,27.21,7.38"
                      transform="translate(0 0)"/>
            </g>
            <g class="cls-16">
                <path class="cls-23" d="M1286.26,261.43c2.72-1.35,5.59-2.48,8.31-3.83-2.56,1.71-7.37,4.25-10.4,4.94Z"
                      transform="translate(0 0)"/>
            </g>
            <g class="cls-16">
                <path class="cls-24"
                      d="M1262.3,171h-13.53c.48-.45,1.07-.27,1.61-.27,3.44,0,6.87,0,10.31,0,.54,0,1.14-.17,1.61.28"
                      transform="translate(0 0)"/>
            </g>
            <g class="cls-16">
                <path class="cls-19"
                      d="M1233.6,220.6c5.27,6.73,11.57,12.1,19.75,14.93,3.59,1.24,7.18,1.37,10.64-.5a2.59,2.59,0,0,1,2.41-.17c6.78,3.34,12.44.66,17.91-3.25A49.55,49.55,0,0,0,1296,219.87c.1-.14.25-1.42.78-.18-1.48,8-5.92,14-12.34,18.7-1,.75-2,1.52-3.07,2.28a4.87,4.87,0,0,1-1.8,1.44,27.76,27.76,0,0,1-12.88,3.66,25.7,25.7,0,0,1-15.8-4.38,3.46,3.46,0,0,1-1.2-1.35c-4.72-3.44-9.32-7-12.73-11.86a27.5,27.5,0,0,1-3.45-6.6c-.12-.35-.46-.7.09-1"
                      transform="translate(0 0)"/>
            </g>
            <g class="cls-14">
                <text class="cls-15" transform="translate(1228.95 324.78)">GURUS</text>
            </g>
        </g>
        <g id="lynchpins">
            <rect width="200" height="200" transform="translate(855.99 65.84)" fill-opacity="0"/>
            <g class="cls-5">
                <path class="cls-6" d="M1009.4,226.77a38.26,38.26,0,1,0-38.26-38.26,38.25,38.25,0,0,0,38.26,38.26"
                      transform="translate(0 0)"/>
            </g>
            <text class="cls-7" transform="translate(987.99 198.84)">3%</text>
            <g class="cls-25">
                <path class="cls-26"
                      d="M964.77,195s.09-.08.1-.12c.58-1.68.94-1.92,3.77-.8,3.43,1.37,6.59,2.27,9.53,4.61a13.64,13.64,0,0,1,4.48,5.91c1.18,1.83.81,3.89.6,5.82a32.84,32.84,0,0,1-6,15.71,4.59,4.59,0,0,1-1.64,1.52H912.93a1.63,1.63,0,0,0-1.08-.17H890.36a1.63,1.63,0,0,0-1.08.17H875.22a6.66,6.66,0,0,1-2.5-3.16c-3.44-6.59-4.82-13.44-2.12-20.73a4.43,4.43,0,0,1,1.43-2.15,18.55,18.55,0,0,1,12.2-8.05c.88-.18,4.51-.27,4.51-.27a2.24,2.24,0,0,0,0,.65,1.11,1.11,0,0,0,.12.49,2.16,2.16,0,0,1,.89,1.05c2.87,7.39,8.25,12,15.21,14.7a61.13,61.13,0,0,0,35.61,2.6c8.53-1.93,17-8.32,19.6-10.61a16.88,16.88,0,0,0,3.38-5.09c.36-.72.5-1.58,1.2-2.08"
                      transform="translate(0 0)"/>
            </g>
            <g class="cls-25">
                <path class="cls-27"
                      d="M872,201.65c-4.2,8.66-2.6,16.75,2.21,24.53.32.51.65,1,1,1.51h-15c.53-9.82,3.41-18.55,10.64-25.29.35-.34.65-.75,1.19-.75"
                      transform="translate(0 0)"/>
            </g>
            <g class="cls-25">
                <path class="cls-27"
                      d="M975.57,227.69a33.81,33.81,0,0,0,7.19-16.76,21.32,21.32,0,0,0-.11-6.28c4.22,4.08,6.3,9.35,7.58,15a31.23,31.23,0,0,1,1,8Z"
                      transform="translate(0 0)"/>
            </g>
            <g class="cls-25">
                <path class="cls-28" d="M889.28,227.69c.36-.47.87-.33,1.33-.33q10.5,0,21,0c.46,0,1-.14,1.33.33Z"
                      transform="translate(0 0)"/>
            </g>
            <g class="cls-25">
                <path class="cls-29"
                      d="M912,178c-18.83-8.24-29-23.54-32.63-44-2.07-11.64-.35-22.92,2.22-34.39,4-18,21.43-31.29,34.78-32.89,10.6-1.27,21.3-1.65,31.18,3.89,6.88,3.87,13.8,7.68,19.06,14,5.95,7.15,9.54,15.17,9,24.84a11.58,11.58,0,0,1-.46,3.61c-1.43,3.56-1.13,7.26-1.25,11-.43,12.88-3.74,24.81-10.9,35.44a1.27,1.27,0,0,0-.16,1.58c2.64,5.14,1.89,9.92-2,14.14-.79.85-2.16,1.28-2.2,2.79a.62.62,0,0,1-.7-.25c-2.43-2.59-5.48-.55-6.17,2a13.57,13.57,0,0,1-3.77,6.41,25.24,25.24,0,0,0-4.26,4.44c-.23.37-.59.68-1.07.29a17.07,17.07,0,0,1-4.29-11.17c-.12-2.6,0-5.21,0-7.82a20.29,20.29,0,0,1,.13-4c.37-1,1.29-1.29,2.09-1.69A61.32,61.32,0,0,0,951.45,159a20.69,20.69,0,0,0,6.61-10.6c.59-2,1.19-4,1.64-6.1a3.05,3.05,0,0,1,1.93-2.42,12.14,12.14,0,0,0,5.12-4.63,21.32,21.32,0,0,0,3.79-8.91,6.55,6.55,0,0,0,0-2.78c-1.32.94-2.28,2.12-3.44,3a24.8,24.8,0,0,1-4.91,3.11,5.86,5.86,0,0,1-2.47.62c-1.57,0-2.23-.58-2.4-2.23a56.92,56.92,0,0,0-1.18-6.72c-1.57-7-6-10.72-12.43-12.4a27.72,27.72,0,0,0-8.41-.64,41.1,41.1,0,0,1-15.89-2.27,92.76,92.76,0,0,1-11.53-4.9,2.42,2.42,0,0,0-3,.36,32.07,32.07,0,0,0-8.27,9.84,19.75,19.75,0,0,1-7.71,8.22c-1.9,1.1-3.86,2-6,.8-.69-.36-1,.11-1.18.67a10,10,0,0,0-.74,4.56,21.67,21.67,0,0,0,5.88,12.14,8.8,8.8,0,0,0,3.2,2.16,2.91,2.91,0,0,1,1.77,2.18c.36,1.46.86,2.87,1.17,4.34,1.49,7.14,5.66,12.16,11.39,16,2.21,1.48,4.55,2.67,6.87,3.91.71.37,1.49.66,1.81,1.54a20.62,20.62,0,0,1,.15,4.08,27,27,0,0,1-.36,4.92c-.05.47-.11,1-.73,1.11"
                      transform="translate(0 0)"/>
            </g>
            <g class="cls-25">
                <path class="cls-27"
                      d="M912,178c.71-2,.51-4,.67-6.06.6-.5,1.22-.21,1.82,0a38.57,38.57,0,0,0,22.47,0c.6-.18,1.22-.47,1.81,0,0,2.72,0,5.44.07,8.14A19.15,19.15,0,0,0,943.08,191a1.72,1.72,0,0,1-.14,1.12,9,9,0,0,0,0,6.89,33.85,33.85,0,0,0,.88,4.87c.7,2.69-.39,4.86-2.14,6.75-.33.35-.74.61-1.09,1,.43.5,2.61.19,2.91.83a12,12,0,0,1-2.73.93,58.43,58.43,0,0,1-19,1.29,54.8,54.8,0,0,1-19.24-5,24.92,24.92,0,0,1-13.35-14.47,2.89,2.89,0,0,1-.35-1.1c6.1-2,12.39-3.81,18.52-5.73,2.42-.76,4.06-2.16,4.42-4.8.26-1.82.91-3.64.29-5.51"
                      transform="translate(0 0)"/>
            </g>
            <g class="cls-25">
                <path class="cls-29"
                      d="M942.54,199a8.82,8.82,0,0,1,.54-8.08,16.86,16.86,0,0,1,3.71-4.23,12.91,12.91,0,0,0,4.54-7,4.49,4.49,0,0,1,3.7-3.66,3.63,3.63,0,0,1,3.61,1.89c2.81,4.33,3,9,1.45,13.79-.17.52-.36,1-.55,1.55a3,3,0,0,1-1.75,2.57,7.35,7.35,0,0,1-2.58-.78,11.54,11.54,0,0,0-7.23-.18,7,7,0,0,0-4.33,3.17c-.25.42-.35,1.13-1.11.95"
                      transform="translate(0 0)"/>
            </g>
            <g class="cls-25">
                <path class="cls-27"
                      d="M957.93,195.65l1.61-2.34,5.23,1.73c-.9,2.77-2.56,6.68-4.73,8.66a30.89,30.89,0,0,0-2.11-8"
                      transform="translate(0 0)"/>
            </g>
            <g class="cls-25">
                <path class="cls-29"
                      d="M957.93,195.65c1.73,1.88,2.9,4,2.58,6.73-1.5,6.36-6.14,8.72-11.65,9.93a18.35,18.35,0,0,1-6.77.11,7.13,7.13,0,0,1-2.5-.57c.57-.49,1.13-.9,1.63-1.39,2-1.92,3-4.18,2.07-7a17.25,17.25,0,0,1-.74-4.4c2.57-5.61,9.5-6,14.21-3.86.38.18.78.32,1.17.47"
                      transform="translate(0 0)"/>
            </g>
            <g class="cls-25">
                <path class="cls-27"
                      d="M912.62,167.62c-4.77-2.34-9.42-4.87-13.36-8.63a22.53,22.53,0,0,1-6.15-10.13c-.68-2.33-1.3-4.69-1.89-7.05-.19-.76-.46-1.26-1.26-1.45a5.72,5.72,0,0,1-2.75-1.61c-4.28-4.34-7.31-9.26-6.59-15.85a7.37,7.37,0,0,1,1.4-3.65c2.13,2.19,4.32,1.27,6.47,0a18.65,18.65,0,0,0,7.38-7.63A34,34,0,0,1,905,100.83a2.05,2.05,0,0,1,2.65-.3c6.54,3.38,13.3,6.14,20.6,7.19a38.28,38.28,0,0,0,7.18.15,28.51,28.51,0,0,1,8.87.78c7.31,2,11.46,7,12.74,14.74a26.5,26.5,0,0,1,.61,4.78c0,1.41.74,1.85,1.94,1.77a10.36,10.36,0,0,0,4.71-1.89,31,31,0,0,0,6.38-5.55,9.41,9.41,0,0,1,0,5.54,21.87,21.87,0,0,1-5.9,10.29,4.37,4.37,0,0,1-1.79,1.35c-2.53.56-2.87,2.61-3.36,4.72-1.06,4.56-2.4,9-5.5,12.59a26.66,26.66,0,0,1-5.75,4.95,65.45,65.45,0,0,1-9.51,5.68,3.58,3.58,0,0,1-1.72,1.15,80.93,80.93,0,0,1-9.09,3.07,8.56,8.56,0,0,1-4.86-.1,85.61,85.61,0,0,1-8.79-3,3.79,3.79,0,0,1-1.72-1.16"
                      transform="translate(0 0)"/>
            </g>
            <g class="cls-25">
                <path class="cls-30"
                      d="M912.62,167.62c3.23,1.23,6.52,2.3,9.76,3.47s6.13.19,9.08-.77c2.48-.82,4.9-1.79,7.34-2.7l0,4.34c-2.48.53-4.87,1.39-7.4,1.72a39.85,39.85,0,0,1-17.49-1.42c-.4-.13-.81-.2-1.22-.3,0-1.44,0-2.89,0-4.34"
                      transform="translate(0 0)"/>
            </g>
            <g class="cls-14">
                <text class="cls-31" transform="translate(865.66 260.71)">LYNCHPINS</text>
            </g>
        </g>
        <g id="geeks">
            <g class="cls-5">
                <rect width="300" height="260" transform="translate(476.75 0.76)" fill-opacity="0"/>
            </g>
            <g class="cls-5">
                <path class="cls-6"
                      d="M595.26,227.69A113.85,113.85,0,1,0,481.42,113.85,113.84,113.84,0,0,0,595.26,227.69"
                      transform="translate(0 0)"/>
            </g>
            <g class="cls-32">
                <path class="cls-33"
                      d="M712.89,186.23a46.08,46.08,0,0,1,5.4,1.65c7.87,2.54,15.72,5.16,23.63,7.59,3.51,1.08,7.05,2,10.29,3.85a30.57,30.57,0,0,1,11.92,12,35.61,35.61,0,0,1,4.23,13.47c.11.94.28,1.86.42,2.79H606a38.2,38.2,0,0,1,5.81-18.29,29.72,29.72,0,0,1,17.52-12.82c6.08-1.66,12-3.77,18-5.66,4.61-1.46,9.2-3,13.81-4.51a3.07,3.07,0,0,1,.53-.06c.62,0,1,.44,1.38.77a36.25,36.25,0,0,0,18.52,8.26,37.58,37.58,0,0,0,29.76-8,3.61,3.61,0,0,1,1.52-1"
                      transform="translate(0 0)"/>
            </g>
            <g class="cls-32">
                <path class="cls-34"
                      d="M641,121.6a10.31,10.31,0,0,1,1.1-4.26,5.82,5.82,0,0,1,5.85-3.47,2.23,2.23,0,0,1,.48,1.63,93.2,93.2,0,0,0,2.29,16.05c.29,1.21.71,2.38,1.1,3.56a2.41,2.41,0,0,0,.21.5c.26.48.51,1,1.09,1.07s.87-.58,1.06-1.08a13,13,0,0,0,1-7.29,30.49,30.49,0,0,0-1.2-4.43,39,39,0,0,1-1.62-19.47,23.05,23.05,0,0,0,.16-7.64,6.1,6.1,0,0,1,0-1.54,3,3,0,0,1,2-2.82,37.1,37.1,0,0,1,7.43-1.72c5.17-.78,10.09.73,15.06,1.76,4,.83,7.95,1.86,11.92,2.81,7.13,1.7,14,.78,20.79-1.88a56,56,0,0,0,7.1-3.45c1-.56,1.27-.48,1.69.56A65,65,0,0,1,723.17,108a52.74,52.74,0,0,1-1.81,19.88,17.84,17.84,0,0,0-.69,4,5.37,5.37,0,0,0,2.62,4.92c.61.41.94.25,1.08-.51.67-3.78,1.24-7.58,1.6-11.41.32-3.27.56-6.56.64-9.85a1,1,0,0,1,.32-.89c2.7.19,4,2.12,5,4.45a14.32,14.32,0,0,1,.7,3.06,18.68,18.68,0,0,1,0,3.26,25.27,25.27,0,0,1-7.25,14.51,5.09,5.09,0,0,1-2.51,1.49,1.29,1.29,0,0,0-1.08,1.22,66,66,0,0,1-3.2,10.82,20.5,20.5,0,0,1-5.9,8.3c-2.91,2.58-5.94,5-9,7.44a1.76,1.76,0,0,1-.71.77,59.07,59.07,0,0,1-9.5,5.68,13.12,13.12,0,0,1-4.88,1,31.45,31.45,0,0,1-6.13-.22,11.43,11.43,0,0,1-3.36-1.15,55,55,0,0,1-8.4-5.08,2.23,2.23,0,0,1-.8-.84c-2.47-1.93-5-3.77-7.4-5.81-2.86-2.44-5.75-4.89-7.3-8.62A76,76,0,0,1,651.34,142c-.1-.46-.2-.87-.65-1-2.29-.74-3.78-2.53-5.11-4.45a26.21,26.21,0,0,1-4.36-9.9c-.12-.58-.05-1.16-.2-1.72a18.68,18.68,0,0,1,0-3.26"
                      transform="translate(0 0)"/>
            </g>
            <g class="cls-32">
                <path class="cls-35"
                      d="M726.93,114.09a139.65,139.65,0,0,1-2.56,23.51c-3.24-1.37-4.53-3.88-3.85-7.37.61-3.11,1.55-6.14,2-9.29a49.39,49.39,0,0,0-1.36-21.49c-.89-3-1.84-6-3-8.88-.29-.73-.49-.91-1.23-.47a45.58,45.58,0,0,1-14.26,5.69,35.41,35.41,0,0,1-15.92-.67c-5.91-1.48-11.83-3-17.82-4a28.67,28.67,0,0,0-14.68,1.66,2.07,2.07,0,0,0-1.35,1.55,3.8,3.8,0,0,0-.18,1.4c.64,3.82,0,7.58-.42,11.35a37.33,37.33,0,0,0,2.23,17.65,14.54,14.54,0,0,1,.28,10.07,6.27,6.27,0,0,1-.91,2,.84.84,0,0,1-1.49,0,7.32,7.32,0,0,1-1.18-2.43,68.87,68.87,0,0,1-2.67-13.83c-.25-2.21-.42-4.44-.62-6.66l-.06-4a3.61,3.61,0,0,1,0-1.31c0-1.24.21-5.51.21-5.52,0-.55.22-2.64.22-2.66,0-.36.16-1.56.21-1.93.53-4.07,1.52-8.46,2.4-12.66.91-4.36,3.35-7.54,6.3-10.37a37,37,0,0,1,18-9.28c1.88-.43,3.79-.68,5.69-.93.49-.19,1,.08,1.49-.17h10.82c.47.26,1,0,1.47.16A44.12,44.12,0,0,1,711,70.16a33.14,33.14,0,0,1,12.32,11.48,12.24,12.24,0,0,1,1.26,4.62c.59,3.26,1,6.55,1.54,9.82.15.35.39,4,.41,4.4.18.5.33,4.61.37,5.52,0,2.69,0,5.39,0,8.09"
                      transform="translate(0 0)"/>
            </g>
            <g class="cls-32">
                <path class="cls-34"
                      d="M712.41,186.41c-2.09,2.18-5.27,4-7.85,5.38a35.74,35.74,0,0,1-13.38,3.89,36.2,36.2,0,0,1-27.3-7.82c-.66-.52-1.28-1.11-1.93-1.67a8.78,8.78,0,0,1,2.55-.88c2.9-.78,4.35-2.85,4.72-5.85.22-1.7.33-3.42.49-5.12a.56.56,0,0,1,.47.17,29.2,29.2,0,0,0,14.11,5.6c4.06.61,8-.5,11.74-2a44.61,44.61,0,0,0,6.18-2.92,2.11,2.11,0,0,0,1.23-2.28,1.84,1.84,0,0,1,.19-1.17c.08-.11,0-.4.12-.31a40.06,40.06,0,0,0,.78,8.87,5.85,5.85,0,0,0,4.23,4.88c.92.26,2.62.89,3.65,1.22"
                      transform="translate(0 0)"/>
            </g>
            <g class="cls-32">
                <path class="cls-36"
                      d="M703.75,171.65a2.87,2.87,0,0,0,0,.77c.06,2.56-.48,2.64-1.88,3.37a41,41,0,0,1-13,4.63,20.44,20.44,0,0,1-8.83-.88,38.87,38.87,0,0,1-7.82-3.24,7.72,7.72,0,0,1-2.45-2c.06-1.83.13-3.66.19-5.49,2.79,1.85,5.57,3.7,8.51,5.28,3.61,2,7.4,1.88,11.26,1.59s6.7-2.45,9.79-4.29c1.45-.85,2.82-1.86,4.23-2.79,0,.29,0,.59.08.88a8,8,0,0,1,0,2.13"
                      transform="translate(0 0)"/>
            </g>
            <g class="cls-32">
                <path class="cls-37"
                      d="M725.12,110.55c-2.49-.41-8.75-1.08-9.38-1.13a64.31,64.31,0,0,0-8.21-.28c-4,.16-7.91.48-11.6,2.19-1.45.66-2.42.87-3.65,2.94-.61,2.66-2.2,2.68-4.16,2.52a22.33,22.33,0,0,0-3.47,0c-.8.06-1.27-.19-1.41-1-.41-2.41-2.2-3.44-4-4.33a23.49,23.49,0,0,0-7.76-2c-7.27-.81-14.46.06-21.64,1.12-.72.14-1.45.28-2.15.39-1.58.25-1.71.81-1.36,2.21.61,2.38,1,4.23,1.72,4.66a2.47,2.47,0,0,1,1.13,1.8c.24,1.38.48,2.77.66,4.16.79,5.9,3.71,10.05,9,12.25A23.09,23.09,0,0,0,670,137.49c8.5-.77,13.52-6.16,14.09-14.94.18-2.81.39-3,3-3.07.61,0,1.21.08,1.82.12,1.44.08,1.9.69,2,2.39.56,9.43,4.39,13.55,11.54,15.1a23.87,23.87,0,0,0,10.7-.14c7.39-1.75,11.27-6.42,12.1-14.33.16-1.53,0-3.24,1.35-4.44a5.65,5.65,0,0,0,1.54-3.1c.88-4,.89-3.89-3-4.53m-44.18,13c-.81,6.8-4.36,10.57-10.85,11.39a20.92,20.92,0,0,1-6.12,0C657.41,133.76,653.6,129,653,121.4c-.42-5.69,1.87-7.84,7.26-8.59a53.3,53.3,0,0,1,14.12.7c4.94,1.28,7.16,4.67,6.53,10m40.16,3.18c-1.6,4.43-4.56,7.21-9.05,8-4,.7-7.92.63-11.65-1.22-6.25-3.09-7.5-11.63-4.67-17,.8-1.51,2.27-2.06,3.72-2.56,6.14-1.89,14.66-1.16,16.52-1.06,4,.21,6.47,3,6.36,7.18a21.5,21.5,0,0,1-1.23,6.66"
                      transform="translate(0 0)"/>
            </g>
            <text class="cls-7" transform="translate(564.75 122.76)">37%</text>
            <g class="cls-14">
                <text class="cls-15" transform="translate(655.42 261.42)">GEEKS</text>
            </g>
        </g>
        <g id="driver">
            <g class="cls-5">
                <rect width="230" height="200" transform="translate(215.79 134.73)" fill-opacity="0"/>
            </g>
            <g class="cls-5">
                <path class="cls-6" d="M282,300.42a64.16,64.16,0,1,0-64.16-64.16A64.16,64.16,0,0,0,282,300.42"
                      transform="translate(0 0)"/>
            </g>
            <text class="cls-7" transform="translate(251.79 251.73)">14%</text>
            <g class="cls-38">
                <path class="cls-39"
                      d="M442.49,299.23a.54.54,0,0,0-.05.28H315.17a.41.41,0,0,1,.18-.53,4.68,4.68,0,0,1,2.31-.32q61.15,0,122.3,0c.87,0,1.81-.18,2.53.56"
                      transform="translate(0 0)"/>
            </g>
            <g class="cls-38">
                <path class="cls-40" d="M315.23,299.18l-.06.33h-.63v-.31c.39-.19-.21-1.14.71-.93a.75.75,0,0,1,0,.91"
                      transform="translate(0 0)"/>
            </g>
            <g class="cls-38">
                <path class="cls-41"
                      d="M345.41,218.55c.68,0,.7-.51.63-1q-.45-2.84-.92-5.67a12,12,0,0,1,0-4.58,21.09,21.09,0,0,0,.24-5.14,4,4,0,0,1,.09-2.43,80.82,80.82,0,0,1,1.8-9.38c1.75-5.74,4.67-10.45,10.34-13.17,2.8-1.35,5-3.6,7.22-6.06a36.13,36.13,0,0,0,12,16.08,29.34,29.34,0,0,0,19,6.15,50.94,50.94,0,0,1-4.25-9.91.45.45,0,0,1,.68,0c3.76,3.9,8.5,6.69,12.14,10.72,3.28,3.64,5.54,7.75,5.86,12.81a28,28,0,0,0,2.24-9.53,1.85,1.85,0,0,1,.62-1.22c-.08.3-.16.59-.25.89.05,3,.06,5,.15,7.45a10,10,0,0,0,.1,2.32c-.13,4.54-1.54,13.83-1.56,14.47a21.46,21.46,0,0,1-5.26,11.48,39.2,39.2,0,0,1-9.85,7.41c-1.49.8-4.18,2.06-4.69,2.26l-.34.35a45.9,45.9,0,0,1-12.19,3.9,6.86,6.86,0,0,1-3.08-.46,75.6,75.6,0,0,1-8-2.65,2.64,2.64,0,0,0-1.81-.19c0-.74-.41-1.05-1.06-1.3a57.23,57.23,0,0,1-9.73-5.58,45.19,45.19,0,0,1-4.7-4.11,15.2,15.2,0,0,1-2.95-4.19,19.62,19.62,0,0,1-1.66-4.72c-.1-.34-1.17-4.2-1.23-4.61a.84.84,0,0,1,.11-.41.27.27,0,0,1,.37,0"
                      transform="translate(0 0)"/>
            </g>
            <g class="cls-38">
                <path class="cls-42"
                      d="M315.23,299.18l-.12-.91c-.41-.46-.21-1-.23-1.52.44-1.89,2.79-10.84,4.64-14.4a24.15,24.15,0,0,1,3.65-5.05c.31-.34,3.16-2.82,3.7-3.2a26.27,26.27,0,0,1,6.85-3.41c2.35-.8,4.77-1.37,7.1-2.24a1.42,1.42,0,0,1,1.07,0c2.29,2.58,4.51,5.23,7,7.65a60.77,60.77,0,0,0,29.83,16,4.59,4.59,0,0,0,2.18-.05,64,64,0,0,0,27.61-14.44,74.4,74.4,0,0,0,6.94-7.27,3.69,3.69,0,0,1,1.84-1.41,38.33,38.33,0,0,1,12.05,4.29,1.31,1.31,0,0,1,.71.8,30.59,30.59,0,0,1,7.81,8.38,34,34,0,0,1,4.56,14.26c.08.82.76,1.67.08,2.53-1.37,0-2.73,0-4.1,0H317.27l-2,0"
                      transform="translate(0 0)"/>
            </g>
            <g class="cls-38">
                <path class="cls-41"
                      d="M417.21,269.19a22.12,22.12,0,0,0-3.15,3.48,64.29,64.29,0,0,1-31.95,19.56,10.47,10.47,0,0,1-5.53-.13,62.28,62.28,0,0,1-31.42-19.21,21.92,21.92,0,0,1-3.27-4.2c.3-.82,1.09-.92,1.77-1.14,5.15-1.64,10.36-3.05,15.51-4.7.8-.26,1.6-.5,2.4-.77a4.55,4.55,0,0,0,3.21-3.56,47.27,47.27,0,0,0,1.05-6.37,42.74,42.74,0,0,0,.37-5.15c.79-.41,1.6.36,2.34.57a38.7,38.7,0,0,0,20.07.2c2.24-.55,2.28-.64,2.31-3a3.89,3.89,0,0,1,.46-2.27l.34,0c-.05,5.16-.18,10.32.65,15.43a5,5,0,0,0,2.17,3.8,34.8,34.8,0,0,1,6,1.71c5,1.54,10.06,3.16,15.1,4.71.6.19,1.37.22,1.57,1.05"
                      transform="translate(0 0)"/>
            </g>
            <g class="cls-38">
                <path class="cls-41"
                      d="M345.41,218.55h-.34a10.51,10.51,0,0,1-6.72-4.83,25.58,25.58,0,0,1-3.35-7.95c-.37-2.6-.67-5.52,1.22-7.87a3.78,3.78,0,0,1,1.84-1.31,1.82,1.82,0,0,1,1.36-.12c1.15,4.51,2.28,9,3.49,13.51.77,2.87,1.66,5.71,2.5,8.56"
                      transform="translate(0 0)"/>
            </g>
            <g class="cls-38">
                <path class="cls-43"
                      d="M366.2,247.51a9.23,9.23,0,0,0,0-1c0-1,0-1.63.08-3.11.26-.57.48-.82,1.25-.5a69.45,69.45,0,0,0,9.66,3.16,6.68,6.68,0,0,0,3.38,0,71.56,71.56,0,0,0,11.17-3.58c0,.57,0,1.23,0,1.81,0,3.61-.31,3.44-3.83,4.19a40.3,40.3,0,0,1-21-.8,5.61,5.61,0,0,0-.67-.19"
                      transform="translate(0 0)"/>
            </g>
            <g class="cls-38">
                <path class="cls-41"
                      d="M412.71,218.66c.51-1.16,1.1-2.2,1.55-3.17a87.29,87.29,0,0,0,6.23-17.22c.14-.6.3-1.2.45-1.8.43.23.07.75.37,1,2.83,3.2,2.75,6.84,1.43,10.55a19.73,19.73,0,0,1-6.53,9.14,13.64,13.64,0,0,1-3.5,1.48"
                      transform="translate(0 0)"/>
            </g>
            <g class="cls-38">
                <path class="cls-44"
                      d="M413.3,218.34c-1,.67-1.06,1.88-1.59,2.81-1-.48-.48-1.33-.36-2a107.38,107.38,0,0,0,1.51-12.53,61,61,0,0,0-.31-9.28c.17,3.21,0,6.2-1.39,9a16.25,16.25,0,0,1-2,2.79,8.9,8.9,0,0,0,.44-2.57c.37-7-4.57-12.08-9.62-16.27-2.49-2.07-5.12-4-7.46-6.29a34.12,34.12,0,0,0,3,7.35c1,1.77.74,2.24-1.27,2.22a29.05,29.05,0,0,1-15.31-4.71,35,35,0,0,1-14.08-17.36c-1,1.84-2.85,2.9-4.38,4.23a10.89,10.89,0,0,1-2.51,1.62c-5.36,2.49-8.23,7-9.94,12.38-.87,2.76-2.46,7-2,12.64.15,1.09,1.15,6.46.52,6.76-.62-1.22-1-1.62-1.1.48,0,.62,1.58,6.4,1.18,8.37-.1.5-1,1.17-1.17,2.82-.78-.35-4.6-17.56-6.16-24.37-.12-.91-2.17-10.5-2.23-11.23-.1-1.3-1.91-33.81,12.14-38,2.43-.73,4.83-1.45,13.64-.19a23.07,23.07,0,0,1,3.74,1.39c.16-.88-1-2.68,6.72-8.08a22,22,0,0,1,9.39-3.06c1.42,0,2.84,0,4.25,0a37.56,37.56,0,0,1,20.84,9.12c6.06,5.29,9.21,12.44,10.51,15.45,2.07,4.83,5.22,17.51,4.16,26.57-.3,2.57-.57,5.12-1,7.66-1.21,7.35-4.13,14.11-7.24,20.8a4.14,4.14,0,0,1-.91,1.45"
                      transform="translate(0 0)"/>
            </g>
            <text class="cls-15" transform="translate(338.31 333.44)">DRIVER</text>
        </g>
        <g id="deliverer">
            <g class="cls-5">
                <rect width="260" height="200" transform="translate(0.77 364.46)" fill-opacity="0"/>
            </g>
            <g class="cls-5">
                <path class="cls-6" d="M74.05,526.18A74.06,74.06,0,1,0,0,452.12a74.06,74.06,0,0,0,74.05,74.06"
                      transform="translate(0 0)"/>
            </g>
            <text class="cls-7" transform="translate(44.77 464.46)">17%</text>
            <g class="cls-45">
                <path class="cls-46"
                      d="M260,521.53a56.58,56.58,0,0,1,.13,6.53,5.13,5.13,0,0,1-1.91.12H194.46a4.25,4.25,0,0,0-2.06.17h-.35a4.78,4.78,0,0,1-.34-.42c-2-5.89-3.77-11.86-5.69-17.79a1.42,1.42,0,0,0-.15-.48c-1.83-2.27-1-4.27.57-6.28.81-1.09,1-2.53,1.88-3.58.76-.4,1,.28,1.4.64a32.43,32.43,0,0,1,3.13,3.6c.72,1,1.1.84,1.72-.07,3.09-4.53,5.8-8.85,8.94-13.35.54-.77.56-2.26,1.67-2.52A44.84,44.84,0,0,1,211.5,490c8.74,2.73,17.44,5.59,26.27,8.06,1,.27,7.79,3.53,9.39,4.41l2,1.53a26.22,26.22,0,0,1,5.23,5.43c.37.54.75,1.07,1.12,1.6s3.93,6.52,4.46,10.54"
                      transform="translate(0 0)"/>
            </g>
            <g class="cls-45">
                <path class="cls-46"
                      d="M105.33,510.52a29.38,29.38,0,0,1,17-12c6.21-1.67,12.29-3.67,18.43-5.55,4.71-1.44,10-3.35,14.74-4.76.74.33,1.24,1.82,1.66,2.41,3.34,4.81,5.92,9.35,9.26,14.16,1,1.5,1.15,1.5,2.34.08.84-1,1.64-2,2.54-3,.35-.37.63-1,1.4-.66,1.17,1.42,1.66,3.19,2.65,4.7a1.1,1.1,0,0,1,0,1.28c-2.27,3.34-2.78,7.3-4.09,11-1.11,3.11-1.86,6.33-3.07,9.42a1.15,1.15,0,0,1-1,.65h-65a4.28,4.28,0,0,0-2.07.17H99.7c-.38-.52-.12-1.08-.14-1.62.3-1.41.48-2.84.68-4.27a54.39,54.39,0,0,1,2.46-7.4,22.54,22.54,0,0,1,1.58-2.84v0c.41-.52.61-1.17,1-1.68"
                      transform="translate(0 0)"/>
            </g>
            <g class="cls-45">
                <path class="cls-47" d="M192.09,528.36c.33-.44.81-.33,1.24-.33q31.88,0,63.74,0c0,.1,0,.2,0,.3Z"
                      transform="translate(0 0)"/>
            </g>
            <g class="cls-45">
                <path class="cls-47" d="M103.25,528.36c.49-.57,1.15-.33,1.73-.33H167.8c.11.05.15.12.13.2s0,.13-.07.13Z"
                      transform="translate(0 0)"/>
            </g>
            <g class="cls-45">
                <path class="cls-48"
                      d="M167.86,528.36a.88.88,0,0,0-.06-.33c.11-.25.23-.5.35-.74,7,.37,13.94.06,20.91.17a3.82,3.82,0,0,1,2.71.56c0,.11,0,.23,0,.34Z"
                      transform="translate(0 0)"/>
            </g>
            <g class="cls-45">
                <path class="cls-49"
                      d="M221.41,421a3.52,3.52,0,0,1,2.55.26,2.89,2.89,0,0,1,1,1.7,30.72,30.72,0,0,1,.33,3.85c0,1.46,0,3-.08,4.43a10.53,10.53,0,0,1-.75,3.17c-.22.56-.31.87-.58,1.65a27.57,27.57,0,0,1-5.43,7.62,12.86,12.86,0,0,1-3.1,2.23,6.55,6.55,0,0,0-1.84,3.5,43.55,43.55,0,0,1-3.07,8.35,3.34,3.34,0,0,1-1.18,1.59,61.47,61.47,0,0,1-12,10.6,3,3,0,0,0-.42.51c-.37.42-.31.69-.34,1.44a2.45,2.45,0,0,0-1.88.5c-1,.69-2,1.24-3,1.92-4.73,3.38-10,4.21-15.66,3.67a11.67,11.67,0,0,1-3.83-1.17,61,61,0,0,1-8.15-4.69c-.3.75.47,1.92-.81,2.39.54-2.68-.74-4.32-2.92-5.69a62.22,62.22,0,0,1-6.88-5.59c-4-3.4-5.8-8.07-7.35-12.88,0-.1,0-.23-.05-.33-.69-2-1.22-3.71-3.33-5.23a19.58,19.58,0,0,1-7.9-14.45c-.07-1.48,0-1.86,0-3.48.44-3.34,2.13-5.48,2.85-5.83a4.13,4.13,0,0,1,3-.93c.77.21.94.91,1.19,1.52,1.7,4,6.1,11.56,6.05,11.47a5.59,5.59,0,0,1-.29-2.47c0-.62,0-2.68.13-4.23a29.82,29.82,0,0,1,.2-3.68c.91-5.33,1.88-10.75,4.12-15.67,1.63-3.58,4.73-6.49,7.1-9.63a3,3,0,0,1,1.28-1.06.53.53,0,0,1,.6.36,4.5,4.5,0,0,1-.65,2.39,39,39,0,0,0-2.87,13.25c3.79-3.16,8-5.35,11.82-8.09a53.78,53.78,0,0,0,6.64-5.89,6,6,0,0,1,2-1.7.54.54,0,0,1,.53.43,2,2,0,0,1-.34,1.28c-2.31,3.92-3.23,8.34-4.54,12.62a32.86,32.86,0,0,1-1.37,3.77c9.47-4.47,18.56-9.32,26.52-16,1.33-1.11,1.57-1.09,2.63.34,1.2,1.62,2.48,3.17,3.82,4.68a35,35,0,0,1,6,10.64,105.73,105.73,0,0,1,4.92,17.1.84.84,0,0,0,.37.69,74.08,74.08,0,0,0,4-9.56c.2-.61.19-1.38,1-1.63"
                      transform="translate(0 0)"/>
            </g>
            <g class="cls-45">
                <path class="cls-50"
                      d="M147.89,431.36v3.29a72.31,72.31,0,0,1-5.3-9.37c-.68-1.45-5-12.33-5.48-15.06a20.94,20.94,0,0,1,.38-9.31c.43-1.74.94-3.47,1.41-5.2-.11-.41,3.91-7.82,4.7-9a52.74,52.74,0,0,1,4.36-6.12c2.11-2.59,7.16-6.34,7.58-6.73a44.11,44.11,0,0,1,4.1-2.42c.81-.35,4.65-2.13,5.37-2.39,1.43-.42,2.5-.87,4.23-1.33,2.17-.47,4.37-.84,6.58-1.13.64-.1,1.17-.19,1.87-.28.53-.05.93-.06,1.41-.07h7.59a28.66,28.66,0,0,1,15.94,6.2,20.84,20.84,0,0,1,4.2,6,2.1,2.1,0,0,0,1.22,1.3c2.82.95,4.8,3,6.59,5.21a37.1,37.1,0,0,1,5,8.35c.16.36.22.71.44,1.36a60,60,0,0,1,2.22,6.63,17.23,17.23,0,0,1,.53,2.68c0,.95.08,1.56.08,1.82a63,63,0,0,1,0,7.05,26.54,26.54,0,0,1-.37,3c-.43,1.9-.85,3.8-1.28,5.7a68.46,68.46,0,0,1-5.2,12.57c-1-4-1.85-7.77-2.91-11.44-1.76-6.09-3.8-12.09-7.7-17.22-1.62-2.13-3.66-3.94-5-6.28-.47-.81-.84-.1-1.16.18-8.28,7-17.74,12.07-27.52,16.61a1.68,1.68,0,0,1-.4,0c2.6-6,3.31-12.68,6.84-18.31.11-.19.18-.48.08-.59s-.25.2-.43.23a57.68,57.68,0,0,1-13.55,11.2,41.32,41.32,0,0,0-7.37,5.3,38.2,38.2,0,0,1,3.77-16.5c.15-.4.08-.57-.37-.35-12.25,10.17-12.63,31.56-12.47,34.32"
                      transform="translate(0 0)"/>
            </g>
            <g class="cls-45">
                <path class="cls-49"
                      d="M178,491.64a108.79,108.79,0,0,1-11.37-4,14.48,14.48,0,0,1-4.77-3c1.17-2.1.78-4.51,1.3-6.74.57-.22,1,.18,1.38.42A33.61,33.61,0,0,0,178.87,483a19.49,19.49,0,0,0,7.4-1.2,43.72,43.72,0,0,0,8.34-3.47,2.57,2.57,0,0,1,1.83-.44c.17.07.47,3,.7,4a20,20,0,0,1,.85,2.74,1.71,1.71,0,0,1-1.07,1.22,51,51,0,0,1-11.62,4.24,6.73,6.73,0,0,0-3.65,1.74,4.41,4.41,0,0,1-3.67-.22"
                      transform="translate(0 0)"/>
            </g>
            <g class="cls-45">
                <path class="cls-51"
                      d="M187,489.22a40.46,40.46,0,0,0,10.4-4.1c.18-.09.88-.74,1.74-1.45a46.11,46.11,0,0,1,5.56,3.73c.17.17.71.83.21,1.26-3.54,5.29-7.1,10.57-10.58,15.89-.65,1-1,1.26-1.81.16-1.26-1.7-2.65-3.3-4-4.94-1-.13-1.38-1.08-1.9-1.74-1.7-2.1-3.65-4-4.93-6.44a4.62,4.62,0,0,1,2.15-1.16c1.08-.37,1.77-.78,3.14-1.21"
                      transform="translate(0 0)"/>
            </g>
            <g class="cls-45">
                <path class="cls-52"
                      d="M196.48,478.21c-1.79.16-3.12,1.41-4.7,2.08a38.72,38.72,0,0,1-11.39,3.24,19.1,19.1,0,0,1-6.76-.93,32,32,0,0,1-10.49-4.72l0-3.37c.72-.94,0-2.08.47-3.12,3.35,2.11,6.55,4.66,10.39,5.59,4.33,1,8.81,1.31,13.07-.8a55.27,55.27,0,0,0,7.93-4.66c.64-.47,1.11-.57,1.42.3.09,2.16-.08,4,0,6.39"
                      transform="translate(0 0)"/>
            </g>
            <g class="cls-45">
                <path class="cls-53"
                      d="M181.69,491.59c2.51,2.53,4.55,5.45,6.83,8.18-1,2.22-1.68,4.63-3.37,6.49-.35.38-.38.64,0,1a12.34,12.34,0,0,1,2.19,4.43c1.74,5.82,2.74,10.54,4.46,16.36-7.28,0-14.57,0-21.86,0-.64,0-1.54.4-1.76-.72,1.84-6.17,2-12.2,5.53-18.48,2.23-4,1.88-1-.34-5.82-.29-.61-.53-1.24-.78-1.85,2.19-2.72,3.6-5.39,5.77-8.14.16-.2,0-1.67,1-1.37l2.38,0"
                      transform="translate(0 0)"/>
            </g>
            <g class="cls-45">
                <path class="cls-51"
                      d="M168.43,506.17c-.36.44-.65.83-1.11.13-3.81-5.9-7.58-11.65-11.71-17.34-.79-1.08-.67-1.71.41-2.32a16.39,16.39,0,0,0,3.17-2.12c1-1,1.53-.68,2.66.1a26.79,26.79,0,0,0,4.85,2.57c3.7,1.58,7.52,2.77,11.33,4,.4.12,1,.29,1.41.45a2.82,2.82,0,0,1-.68,1.19c-2.16,2.77-3.35,5.76-5.87,8.23-.08.07-3.1,3.43-4.46,5.12"
                      transform="translate(0 0)"/>
            </g>
            <text class="cls-15" transform="translate(120.28 559.61)">DELIVERER</text>
        </g>
        <g id="other">
            <rect width="230" height="200" transform="translate(1091.86 590.89)" fill-opacity="0"/>
            <g class="cls-5">
                <path class="cls-6" d="M1287.12,755a34,34,0,1,0-34-34,34,34,0,0,0,34,34" transform="translate(0 0)"/>
            </g>
            <g class="cls-54">
                <path class="cls-55"
                      d="M1224.14,669.53a50.23,50.23,0,0,0-1.79,13.11c0,5.69-1.67,11.08-2.59,16.61-1,5.79-4.56,10.16-7.88,14.68a12,12,0,0,1-3.75,4.67c-2.34,2-4.75,4-7.11,6-5.77,4.94-12.32,5.29-19.26,3.42a18.43,18.43,0,0,1-6.87-3.53c-4.17-3.38-8.09-7.06-11.9-10.83-3.57-4.28-7.2-8.5-9.51-13.66a34.66,34.66,0,0,1-3.2-13.38,8.37,8.37,0,0,0-.29-2.44,74.69,74.69,0,0,1-3.47-16.88,76,76,0,0,1,.17-14.7c.26-2.84-.67-5.62-.94-8.44a78.38,78.38,0,0,1,.26-20,32.49,32.49,0,0,1,1.91-7.11c.41-1.64,1.3-3.1,1.78-4.71a20.31,20.31,0,0,0,1.85-3.59c.47-.93,1-1.81,1.56-2.69a12.44,12.44,0,0,0,1.15-1.88,6.59,6.59,0,0,1,.72-.95c.3-.37.6-.73.93-1.07s.79-.78,1.17-1.18a11.18,11.18,0,0,1,1.25-1.13,7.93,7.93,0,0,1,.86-.48c.59-.3,1.23-.48,1.8-.82.75-.42,1.59-.66,2.34-1.1a12,12,0,0,1,3.79-1.18,6.61,6.61,0,0,0,.89-.29,30.76,30.76,0,0,1,17.26-2.89c7.55.77,15,1.54,22.28,4a21,21,0,0,1,12.37,10.69c5.92,11.11,7.45,22.91,6.14,35.25,0,.25,0,.5,0,.75a3.61,3.61,0,0,1,.26,2.56,45.24,45.24,0,0,0-.58,11.63c.33,3-.25,6.13-.61,9.19a7.65,7.65,0,0,1-1,2.42"
                      transform="translate(0 0)"/>
            </g>
            <g class="cls-54">
                <path class="cls-56"
                      d="M1219.19,716.64c8.76,2.59,17.51,5.26,26.16,8.17,12.23,4.12,18.79,13.21,20.86,25.6a11.93,11.93,0,0,1,.37,4.12c-.57.44-1.24.23-1.86.23l-156.63,0c-1.27,0-2.56.14-2.46-1.72.9-5.69,2.19-11.29,5.49-16.17,3.84-5.68,8.59-10.33,15.42-12.45,8.24-2.31,16.36-5,24.5-7.61a4.53,4.53,0,0,1,2.78-.45c.87.5,1,1.43,1.29,2.24a41.26,41.26,0,0,0,15.39,20.57,40.27,40.27,0,0,0,14.3,6.33,8.47,8.47,0,0,0,4.71-.54,45.19,45.19,0,0,0,24.65-19.29,47.44,47.44,0,0,0,3.74-7.26c.28-.68.43-1.49,1.29-1.79"
                      transform="translate(0 0)"/>
            </g>
            <g class="cls-54">
                <path class="cls-57"
                      d="M1219.42,716.81c-4.34,11.76-12.5,20.56-23.78,26.24a3.54,3.54,0,0,0-.34.16c-6.21,3.88-12.31,3.2-18.63,0-11.27-5.69-16.57-12.58-21.92-25.17-.19-.46-1-1.57-.78-1.68,2.77-1.19,5.48-2.1,8.67-3.13,3.67,3.39,8,7.22,11.93,10.34,6,4.81,12.78,6,20.16,4.09a10.12,10.12,0,0,0,3.56-1.71,86.83,86.83,0,0,0,13.59-12c2.07,1.49,5.17,2.28,7.54,2.88"
                      transform="translate(0 0)"/>
            </g>
            <g class="cls-54">
                <path class="cls-57"
                      d="M1224.14,669.53a77.2,77.2,0,0,0,.76-16.22c-.14-3.23.79-6.38,1.15-9.58,5.22,1.68,7.13,4.8,6.42,10.58-.76,6.17-3.27,11.4-8.33,15.22"
                      transform="translate(0 0)"/>
            </g>
            <g class="cls-54">
                <path class="cls-57"
                      d="M1186.73,673.88c1.4.2,2.76.35,4.08.61,4.23.85,6.54,3.62,7.39,7.68a6.45,6.45,0,0,1-2.62,6.85c-4.91,3.8-13.51,3.9-18.53.2-4.65-3.43-3.73-10.89,1.71-13.71a16.74,16.74,0,0,1,7.33-1.54,14.54,14.54,0,0,0-9.42-2.74c-5.66.33-9.87,3.16-13,7.82a18.83,18.83,0,0,0-1,1.63,2.28,2.28,0,0,1-2.24,1.44,2.31,2.31,0,0,1-2.11-1.64c-3.16-7.64-5.83-15.47-8.25-23.38a1.76,1.76,0,0,1-.09-.55c.64-11.71.25-23.56,5.24-34.63a8.31,8.31,0,0,1,3.36-3.91c4.31-2.59,9.1-3.75,14-4.45,11.77-1.68,23.44-1.33,34.92,2,.12,0,.25,0,.37.08,5.35,1.53,9,4.4,10.68,10.22a86.57,86.57,0,0,1,3.25,22.22,13,13,0,0,0,.11,2.08c1,5.22-.76,10-2.45,14.73-1.78,5-3.54,10-5.33,15-.39,1.1-.9,2.11-2.29,2.22s-2-.86-2.57-1.87c-4.76-8.09-13-11.14-20.77-7.64a3.34,3.34,0,0,0-1.85,1.28"
                      transform="translate(0 0)"/>
            </g>
            <g class="cls-54">
                <path class="cls-57"
                      d="M1147,667.65c-4.35-3.83-8-12.27-5.93-18.83a6.33,6.33,0,0,1,5.2-4.74,41.4,41.4,0,0,1,.66,14.55c-.31,3,.22,6,.07,9"
                      transform="translate(0 0)"/>
            </g>
            <g class="cls-14">
                <text class="cls-15" transform="translate(1093.86 787.89)">WEITERE PROFILE</text>
            </g>
            <text class="cls-7" transform="translate(1265.49 732.03)">2%</text>
        </g>
        <g id="voices">
            <g class="cls-5">
                <rect width="200" height="200" transform="translate(306.08 594.64)" fill-opacity="0"/>
            </g>
            <g class="cls-5">
                <path class="cls-6" d="M356.54,761.72A44.7,44.7,0,1,0,311.84,717a44.69,44.69,0,0,0,44.7,44.69"
                      transform="translate(0 0)"/>
            </g>
            <g class="cls-59">
                <path class="cls-60"
                      d="M379.87,761.72c.56-4.73,1.38-9.38,3.6-13.67a22.89,22.89,0,0,1,13.85-12c3.64-1.14,7-2.2,10.64-3.32a4,4,0,0,1,1.71-.14,27.51,27.51,0,0,0,.79,2.8c1.83,11.29,9.72,19.52,20.88,21,5.69.78,11.49.64,17-1.79,8.52-3.79,13.6-10.39,15.46-19.61a4.57,4.57,0,0,1,.7-2.18c.08-.53-.09-.46.85-.25,4.75,1.63,9.7,2.46,14.29,4.53,8,3.61,12.11,10.35,13.88,18.79a19.28,19.28,0,0,1,.64,5.81Z"
                      transform="translate(0 0)"/>
            </g>
            <g class="cls-59">
                <path class="cls-61"
                      d="M425.13,717c-1.45-.6-2.93-1.14-4.34-1.83-1-.51-2.11-1.08-2.2-2.49,0-.6-.59-.46-.94-.55-3.44-.91-6.06-2.78-7.26-6.28-.26-.77-.62-.94-1.44-.77A9.76,9.76,0,0,1,398,698.91c-.34-.94-.59-1.25-1.62-.83a3.07,3.07,0,0,1-3.73-.86c-1.25-1.4-3.22-1.93-4.28-3.61s-1.79-3.42-1.2-5.44a1.05,1.05,0,0,0-.67-1.43c-4.36-2.26-8.71-8.2-7.69-14,.39-2.25.25-4.26-1.89-5.66a1.07,1.07,0,0,1-.44-.6c-.84-3.4-2.67-6.61-1.89-10.31a10.71,10.71,0,0,1,1.39-3.85,3.4,3.4,0,0,0,.48-2.95,15.57,15.57,0,0,1,2.8-13.68,1.05,1.05,0,0,0,.21-1.21c-1.75-4.18,1.31-9.85,6.59-10.37a2.26,2.26,0,0,0,.43-.11c-1.54-3.57-.58-8.31,3.84-10,.29-.11.53-.32.8-.44a6.52,6.52,0,0,0,4.28-4.43c.86-3.06,3.26-4.79,6.4-5.42a7.54,7.54,0,0,0,4.53-2.58,7.74,7.74,0,0,1,3.56-2.52,1.34,1.34,0,0,0,.27-.13c3.78-2.54,7.8-3.76,12.38-2.61a5.66,5.66,0,0,0,3.45-.42c4.78-2,9.58-1.3,14.38-.19a5.18,5.18,0,0,0,3.68-.33c4.69-2.4,11.41-.46,14.12,3.19a2.4,2.4,0,0,0,2.53,1.18,2.59,2.59,0,0,1,2.16.56,3.89,3.89,0,0,0,3.65.77c4.26-.65,9.57,4,10.08,7.31.19,1.24,1.37,1.4,1.91,2.2a2.61,2.61,0,0,0,2.47,1.24c4.9,0,8.9,2.88,9.89,7a12.81,12.81,0,0,1,.19,1.65,9.44,9.44,0,0,0,.89,3.81,5.43,5.43,0,0,1,.18,4.72c-.46,1.1-.06,1.24.84,1.52A9.12,9.12,0,0,1,499,640.72a5.11,5.11,0,0,1-1.27,2.38c-.87.9-.94,1.8.05,2.62,3.24,2.69,3.6,8.93,0,12.44a1.37,1.37,0,0,0-.38,1.8,7.49,7.49,0,0,1-1.76,8.79,2.7,2.7,0,0,0-.8,2.6c.87,5.54-1,10.2-4.93,14.06a4.8,4.8,0,0,0-1.36,2.27,16.75,16.75,0,0,1-4.26,7.28,8.81,8.81,0,0,1-5.94,2.79c-1,.06-1.23.44-1.36,1.34a7.63,7.63,0,0,1-7.34,6.52,1.12,1.12,0,0,0-1.23,1A8.7,8.7,0,0,1,457,712.45c-1-.32-1.4-.35-1.79.77a7.29,7.29,0,0,1-6.36,5c-1.2-.69-.55-1.84-.72-2.8.09-1.72-.21-3.46.15-5.17.34-.79,1.12-1,1.79-1.33a41.36,41.36,0,0,0,9.73-6.24,18.93,18.93,0,0,0,5.47-8.65c.45-1.47.84-2.94,1.27-4.41a2.35,2.35,0,0,1,1.25-1.64c5.08-2.23,7.28-6.56,8.35-11.64a6.92,6.92,0,0,0-1.24-5.51c-1.18-1.67-2-1.9-3.91-1.12a1.5,1.5,0,0,1-1.87-.6,4.2,4.2,0,0,1-.63-3.78,18.5,18.5,0,0,0,.16-7.87c-.91-3.7-2.79-6.73-6.37-8.49-3.37-1.67-6.73-3.38-10.21-4.83a17.58,17.58,0,0,0-8.51-1.12,53.66,53.66,0,0,1-14.14-.61,8.27,8.27,0,0,0-5.33.81,114.75,114.75,0,0,0-10.23,6.08c-2.56,1.64-3.77,4.21-4.58,7a50,50,0,0,0-1.24,7.22,9.52,9.52,0,0,1-2.87,5.59c-.75.75-1.58,1.33-2.63.31-.63-.62-1.34-.24-1.95.18a6.12,6.12,0,0,0-2.59,4.8c-.4,5.07,3.44,11.41,8.14,13.45a2.34,2.34,0,0,1,1.45,1.63c.29,1,.63,2.05.87,3.09a20.7,20.7,0,0,0,9.75,13.12,40.81,40.81,0,0,0,6.29,3.44c.67.27,1.32.58,1.52,1.38a25.94,25.94,0,0,1,.09,4c-.16.91.54,2.17-1,2.54"
                      transform="translate(0 0)"/>
            </g>
            <g class="cls-59">
                <path class="cls-62"
                      d="M448.55,715.4c.19.92-.17,1.9.32,2.77a17.63,17.63,0,0,0,1.12,8.17,3.85,3.85,0,0,0,2.3,2.1l12.17,4.38c-1,9.08-5.29,16.21-13.34,20.44-9.09,4.77-18.66,5.11-28,.55-7.36-3.59-11.33-9.93-13-17.82-.25-1.17-.29-2.07-.45-3.26a4.11,4.11,0,0,0,1-.19c3.77-1.37,7.54-2.73,11.3-4.11a4.7,4.7,0,0,0,2.85-3.52c.62-2.28.47-4.64.77-6.95.05-.41-.27-.63-.45-.92,1.05-.64.24-1.73.61-2.54.47-.39,1-.16,1.45,0a35.1,35.1,0,0,0,19.67.07c.8-.23,1.67-.48,1.69.86"
                      transform="translate(0 0)"/>
            </g>
            <g class="cls-59">
                <path class="cls-62"
                      d="M425.75,710.19c-2.68-1.44-5.41-2.76-8-4.37-5.88-3.66-9-9.08-10.34-15.68-.23-1.15-.61-2-1.92-2.11a2,2,0,0,1-.95-.46c-4.24-3.28-6.92-7.44-6.91-12.94a6.09,6.09,0,0,1,3.42-5.86c.7-.35,1.45-.59,1.95.36s.95.44,1.45,0c2.49-2,3.26-4.8,3.49-7.83a28.18,28.18,0,0,1,1-5.23,12.36,12.36,0,0,1,6-8.06c2.75-1.53,5.4-3.25,8.12-4.83A10,10,0,0,1,430,642a52.37,52.37,0,0,0,14.74.46,14.41,14.41,0,0,1,7.15,1.13c3.29,1.35,6.46,3,9.69,4.44,6.24,2.84,8.66,9.1,7.72,15.43-.16,1-.37,2.1-.51,3.15a2.82,2.82,0,0,0,.77,2.39c.6.64,1.22,1,1.79,0,.42-.75,1-.52,1.58-.31,2.44.85,4.13,3.94,3.75,7.18a17,17,0,0,1-6.2,11.19,2.76,2.76,0,0,1-1.28.8c-1.94.24-2.24,1.66-2.6,3.19-1,4.25-2.52,8.28-5.81,11.36a39,39,0,0,1-12.09,7.55,3.49,3.49,0,0,1-1.84,1.26,30.53,30.53,0,0,0-3.3,1.13c-4.67,2.26-9.25,1.61-13.79-.31-1.34-.57-2.86-.74-4-1.82"
                      transform="translate(0 0)"/>
            </g>
            <g class="cls-59">
                <path class="cls-60"
                      d="M472.8,653c-.63-8.37-4.84-14.75-11.3-19.74a37.39,37.39,0,0,0-21.45-7.78c-10.83-.56-20.49,2.49-28.6,9.81-5.89,5.32-9.23,11.91-9.1,20-.5-.84-.78-2.37-.74-4.93.13-8.52,3.12-15.75,9.76-21.31a35.71,35.71,0,0,1,16.28-7.56c10.75-2.15,21.18-1.23,31,4,7.88,4.19,13,10.58,14.59,19.56a26.75,26.75,0,0,1,.1,8c-.17.23-.33.23-.49,0"
                      transform="translate(0 0)"/>
            </g>
            <g class="cls-59">
                <path class="cls-63"
                      d="M425.75,710.19c2.6.68,5.05,1.8,7.62,2.56a10.93,10.93,0,0,0,7.12.11,83.38,83.38,0,0,0,8.16-2.93c0,1.82-.07,3.64-.1,5.47-.25-.54-.51-.82-1.23-.58a33.82,33.82,0,0,1-12.72,1.48,37.29,37.29,0,0,1-8.86-1.8c0-1.44,0-2.87,0-4.31"
                      transform="translate(0 0)"/>
            </g>
            <g class="cls-59">
                <path class="cls-64" d="M472.8,653h.49a1.51,1.51,0,0,1-.42,1.4,2.46,2.46,0,0,1-.07-1.41"
                      transform="translate(0 0)"/>
            </g>
            <g class="cls-5">
                <g class="cls-14">
                    <text class="cls-15" transform="translate(398.08 794.64)">VOICES</text>
                </g>
            </g>
            <text class="cls-7" transform="translate(332.48 729.48)">4%</text>
        </g>
        <g id="laptop">
            <g xmlns="http://www.w3.org/2000/svg" class="cls-4"><path class="cls-5" d="M849.3,518.26a15.86,15.86,0,0,0-15.79,15.81V676.19A15.85,15.85,0,0,0,849.3,692h242.76a15.85,15.85,0,0,0,15.79-15.79V534.07a15.87,15.87,0,0,0-15.79-15.81Zm0,9h242.76a6.64,6.64,0,0,1,6.75,6.76V676.19a6.63,6.63,0,0,1-6.75,6.74H849.3a6.62,6.62,0,0,1-6.75-6.74V534.07a6.64,6.64,0,0,1,6.75-6.76" transform="translate(-162.84 -145.12)"/></g>
            <g xmlns="http://www.w3.org/2000/svg" class="cls-4"><path class="cls-5" d="M819.05,694.59c0,9.54,6.59,17.23,14.77,17.23h273.72c8.18,0,14.77-7.69,14.77-17.23Zm174.22,6.13H948.1a1.26,1.26,0,1,1,0-2.52h45.17a1.26,1.26,0,0,1,0,2.52" transform="translate(-162.84 -145.12)"/></g>
            <rect width="253" height="151" transform="translate(681.06 384.87)" fill-opacity="1" fill="#312f30"/>
        </g>
            <line class="cls-65" x1="304.88" y1="461.86" x2="603.68" y2="461.86"/>
            <path class="cls-66" d="M611.34,461.86h0m-321.78,0h0" transform="translate(0 0)"/>
            <line class="cls-65" x1="1019.66" y1="461.86" x2="1318.46" y2="461.86"/>
            <path class="cls-66" d="M1326.12,461.86h0m-321.78,0h0" transform="translate(0 0)"/>
            <line class="cls-67" x1="1020.18" y1="518.26" x2="1081.12" y2="579.2"/>
            <path class="cls-66" d="M1086.66,584.74h0m-77.56-77.56h0" transform="translate(0 0)"/>
            <line class="cls-68" x1="1017.37" y1="405.77" x2="1154.22" y2="323.55"/>
            <path class="cls-66" d="M1160.73,319.63h0m-156.39,94h0" transform="translate(0 0)"/>
            <line class="cls-68" x1="467.98" y1="327.46" x2="604.82" y2="409.69"/>
            <path class="cls-66" d="M611.34,413.6h0m-156.4-94h0" transform="translate(0 0)"/>
            <line class="cls-69" x1="702.32" y1="295.98" x2="723.27" y2="345.34"/>
            <path class="cls-66" d="M726.27,352.39h0m-29.93-70.51h0" transform="translate(0 0)"/>
            <line class="cls-67" x1="600.26" y1="518.26" x2="539.32" y2="579.2"/>
            <path class="cls-66" d="M533.78,584.74h0m77.56-77.56h0" transform="translate(0 0)"/>
            <line class="cls-69" x1="915.55" y1="295.98" x2="894.6" y2="345.34"/>
            <path class="cls-66" d="M891.61,352.39h0m29.93-70.51h0" transform="translate(0 0)"/>
        </g>
    </g>
</svg>