<?xml version="1.0" encoding="utf-8"?>
<!-- Generator: Adobe Illustrator 16.0.4, SVG Export Plug-In . SVG Version: 6.00 Build 0)  -->
<!DOCTYPE svg PUBLIC "-//W3C//DTD SVG 1.1//EN" "http://www.w3.org/Graphics/SVG/1.1/DTD/svg11.dtd">
<svg version="1.1" id="Ebene_1" xmlns="http://www.w3.org/2000/svg" xmlns:xlink="http://www.w3.org/1999/xlink" x="0px" y="0px"
	 width="500px" height="500px" viewBox="0 0 500 500" enable-background="new 0 0 500 500" xml:space="preserve">
	<defs>
        <style>* {pointer-events:none;}</style>
    </defs>
<path fill-rule="evenodd" clip-rule="evenodd" fill="#F01788" d="M54.687,503.578c-1.456-18.18,5.635-33.901,14.242-49.152
	c3.6-6.377,7.939-12.224,13.395-17.178c2.892-1.035,5.397,0.202,7.926,1.331c1.207,0.696,1.707,1.838,1.906,3.14
	c2.513,16.389,9.96,30.351,20.96,42.551c0.57,0.475,0.81,1.269,1.551,1.681c-0.916-0.951-1.264-2.093-1.585-3.262
	c-0.609-8.628,2.455-15.987,8.308-22.058c3.204-3.326,5.742-7.834,11.153-8.333c11.469,2.728,22.617,6.588,33.932,9.852
	c24.204,6.969,48.525,13.321,73.661,15.93c22.187,2.312,44.145-0.056,66.051-3.295c16.351-2.429,32.006-7.085,46.743-14.652
	c10.679-5.481,20.396-12.402,29.705-19.933c3.477-2.809,7.113-5.388,11.072-7.465c3.938-2.064,8.026-3.107,12.355-1.067
	c18.267,4.961,26.909,19.176,33.139,35.263c4.626,11.937,6.221,24.275,1.059,36.648C311.735,503.578,183.213,503.578,54.687,503.578
	z"/>
<path fill-rule="evenodd" clip-rule="evenodd" fill="#DDAF90" d="M406.064,431.667c-7.346-0.733-13.355,2.344-18.842,6.734
	c-12.968,10.386-26.384,20.034-41.723,26.739c-18.927,8.267-39.017,11.117-59.303,13.625c-40.823,5.036-79.822-3.465-118.5-14.88
	c-11.883-3.506-23.685-7.289-35.523-10.94c0.305-3.279,3.274-3.528,5.402-4.502c9.302-4.281,19.28-6.421,29.149-8.897
	c11.043-2.763,21.373-7.085,30.821-13.563c14.327-9.81,24.763-22.76,31.363-38.722c3.529-8.535,3.513-17.675,3.459-26.777
	c-0.016-2.599-0.765-5.466,1.489-7.676c2.421-1.176,3.228-9.477-0.35-11.399c-0.445,0.14-0.894,0.21-1.359,0.21
	c-19.472-5.745-37.981-13.541-54.509-25.562c-1.157-0.843-2.337-1.649-3.198-2.824c-0.227-0.415-0.356-0.958-0.701-1.216
	c-14.955-11.483-22.039-27.518-25.99-45.285c-0.979-4.399-2.217-7.71-7.45-8.814c-4.203-0.887-7.371-4.29-10.212-7.537
	c-8.084-9.244-14.341-19.452-15.622-31.984c-0.744-7.28,0.209-14.251,5.285-20.064c1.616,1.35,1.696,3.339,2.167,5.169
	c0.313,1.222,0.379,2.706,1.802,3.149c1.736,0.545,2.667-0.864,3.405-2.032c4-6.326,8.218-12.551,9.998-19.991
	c0.787-2.391,0.532-4.719-0.409-7.011c-1.415-6.58-0.044-8.099,6.415-6.394c21.614,5.708,43.635,8.939,65.828,11.201
	c3.646,0.37,7.333-0.133,10.959,0.572c1.919,0.634,3.882,0.732,5.878,0.487c15.391-0.046,30.778-0.082,46.164-0.016
	c1.985,0.245,3.956,0.203,5.878-0.46c24.846-1.849,49.365-5.71,73.515-11.9c5.29-1.355,6.342-0.451,6.703,4.637
	c-0.845,3.192-0.97,6.411-0.264,9.651c1.054,6.302,2.759,12.372,6.316,17.792c1.13,1.729,2.158,3.854,4.544,3.694
	c2.635-0.175,2.703-2.744,3.368-4.621c1.681-4.742,2.405-4.996,5.862-1.938c2.516,8.318,4.041,16.67,1.246,25.272
	c-3.776,11.623-9.908,21.671-19.45,29.45c-1.346,1.091-2.873,2.468-4.452,2.679c-5.911,0.771-7.406,4.922-8.267,9.787
	c-5.699,32.228-27.854,49.917-55.612,62.396c-4.363,1.965-5.832,4.182-5.586,8.854c0.696,13.182,0.223,26.428,2.253,39.546
	c1.203,7.771,4.827,12.972,12.797,15.387c26.603,8.06,53.099,16.466,79.629,24.768C389.737,421.372,398.657,425.062,406.064,431.667
	z"/>
<path fill-rule="evenodd" clip-rule="evenodd" fill="#442500" d="M377.879,200.322c-3.025-1.979-4.367-1.472-4.796,2.44
	c-0.234,2.208-0.607,5.455-3.956,5.684c-2.881,0.198-4.302-1.962-5.723-4.217c-3.562-5.664-5.527-11.846-6.611-18.371
	c-0.349-3.149-0.419-6.294,0.053-9.437c0.346-5.404,0.322-5.489-4.895-4.108c-18.254,4.829-36.888,7.689-55.503,10.551
	c-6.226,0.958-74.532,1.938-76.153,1.417c-14.319-0.335-28.508-2.234-42.618-4.349c-12.068-1.811-23.95-4.91-35.899-7.498
	c-5.35-1.164-5.481-1.09-4.099,4.033c0.166,0.616,0.278,1.247,0.417,1.865c0.51,2.179,0.366,4.367,0.092,6.555
	c-1.94,7.797-6.432,14.335-10.507,21.058c-0.882,1.452-2.194,3.083-4.202,2.434c-1.757-0.572-2.335-2.305-2.6-4.103
	c-0.293-1.993-0.746-3.963-1.129-5.944c-1.115-7.386-3.745-14.405-4.969-21.791c-10.167-61.301,20.826-120.701,76.95-147.159
	c1.576-0.74,3.154-1.475,4.73-2.215c3.974-3.815,9.2-4.939,14.199-6.411c25.686-7.553,51.417-7.39,77.145-0.137
	c3.368,0.95,6.661,2.067,9.37,4.415c31.714,12.426,56.443,33.075,72.521,63.22C388.905,124.271,391.455,161.775,377.879,200.322z"/>
<path fill-rule="evenodd" clip-rule="evenodd" fill="#442500" d="M233.558,353.375c-0.07,9.071,0.703,18.235-1.374,27.136
	c-3.755,16.087-13.229,28.73-25.17,39.711c-14.09,12.956-31.404,18.909-49.615,23.087c-8.821,2.02-17.615,4.342-25.226,9.637
	c-11.152,7.093-18.553,16.403-18.04,30.413c0.339,1.058,0.74,2.157-1.095,2.056c-12.084-11.982-19.205-26.489-22.001-43.205
	c-0.154-0.918-0.474-1.816-0.715-2.719c-2.632-2.803-1.666-5.77-0.386-8.743c0.983-28.771,13.715-50.959,37.467-67.009
	c6.049-4.079,12.004-8.314,18.07-12.37c14.038-9.397,24.658-21.366,28.966-38.136c4.926,1.522,8.424,5.348,12.703,7.934
	c13.428,8.098,27.856,13.82,42.656,18.716c0.925,0.311,1.771,0.568,2.474,1.231C234.967,344.967,234.39,349.155,233.558,353.375z"/>
<path fill-rule="evenodd" clip-rule="evenodd" fill="#442500" d="M297.175,25.035c-14.311-4.886-28.964-7.997-44.13-8.452
	c-19.635-0.592-38.425,3.305-56.584,10.584C219.332-8.111,273.232-9.252,297.175,25.035z"/>
<path fill-rule="evenodd" clip-rule="evenodd" fill="#580746" d="M113.039,485.414c0.938-0.382,0.757-1.357,1.095-2.056
	c0.74,1.066,1.394,2.353,0.449,3.37C114.152,487.196,113.33,486.17,113.039,485.414z"/>
<path fill-rule="evenodd" clip-rule="evenodd" fill="#B2917B" d="M233.531,353.469c-0.431-4.089-1.329-8.755-1.76-12.844
	c0.446-0.062,1.896,0.208,3.479,0.375c4.083,0.5,8.073,1.113,10.083,1.75c9.917,2.833,17.917-0.083,22-1.75
	c7.172-3.146,9.666-5.25,15.332-6.667c0.639-0.009,1.275-0.308,4.084-0.916c-0.627,2.208-0.881,3.846-0.873,5.75
	c0.018,4.086,0.186,7.927,0.186,7.927s-4.418,2.031-9.309,3.323c-9.447,2.492-19.421,3.833-28.822,3.698
	C241.5,353.75,238.336,353.189,233.531,353.469z"/>
</svg>
