<?xml version="1.0" encoding="utf-8"?>
<!-- Generator: Adobe Illustrator 16.0.4, SVG Export Plug-In . SVG Version: 6.00 Build 0)  -->
<!DOCTYPE svg PUBLIC "-//W3C//DTD SVG 1.1//EN" "http://www.w3.org/Graphics/SVG/1.1/DTD/svg11.dtd">
<svg version="1.1" id="Ebene_1" xmlns="http://www.w3.org/2000/svg" xmlns:xlink="http://www.w3.org/1999/xlink" x="0px" y="0px"
	 width="500px" height="500px" viewBox="0 0 500 500" enable-background="new 0 0 500 500" xml:space="preserve">
	<defs>
        <style>* {pointer-events:none;}</style>
    </defs>
<path fill-rule="evenodd" clip-rule="evenodd" fill="#F2D4B3" d="M134.344,177.918c2.338,18.314,7.016,36.029,13.554,53.269
	c0.599,1.581,0.32,3.44,1.728,5.1c0.147,0.323,0.75-0.724,0.202-0.281c-0.217,0.175-0.393,0.118-0.487-0.19
	c-1.176-3.815-2.548-7.61-1.629-11.727c0.887-10.534,0.961-21.062-0.07-31.578c-0.667-6.542,0.968-12.86,2.111-19.185
	c2.643-14.624,6.394-28.992,11.094-43.097c2.425-7.279,2.512-7.364,10.434-7.185c3.082,0.069,6.332-0.688,9.135,1.355
	c0.276,0.601,0.176,1.131-0.303,1.588c-0.836,0.141-1.68,0.291-2.528-0.165c26.07-0.775,52.142-1.046,78.384-0.021
	c-1.272,0.684-2.453,0.266-3.611,0.232c-0.56-0.375-0.731-0.88-0.525-1.519c1.214-1.238,2.805-1.378,4.382-1.448
	c5.611-0.254,11.226-0.97,16.8-0.956c16.518,0.037,32.925-1.665,49.384-2.523c4.249-0.223,7.504,1.002,10.358,3.955
	c9.938,10.272,15.637,22.402,15.671,36.813c0.026,10.513-0.26,21.024-0.65,31.542c-0.415,11.139,0.472,22.417,2.118,33.539
	c0.411,2.761,0.81,5.519,0.722,8.218c2.551-11.318,4.378-22.805,5.766-34.374c0.564-4.687,0.278-9.501,1.885-14.049
	c0.624-1.634,0.851-3.432,1.966-4.87c10.11-1.722,19.198,5.601,21.036,18.605c1.413,5.795-0.436,13.165-0.724,14.975
	c-1.959,12.366-7.361,23.2-14.742,33.142c-1.036,1.392-2.264,2.693-4.196,2.859c-3.831,3.4-7.596,6.899-12.569,8.638
	c-3.774,10.121-6.049,20.758-10.452,30.652c-2.177,4.88-4.104,9.387-8.688,13.333c-9.55,9.341-17.14,17.61-28.208,25.313
	c-1.448,1.01-3.534,2.544-6.608,4.429c-18.779,14.581-38.604,25.771-63.808,20.338c-7.723-1.666-14.401-5.583-21.032-9.455
	c-4.944-2.881-10.359-5.292-14.179-9.874c-11.778-8.405-23.072-17.442-33.698-27.241c-4.894-4.512-8.195-10.438-10.674-16.65
	c-3.426-8.585-6.522-17.288-8.398-26.384c-0.357-1.737-0.506-3.65-2.731-4.686c-13.009-6.062-19.202-17.741-24.563-30.116
	c-5.066-11.698-6.593-24.326-1.959-35.734C118.923,181.109,134.135,176.291,134.344,177.918z"/>
<path fill-rule="evenodd" clip-rule="evenodd" fill="#167729" d="M1.5,499.969c1.607,0,5.997-31.754,24.034-55.807
	c11.14-14.856,28.354-24.869,47.996-29.927c24.953-6.425,49.243-14.82,73.982-21.878c7.305-2.086,14.29-5.18,21.957-6.136
	c2.515-0.359,4.833,0.411,7.163,1.108c50.388,15.167,93.923,5.35,145.493-5.33c4.056-0.84,11.752,3.464,13.897,4.114
	c25.379,7.704,50.697,15.592,76.158,23.041c11.661,3.414,24.343,6.394,35.452,11.438c22.006,9.992,35.975,27.646,43.123,43.21
	c2.678,5.833,12.319,37.333,11.07,36.165"/>
<path fill-rule="evenodd" clip-rule="evenodd" fill="#D86416" d="M359.663,184.951c-2.185,18.064-3.821,36.219-9.153,55.333
	c-0.953-5.717-1.786-9.975-2.339-14.271c-0.578-4.518-0.898-9.07-1.31-13.608c-1.208-13.308-0.191-26.615-0.013-39.926
	c0.114-8.396,0.548-16.805-1.92-25.074c-2.842-9.542-8.107-17.415-15.252-24.167c-1.31-1.235-2.65-2.126-4.651-1.949
	c-24.279,2.141-48.645,2.77-72.985,3.765c-4.804,1.959-9.797,0.609-14.701,0.858c-14.099-0.805-28.198-0.796-42.3-0.002
	c-4.907-0.262-9.918,1.137-14.72-0.885c-4.195-0.138-8.393-0.189-12.578-0.449c-1.939-0.122-3.359,0.076-4.044,2.214
	c-6.889,21.467-13.115,43.081-14.789,65.716c0.13,10.851-0.199,21.7-0.053,32.55c0.357,4.329,0.716,8.659,1.076,12.989
	c-5.511-9.953-8.773-20.657-11.742-31.468c-2.912-10.597-4.177-21.509-6.161-32.286c-0.382-4.584-0.892-25.064-0.396-32.411
	c0.433-17.202,3.267-34.139,8.345-50.444c3.117-10.002,11.041-17.535,18.879-24.562c2.049-1.838,7.279-7.704,25.784-15.655
	c1.011-0.424,11.391-6.467,27.261-9.117c1.204-0.039,12.521-1.471,16.916-2.545c4.025-3.048,8.903-2.432,13.474-3.132
	c2.518-2.396,0.018-4.213-0.994-5.844c-1.166-1.873-9.14-6.492-10.404-8.716c-4.331-3.132-8.985-5.438-14.462-5.637
	c0,0-17.394-1.768-23.408-2.817c-2.519-3.917,11.671-8.751,16.032-10.706c2.223-0.567,4.5-0.862,6.735-1.37
	c8.822-1.374,17.642-2.13,26.463-0.045c12.715,4.059,25.399,8.292,38.916,8.878c2.2,0.601,10.616,0.971,12.58,1.049
	c1.838,0.538,15.743,1.872,20.039,5c1.298,0.72,2.551,1.519,3.785,2.345c0.797,0.515,6.873,5.741,8.739,8.188
	c3.366,2.782,4.124,7.002,5.895,10.671c0.857,3.966,1.188,7.965,0.895,12.01c-0.401,2.039-0.856,4.064-1.665,5.988
	c-0.848,2.858-4.401,5.362-1.129,8.756c1.383,1.52,13.093,13.371,14.734,14.61c0.622,0.638,2.749,3.885,3.388,4.731
	c0.263,0.344,2.005,2.872,2.57,3.828c0.709,1.268,1.235,2.612,1.714,3.978c0.855,2.992,1.785,5.967,2.013,9.096
	c0.051,1.86,0.51,3.74-0.314,5.549c0.7,3.524,1.4,7.046,2.101,10.573c3.039,5.136,3.357,21.239,3.982,23.536
	c0.245,2.711,0.504,11.923,0.541,13.809C361.017,161.037,359.956,181.721,359.663,184.951z"/>
<path fill-rule="evenodd" clip-rule="evenodd" fill="#F2D4B3" d="M317.377,383.04c-15.527,6.713-28.525,13.478-45.186,15.416
	c-32.966,3.839-65.353,0.977-96.788-10.238c-1.623-0.578-3.193-1.308-4.789-1.965c2.833-2.245,6.355-2.93,9.673-3.746
	c8.573-2.118,12.321-8.273,13.587-16.123c0.913-5.65,1.166-11.296,1.52-17.232c0.518-0.397,0.733-0.337,1.202,0.115
	c1.335,1.818,2.324,3.938,4.392,5.146c17.925,10.479,36.829,16.381,57.758,11.653c10.989-2.477,21.407-6.633,31.238-12.204
	c1.642-0.929,3.21-2.237,5.335-1.8c0.363,3.31,1,5.218,1.565,8.045c0.729,3.65,1.603,6.603,2.665,10.136
	c1.7,5.672,5.712,8.938,11.216,10.904C314.257,382.395,313.044,381.707,317.377,383.04z"/>
<path fill-rule="evenodd" clip-rule="evenodd" fill="#E9C09C" d="M295.233,352.281c-17.081,10.279-35.04,18.18-55.495,16.719
	c-15.066-1.067-29.088-6.042-41.751-14.548c-2.224-1.487-2.414-2.703-2.664-4.735c0.347-3.349,0.283-4.594,0.327-6.831
	c0.045-3.188,0.088-6.382,0.132-9.569c7.429,4.216,14.733,8.679,22.318,12.598c19.978,10.33,39.409,8.404,58.434-2.896
	c6.133-3.646,11.785-8.143,18.548-10.711c0.091,3.472,0.177,6.946,0.271,10.425C295.47,345.972,295.328,347.809,295.233,352.281z"/>
<path fill-rule="evenodd" clip-rule="evenodd" fill="#F3DCC7" d="M251.979,125.625c2.755,0,5.518,0,8.273,0
	c0,0.266-0.007,0.531-0.007,0.796c-28.978,0-57.955,0-86.933,0c-0.029-0.268-0.057-0.536-0.083-0.802c2.382,0,4.765,0,7.148,0
	c6.383-1.125,12.869-0.674,19.279-0.859c16.763-0.479,33.55-0.283,50.317,0.374C250.69,125.162,251.362,125.261,251.979,125.625z"/>
<path fill-rule="evenodd" clip-rule="evenodd" fill="#F3DDC8" d="M282.437,125.413c-3.748,0-7.495,0-11.245,0
	C274.934,124.404,278.683,124.472,282.437,125.413z"/>
<path fill-rule="evenodd" clip-rule="evenodd" fill="#56D66B" d="M313.812,405.875c-9.902,5.411-22.53,8.001-33.354,10.391
	c-15.161,3.346-30.619,4.602-46.162,4.488c-1.528-0.013-17.86-1.129-20.797-1.754c-0.372-0.226,15.869,0.32,15.995,0.102
	s0.252-0.332,0.38-0.332c27.363,1.154,57.033-4.067,82.688-13.895c0.787-0.299-1.361,1.232-0.497,1.132L313.812,405.875z"/>
<path fill-rule="evenodd" clip-rule="evenodd" fill="#56D66B" d="M229.875,418.77c0,0.338,0.32,0.898,0.312,1.23
	c-30.062,0.875-73.052-14.731-84.852-24.166C171.973,409.248,199.923,417.754,229.875,418.77z"/>
<path fill-rule="evenodd" clip-rule="evenodd" fill="#56D66B" d="M311.625,405.312c8.456-4.203,17.354-7.706,25.806-11.902
	c-7.928,5.306-22.878,13.223-32.306,15.34L311.625,405.312z"/>
<path fill-rule="evenodd" clip-rule="evenodd" fill="#DA7911" d="M237.191,124.442c-14.009-0.005-28.018-0.009-42.029-0.014
	c1.475-1.4,3.316-0.852,5.009-0.86c10.672-0.046,21.347-0.046,32.021,0C233.881,123.576,235.725,123.028,237.191,124.442z"/>
<path fill-rule="evenodd" clip-rule="evenodd" fill="#D86416" d="M148.05,278.476c16.343,20.898,35.919,37.573,61.356,46.382
	c11.132,3.854,22.285,4.234,33.048-1.566c2.422-1.309,5.053-1.709,7.479-0.516c21.072,10.374,38.64,2.04,55.629-10.111
	c14.171-10.136,26.28-22.253,36.327-36.476c0.297-0.42,0.773-4.408,2.412-0.55c-4.576,24.778-18.39,43.456-38.335,58.089
	c-3.191,2.343-6.354,4.719-9.529,7.08c-1.392,2.077-3.452,3.281-5.586,4.479c-12.436,6.984-25.828,10.948-40.005,11.375
	c-17.658,0.531-34.3-3.373-49.09-13.612c-1.615-1.118-2.883-2.447-3.732-4.194c-14.677-10.669-28.969-21.753-39.534-36.833
	c-4.468-6.375-8.139-13.169-10.736-20.52C147.378,280.44,146.319,279.323,148.05,278.476z"/>
</svg>
