<?xml version="1.0" encoding="utf-8"?>
<!-- Generator: Adobe Illustrator 16.0.4, SVG Export Plug-In . SVG Version: 6.00 Build 0)  -->
<!DOCTYPE svg PUBLIC "-//W3C//DTD SVG 1.1//EN" "http://www.w3.org/Graphics/SVG/1.1/DTD/svg11.dtd">
<svg version="1.1" id="Ebene_1" xmlns="http://www.w3.org/2000/svg" xmlns:xlink="http://www.w3.org/1999/xlink" x="0px" y="0px"
	 width="500px" height="500px" viewBox="0 0 500 500" enable-background="new 0 0 500 500" xml:space="preserve">
	<defs>
        <style>* {pointer-events:none;}</style>
    </defs>
<path fill-rule="evenodd" clip-rule="evenodd" fill="#442217" d="M368.162,238.616c-3.729,13.312-5.432,27-5.552,40.697
	c-0.154,17.691-5.171,34.451-8.055,51.614c-3.024,17.981-14.148,31.573-24.478,45.597c-2.266,6.144-6.942,10.435-11.644,14.532
	c-7.256,6.316-14.759,12.354-22.068,18.604c-17.932,15.35-38.296,16.415-59.844,10.626c-7.836-2.111-15.002-5.816-21.35-10.972
	c-12.965-10.511-25.122-21.924-36.98-33.664c-11.092-13.276-22.361-26.398-29.539-42.428c-5.935-13.258-9.563-27.002-9.921-41.556
	c-0.063-2.562-0.104-5.126-0.925-7.582c-5.715-17.038-9.09-34.561-10.779-52.434c-1.582-15.252-0.834-30.438,0.552-45.672
	c0.802-8.822-2.086-17.456-2.949-26.22c-2.405-20.754-2.062-41.482,0.832-62.16c1.064-7.597,3.171-14.959,5.935-22.111
	c1.267-5.087,4.022-9.623,5.52-14.629c2.135-3.6,4.363-7.161,5.74-11.159c1.464-2.875,3.167-5.611,4.856-8.356
	c1.309-1.867,2.607-3.739,3.569-5.822c0.585-1.108,1.457-2.006,2.244-2.966c0.921-1.143,1.855-2.28,2.885-3.336
	c1.218-1.205,2.44-2.404,3.628-3.647c1.252-1.214,2.45-2.496,3.89-3.503c0.852-0.557,1.751-1.027,2.659-1.488
	c1.833-0.927,3.825-1.498,5.596-2.567c2.349-1.287,4.937-2.055,7.262-3.394c3.833-1.551,7.547-3.471,11.792-3.686
	c0.919-0.288,1.894-0.471,2.748-0.894c16.983-8.36,34.511-10.928,53.625-8.98c23.468,2.395,46.64,4.795,69.208,12.331
	c17.672,5.899,29.776,16.937,38.439,33.208c18.388,34.518,23.139,71.187,19.08,109.501c-0.08,0.778-0.023,1.569-0.027,2.351
	c1.523,2.531,1.226,5.218,0.811,7.964c-1.808,11.97-3.128,23.844-1.803,36.111c1.018,9.417-0.777,19.049-1.911,28.548
	C370.87,233.907,369.366,236.177,368.162,238.616z"/>
<path fill-rule="evenodd" clip-rule="evenodd" fill="#186B5C" d="M352.787,384.952c27.22,8.055,54.411,16.337,81.271,25.378
	c38.018,12.808,58.394,41.046,64.829,79.521c0.712,4.23,1.908,8.456,1.147,12.824c-1.781,1.353-3.858,0.699-5.783,0.699
	c-162.205,0.04-324.406,0.028-486.608,0.059c-3.945,0-7.948,0.422-7.625-5.327c2.785-17.691,6.781-35.075,17.059-50.254
	c11.933-17.632,26.679-32.089,47.896-38.682c25.595-7.182,50.824-15.483,76.109-23.616c2.788-0.899,5.522-2.378,8.64-1.429
	c2.689,1.574,3.101,4.446,4.009,6.987c9.31,26.102,24.757,47.766,47.79,63.893c13.476,9.435,28.296,15.98,44.441,19.678
	c5.173,1.181,9.927-0.104,14.635-1.698c32.677-11.097,58.453-30.785,76.584-59.919c4.488-7.207,8.422-14.695,11.618-22.557
	C349.657,388.388,350.124,385.871,352.787,384.952z"/>
<path fill-rule="evenodd" clip-rule="evenodd" fill="#F3D3B3" d="M353.52,385.481c-13.505,36.534-38.837,63.869-73.878,81.522
	c-0.352,0.173-0.737,0.289-1.072,0.5c-19.285,12.065-38.233,9.925-57.864,0.018c-35.025-17.66-51.481-39.072-68.098-78.181
	c-0.605-1.424-3.193-4.888-2.437-5.215c8.61-3.725,17.04-6.534,26.942-9.724c11.393,10.521,24.939,22.414,37.056,32.118
	c18.657,14.936,39.709,18.536,62.64,12.689c4.055-1.035,7.664-2.802,11.043-5.299c15.195-11.201,29.646-23.23,42.227-37.388
	C336.533,381.158,346.135,383.634,353.52,385.481z"/>
<path fill-rule="evenodd" clip-rule="evenodd" fill="#F3D3B3" d="M368.162,238.616c2.793-16.716,3.121-33.505,2.372-50.419
	c-0.447-10.003,2.46-19.812,3.579-29.744c16.198,5.218,22.142,14.914,19.932,32.864C391.689,210.485,383.908,226.74,368.162,238.616
	z"/>
<path fill-rule="evenodd" clip-rule="evenodd" fill="#F3D3B3" d="M251.966,252.109c4.357,0.644,8.557,1.085,12.679,1.91
	c13.118,2.63,20.304,11.25,22.957,23.845c1.824,8.647-1.083,15.84-8.149,21.29c-15.263,11.799-41.964,12.096-57.572,0.605
	c-14.458-10.645-11.573-33.818,5.312-42.583c6.554-3.396,13.675-4.444,22.766-4.771c-9.843-6.682-19.161-9.111-29.246-8.521
	c-17.607,1.021-30.679,9.808-40.244,24.274c-1.081,1.641-2.064,3.339-2.981,5.077c-1.495,2.821-3.567,4.657-6.964,4.474
	c-3.359-0.183-5.332-2.121-6.557-5.079c-9.821-23.764-18.118-48.06-25.622-72.638c-0.17-0.557-0.312-1.163-0.28-1.734
	c1.979-36.366,0.777-73.173,16.283-107.552c2.403-5.329,5.609-9.264,10.443-12.163c13.391-8.049,28.249-11.633,43.458-13.812
	c36.562-5.232,72.802-4.138,108.483,6.278c0.374,0.11,0.776,0.125,1.155,0.234c16.618,4.762,27.886,13.661,33.154,31.759
	c6.626,22.755,9.524,45.61,10.106,69.028c0.051,2.155-0.054,4.363,0.349,6.46c3.11,16.214-2.348,30.972-7.611,45.774
	c-5.52,15.512-11.012,31.031-16.558,46.524c-1.227,3.417-2.806,6.565-7.105,6.901c-4.357,0.346-6.152-2.68-7.996-5.808
	c-14.778-25.147-40.507-34.621-64.521-23.732C255.666,249.079,253.294,249.684,251.966,252.109z"/>
<path fill-rule="evenodd" clip-rule="evenodd" fill="#F3D3B3" d="M128.528,232.778c-13.523-11.897-24.742-38.136-18.433-58.514
	c2.534-8.194,8.87-14.097,16.164-14.736c3.838,14.931,3.579,30.073,2.038,45.217C127.341,214.133,129.002,223.435,128.528,232.778z"
	/>
</svg>
